<?xml version="1.0" encoding="UTF-8" standalone="no"?>
<svg
   xmlns:dc="http://purl.org/dc/elements/1.1/"
   xmlns:cc="http://creativecommons.org/ns#"
   xmlns:rdf="http://www.w3.org/1999/02/22-rdf-syntax-ns#"
   xmlns:svg="http://www.w3.org/2000/svg"
   xmlns="http://www.w3.org/2000/svg"
   viewBox="0 0 142.98666 53.946667"
   height="53.946667"
   width="142.98666"
   xml:space="preserve"
   id="svg2"
   version="1.1"><metadata
     id="metadata8"><rdf:RDF><cc:Work
         rdf:about=""><dc:format>image/svg+xml</dc:format><dc:type
           rdf:resource="http://purl.org/dc/dcmitype/StillImage" /></cc:Work></rdf:RDF></metadata><defs
     id="defs6" /><g
     transform="matrix(1.3333333,0,0,-1.3333333,0,53.946667)"
     id="g10"><g
       transform="scale(0.1)"
       id="g12"><path
         id="path14"
         style="fill:#969ea4;fill-opacity:1;fill-rule:nonzero;stroke:none"
         d="m 638.113,185.625 c 0,0 -1.875,6.895 -1.875,11.992 v 79.793 h 31.977 V 123.699 l -102.324,84.735 c -5.481,4.652 -8.711,9.851 -8.711,9.851 0,0 1.609,-5.719 1.609,-10.687 l -0.027,-80.43 h -31.977 v 153.113 l 101.399,-83.035 c 5.421,-4.609 9.929,-11.621 9.929,-11.621 v 0" /><path
         id="path16"
         style="fill:#969ea4;fill-opacity:1;fill-rule:nonzero;stroke:none"
         d="m 927.539,277.41 c 50.625,0 63.613,-19.972 63.613,-48.676 0,-20.828 -15.324,-41.187 -46.211,-43.617 l -3.386,-0.156 c 0,0 2.988,-0.527 6.101,-3.535 l 56.084,-54.258 h -43.342 l -78.281,79.492 h 38.996 c 34.903,0 35.907,18.395 36.16,23.055 0.657,11.922 -3.164,21.476 -29.8,21.476 H 882.922 V 127.168 H 849.68 V 277.41 h 77.859 v 0" /><path
         id="path18"
         style="fill:#969ea4;fill-opacity:1;fill-rule:nonzero;stroke:none"
         d="m 682.59,200.137 c 0,62.953 52.691,79.476 96.973,79.476 17.734,0 33.433,-1.582 49.941,-5.078 l 0.059,-31.914 c -9.512,2.906 -28.594,9.309 -50,9.309 -41.973,0 -62.368,-16.301 -62.368,-51.793 0,-29.063 21.977,-47.578 62.368,-47.578 21.406,0 42.847,5.097 53.218,8.925 l -0.047,-30.957 c -16.504,-3.496 -35.437,-5.644 -53.171,-5.644 -47.305,0 -96.973,22.988 -96.973,75.254 v 0" /><path
         id="path20"
         style="fill:#4fbe37;fill-opacity:1;fill-rule:nonzero;stroke:none"
         d="m 322.914,273.543 31.168,-29.355 c -0.84,-0.379 -1.824,-0.844 -2.969,-1.434 -1.793,-0.93 -3.957,-2.184 -6.535,-3.965 -5.137,-3.551 -11.851,-9.172 -20.406,-18.434 l -60.914,-64.468 c -10.453,-11.024 -21.063,-19.774 -30.934,-24.383 l -31.172,29.355 c 0.844,0.391 1.832,0.84 2.969,1.446 1.793,0.918 3.953,2.175 6.524,3.965 5.132,3.543 11.843,9.16 20.406,18.418 l 60.902,64.363 c 10.457,11.027 21.09,19.879 30.961,24.492 v 0" /><path
         id="path22"
         style="fill:#4fbe37;fill-opacity:1;fill-rule:nonzero;stroke:none"
         d="m 202.246,117.695 c 13.789,0 26.442,2.735 35.035,7.196 3.934,2.043 9.535,5.578 14.367,9.328 4.805,3.75 11.594,9.578 17.372,15.703 L 330,214.199 c 15.371,16.211 24.617,21.207 30.219,23.18 l 31.297,-29.625 c -6.539,-6.992 -84.387,-89.902 -84.387,-89.902 -5.32,-5.723 -10.906,-11.25 -14.695,-14.747 -3.649,-3.3706 -9.907,-8.3706 -13.137,-10.7417 -18.301,-13.418 -42.766,-24.2969 -75.703,-24.2969 -74.61,0 -134.9768,60.7426 -134.9768,130.6836 0,86.762 67.7888,137.109 129.5508,137.109 18.91,0.555 34.105,-2.617 46.102,-6.699 11.097,-3.781 19.48,-8.34 25.554,-11.445 -7.179,-4.602 -14.133,-10.875 -25.601,-23.125 l -12.504,-13.434 c -2.879,1.098 -15.656,5.551 -32.071,5.063 -39.597,-1.172 -82.937,-33.301 -81.378,-85.965 1.457,-49.258 42.066,-82.559 83.976,-82.559 v 0" /><path
         id="path24"
         style="fill:#4fbe37;fill-opacity:1;fill-rule:nonzero;stroke:none"
         d="m 317.555,279.707 c -3.938,-2.047 -9.535,-5.578 -14.371,-9.332 -4.805,-3.738 -11.59,-9.574 -17.368,-15.691 l -60.98,-64.286 c -15.371,-16.21 -24.621,-21.199 -30.223,-23.171 l -31.293,29.609 c 6.539,6.992 84.383,89.902 84.383,89.902 5.324,5.723 10.91,11.25 14.699,14.75 3.649,3.375 9.903,8.375 13.133,10.746 18.305,13.414 42.785,24.297 75.727,24.297 74.613,0 134.953,-60.738 134.953,-130.672 0,-86.777 -67.785,-137.109 -129.551,-137.109 -18.91,-0.5664 -34.105,2.6172 -46.098,6.6992 -11.128,3.7891 -19.519,8.3594 -25.605,11.4649 7.598,5.1172 14.094,10.7422 25.648,23.0859 l 12.504,13.438 c 2.883,-1.094 15.657,-5.547 32.075,-5.059 39.597,1.172 82.937,33.301 81.375,85.976 -1.458,49.243 -42.09,82.547 -83.997,82.547 -13.789,0 -26.418,-2.726 -35.011,-7.195 v 0" /></g></g></svg>