<svg xmlns="http://www.w3.org/2000/svg" width="132.541" height="41.594" viewBox="0 0 35.068 11.005"><path style="fill:#58595b;stroke-width:.26458332" d="M206.18 342.037h.03a.13.13 0 0 0 .038-.003.023.023 0 0 0 .011-.01.038.038 0 0 0 .005-.02.032.032 0 0 0-.006-.021.026.026 0 0 0-.016-.01h-.063v.065zm-.043.147v-.255h.088a.123.123 0 0 1 .05.007.05.05 0 0 1 .023.024.083.083 0 0 1 .01.04.078.078 0 0 1-.014.048.062.062 0 0 1-.04.024.108.108 0 0 1 .021.021.356.356 0 0 1 .024.042l.027.05h-.05l-.03-.056a.344.344 0 0 0-.023-.038.034.034 0 0 0-.013-.01.066.066 0 0 0-.02-.004h-.009v.106h-.042zm-.094-.128a.175.175 0 1 1 .173.198.187.187 0 0 1-.173-.198m-.032 0a.206.206 0 1 0 .205-.232.22.22 0 0 0-.204.232m-18.217-1.43.255 1.603h-.2l-.137-.897-.387.937h-.02l-.378-.926-.148.873h-.21l.286-1.591.47 1.15zm1.026.12v1.483h.745v-.209h-.546v-.495h.526v-.214h-.526v-.357h.546v-.208h-.746zm2.153-.017-.255.49h-.02l-.25-.48h-.229l.368.705-.424.778h.233l.297-.547h.014l.286.542h.235l-.408-.767.383-.723h-.23zm.92 1.494h.198v-1.489h-.2v1.49zm2.01-.35a.527.527 0 0 1-.378.17c-.46-.017-.48-.559-.48-.559a.54.54 0 0 1 .455-.556.484.484 0 0 1 .403.163v-.255a.627.627 0 0 0-.37-.123.781.781 0 0 0 0 1.551.628.628 0 0 0 .37-.122zm1.069-.22h.397l-.186-.478h-.016zm.212-.992.638 1.557h-.232l-.139-.356h-.564l-.148.362h-.23l.653-1.562h.02zm1.276-.022.003 1.585h.215v-1.027l.959 1.106h.016v-1.58h-.211v1.038l-.969-1.122h-.015zm3.965.813h-.556v.214h.337a.425.425 0 0 1-.423.368c-.485-.03-.465-.571-.465-.571a.51.51 0 0 1 .458-.54.56.56 0 0 1 .445.23l.132-.141a.626.626 0 0 0-.56-.291.714.714 0 0 0-.685.753.728.728 0 0 0 .678.771c.434 0 .634-.342.634-.772v-.028m1.057-.028a.246.246 0 0 0 .234-.254.214.214 0 0 0-.194-.22l-.148.005v.469h.106zm.555.795h-.245l-.388-.597h-.031v.604h-.204v-1.49h.326a.41.41 0 0 1 .419.418.43.43 0 0 1-.28.44zm.684.011h.204v-1.499h-.204v1.5zm1.016-1.5v1.501h.606v-.214h-.402v-1.286h-.204zm1.265 0v1.501h.609v-.214h-.407v-1.286h-.203z" transform="translate(-171.586 -331.43)"/><path style="fill:#d83827;stroke-width:.26458332" d="M185.394 333.727a5.479 5.479 0 0 1 .19-.519.952.952 0 0 0 .127-.573l-.058-.822c-.01-.196-.113-.217-.162-.217l-.238.01a.326.326 0 0 0-.238.14.086.086 0 0 0-.007.011l-.312.609c-.22.43-.892 1.913-.9 1.929a18.222 18.222 0 0 0-.905 2.598 8 8 0 0 0-.206 1.557 5.077 5.077 0 0 0 .205 1.262c.085.27.3.866.322.931a5.005 5.005 0 0 0 .738 1.389.318.318 0 0 0 .231.111.2.2 0 0 0 .034-.003l.013-.003a2.498 2.498 0 0 0 .995-.377.548.548 0 0 0 .279-.482c0-.24-.013-.704-.017-.818v-.027a99.57 99.57 0 0 0-.18-2.632v-.013l.005-.01a2.69 2.69 0 0 0 .28-1.001.33.33 0 0 0-.063-.286.216.216 0 0 0-.207-.013.134.134 0 0 1-.138.014.077.077 0 0 1-.033-.058.4.4 0 0 0-.293-.347.17.17 0 0 1-.1-.039.132.132 0 0 1 0-.113zm-.806 4.502h.117a.175.175 0 0 1 .166.192l-.037 1.626a.642.642 0 0 1-.208.412.056.056 0 0 1-.065-.027 1.248 1.248 0 0 1-.104-.508c-.009-.144-.05-.897-.019-1.515a.189.189 0 0 1 .03-.127.14.14 0 0 1 .12-.054zm-6.856-1.782a.452.452 0 0 1 .059.326 2.537 2.537 0 0 1-.091.549c-.118.447-.829.686-.836.688a.132.132 0 0 0-.09.096 4.665 4.665 0 0 1-.01.546c-.062.523-.927.759-1.375.811a9.204 9.204 0 0 1-1.632.116c-.377 0-.683-.012-.795-.017l-.005-.1.002.1a.387.387 0 0 1-.358-.118 3.263 3.263 0 0 1-.305-.53 7.252 7.252 0 0 1-.564-2.257 2.164 2.164 0 0 1 .243-1.27 3.218 3.218 0 0 1 .886-.91l.657-.488.09-.067h-.198a1.647 1.647 0 0 1-.547-.025.332.332 0 0 1-.067-.029.1.1 0 0 1-.03-.14.296.296 0 0 1 .046-.053c.106-.08.678-.466.892-.609a11.424 11.424 0 0 1 2.96-1.392 2.447 2.447 0 0 1 .792-.083.1.1 0 0 1 .08.048 1.178 1.178 0 0 1 .126.358c.046.433.053.783.055.88a.078.078 0 0 1 0 .013c-.044.66-.352.923-.444.988a.098.098 0 0 1-.044.017 7.961 7.961 0 0 0-1.55.623 12.971 12.971 0 0 0-1.737 1 3.576 3.576 0 0 0-.912.861.35.35 0 0 0-.033.342.489.489 0 0 0 .432.138 12.21 12.21 0 0 0 2.988-.208 10.295 10.295 0 0 0 1.127-.238.291.291 0 0 1 .152.011.1.1 0 0 1 .034.023zm4.233 2.518a7.02 7.02 0 0 1-.099-1.505c.008-.438.134-1.283.136-1.296a.96.96 0 0 0-.01-.32.1.1 0 0 0-.013-.03 8.365 8.365 0 0 0-.91-1.18.201.201 0 0 0-.289-.037l-.08.07a.163.163 0 0 1-.142.067.225.225 0 0 1-.139-.1.252.252 0 0 0-.189-.09.145.145 0 0 0-.1.055l-.011.014a37.03 37.03 0 0 1-.733.683.101.101 0 0 0-.023.032.199.199 0 0 0 .004.178l.005.014a.24.24 0 0 1-.043.154c-.115.185-.66 1.183-.661 1.185a5.03 5.03 0 0 0-.43 1.046 6.305 6.305 0 0 0-.135 1.309.855.855 0 0 0 .209.508.28.28 0 0 0 .342.147l.02-.008c.207-.03.775-.576.78-.58.07-.066.276-.251.864-.764l.039-.033.05.042.004.007c.132.268.56 1.011.693 1.243a.271.271 0 0 0 .143.132.099.099 0 0 0 .023.004c.081.02.188.05.188.05l.362.1a.46.46 0 0 0 .117.017.159.159 0 0 0 .123-.044.212.212 0 0 0 .032-.169zm-1.828-1.981-.022.026c-.198.176-.68.607-.88.818a.222.222 0 0 1-.137.113l-.017-.003a.223.223 0 0 1-.05-.224 1.64 1.64 0 0 1 .258-.727 2.483 2.483 0 0 1 .33-.484l.004-.004a.433.433 0 0 1 .344.135.354.354 0 0 1 .168.35zm9.316-.966a1.888 1.888 0 0 0 .236-.87.097.097 0 0 0-.015-.04 1.07 1.07 0 0 0-.785-.408 3.296 3.296 0 0 0-.837-.027 1.713 1.713 0 0 0-.274.13.097.097 0 0 0-.014.008 5.92 5.92 0 0 0-1.287 1.643 3.165 3.165 0 0 0-.393 1.526 1.645 1.645 0 0 0 .27.983 1.826 1.826 0 0 0 1.099.8 3.272 3.272 0 0 0 .548.047 1.923 1.923 0 0 0 .73-.125.474.474 0 0 0 .315-.372.784.784 0 0 1 .092-.274.303.303 0 0 1 .152-.116.452.452 0 0 0 .268-.328l.01-.39v-.01a.101.101 0 0 0-.008-.03.146.146 0 0 0-.044-.064.288.288 0 0 0-.256-.027 1.4 1.4 0 0 1-.816-.032 1.13 1.13 0 0 1-.418-.31.124.124 0 0 1-.033-.076.106.106 0 0 1 .03-.077c.012-.011 1.205-1.108 1.43-1.56zm-.676-.127a3.916 3.916 0 0 1-.51.577 3.128 3.128 0 0 1-.494.357l-.023-.015v-.032a1.832 1.832 0 0 1 .24-.657.866.866 0 0 1 .356-.418.414.414 0 0 1 .434.144l.011.024zm10.627 2.473a.276.276 0 0 0-.255-.277 5.106 5.106 0 0 1-.694-.202 6.606 6.606 0 0 1-1.848-1.096 5.591 5.591 0 0 1-.914-.912l-.045-.058.058-.004c.45-.03 1.554-.127 1.756-.144a5.468 5.468 0 0 0 1.141-.198c.818-.196.74-.693.74-.7a7.558 7.558 0 0 0-.14-1.02c-.06-.217-.14-.656-.14-.658-.067-.458-.681-.764-.683-.765a7.694 7.694 0 0 0-1.748-.612 8.234 8.234 0 0 0-1.34-.155 1.012 1.012 0 0 0-.38.075l-.647.224a3.831 3.831 0 0 1-.62.145.324.324 0 0 0-.338.295 3.45 3.45 0 0 1-.06.518.253.253 0 0 0 .045.177.214.214 0 0 0 .146.073l.24.023a.237.237 0 0 1 .165.118.232.232 0 0 1 .015.154l-.088.731a25.233 25.233 0 0 0-.273 2.562 17.46 17.46 0 0 0 .08 2.268.069.069 0 0 0 .002.013.708.708 0 0 0 .22.383 3.498 3.498 0 0 0 .489.259.537.537 0 0 0 .245.075.217.217 0 0 0 .118-.031.338.338 0 0 0 .129-.238c.04-.304.09-.91.09-.927a.479.479 0 0 1 .073-.34l.009-.008.009.006c.458.32 1.469.906 1.482.913a6.473 6.473 0 0 0 1.407.552.548.548 0 0 0 .192-.019.177.177 0 0 0 .047-.031c.241-.234.653-.623.655-.625a.794.794 0 0 1 .438-.203.288.288 0 0 0 .207-.124.28.28 0 0 0 .02-.193zm-2.23-3.654a16.745 16.745 0 0 1-1.846.432l-.03.005.006-.047c.068-.515.21-1.339.211-1.347l.003-.018.012-.007a1.005 1.005 0 0 1 .51.022 8.33 8.33 0 0 1 1.611.388.3.3 0 0 1 .23.185c-.007.148-.261.288-.708.386zm5.183.843a.672.672 0 0 1 .146.487 26.355 26.355 0 0 0-.241 1.799c0 .006-.222 1.53-.242 1.66a.421.421 0 0 1-.17.27.318.318 0 0 1-.17.045.62.62 0 0 1-.232-.053 3.534 3.534 0 0 1-.62-.303l-.01-.008a.754.754 0 0 1-.222-.328 27.363 27.363 0 0 1-.152-.635.228.228 0 0 0-.223-.18h-.195c-.098-.016-.139-.11-.133-.276a3.169 3.169 0 0 1 0-.635 1.413 1.413 0 0 1 .302-.64 4.838 4.838 0 0 1 1.502-1.26 1.03 1.03 0 0 1 .463-.154.099.099 0 0 1 .053.023.888.888 0 0 1 .144.187zm.37-2.106a.309.309 0 0 1-.068.38l-1.09 1.016a.285.285 0 0 1-.21.089.415.415 0 0 1-.241-.09l-.521-.394a.163.163 0 0 1-.077-.198.1.1 0 0 1 .017-.029l.77-.928a.618.618 0 0 1 .225-.153l.764-.256a.17.17 0 0 1 .14-.005.225.225 0 0 1 .108.15zm3.6 2.093c-.764-.81-1.3-.887-1.305-.889a1.003 1.003 0 0 0-.346-.064.777.777 0 0 0-.52.188l-.837.949a.285.285 0 0 0-.005.335.885.885 0 0 1 .066.568 13.52 13.52 0 0 0-.16 1.402 7.461 7.461 0 0 0 .05 1.22.678.678 0 0 0 .272.483.609.609 0 0 0 .318.078 1.838 1.838 0 0 0 .707-.187 3.258 3.258 0 0 0 .984-1.003 6.564 6.564 0 0 0 .943-2.115c.11-.653-.138-.936-.167-.966zm-1.965 2.173a.139.139 0 0 1-.106-.046l-.013-.019a1.918 1.918 0 0 1-.064-.79.252.252 0 0 1 .04-.201.037.037 0 0 1 .024-.01.023.023 0 0 1 .008 0 2.114 2.114 0 0 1 .74.478l.012.015-.005.021a.322.322 0 0 1-.096.16 1.03 1.03 0 0 1-.538.39v.099z" transform="translate(-171.586 -331.43)"/></svg>