<?xml version="1.0" encoding="UTF-8" standalone="no"?>
<svg
   xmlns:dc="http://purl.org/dc/elements/1.1/"
   xmlns:cc="http://creativecommons.org/ns#"
   xmlns:rdf="http://www.w3.org/1999/02/22-rdf-syntax-ns#"
   xmlns:svg="http://www.w3.org/2000/svg"
   xmlns="http://www.w3.org/2000/svg"
   xmlns:sodipodi="http://sodipodi.sourceforge.net/DTD/sodipodi-0.dtd"
   xmlns:inkscape="http://www.inkscape.org/namespaces/inkscape"
   height="400"
   viewBox="0 0 400 400"
   width="400"
   version="1.1"
   id="svg133"
   sodipodi:docname="einstein_bros_bagels_logo.svg"
   inkscape:version="1.0.1 (3bc2e813f5, 2020-09-07)">
  <metadata
     id="metadata139">
    <rdf:RDF>
      <cc:Work
         rdf:about="">
        <dc:format>image/svg+xml</dc:format>
        <dc:type
           rdf:resource="http://purl.org/dc/dcmitype/StillImage" />
      </cc:Work>
    </rdf:RDF>
  </metadata>
  <defs
     id="defs137" />
  <sodipodi:namedview
     pagecolor="#ffffff"
     bordercolor="#666666"
     borderopacity="1"
     objecttolerance="10"
     gridtolerance="10"
     guidetolerance="10"
     inkscape:pageopacity="0"
     inkscape:pageshadow="2"
     inkscape:window-width="1758"
     inkscape:window-height="1156"
     id="namedview135"
     showgrid="false"
     inkscape:zoom="0.315"
     inkscape:cx="-661.12988"
     inkscape:cy="233.50221"
     inkscape:window-x="0"
     inkscape:window-y="0"
     inkscape:window-maximized="0"
     inkscape:current-layer="svg133" />
  <g
     fill-rule="evenodd"
     id="g131">
    <path
       d="m 191.167,93.227 c -37.082,3.206 -69.99,25.51 -86.643,58.725 -1.044,2.082 -1.84,3.843 -1.768,3.915 0.071,0.071 1.993,-0.942 4.27,-2.252 4.315,-2.482 15.199,-7.94 15.846,-7.945 0.259,-0.002 0.224,-0.536 -0.117,-1.76 -2.145,-7.706 6.795,-10.671 13.842,-4.591 1.337,1.154 2.497,2.031 2.578,1.951 0.081,-0.081 0.831,-1.713 1.666,-3.625 9.56,-21.882 24.424,-29.833 40.748,-21.797 10.4,5.119 15.286,20.901 10.894,35.188 -0.131,0.428 0.179,0.577 1.548,0.739 9.082,1.075 8.446,9.941 -1.038,14.479 l -3.301,1.579 -0.013,1.37 c -0.012,1.314 0.066,1.417 1.933,2.57 8.107,5.004 8.893,13.92 1.892,21.482 l -2.171,2.344 v 2.549 c 0,2.511 0.016,2.558 1.041,3.118 0.572,0.312 2.432,1.486 4.133,2.608 l 3.093,2.04 7.859,-5.04 c 8.464,-5.428 8.405,-5.379 6.791,-5.71 -12.501,-2.571 -16.969,-16.376 -8.101,-25.027 l 2.787,-2.719 -0.639,-0.959 c -3.594,-5.395 -1.624,-14.047 3.536,-15.527 1.774,-0.508 2.061,-0.762 2.299,-2.033 0.517,-2.755 2.97,-5.764 5.632,-6.909 2.283,-0.982 7.352,-0.866 8.78,0.201 l 0.925,0.691 2.079,-1.452 c 10.106,-7.065 23.9,-8.29 36.796,-3.269 4.429,1.725 5.559,2.085 7.719,2.463 1.043,0.183 3.068,0.845 4.5,1.471 1.622,0.71 3.43,1.222 4.797,1.359 1.206,0.121 3.065,0.447 4.131,0.724 2.51,0.654 2.556,0.927 -0.649,-3.854 C 267.283,108.16 229.449,89.918 191.167,93.227 m -40.053,48.266 c -5.057,0.918 -6.793,1.873 -4.167,2.293 4.129,0.66 9.876,5.103 12.58,9.723 1.33,2.274 1.399,2.333 3.166,2.709 4.083,0.869 15.559,0.415 19.081,-0.754 2.382,-0.791 2.352,-1.251 -0.237,-3.704 -9.351,-8.859 -19.433,-12.261 -30.423,-10.267 m 96.719,-0.145 c -4.094,0.634 -8.061,2.016 -13.321,4.64 -2.926,1.46 -5.405,2.519 -5.507,2.354 -0.691,-1.119 -5.702,-1.502 -7.159,-0.548 -1.137,0.745 -2.065,2.271 -2.71,4.456 -0.403,1.366 -0.695,1.794 -1.333,1.954 -4.837,1.214 -6.923,5.521 -4.91,10.137 l 0.632,1.45 5.154,-0.069 c 4.231,-0.057 5.6,0.048 7.642,0.589 1.368,0.362 2.493,0.628 2.5,0.591 1.305,-7.016 11.645,-9.946 16.925,-4.798 l 1.432,1.396 1.911,-0.485 1.911,-0.485 0.003,-1.515 c 0.01,-6.347 3.268,-12.955 8.18,-16.59 1.172,-0.868 2.021,-1.688 1.886,-1.823 -0.946,-0.946 -9.806,-1.786 -13.236,-1.254 m 41.659,8.902 c 7.526,12.763 -0.829,29.713 -15.273,30.984 l -2.282,0.201 0.193,0.965 c 1.022,5.109 9.313,9.131 13.778,6.683 1.957,-1.073 17.318,-18.465 18.836,-21.326 1.97,-3.715 -6.411,-15.306 -13.43,-18.573 -2.885,-1.343 -3.151,-1.187 -1.822,1.066 m -167.325,1.286 c -5.032,2.56 -15.262,8.552 -16.436,9.627 -0.353,0.323 0.13,1.224 2.519,4.702 3.945,5.741 7.249,10.909 9.589,15 l 1.925,3.364 1.473,-0.275 c 2.212,-0.413 4.449,-1.51 5.837,-2.862 l 1.241,-1.209 -1.475,-1.577 c -7.171,-7.667 -7.866,-18.961 -1.666,-27.081 1.493,-1.955 1.434,-1.949 -3.007,0.311 m 147.119,4.85 c -4.315,2.502 -2.851,8.961 2.159,9.525 3.183,0.359 5.848,-2.415 5.478,-5.701 -0.42,-3.718 -4.39,-5.707 -7.637,-3.824 m -130.206,2.946 c -3.429,2.09 -3.2,7.404 0.388,9.033 3.568,1.621 7.312,-0.707 7.349,-4.568 0.037,-3.932 -4.406,-6.496 -7.737,-4.465 m 97.593,5.9 c -3.373,1.749 -3.64,6.498 -0.474,8.455 4.164,2.573 9.106,-1.971 6.884,-6.33 -1.202,-2.357 -4.106,-3.32 -6.41,-2.125 m 12.827,2.051 c -0.579,0.189 -0.67,0.523 -0.69,2.55 -0.113,11.208 -16.9,13.64 -19.8,2.87 -0.842,-3.127 -13.339,-3.51 -17.408,-0.534 -5.544,4.054 -6.013,9.778 -1.197,14.6 2.739,2.742 8.719,4.874 12.307,4.388 2.639,-0.357 5.168,1.208 8.608,5.327 11.853,14.192 31.877,13.072 43.821,-2.451 l 1.538,-1.998 -1.492,-0.874 c -3.155,-1.849 -6.52,-6.581 -6.52,-9.167 0,-0.436 -0.3,-0.714 -0.917,-0.849 -0.504,-0.111 -1.805,-0.487 -2.891,-0.837 -1.086,-0.35 -1.997,-0.6 -2.024,-0.556 -0.027,0.045 -0.45,0.781 -0.939,1.635 -1.895,3.31 -4.111,4.966 -7.491,5.598 -3.584,0.669 -9.405,-1.99 -9.405,-4.296 0,-1.661 2.316,-2.748 3.308,-1.553 0.731,0.881 2.724,1.578 4.513,1.578 3.893,0 7.301,-3.772 5.385,-5.961 -3.119,-3.563 -4.07,-4.888 -5.15,-7.169 -1.285,-2.713 -1.62,-2.93 -3.556,-2.301 m -87.834,1.467 c -3.001,11.811 -16.139,18.728 -27.313,14.38 l -2.48,-0.965 -1.482,1.584 c -1.623,1.735 -5.346,3.796 -7.471,4.136 -1.842,0.294 -1.987,0.876 -2.175,8.708 -0.356,14.791 2.671,28.224 9.622,42.705 6.169,12.855 13.758,19.06 23.27,19.028 4.288,-0.014 5.162,-0.793 8.289,-7.387 2.321,-4.894 3.643,-6.484 8.407,-10.107 9.725,-7.397 13.041,-15.355 15.177,-36.424 0.542,-5.352 0.54,-5.456 -0.147,-7.718 -0.952,-3.135 -0.924,-3.283 0.763,-4.006 8.693,-3.726 7.221,-17.335 -1.876,-17.349 l -1.25,-0.002 -0.004,-1.916 c -0.002,-1.055 -0.093,-2.458 -0.202,-3.119 l -0.199,-1.203 -5.548,-0.195 c -3.051,-0.108 -7.572,-0.504 -10.047,-0.88 -2.475,-0.376 -4.607,-0.684 -4.737,-0.685 -0.131,-0.001 -0.399,0.636 -0.597,1.415 m 8.994,1.501 c 4.571,2.296 2.859,9.413 -2.265,9.415 -2.045,0.001 -4.197,-1.691 -4.746,-3.733 -1.095,-4.065 3.24,-7.577 7.011,-5.682 m -41.987,19.097 c 1.543,1.878 3.53,1.931 11.16,0.301 5.898,-1.26 9.422,-0.45 12.479,2.867 l 1.287,1.396 2.376,-1.179 c 4.174,-2.073 6.724,-1.844 11.459,1.026 4.317,2.617 6.244,2.885 8.58,1.193 0.877,-0.636 1.997,-1.11 2.847,-1.206 l 1.4,-0.158 0.37,1.722 c 1.984,9.256 -3.003,16.325 -12.515,17.74 -5.88,0.875 -10.921,-2.404 -14.187,-9.227 l -1.121,-2.343 -1.593,1.75 c -8.282,9.102 -22.788,5.361 -26.56,-6.848 -1.818,-5.884 0.962,-10.751 4.018,-7.034 m 126.207,2.386 c 1.681,0.801 1.942,3.496 0.479,4.958 -2.827,2.828 -7.093,-1.247 -4.514,-4.311 1.124,-1.336 2.22,-1.512 4.035,-0.647 m 22.143,8.03 c -7.694,8.707 -14.97,12.561 -23.729,12.567 -9.708,0.007 -19.041,-4.03 -26.33,-11.388 l -2.631,-2.655 0.002,3.939 c 0.013,23.688 4.075,45.451 10.541,56.483 6.274,10.703 16.458,13.365 26.086,6.817 11.764,-8.002 19.008,-32.581 19.035,-64.591 0.004,-4.467 -0.045,-4.487 -2.974,-1.172 m -16.614,14.98 c 3.788,1.675 3.102,6.05 -1.889,12.053 -2.679,3.222 -2.678,2.827 -0.029,9.973 4.514,12.18 4.78,15.109 1.912,21.051 -3.931,8.147 -7.678,10.759 -11.311,7.887 -4.114,-3.252 -6.742,-7.511 -7.009,-11.359 -0.236,-3.407 2.836,-17.212 5.024,-22.578 l 0.79,-1.938 -2.758,-2.88 c -5.118,-5.345 -6.458,-9.909 -3.376,-11.503 2.865,-1.481 15.787,-1.971 18.646,-0.706"
       fill="#fafafa"
       id="path121"
       style="display:inline" />
    <path
       id="path123"
       style="display:inline"
       d="M 193.05664,0.05664062 C 190.58283,0.08023437 188.5835,0.13154688 187.5,0.21679688 137.179,4.1797969 94.820828,23.105156 60.048828,57.160156 c -39.246,38.438 -59.90504675,87.841874 -59.87304675,143.171874 0.058,100.215 73.14207775,184.36572 172.08007875,198.13672 18.712,2.604 44.88114,2.12956 63.24414,-1.14844 C 319.806,382.26931 386.12983,313.9 398.29883,229.5 c 1.823,-12.641 2.4074,-36.62914 1.1914,-48.86914 C 389.89523,84.029859 312.94797,8.421 216.16797,0.5 212.16597,0.17225 200.47808,-0.01414063 193.05664,0.05664062 Z m 7.75,5.31445318 c 3.16248,0.021753 6.33733,0.12075 9.52539,0.3007812 103.81,5.863 184.46603,90.908094 184.45703,194.496095 -0.012,120.781 -108.99551,212.42069 -228.10351,191.80469 C 65.556547,374.46866 -5.0566094,280.10633 6.6503906,178.11133 17.997359,79.253297 102.76992,4.6967643 200.80664,5.3710938 Z m 13.83789,15.0527342 c -0.0525,0.02443 -0.07,0.152469 -0.10937,0.277344 -0.228,0.72 -8.23391,53.047953 -8.12891,53.126953 0.195,0.145 8.59375,1.368953 8.59375,1.251953 0,-0.482 4.03205,-25.891422 4.12305,-25.982422 0.063,-0.063 3.1599,6.943313 6.8789,15.570313 3.718,8.627 6.85661,15.745359 6.97461,15.818359 0.242,0.149 8.53274,-53.088359 8.30274,-53.318359 -0.166,-0.166 -8.36499,-1.537063 -8.45899,-1.414063 -0.033,0.044 -0.83901,5.180063 -1.79101,11.414063 -0.952,6.233 -1.80358,11.546593 -1.89258,11.808593 -0.089,0.262001 -3.31874,-6.037999 -7.17774,-14 -6.19937,-12.790374 -7.08709,-14.658594 -7.31445,-14.552734 z M 190,21.667969 V 47.832031 74 h 4.83203 4.83594 V 47.832031 21.667969 h -4.83594 z m -16.75391,2.646484 c -0.043,-0.101 -5.40506,0.851235 -11.91406,2.115235 -6.508,1.263 -11.88045,2.34239 -11.93945,2.40039 -0.16,0.157 9.66039,50.634672 9.90039,50.888672 0.188,0.199 24.3384,-4.314281 24.69141,-4.613281 0.138,-0.118 -1.23869,-8.137125 -1.42969,-8.328125 -0.047,-0.046 -3.5055,0.592875 -7.6875,1.421875 -4.182,0.829 -7.65099,1.460343 -7.70899,1.402343 -0.245,-0.243999 -2.70343,-13.63814 -2.52343,-13.74414 0.109,-0.065 1.9242,-0.44375 4.0332,-0.84375 2.108,-0.4 4.52123,-0.874688 5.36523,-1.054688 l 1.53516,-0.326172 -0.81836,-4.066406 c -0.45,-2.236 -0.86206,-4.111969 -0.91406,-4.167968 -0.053,-0.056 -2.52991,0.363593 -5.50391,0.933593 -2.974,0.571 -5.45372,0.990594 -5.51172,0.933594 -0.058,-0.058 -0.61618,-2.759906 -1.24219,-6.003906 l -1.13671,-5.898438 0.86328,-0.169922 c 0.474,-0.092 3.71231,-0.721437 7.19531,-1.398437 3.483,-0.677 6.35767,-1.246672 6.38867,-1.263672 0.062,-0.035 -1.51458,-7.921797 -1.64258,-8.216797 z m -34.91406,7.712891 c -0.091,0.01 -5.5195,2.297937 -12.0625,5.085937 -6.543,2.788 -11.99519,5.167063 -12.11719,5.289063 -0.328,0.328 2.9458,7.966828 3.3418,7.798828 0.186,-0.079 1.9585,-0.829016 3.9375,-1.666016 l 3.59766,-1.521484 0.60351,1.410156 c 0.331,0.776 4.09428,9.660141 8.36328,19.744141 4.268,10.083 7.86428,18.44689 7.98829,18.58789 0.35599,0.401 8.86357,-3.300453 8.76757,-3.814453 -0.045,-0.243 -3.83682,-9.276218 -8.42383,-20.074218 -4.58799,-10.798001 -8.30095,-19.666032 -8.25195,-19.707032 0.05,-0.041 1.7788,-0.783437 3.8418,-1.648437 2.062,-0.866 3.75,-1.672969 3.75,-1.792969 0,-0.405 -3.16694,-7.707406 -3.33594,-7.691406 z m 143.7793,7.640625 c -0.183,0 -6.23327,9.635062 -13.44727,21.414062 -7.214,11.779 -13.31183,21.722703 -13.54883,22.095703 -0.438,0.688 9.85696,7.522891 14.25196,9.462891 7.116,3.141 13.94759,0.140984 18.30859,-8.041016 2.423,-4.546 2.52814,-7.085578 0.49414,-12.017578 -0.198,-0.481 -0.0627,-0.582031 0.78125,-0.582031 8.135,0 14.77791,-13.128625 10.25391,-20.265625 -1.529,-2.412 -15.20675,-12.066406 -17.09375,-12.066406 z M 101.10742,51.464844 c -1.03433,-0.0076 -2.07317,0.126094 -3.10742,0.402344 -8.11,2.167 -12.786375,11.31464 -9.359375,18.30664 3.26,6.65 8.268344,9.240797 19.027345,9.841797 7.425,0.414 9.54761,0.793516 11.72461,2.103516 3.319,1.994 4.03359,5.093156 1.68359,7.285156 -2.397,2.235 -4.38092,1.969937 -7.79492,-1.039063 l -1.55273,-1.36914 -3.20313,3.396484 -3.20508,3.396484 1.08985,1.13086 c 11.215,11.628998 30.38339,-0.03866 23.77539,-14.472656 -2.663,-5.818 -8.17894,-8.807844 -17.46094,-9.464844 -11.058,-0.783 -13.289532,-1.327969 -15.019532,-3.667969 -3.686,-4.986 2.961552,-9.360422 6.810542,-4.482422 0.27201,0.346 1.10279,-0.262156 3.80079,-2.785156 l 3.45117,-3.226563 -1.73633,-1.5625 c -2.76,-2.481749 -5.82084,-3.770187 -8.92383,-3.792968 z m 185.06446,0.203125 c 0.18599,-10e-4 1.12017,0.525922 2.07617,1.169922 3.499,2.357 3.56922,5.826078 0.19922,9.830078 -2.122,2.522 -6.08655,2.440406 -9.06055,-0.183594 -0.216,-0.191 6.44916,-10.815406 6.78516,-10.816406 z M 317.08008,63 c -0.2,0 -8.47186,8.361031 -18.38086,18.582031 l -18.01563,18.585939 3.5293,3.4082 3.52734,3.41211 5.55469,-5.74414 c 3.056,-3.158999 6.318,-6.555827 7.25,-7.548828 l 1.69141,-1.804687 1.38086,1.111328 c 1.756,1.411 2.14581,0.206985 -3.61719,11.208987 -2.75,5.25 -4.98008,9.638 -4.95508,9.75 0.079,0.355 6.93722,6.83459 7.07422,6.68359 0.071,-0.079 2.51945,-5.01856 5.43945,-10.97656 l 5.3086,-10.835939 2.98437,-0.0078 c 4.084,-0.012 6.1598,-1.072156 10.3418,-5.285157 C 331.87236,87.817063 333.26041,82.865 330.69141,77.5 329.59241,75.204 318.13708,63 317.08008,63 Z m -42.04492,6.347656 1.40039,0.865235 c 0.769,0.476 1.88261,1.325718 2.47461,1.886718 2.915,2.759 1.49493,8.27936 -3.03907,11.81836 -1.701,1.327 -7.10807,0.125437 -8.33007,-1.851563 -0.153,-0.249 0.71264,-1.745609 5.18164,-8.974609 z M 70.464844,73.902344 c -0.203,-0.119 -0.80775,0.34339 -1.34375,1.02539 -0.536,0.682 -1.754032,2.23036 -2.707032,3.44336 l -1.732421,2.205078 9.507812,7.417969 c 5.229,4.08 9.457531,7.470203 9.394531,7.533203 -0.111,0.111 -25.216484,-1.299985 -30.396484,-1.708985 l -2.646484,-0.208984 21.597656,16.863285 c 11.878,9.274 21.714375,16.85937 21.859375,16.85937 0.284,0 4.941172,-5.78689 5.201172,-6.46289 0.092,-0.241 -4.146938,-3.77281 -10.210938,-8.50781 -5.702,-4.452 -10.304515,-8.15547 -10.228515,-8.23047 0.138,-0.138 32.195504,3.03509 34.062504,3.37109 0.565,0.102 0.85196,0.0536 0.66796,-0.10937 -0.638,-0.566 -42.665386,-33.279236 -43.025386,-33.490236 z m 248.164066,2.037109 c 0.4862,0.07225 0.88492,0.626078 1.68554,1.439453 3.03,3.078 2.91233,5.135688 -0.51367,8.929688 -4,4.431 -6.40981,4.777015 -9.88281,1.416015 -2.043,-1.977 -2.31741,-1.391703 3.30859,-7.095703 3.54125,-3.590625 4.592,-4.809863 5.40235,-4.689453 z M 198.45508,87.597656 c -1.36967,0.01303 -2.74492,0.04881 -4.12305,0.109375 -44.181,1.942 -83.90361,31.061879 -99.474608,72.921879 l -1.535156,4.12695 -4.476563,4.625 c -19.645,20.299 -29.494109,42.8548 -25.912109,59.3418 3.591,16.529 12.529437,24.46915 33.398437,29.66015 8.989999,2.236 9.408609,2.44406 11.849609,5.91407 47.507,67.54099 149.77877,62.2777 190.00977,-9.7793 1.121,-2.008 2.24786,-3.75481 2.50586,-3.88281 0.258,-0.128 2.2707,-0.86191 4.4707,-1.62891 24.654,-8.595 39.59191,-27.385 35.37891,-44.5 -2.81701,-11.446 -9.66318,-21.23016 -31.95118,-45.66016 -6.866,-7.526 -7.355,-8.15062 -9.5,-12.14062 C 279.09005,109.5012 240.91493,87.193725 198.45508,87.597656 Z m -0.85938,5.197266 c 4.41572,0.01641 11.47955,0.263062 13.9043,0.539062 32.363,3.685 61.01286,21.347486 78.50586,48.396486 2.284,3.532 2.27303,3.38762 0.20703,2.76562 -0.873,-0.263 -2.89137,-0.64556 -4.48437,-0.85156 -1.919,-0.249 -3.73949,-0.75033 -5.39649,-1.48633 -1.375,-0.611 -3.69806,-1.33628 -5.16406,-1.61328 -1.467,-0.277 -3.492,-0.8694 -4.5,-1.3164 -13.517,-5.989 -29.5945,-4.93979 -39.4375,2.57421 l -1.55859,1.18946 -1.41993,-0.7461 c -5.209,-2.738 -11.6905,0.15793 -13.8125,6.16993 -0.709,2.011 -0.77118,2.07515 -2.49218,2.66015 -5.307,1.804 -7.14861,9.93856 -3.47461,15.35156 l 0.79687,1.17383 -1.71875,1.39258 c -10.171,8.256 -7.14081,21.54714 5.86719,25.74414 1.237,0.4 2.24047,0.80916 2.23047,0.91016 -0.02,0.205 -15.77622,10.35156 -16.07422,10.35156 -0.103,0 -1.36188,-0.80125 -2.79688,-1.78125 -1.436,-0.979 -3.24834,-2.13155 -4.02734,-2.56055 l -1.41797,-0.78125 v -2.70703 -2.70703 l 1.55078,-1.64844 c 7.546,-8.024 6.86333,-17.23951 -1.63867,-22.10351 -1.848,-1.058 -1.9093,-1.13838 -1.9043,-2.48438 l 0.004,-1.39453 3.23828,-1.49805 c 10,-4.633 10.55785,-13.00276 0.96485,-14.50976 -1.243,-0.196 -1.28036,-0.23867 -1.06836,-1.26367 4.521,-21.936 -3.85318,-36.39008 -21.70118,-37.45508 -12.311,-0.735 -22.72036,7.93069 -29.94336,24.92969 -0.776,1.825 -1.47945,3.38765 -1.56445,3.47265 -0.085,0.086 -1.19389,-0.75328 -2.46289,-1.86328 -7.588,-6.636 -16.12719,-3.33823 -13.61719,5.25977 0.185,0.635 0.0127,0.81854 -1.23633,1.31054 -2.703,1.064 -12.43015,6.05266 -16.03515,8.22266 -1.971,1.187 -3.58594,2.00055 -3.58594,1.81055 0,-0.611 4.80353,-9.63936 7.01953,-13.19336 13.911,-22.312 36.02874,-38.94808 61.42774,-46.205081 7.279,-2.08 13.33873,-3.104328 23.55273,-3.986328 0.61375,-0.053 1.79177,-0.07383 3.26367,-0.06836 z m 144.26563,5.740234 c -1.09764,0.02189 -2.22302,0.208344 -3.36133,0.582032 -2.238,0.734999 -3.26503,1.369752 -15.33203,9.468752 -16.016,10.747 -17,11.80462 -17,18.26562 0,10.158 10.39133,17.74839 18.86133,13.77539 3.199,-1.5 25.63236,-16.80661 27.44336,-18.72461 8.01397,-8.48703 -8.5e-4,-23.57881 -10.61133,-23.367184 z m -297.035158,8.828124 -2.400391,4.22656 -2.40039,4.22461 0.904297,0.55664 c 0.496999,0.305 10.203312,5.91485 21.570312,12.46485 11.367,6.55 21.117969,12.17876 21.667969,12.50976 l 1,0.60352 2.416015,-4.19531 c 1.329,-2.308 2.369547,-4.24569 2.310547,-4.30469 -0.058,-0.059 -9.621,-5.5985 -21.25,-12.3125 -11.629,-6.714 -21.747422,-12.55924 -22.482422,-12.99024 z m 298.580078,0.54883 c 0.75914,0.0782 1.22008,0.63672 1.96289,1.41797 2.169,2.28 2.01541,4.53744 -0.43359,6.39844 -1.562,1.188 -21.42691,14.58364 -23.25391,15.68164 -2.606,1.566 -4.46642,1.12784 -5.98242,-1.41016 -1.895,-3.174 -1.45706,-3.63814 12.21094,-12.86914 10.714,-7.23525 13.82598,-9.39073 15.49609,-9.21875 z m -309.763672,21.44141 -0.314453,0.82812 c -3.261,8.577 -7.953859,21.98892 -7.755859,22.16992 0.143,0.131 11.158562,4.20474 24.476562,9.05274 l 24.212891,8.81445 4.179687,-11.52539 c 2.299,-6.34 4.22911,-11.73238 4.28711,-11.98438 0.116,-0.504 -7.384063,-3.48275 -7.789063,-3.09375 -0.124,0.12 -1.365812,3.36022 -2.757812,7.19922 -1.393,3.84 -2.595828,7.0441 -2.673829,7.1211 -0.153,0.154 -12.51264,-4.23966 -12.93164,-4.59766 -0.141,-0.12 0.578609,-2.51908 1.599609,-5.33008 1.02,-2.811 1.735844,-5.22904 1.589844,-5.37304 -0.642,-0.637 -7.715375,-2.91525 -7.859375,-2.53125 -0.082,0.218 -0.937344,2.57051 -1.902344,5.22851 -0.964,2.659 -1.788078,4.87578 -1.830078,4.92578 -0.068,0.08 -11.213734,-3.89908 -11.427734,-4.08008 -0.048,-0.041 0.454234,-1.56095 1.115234,-3.37695 0.662,-1.815 1.786047,-4.91753 2.498047,-6.89453 l 1.294922,-3.59375 -0.910156,-0.35156 c -0.501,-0.194 -2.30386,-0.86047 -4.00586,-1.48047 z m 327.791012,5.6621 c -1.26426,-0.0524 -2.60473,0.0837 -4.00976,0.44141 -3.225,0.82 -5.86022,2.38528 -8.19922,4.86328 -2.221,2.355 -2.84366,3.46547 -7.34766,13.10547 -3.164,6.771 -7.29809,9.42147 -10.49609,6.73047 -3.014,-2.537 -1.66086,-6.60695 2.86914,-8.62695 0.779,-0.347 1.41797,-0.74572 1.41797,-0.88672 0,-0.267 -3.59322,-8.01219 -3.82422,-8.24219 -0.449,-0.449 -4.92933,2.32886 -6.86133,4.25586 -7.965,7.941 -2.98601,22.68441 7.95899,23.56641 8.328,0.671 13.55378,-3.73183 19.05078,-16.04883 2.852,-6.389 4.20895,-8.26122 6.75195,-9.32422 5.671,-2.369 8.49961,4.64786 2.97461,7.38086 l -1.28125,0.63476 1.77344,4.11524 c 0.975,2.264 1.84083,4.18262 1.92383,4.26562 0.083,0.083 1.06468,-0.33568 2.17968,-0.92968 12.44553,-6.63375 7.34036,-24.79421 -4.88086,-25.30079 z m -203.13671,5.8086 c 2.57632,0.0703 5.06959,0.40016 7.15234,1.0039 5.553,1.60901 11.17475,5.0504 15.96875,9.7754 1.421,1.401 2.58203,2.67121 2.58203,2.82421 0,1.822 -15.7432,3.2678 -21.4082,1.9668 -1.871,-0.43 -1.93105,-0.48 -2.99805,-2.5 -2.378,-4.507 -7.94175,-8.82761 -12.84375,-9.97461 -2.081,-0.488 -2.156,-0.68884 -0.5,-1.33984 3.22938,-1.26875 7.753,-1.87295 12.04688,-1.75586 z m 95.52539,0.38672 c 1.86263,0.0501 3.63714,0.25661 5.25976,0.63086 3.05,0.703 3.0656,0.73323 0.93359,2.11523 -5.042,3.267 -8.68359,10.06861 -8.68359,16.22461 v 2.375 l -2.0332,0.56641 -2.03321,0.56445 -1.49218,-1.37305 c -5.178,-4.773 -13.39671,-3.20468 -16.09571,3.07032 -0.804,1.868 -0.527,1.7997 -4,0.9707 -2.276,-0.544 -3.44284,-0.61417 -7.46484,-0.45117 l -4.76758,0.19336 -0.58789,-1.46485 c -2.02,-5.048 -0.87819,-7.9544 4.00781,-10.1914 1.445,-0.661 1.76355,-0.96819 1.93555,-1.86719 0.9,-4.721 6.29194,-7.26844 9.83594,-4.64844 0.801,0.593 0.96587,0.60983 1.54687,0.17383 5.87032,-4.41594 15.56728,-7.10592 23.63868,-6.88867 z m 18.23828,2.45312 c 0.97774,0.0356 1.98004,0.15405 3.00586,0.36524 7.662,1.578 13.60156,8.79339 13.60156,16.52539 0,15.316 -18.31291,22.98643 -29.00391,12.14843 -11.06343,-11.21625 -2.26973,-29.57252 12.39649,-29.03906 z m -130.05078,3.03906 c 1.68667,0.0425 3.40507,0.34422 5.10742,0.9375 12.926,4.504 15.53362,21.74643 4.51562,29.85743 -11.291,8.311 -26.99198,0.17339 -26.95898,-13.97461 0.0228,-9.72507 8.22789,-17.04984 17.33594,-16.82032 z m 145.875,1.21876 1.14062,0.24023 c 0.627,0.133 2.02642,0.7093 3.10742,1.2793 6.385,3.368 14.60627,14.85003 12.94727,18.08203 -1.053,2.051 -7.50816,9.66339 -15.28516,18.02539 -6.139,6.601 -13.77897,5.70975 -17.41797,-2.03125 -0.937,-1.993 -0.90395,-2.18346 0.37305,-2.18946 15.417,-0.083 24.73777,-19.0242 15.88477,-32.2832 z m -161.46875,1.6289 c 0.15,0.093 -0.1728,0.67688 -0.7168,1.29688 -6.383,7.269 -6.05825,19.26806 0.71875,26.66406 l 2.01367,2.19726 -0.66016,0.89649 c -0.963,1.306 -3.91482,2.97497 -6.04882,3.41797 -2.186,0.454 -2.05163,0.57 -4.39063,-3.75 -0.825,-1.524 -3.91895,-6.40466 -6.87695,-10.84766 l -5.37696,-8.07812 2.54493,-1.62305 c 7.039,-4.49 18.20597,-10.53583 18.79297,-10.17383 z m 145.33203,1.33008 c -0.554,0.007 -1.12132,0.0623 -1.70313,0.16797 -11.927,2.164 -9.85576,19.93684 2.24024,19.21484 2.92,-0.175 4.56931,-0.88358 6.44531,-2.76758 6.25031,-6.27468 1.32755,-16.72574 -6.98242,-16.61523 z m -131.13282,3.16406 c -0.62051,0.023 -1.17848,0.1043 -1.61523,0.24805 -10.825,3.562 -8.79,19.17259 2.5,19.18359 10.106,0.01 13.64288,-13.48187 4.79688,-18.29687 -1.39651,-0.7605 -3.8201,-1.20381 -5.68165,-1.13477 z m 131.03321,1.42774 c 0.53835,-0.0313 1.09851,0.0248 1.66601,0.1875 2.475,0.71 4.34794,3.69718 3.83594,6.11718 -0.979,4.619 -7.09642,5.81725 -9.73242,1.90625 -2.30125,-3.41425 0.46203,-7.99202 4.23047,-8.21093 z M 141.64258,158.375 c 0.7105,-0.003 1.42869,0.23303 2.36719,0.70703 5.038,2.546 3.39892,9.91797 -2.20508,9.91797 -5.615,0 -7.44138,-7.27744 -2.48438,-9.89844 0.9095,-0.481 1.61177,-0.72381 2.32227,-0.72656 z m 97.16406,6.20508 c 0.93513,-0.01 1.90058,0.23245 2.79883,0.7832 4.111,2.521 2.10256,9.13672 -2.77344,9.13672 -2.744,0 -4.77564,-1.82592 -5.05664,-4.54492 -0.31425,-3.048 2.22588,-5.3458 5.03125,-5.375 z m 12.55664,2.30469 c 0.83545,-0.003 0.96875,0.14887 0.96875,0.60937 0,0.985 2.40958,4.99839 4.51758,7.52539 2.467,2.958 2.54345,3.40577 0.93945,5.50977 -1.785,2.34 -6.07647,3.20515 -8.23047,1.66015 -0.399,-0.285 -1.0607,-0.76064 -1.4707,-1.05664 -1.765,-1.279 -3.82025,0.71994 -2.53125,2.46094 2.396,3.234 7.97458,4.22858 12.01758,2.14258 2.03,-1.047 2.62917,-1.72456 4.95117,-5.60156 0.341,-0.571 0.46278,-0.56519 2.67578,0.13281 1.275,0.403 2.54994,0.73242 2.83594,0.73242 0.354,0 0.70375,0.66303 1.09375,2.08203 0.944,3.44 4.57725,7.76402 7.28125,8.66602 1.285,0.428 -6.01033,8.13659 -10.11133,10.68359 -8.377,5.203 -17.07623,5.59745 -26.24023,1.18945 -3.499,-1.683 -5.69752,-3.5562 -10.60352,-9.0332 -2.041,-2.278 -4.37655,-3.34706 -7.18555,-3.28906 -9.432,0.194 -18.03456,-8.06877 -14.97656,-14.38477 2.335,-4.824 5.89708,-6.70775 12.70508,-6.71875 6.939,-0.01 8.45148,0.47897 9.39648,3.04297 3.808,10.329 19.36918,7.28961 19.32618,-3.77539 l -0.01,-2.42773 1.56055,-0.10157 c 0.45525,-0.0295 0.81136,-0.0479 1.08984,-0.0488 z m -88.93164,0.18359 c 0.0986,0.003 0.20813,0.0188 0.32813,0.0488 0.414,0.104 2.17606,0.41731 3.91406,0.69531 3.491,0.558 11.01047,1.18455 14.23047,1.18555 l 2.07031,0.002 0.0957,3.04102 0.0977,3.04101 1.66406,0.13086 c 6.151,0.481 9.07092,6.70953 6.04492,12.89453 -1.03,2.104 -3.52051,4.50488 -4.97851,4.79688 -1.319,0.264 -1.4056,0.74901 -0.5586,3.16601 0.858,2.45 0.78074,5.79835 -0.32226,14.02735 -2.279,17.008 -5.47691,23.75637 -14.62891,30.85937 -4.992,3.874 -6.03503,5.16275 -8.58203,10.59375 -2.795,5.96 -3.97264,6.93639 -8.30664,6.90039 -12.006,-0.101 -20.7457,-9.59934 -27.9707,-30.40234 -4.113,-11.845 -6.23435,-29.25264 -4.65235,-38.18164 l 0.29102,-1.63281 2,-0.55665 c 2.967,-0.827 5.39992,-2.19987 7.16992,-4.04687 l 1.57422,-1.64453 1.4707,0.6289 c 12.245,5.249 24.692,-1.40337 28.5,-15.23437 0.0592,-0.216 0.25291,-0.32291 0.54883,-0.3125 z m 5.78711,2.86914 c -0.83417,0.0162 -1.66203,0.24773 -2.38672,0.72461 -3.938,2.592 -2.07156,8.78125 2.64844,8.78125 3.461,0 5.90423,-3.77891 4.36523,-6.75391 -0.91781,-1.77512 -2.79177,-2.78763 -4.62695,-2.75195 z m -41.48047,18.43555 c -0.60212,-0.0754 -1.15223,0.16901 -1.67773,0.72851 -3.297,3.509 1.65715,14.36147 8.03515,17.60547 5.781,2.941 15.18843,0.74681 18.73242,-4.36719 l 0.92774,-1.33593 1.47656,3.02148 c 2.822,5.773 7.01767,8.97461 11.76367,8.97461 9.24,0 15.60166,-6.47714 14.84766,-15.11914 -0.406,-4.651 -1.38925,-5.25356 -4.65625,-2.85156 -2.418,1.779 -4.59812,1.414 -9.70312,-1.625 -3.93701,-2.345 -6.7689,-2.44758 -10.8379,-0.39258 l -2.04492,1.03125 -1.52148,-1.54102 c -3.607,-3.659 -6.49019,-4.068 -14.99219,-2.125 -4.468,1.021 -6.70042,0.80355 -8.35742,-0.81445 -0.735,-0.718 -1.39006,-1.11408 -1.99219,-1.18945 z m 126.42969,2.92773 c -0.63639,-0.0164 -1.27324,0.18106 -1.80274,0.61719 -2.2,1.811 -0.98164,5.48242 1.81836,5.48242 2.275,0 3.71097,-2.35019 2.66797,-4.36719 -0.56187,-1.08687 -1.62294,-1.70502 -2.68359,-1.73242 z M 279.75391,197 c 0.235,0 0.28053,2.952 0.14453,9.25 -0.749,34.731 -9.45447,57.06325 -24.23047,62.15625 -18.164,6.262 -30.30042,-17.45983 -31.23242,-61.04883 l -0.20313,-9.47656 2.28125,2.41797 c 7.755,8.22 19.88605,13.01109 29.74805,11.74609 7.484,-0.96 13.2695,-4.33417 20.0625,-11.70117 1.695,-1.839 3.23869,-3.34375 3.42969,-3.34375 z m -26.65625,16.92773 c -1.51616,0.0111 -3.21479,0.1091 -5.09766,0.29297 -2.526,0.246 -5.21117,0.87386 -6.45117,1.50586 l -1.30274,0.66406 0.19141,1.86133 c 0.303,2.936 1.87573,5.71222 4.92773,8.69922 l 2.64063,2.58399 -1.47461,4.48242 c -1.425,4.337 -3.43766,12.67709 -4.22266,17.49609 -0.833,5.109 3.01155,12.23541 8.06055,14.94141 2.78,1.491 6.43809,-1.68017 9.74609,-8.45117 3.052,-6.245 2.86433,-8.62694 -1.63867,-20.83594 -2.938,-7.967 -2.92225,-6.91824 -0.15625,-10.36524 7.03938,-8.77362 5.39041,-12.95276 -5.22265,-12.875 z m -127.00977,90.74024 c -0.14,0 -6.40392,9.47569 -13.91992,21.05469 -7.517,11.579 -13.853079,21.38973 -14.080079,21.80273 -0.439,0.798 9.618189,7.79022 14.492189,10.07422 2.904,1.361 7.75048,1.32392 10.52148,-0.0801 6.574,-3.331 11.06617,-12.53698 8.82617,-18.08398 l -0.82226,-2.03125 1.6543,-0.21875 c 3.975,-0.527 7.87089,-3.75352 10.08789,-8.35352 2.697,-5.597 1.85792,-10.57273 -2.45508,-14.55273 -1.719,-1.586 -13.66769,-9.61433 -14.30469,-9.61133 z m 148.03906,1.07031 c -1.05884,-0.0238 -2.12118,0.10758 -3.17968,0.39258 -7.458,2.009 -12.37724,10.13017 -10.11524,16.70117 2.528,7.343 8.123,10.78428 19.5,11.98828 10.938,1.157 15.54683,4.24694 13.17383,8.83594 -1.722,3.329 -5.52728,3.23902 -8.73828,-0.20898 l -1.42188,-1.52539 -2.25586,2.00781 c -1.24,1.106 -2.76662,2.5414 -3.39062,3.1914 l -1.13477,1.1836 0.92383,1.21093 c 8.029,10.527 25.34375,4.93055 25.34375,-8.18945 0,-9.044 -6.40161,-14.07159 -19.97461,-15.68359 -9.258,-1.1 -12.16217,-2.392 -13.20117,-5.875 -1.295,-4.34 3.66114,-6.40072 7.24414,-3.01172 l 1.06836,1.00976 2.87891,-2.46484 c 1.584,-1.357 3.20461,-2.72315 3.59961,-3.03516 l 0.7207,-0.56835 -1.76172,-1.65625 c -2.9535,-2.77875 -6.10277,-4.23144 -9.2793,-4.30274 z m -144.44531,10.90039 1.01563,0.59571 c 0.558,0.329 1.52639,1.0192 2.15039,1.5332 5.308,4.366 -2.05366,13.35467 -8.09766,9.88867 -2.325,-1.333 -2.58405,-0.45189 2.37695,-8.08789 z m 116.61524,2.14063 c -0.255,-0.03 -2.26485,0.70953 -4.46485,1.64453 -2.2,0.935 -4.04265,1.72867 -4.09765,1.76367 -0.106,0.07 19.79534,47.78753 20.02734,48.01953 0.158,0.158 20.9278,-8.46047 21.3418,-8.85547 0.616,-0.588 -2.82222,-7.9825 -3.57422,-7.6875 -0.383,0.151 -3.23113,1.34053 -6.32813,2.64453 -3.098,1.305 -5.69348,2.30847 -5.77148,2.23047 -0.077,-0.077 -3.86125,-9.04283 -8.40625,-19.92383 -5.003,-11.978 -8.44656,-19.80293 -8.72656,-19.83593 z m -89.17383,1.30664 c -0.207,-0.069 -0.67597,0.36956 -1.04297,0.97656 -1.58,2.619 -24.80327,45.32306 -24.69727,45.41406 0.166,0.14 8.40502,2.85547 8.66602,2.85547 0.117,0 1.30462,-2.25 2.64062,-5 1.335,-2.75 2.58816,-5 2.78516,-5 0.497,0 7.64001,2.369 7.91601,2.625 0.123,0.115 -0.22448,2.66216 -0.77148,5.66016 -0.548,2.998 -0.94862,5.49011 -0.89062,5.53711 0.283,0.236 8.66539,2.89811 8.77539,2.78711 0.138,-0.138 7.16506,-51.10289 7.16406,-51.96289 0,-0.378 -1.39394,-0.96358 -5.08594,-2.14258 -2.796,-0.893 -5.25198,-1.68 -5.45898,-1.75 z m 74.06054,3.93164 c -0.72772,-0.0614 -4.0974,0.52998 -12.66015,2.19336 -6.037,1.173 -11.03261,2.1869 -11.09961,2.2539 -0.12,0.12 9.47734,50.88369 9.65234,51.05469 0.1,0.098 24.69742,-4.53759 24.85742,-4.68359 0.095,-0.087 -1.17387,-7.25721 -1.42187,-8.03321 -0.078,-0.243 -2.63927,0.1179 -7.69727,1.08789 -4.169,0.80001 -7.65509,1.38007 -7.74609,1.28907 -0.136,-0.136 -1.54839,-7.14916 -2.52539,-12.53516 l -0.2168,-1.18945 5.25391,-0.94531 c 2.889,-0.52 5.38297,-1.06213 5.54297,-1.20313 0.239,-0.209 -0.96211,-7.89419 -1.28711,-8.24219 -0.053,-0.056 -2.52991,0.36455 -5.50391,0.93555 -2.974,0.571 -5.46892,0.97444 -5.54492,0.89844 -0.076,-0.076 -0.63419,-2.7456 -1.24219,-5.9336 l -1.10547,-5.79687 0.69727,-0.23633 c 0.384,-0.129 3.62031,-0.78217 7.19531,-1.45117 3.575,-0.67 6.52378,-1.23863 6.55078,-1.26563 0.027,-0.027 -0.30818,-1.84687 -0.74219,-4.04687 -0.435,-2.2 -0.79482,-4.03994 -0.79882,-4.08594 -0.004,-0.0341 -0.0542,-0.0557 -0.15821,-0.0644 z m -43.13086,2.53906 c -0.58682,0.0192 -1.18932,0.0639 -1.80664,0.13477 -4.041,0.464 -7.78317,3.15878 -9.45117,6.80078 -2.017,4.405 -4.53476,33.8955 -3.25976,38.1875 3.392,11.423 22.49662,11.22642 26.01562,-0.26758 0.377,-1.231 2.215,-17.427 2,-17.625 -0.027,-0.025 -2.75078,-0.29275 -6.05078,-0.59375 -3.3,-0.302 -6.54398,-0.62856 -7.20898,-0.72656 l -1.20899,-0.17774 -0.19531,1.77149 c -0.109,0.975 -0.29316,2.76265 -0.41016,3.97265 l -0.21094,2.20118 2.59766,0.23632 c 3.281,0.297 3.05005,0.0248 2.74805,3.25977 -0.627,6.719 -3.00108,9.14165 -6.95508,7.09765 -2.353,-1.21699 -2.35973,-1.38512 -0.80273,-18.32812 1.538,-16.741 1.88178,-17.89419 5.17578,-17.36719 2.915,0.466 3.41481,1.31822 3.63281,6.19922 l 0.16992,3.83594 4.48633,0.40234 c 5.371,0.483 4.76987,1.02346 4.79687,-4.31054 0.0488,-9.5175 -5.26017,-14.99071 -14.0625,-14.70313 z m -69.69335,7.7832 c 0.10599,-0.003 1.00223,0.559 1.99023,1.25 3.484,2.434 4.10347,4.60219 2.35547,8.24219 -1.858,3.87 -4.56941,6.1057 -6.94141,5.7207 -1.587,-0.257 -5.49134,-2.58062 -5.27734,-3.14062 0.288,-0.748 7.66805,-12.06627 7.87305,-12.07227 z m 39.49414,0.73438 c 0.061,0.061 -0.48304,3.78353 -1.20704,8.26953 -0.724,4.486 -1.39995,8.55497 -1.50195,9.04297 l -0.18359,0.88672 -2.73047,-0.92969 c -1.501,-0.512 -2.69916,-1.08358 -2.66016,-1.26758 0.122,-0.578 8.16621,-16.11895 8.28321,-16.00195 z" />
    <path
       d="M 188.833,5.88 C 44.286,15.344 -40.292,171.883 31.519,297.039 89.506,398.103 224.027,425.741 316.833,355.658 420.578,277.316 420.412,122.239 316.5,44.381 280.145,17.141 233.178,2.977 188.833,5.88 m 32.996,28.307 c 5.598,11.608 7.042,14.354 7.23,13.743 0.129,-0.42 0.928,-5.413 1.776,-11.097 0.848,-5.683 1.645,-10.567 1.77,-10.852 0.234,-0.532 9.062,0.487 9.062,1.046 0,0.677 -8.361,54.112 -8.487,54.237 -0.183,0.183 -0.296,-0.071 -7.729,-17.375 -3.242,-7.547 -5.989,-13.834 -6.104,-13.97 -0.114,-0.136 -1.097,5.527 -2.183,12.584 -1.611,10.465 -2.069,12.829 -2.486,12.824 -0.71,-0.008 -8.394,-1.263 -8.512,-1.39 -0.053,-0.057 1.762,-12.104 4.034,-26.77 2.271,-14.667 4.13,-26.854 4.131,-27.084 0.007,-1.221 1.095,0.826 7.498,14.104 m -22.162,13.48 V 74 h -5 -5 V 47.667 21.333 h 5 5 z m -25.354,-19.47 c 0.418,2.308 0.631,4.308 0.474,4.445 -0.158,0.136 -3.287,0.816 -6.954,1.511 -3.666,0.694 -6.764,1.356 -6.882,1.471 -0.413,0.4 1.886,11.201 2.403,11.293 0.263,0.047 2.729,-0.354 5.479,-0.892 2.75,-0.537 5.096,-0.875 5.213,-0.751 0.261,0.278 1.767,8.367 1.585,8.515 -0.072,0.058 -2.517,0.578 -5.432,1.154 -2.916,0.577 -5.35,1.097 -5.41,1.156 -0.231,0.232 2.465,13.041 2.766,13.142 0.177,0.058 3.647,-0.546 7.712,-1.343 6.468,-1.268 7.41,-1.384 7.543,-0.924 0.455,1.578 1.593,8.067 1.442,8.219 -0.18,0.179 -25.015,5.097 -25.167,4.983 -0.194,-0.146 -10.025,-51.347 -9.885,-51.487 0.189,-0.189 22.686,-4.621 23.659,-4.661 0.628,-0.025 0.764,0.364 1.454,4.169 m -33.988,7.617 c 0.933,2.18 1.58,4.076 1.436,4.213 -0.143,0.137 -1.761,0.87 -3.594,1.629 -1.834,0.759 -3.443,1.489 -3.577,1.622 -0.134,0.133 3.514,9.088 8.107,19.899 4.593,10.811 8.378,19.795 8.41,19.965 0.078,0.402 -8.867,4.217 -9.178,3.914 -0.13,-0.127 -3.984,-9.057 -8.563,-19.845 -4.579,-10.789 -8.388,-19.678 -8.465,-19.754 -0.076,-0.077 -1.398,0.401 -2.937,1.062 -1.538,0.661 -3.268,1.399 -3.843,1.641 l -1.045,0.441 -1.713,-4.025 c -0.943,-2.214 -1.596,-4.143 -1.452,-4.287 0.282,-0.282 24.535,-10.621 24.648,-10.507 0.038,0.037 0.833,1.852 1.766,4.032 m 148.382,7.436 c 10.337,6.329 12.126,8.435 12.126,14.275 0,6.753 -4.608,13.017 -10.666,14.499 -0.917,0.224 -1.706,0.437 -1.754,0.474 -0.048,0.036 0.227,0.778 0.612,1.648 2.484,5.616 -2.17,15.447 -8.858,18.711 -2.902,1.417 -7.688,1.435 -10.667,0.04 -4.01,-1.876 -14.851,-8.7 -14.717,-9.262 0.204,-0.85 26.92,-44.302 27.239,-44.302 0.158,0 3.167,1.763 6.685,3.917 m -182.249,9.371 c 1.213,0.597 2.969,1.79 3.901,2.649 l 1.694,1.563 -3.529,3.277 -3.528,3.276 -1.322,-1.047 c -4.087,-3.237 -8.696,-0.113 -6.177,4.186 1.635,2.79 3.337,3.334 12.418,3.97 10.167,0.713 13.834,1.934 17.574,5.855 6.921,7.256 4.857,17.762 -4.4,22.393 -5.231,2.617 -10.84,1.588 -16.013,-2.937 -2.229,-1.949 -2.288,-1.717 1.463,-5.732 l 3.2,-3.426 1.431,1.319 c 4.285,3.95 9.813,2.829 9.055,-1.836 -0.631,-3.892 -3.873,-5.275 -13.567,-5.791 C 97.254,79.732 91.704,77.04 88.585,70.604 83.228,59.549 95.483,47.218 106.458,52.621 m 176.414,4.313 c -3.487,5.712 -3.444,5.438 -1.044,6.7 6.571,3.458 12.237,-6.999 5.904,-10.895 L 286.06,51.71 Z m 40.193,11.364 c 7.443,7.267 9.018,9.791 8.987,14.398 -0.049,7.378 -9.06,16.471 -16.321,16.471 h -2.783 l -5.362,10.916 c -2.95,6.004 -5.453,10.917 -5.563,10.917 -0.111,0 -1.803,-1.612 -3.761,-3.583 l -3.56,-3.584 4.976,-9.5 c 5.654,-10.794 5.373,-9.961 3.774,-11.18 l -1.214,-0.926 -2.028,2.136 c -1.116,1.176 -4.371,4.554 -7.234,7.508 l -5.205,5.372 -3.552,-3.317 c -1.954,-1.825 -3.552,-3.462 -3.552,-3.639 0,-0.4 35.962,-37.62 36.349,-37.62 0.155,0 2.877,2.534 6.049,5.631 m -51.618,7.258 c -1.988,3.248 -3.658,6.011 -3.713,6.139 -0.18,0.424 3.645,2.588 4.972,2.812 1.699,0.287 3.711,-0.853 5.223,-2.958 3.625,-5.048 3.144,-8.31 -1.649,-11.171 L 275.061,69.65 Z M 92.638,90.833 c 13.696,10.702 21.117,16.703 20.734,16.766 -0.328,0.055 -7.996,-0.662 -17.039,-1.592 -9.044,-0.931 -16.582,-1.646 -16.751,-1.59 -0.169,0.056 4.281,3.682 9.889,8.058 5.608,4.375 10.194,8.046 10.191,8.157 -0.007,0.333 -5.349,7.035 -5.608,7.035 -0.132,0 -9.76,-7.438 -21.397,-16.529 C 61.021,102.047 51.209,94.4 50.853,94.145 49.818,93.404 49.78,93.403 66,94.388 c 8.525,0.518 15.851,0.905 16.28,0.86 0.612,-0.064 -1.204,-1.627 -8.417,-7.247 -5.058,-3.941 -9.196,-7.289 -9.196,-7.439 0,-1.028 5.478,-7.212 6.04,-6.818 0.331,0.233 10.2,7.923 21.931,17.089 m 220.557,-9.945 -4.971,5.098 1.609,1.424 c 3.07,2.715 4.102,2.944 6.62,1.469 5.172,-3.031 7.001,-7.626 4.303,-10.809 -2.356,-2.779 -1.96,-2.926 -7.561,2.818 m -98.862,7.256 c 36.271,4.744 68.335,26.878 85.057,58.717 2.064,3.93 2.037,3.897 16.607,19.822 25.907,28.315 31.022,44.02 19.82,60.856 -6.36,9.558 -20.878,19.354 -33.83,22.824 -1.435,0.385 -1.551,0.517 -3.32,3.763 -23.308,42.772 -72.78,65.624 -120.989,55.886 -28.068,-5.67 -54.486,-23.054 -70.011,-46.071 -1.903,-2.821 -2.611,-3.158 -11,-5.244 -20.805,-5.171 -29.41,-12.436 -33.57,-28.339 -4.459,-17.046 5.078,-39.815 25.63,-61.191 l 4.486,-4.667 1.273,-3.485 C 112.335,112.134 162.863,81.412 214.333,88.144 M 346.5,99.173 c 9.106,3.809 12.45,15.741 6.368,22.721 -1.457,1.673 -24.496,17.318 -27.793,18.873 -12.966,6.118 -25.849,-12.83 -15.509,-22.812 1.426,-1.377 21.956,-15.488 25.775,-17.717 3.265,-1.905 8.057,-2.362 11.159,-1.065 m -278.419,21.383 22.271,12.857 -0.718,1.21 c -0.395,0.666 -1.467,2.525 -2.383,4.132 -0.916,1.608 -1.803,3.007 -1.97,3.111 -0.239,0.147 -44.41,-25.018 -45.343,-25.833 -0.178,-0.155 2.814,-5.66 4.514,-8.306 0.399,-0.621 -0.795,-1.269 23.629,12.829 m 273.986,-12.291 c -1.155,0.179 -24.561,15.941 -26.05,17.542 -2.267,2.437 0.757,7.192 3.92,6.166 1.558,-0.506 25.146,-16.383 26.054,-17.538 1.931,-2.454 -0.746,-6.665 -3.924,-6.17 M 38,130.717 c 2.108,0.764 3.864,1.408 3.902,1.432 0.038,0.024 -1.05,3.105 -2.417,6.847 -1.367,3.742 -2.373,6.906 -2.235,7.032 0.436,0.398 10.492,3.965 10.742,3.81 0.131,-0.081 1.048,-2.403 2.037,-5.159 0.989,-2.757 1.975,-5.012 2.192,-5.012 0.363,0 7.806,2.63 8.055,2.846 0.061,0.053 -0.727,2.366 -1.75,5.141 -1.022,2.775 -1.859,5.162 -1.859,5.304 0,0.251 11.859,4.712 12.509,4.705 0.178,-0.001 1.505,-3.29 2.948,-7.308 l 2.623,-7.306 3.543,1.278 c 4.78,1.724 4.71,1.693 4.711,2.125 0,0.358 -8.324,23.551 -8.562,23.856 -0.091,0.117 -49.078,-17.547 -49.365,-17.801 -0.052,-0.045 1.653,-4.865 3.788,-10.711 2.136,-5.846 4.03,-11.042 4.21,-11.546 0.418,-1.173 0.395,-1.176 4.928,0.467 m 325.178,4.313 c 3.519,0.651 5.804,2.221 7.859,5.402 5.05,7.813 3.036,16.018 -4.997,20.355 -2.112,1.14 -1.886,1.343 -4.003,-3.603 -2.017,-4.714 -1.974,-4.364 -0.62,-5.047 5.637,-2.844 2.96,-9.451 -2.844,-7.021 -2.293,0.96 -3.693,3.088 -7.256,11.028 -4.196,9.349 -8.177,13.075 -15.159,14.191 -12.825,2.049 -20.792,-15.196 -11.146,-24.126 1.95,-1.805 6.607,-4.423 7.019,-3.945 0.241,0.278 3.969,8.26 3.969,8.496 0,0.089 -0.812,0.559 -1.804,1.044 -4.484,2.194 -5.521,5.985 -2.324,8.5 3.332,2.621 7.363,-0.975 11.285,-10.07 4.635,-10.749 9.113,-14.712 17.532,-15.517 0.287,-0.028 1.407,0.113 2.489,0.313 m -95.907,9.46 c -12.186,3.356 -16.533,18.557 -7.912,27.672 10.593,11.201 29.01,3.9 28.997,-11.495 -0.009,-11.011 -10.531,-19.084 -21.085,-16.177 m -130.042,3.011 c -12.614,3.467 -16.631,19.062 -7.297,28.331 10.384,10.311 28.373,2.702 28.397,-12.012 0.019,-10.973 -10.619,-19.2 -21.1,-16.319 m 138.189,3.83 c 8.486,3.175 8.196,15.991 -0.425,18.775 -5.877,1.898 -11.937,-1.658 -13.049,-7.657 -1.423,-7.674 6.097,-13.878 13.474,-11.118 m -129.599,3.364 c 9.737,4.577 6.348,18.984 -4.462,18.968 -6.774,-0.01 -11.421,-6.798 -9.172,-13.398 1.799,-5.28 8.461,-8.002 13.634,-5.57 m -12.986,153.9 c 6.535,4.234 9.543,6.886 10.854,9.572 3.316,6.795 -3.005,18.295 -10.48,19.066 l -1.778,0.184 0.67,1.708 c 4.01,10.233 -8.655,22.901 -18.932,18.937 -2.253,-0.869 -15.705,-9.479 -15.598,-9.983 0.264,-1.25 28.305,-43.738 28.752,-43.567 0.282,0.107 3.212,1.944 6.512,4.083 m 145.593,-2.121 c 2.115,0.87 5.252,3.137 6.219,4.495 l 0.617,0.867 -3.643,3.114 -3.642,3.114 -1.441,-1.329 c -4.201,-3.872 -9.128,0.304 -5.685,4.818 1.651,2.164 4.085,2.924 12.649,3.947 8.199,0.979 11.681,2.293 15.087,5.694 7.413,7.404 5.598,18.045 -3.885,22.778 -5.78,2.884 -13.117,1.063 -17.374,-4.312 -1.267,-1.6 -1.48,-1.226 3.074,-5.387 l 2.901,-2.651 1.84,1.84 c 3.728,3.727 8.524,2.864 8.524,-1.535 0,-4.016 -3.805,-5.922 -13.817,-6.924 -10.056,-1.005 -15.14,-3.824 -18.368,-10.184 -5.255,-10.353 6.205,-22.761 16.944,-18.345 M 128.884,318.25 c -0.435,0.688 -1.929,3.002 -3.32,5.143 l -2.529,3.893 1.566,0.988 c 3.796,2.395 6.661,1.383 8.784,-3.104 1.556,-3.288 1.082,-5.129 -1.837,-7.137 -1.854,-1.275 -1.712,-1.287 -2.664,0.217 m 126.272,20.088 c 4.577,10.997 8.404,19.995 8.505,19.995 0.1,0 2.868,-1.131 6.15,-2.514 3.283,-1.382 6.141,-2.448 6.351,-2.367 0.531,0.204 3.709,7.977 3.32,8.12 -0.173,0.064 -5.115,2.123 -10.982,4.577 -5.867,2.454 -10.764,4.362 -10.883,4.24 -0.173,-0.178 -18.991,-45.038 -19.961,-47.585 -0.239,-0.628 7.107,-4.314 8.844,-4.438 0.183,-0.013 4.078,8.974 8.656,19.972 m -92.799,-16.811 5.721,1.86 -0.167,1.057 c -0.092,0.581 -1.708,12.381 -3.591,26.223 -1.883,13.841 -3.52,25.279 -3.638,25.416 -0.173,0.201 -8.849,-2.472 -9.217,-2.84 -0.058,-0.058 0.339,-2.474 0.882,-5.37 0.542,-2.896 0.986,-5.389 0.986,-5.54 0,-0.151 -1.788,-0.873 -3.974,-1.604 l -3.975,-1.33 -2.526,5.169 c -1.607,3.29 -2.677,5.114 -2.942,5.016 -0.229,-0.084 -2.336,-0.79 -4.683,-1.568 -2.346,-0.779 -4.221,-1.533 -4.166,-1.677 0.161,-0.421 25.426,-46.65 25.501,-46.662 0.038,-0.006 2.643,0.827 5.789,1.85 m 69.956,6.336 c 0.419,2.316 0.632,4.315 0.474,4.46 -0.158,0.145 -3.408,0.841 -7.223,1.547 -5.648,1.045 -6.911,1.377 -6.805,1.79 0.071,0.279 0.566,2.869 1.099,5.757 0.745,4.033 1.086,5.249 1.473,5.247 0.276,-0.002 2.751,-0.439 5.5,-0.972 2.97,-0.576 5.077,-0.841 5.192,-0.654 0.233,0.376 1.712,8.341 1.573,8.472 -0.053,0.05 -2.477,0.549 -5.387,1.109 -2.91,0.56 -5.356,1.084 -5.436,1.163 -0.142,0.142 2.212,12.93 2.426,13.178 0.06,0.069 3.496,-0.513 7.634,-1.293 4.139,-0.781 7.6,-1.345 7.692,-1.253 0.237,0.236 1.776,8.391 1.615,8.555 -0.184,0.187 -23.81,4.682 -24.654,4.691 -0.591,0.006 -9.599,-44.572 -10.234,-50.643 -0.078,-0.741 19.192,-5.078 23.607,-5.313 0.629,-0.034 0.763,0.348 1.454,4.159 m -39.214,-0.86 c 7.082,2.188 10.69,9.399 9.057,18.104 l -0.203,1.08 -4.226,-0.405 c -2.325,-0.222 -4.456,-0.414 -4.737,-0.426 -0.423,-0.019 -0.507,-0.601 -0.5,-3.439 0.014,-4.999 -0.935,-6.584 -3.944,-6.584 -2.837,0 -2.914,0.306 -4.514,17.828 -1.529,16.749 -1.456,17.354 2.173,18.035 2.98,0.559 4.564,-1.576 5.114,-6.893 0.381,-3.687 0.647,-3.297 -2.441,-3.591 -3.107,-0.297 -2.853,0.167 -2.449,-4.462 0.341,-3.903 0.345,-3.917 1.207,-3.922 0.475,-0.003 3.827,0.252 7.447,0.567 l 6.584,0.573 -0.001,1.016 c 0,3.127 -1.415,15.28 -1.999,17.183 -3.648,11.872 -23.35,11.501 -26.548,-0.5 -0.753,-2.824 1.415,-31.472 2.698,-35.667 2.256,-7.376 9.454,-10.915 17.282,-8.497 M 114.5,340.401 c -2.017,3.142 -3.714,5.829 -3.772,5.972 -0.182,0.447 3.445,2.643 4.702,2.847 4.987,0.809 10.018,-7.684 6.899,-11.649 -0.617,-0.785 -3.541,-2.917 -3.969,-2.894 -0.107,0.005 -1.843,2.581 -3.86,5.724 m 39.056,3.241 -3.906,7.625 2.567,0.864 c 1.412,0.474 2.594,0.827 2.627,0.783 0.1,-0.135 2.745,-16.742 2.679,-16.822 -0.034,-0.041 -1.819,3.356 -3.967,7.55"
       fill="#f4bc24"
       id="path125"
       style="display:inline" />
    <path
       d="m 199.587,5.569 c 0.415,0.08 1.015,0.077 1.334,-0.007 0.318,-0.083 -0.021,-0.148 -0.754,-0.145 -0.734,0.004 -0.994,0.072 -0.58,0.152 m -10.504,0.327 c 0.321,0.084 0.846,0.084 1.167,0 0.321,-0.083 0.058,-0.152 -0.583,-0.152 -0.642,0 -0.905,0.069 -0.584,0.152 m 21,0 c 0.321,0.084 0.846,0.084 1.167,0 0.321,-0.083 0.058,-0.152 -0.583,-0.152 -0.642,0 -0.905,0.069 -0.584,0.152 m -18,15.685 c 1.421,0.063 3.746,0.063 5.167,0 1.421,-0.062 0.258,-0.114 -2.583,-0.114 -2.842,0 -4.005,0.052 -2.584,0.114 m -81.599,36.502 -1.317,1.417 1.416,-1.318 c 1.318,-1.225 1.57,-1.515 1.318,-1.515 -0.054,0 -0.692,0.637 -1.417,1.416 m -44.661,1.334 -1.99,2.083 2.084,-1.99 C 67.063,58.416 68,57.479 68,57.427 c 0,-0.246 -0.329,0.054 -2.177,1.99 m 271.506,3 c 2.472,2.521 4.535,4.583 4.583,4.583 0.239,0 -0.238,-0.495 -4.495,-4.671 l -4.584,-4.496 z M 87.095,64.833 c 0.003,0.917 0.068,1.252 0.144,0.746 0.077,-0.507 0.075,-1.257 -0.004,-1.667 -0.079,-0.41 -0.142,0.005 -0.14,0.921 m -27.939,1.25 -1.989,2.084 2.083,-1.99 c 1.146,-1.094 2.083,-2.032 2.083,-2.083 0,-0.247 -0.329,0.054 -2.177,1.989 m 262.677,1.25 c 1.458,1.467 2.726,2.667 2.818,2.667 0.092,0 -1.026,-1.2 -2.484,-2.667 -1.458,-1.466 -2.726,-2.666 -2.818,-2.666 -0.092,0 1.026,1.2 2.484,2.666 m -10.674,1.084 -2.659,2.75 2.75,-2.659 c 1.512,-1.463 2.75,-2.7 2.75,-2.75 0,-0.243 -0.372,0.105 -2.841,2.659 m -15.341,0.333 -1.318,1.417 1.417,-1.318 c 1.317,-1.225 1.57,-1.516 1.317,-1.516 -0.054,0 -0.692,0.638 -1.416,1.417 m -187.735,1.813 c 0.321,0.084 0.846,0.084 1.167,0 0.321,-0.084 0.058,-0.152 -0.583,-0.152 -0.642,0 -0.904,0.068 -0.584,0.152 M 288,72.287 c 0,0.158 0.375,0.216 0.833,0.128 0.459,-0.088 0.834,-0.217 0.834,-0.287 0,-0.07 -0.375,-0.128 -0.834,-0.128 -0.458,0 -0.833,0.129 -0.833,0.287 m 13.826,5.796 -2.659,2.75 2.75,-2.659 c 2.554,-2.469 2.902,-2.841 2.659,-2.841 -0.051,0 -1.288,1.238 -2.75,2.75 m 13,1 -2.659,2.75 2.75,-2.659 c 1.512,-1.462 2.75,-2.699 2.75,-2.75 0,-0.243 -0.372,0.105 -2.841,2.659 M 105.417,80.23 c 0.32,0.084 0.846,0.084 1.166,0 0.321,-0.084 0.059,-0.153 -0.583,-0.153 -0.642,0 -0.904,0.069 -0.583,0.153 m 187.075,7.52 -2.659,2.75 2.75,-2.659 c 1.513,-1.462 2.75,-2.7 2.75,-2.75 0,-0.243 -0.371,0.105 -2.841,2.659 m -182.835,1.167 -2.157,2.25 2.25,-2.157 c 1.237,-1.187 2.25,-2.199 2.25,-2.25 0,-0.246 -0.339,0.067 -2.343,2.157 M 309,86.771 c 0,0.057 0.487,0.545 1.083,1.083 l 1.084,0.979 -0.979,-1.083 C 309.275,86.74 309,86.513 309,86.771 m -115.583,0.792 c 0.32,0.084 0.845,0.084 1.166,0 0.321,-0.084 0.059,-0.152 -0.583,-0.152 -0.642,0 -0.904,0.068 -0.583,0.152 m 12.333,0 c 0.321,0.084 0.846,0.084 1.167,0 0.32,-0.084 0.058,-0.152 -0.584,-0.152 -0.641,0 -0.904,0.068 -0.583,0.152 m 77.899,2.687 -1.149,1.25 1.25,-1.149 c 1.163,-1.069 1.403,-1.351 1.149,-1.351 -0.056,0 -0.618,0.563 -1.25,1.25 M 55.083,93.896 c 0.321,0.084 0.846,0.084 1.167,0 0.321,-0.083 0.058,-0.152 -0.583,-0.152 -0.642,0 -0.905,0.069 -0.584,0.152 m 5.667,0.334 c 0.321,0.084 0.846,0.084 1.167,0 0.32,-0.084 0.058,-0.153 -0.584,-0.153 -0.641,0 -0.904,0.069 -0.583,0.153 m 45.583,0.937 c 0.622,0.641 1.206,1.166 1.298,1.166 0.091,0 -0.342,-0.525 -0.964,-1.166 C 106.045,94.525 105.461,94 105.369,94 c -0.091,0 0.342,0.525 0.964,1.167 M 66.417,94.563 c 0.32,0.084 0.845,0.084 1.166,0 0.321,-0.084 0.059,-0.152 -0.583,-0.152 -0.642,0 -0.904,0.068 -0.583,0.152 m 5.666,0.333 c 0.321,0.084 0.846,0.084 1.167,0 0.321,-0.083 0.058,-0.152 -0.583,-0.152 -0.642,0 -0.905,0.069 -0.584,0.152 m 55.063,0.854 -0.979,1.083 1.083,-0.979 c 1.01,-0.912 1.237,-1.187 0.979,-1.187 -0.057,0 -0.545,0.487 -1.083,1.083 m 156.013,1.667 -2.659,2.75 2.75,-2.659 c 2.554,-2.47 2.902,-2.841 2.659,-2.841 -0.05,0 -1.288,1.237 -2.75,2.75 M 77.75,95.23 c 0.321,0.084 0.846,0.084 1.167,0 0.32,-0.084 0.058,-0.153 -0.584,-0.153 -0.641,0 -0.904,0.069 -0.583,0.153 m 218.076,3.52 -2.659,2.75 2.75,-2.659 c 1.512,-1.462 2.75,-2.7 2.75,-2.75 0,-0.243 -0.372,0.105 -2.841,2.659 m -179.243,1.485 c 0.413,0.08 1.088,0.08 1.5,0 0.413,-0.079 0.075,-0.144 -0.75,-0.144 -0.825,0 -1.162,0.065 -0.75,0.144 m 166.084,2.265 c 1.181,1.192 2.222,2.167 2.314,2.167 0.091,0 -0.8,-0.975 -1.981,-2.167 -1.181,-1.192 -2.222,-2.167 -2.314,-2.167 -0.092,0 0.8,0.975 1.981,2.167 M 350,101.438 c 0,0.057 0.488,0.545 1.083,1.083 l 1.084,0.979 -0.979,-1.083 C 350.275,101.407 350,101.18 350,101.438 m 6.077,12.229 c 0,0.641 0.069,0.904 0.153,0.583 0.084,-0.321 0.084,-0.846 0,-1.167 -0.084,-0.32 -0.153,-0.058 -0.153,0.584 m -232.926,4.083 -1.318,1.417 1.417,-1.318 c 1.317,-1.225 1.57,-1.516 1.318,-1.516 -0.055,0 -0.692,0.638 -1.417,1.417 m 156.349,2.583 c 1.826,1.834 3.396,3.334 3.487,3.334 0.092,0 -1.327,-1.5 -3.154,-3.334 -1.826,-1.833 -3.395,-3.333 -3.487,-3.333 -0.092,0 1.328,1.5 3.154,3.333 m 20.905,-0.832 c 0.864,0.898 1.622,1.566 1.684,1.483 0.062,-0.083 -0.645,-0.818 -1.571,-1.634 l -1.685,-1.483 z m 51.577,3.082 -1.149,1.25 1.25,-1.148 c 1.164,-1.07 1.404,-1.352 1.149,-1.352 -0.056,0 -0.618,0.563 -1.25,1.25 m -234.498,0.834 -1.317,1.416 1.416,-1.317 c 1.318,-1.226 1.57,-1.516 1.318,-1.516 -0.054,0 -0.692,0.638 -1.417,1.417 m 242.933,11.479 c 0.321,0.084 0.845,0.084 1.166,0 0.321,-0.083 0.059,-0.152 -0.583,-0.152 -0.642,0 -0.904,0.069 -0.583,0.152 m 8.583,3.271 c 0.622,0.641 1.206,1.166 1.297,1.166 0.092,0 -0.342,-0.525 -0.964,-1.166 -0.622,-0.642 -1.205,-1.167 -1.297,-1.167 -0.092,0 0.342,0.525 0.964,1.167 m -97.917,5.729 c 0.321,0.084 0.846,0.084 1.167,0 0.321,-0.083 0.058,-0.152 -0.583,-0.152 -0.642,0 -0.905,0.069 -0.584,0.152 m 102.668,5.271 c 0.003,0.733 0.072,0.994 0.151,0.579 0.08,-0.415 0.077,-1.015 -0.006,-1.333 -0.084,-0.319 -0.149,0.02 -0.145,0.754 m -220.418,2.666 c 0.622,0.642 1.206,1.167 1.298,1.167 0.091,0 -0.342,-0.525 -0.964,-1.167 -0.622,-0.641 -1.206,-1.166 -1.298,-1.166 -0.091,0 0.342,0.525 0.964,1.166 m 111.146,1.917 -0.979,1.083 1.083,-0.979 c 0.596,-0.538 1.084,-1.026 1.084,-1.083 0,-0.258 -0.275,-0.031 -1.188,0.979 m 66.667,0 -0.979,1.083 1.083,-0.979 c 0.596,-0.538 1.083,-1.026 1.083,-1.083 0,-0.258 -0.275,-0.031 -1.187,0.979 m -27.479,-0.312 c 0,0.057 0.487,0.545 1.083,1.083 l 1.083,0.979 -0.979,-1.083 c -0.912,-1.01 -1.187,-1.237 -1.187,-0.979 m -162.75,0.464 c 0.412,0.079 1.087,0.079 1.5,0 0.412,-0.08 0.075,-0.145 -0.75,-0.145 -0.825,0 -1.163,0.065 -0.75,0.145 m -6.602,3.015 -1.148,1.25 1.25,-1.149 c 0.687,-0.632 1.25,-1.194 1.25,-1.25 0,-0.255 -0.282,-0.015 -1.352,1.149 m 154.096,2.75 c 0,0.641 0.068,0.904 0.152,0.583 0.084,-0.321 0.084,-0.846 0,-1.167 -0.084,-0.321 -0.152,-0.058 -0.152,0.584 m -26.654,1 c 0,0.825 0.065,1.162 0.145,0.75 0.079,-0.413 0.079,-1.088 0,-1.5 -0.08,-0.413 -0.145,-0.075 -0.145,0.75 m 48.576,0.104 c 0,0.057 0.488,0.545 1.084,1.083 l 1.083,0.979 -0.979,-1.083 c -0.913,-1.01 -1.188,-1.237 -1.188,-0.979 m -151.922,2.896 c 0,0.641 0.068,0.904 0.152,0.583 0.084,-0.321 0.084,-0.846 0,-1.167 -0.084,-0.321 -0.152,-0.058 -0.152,0.584 m -66.265,2.083 -0.979,1.083 1.083,-0.979 c 0.596,-0.538 1.083,-1.026 1.083,-1.083 0,-0.258 -0.275,-0.031 -1.187,0.979 M 314,164.771 c 0,0.057 0.487,0.545 1.083,1.083 l 1.084,0.979 -0.979,-1.083 C 314.275,164.74 314,164.513 314,164.771 m -226.179,5.312 -1.654,1.75 1.75,-1.654 c 0.962,-0.91 1.75,-1.697 1.75,-1.75 0,-0.249 -0.309,0.028 -1.846,1.654 m 245.596,0.48 c 0.32,0.084 0.845,0.084 1.166,0 0.321,-0.084 0.059,-0.152 -0.583,-0.152 -0.642,0 -0.904,0.068 -0.583,0.152 m -73.917,2.104 c 0.716,0.733 1.377,1.333 1.469,1.333 0.091,0 -0.42,-0.6 -1.136,-1.333 -0.716,-0.734 -1.377,-1.334 -1.468,-1.334 -0.092,0 0.419,0.6 1.135,1.334 m 23.979,0.083 -0.979,1.083 1.083,-0.979 c 1.01,-0.912 1.237,-1.187 0.979,-1.187 -0.057,0 -0.545,0.487 -1.083,1.083 M 5.744,189.667 c 0,0.641 0.069,0.904 0.152,0.583 0.084,-0.321 0.084,-0.846 0,-1.167 -0.083,-0.321 -0.152,-0.058 -0.152,0.584 M 394.424,191 c 0,0.825 0.065,1.162 0.145,0.75 0.079,-0.412 0.079,-1.088 0,-1.5 -0.08,-0.412 -0.145,-0.075 -0.145,0.75 M 5.429,200.167 c 0.002,0.916 0.067,1.252 0.144,0.745 0.076,-0.507 0.074,-1.257 -0.005,-1.667 -0.079,-0.41 -0.142,0.005 -0.139,0.922 m 388.995,9.166 c 0,0.825 0.065,1.163 0.145,0.75 0.079,-0.412 0.079,-1.087 0,-1.5 -0.08,-0.412 -0.145,-0.075 -0.145,0.75 M 341.433,211 c 0,1.008 0.063,1.421 0.139,0.917 0.076,-0.505 0.076,-1.329 0,-1.834 -0.076,-0.504 -0.139,-0.091 -0.139,0.917 M 5.744,210.667 c 0,0.641 0.069,0.904 0.152,0.583 0.084,-0.321 0.084,-0.846 0,-1.167 -0.083,-0.321 -0.152,-0.058 -0.152,0.584 m 66.242,36.416 c 0.817,0.871 1.53,1.584 1.583,1.584 0.251,0 -0.014,-0.3 -1.486,-1.681 L 70.5,245.5 Z m 48.514,32.25 c 1.826,1.834 3.396,3.334 3.487,3.334 0.092,0 -1.327,-1.5 -3.154,-3.334 -1.826,-1.833 -3.395,-3.333 -3.487,-3.333 -0.092,0 1.328,1.5 3.154,3.333 m 158.824,0.25 -2.157,2.25 2.25,-2.157 c 1.237,-1.186 2.25,-2.199 2.25,-2.25 0,-0.245 -0.34,0.067 -2.343,2.157 m -83.748,32.658 c 0.592,0.073 1.642,0.074 2.333,0.002 0.692,-0.072 0.208,-0.132 -1.076,-0.134 -1.283,-10e-4 -1.849,0.058 -1.257,0.132 m 6.674,0 c 0.596,0.074 1.571,0.074 2.167,0 0.595,-0.074 0.108,-0.134 -1.084,-0.134 -1.191,0 -1.679,0.06 -1.083,0.134 m -23.438,17.842 -0.979,1.084 1.084,-0.979 c 0.595,-0.539 1.083,-1.026 1.083,-1.084 0,-0.257 -0.275,-0.03 -1.188,0.979 m 19.521,0.084 c 0.622,0.641 1.206,1.166 1.298,1.166 0.091,0 -0.342,-0.525 -0.964,-1.166 -0.622,-0.642 -1.206,-1.167 -1.298,-1.167 -0.091,0 0.342,0.525 0.964,1.167 m 145.813,0.583 -0.979,1.083 1.083,-0.979 c 1.01,-0.912 1.237,-1.187 0.979,-1.187 -0.057,0 -0.545,0.487 -1.083,1.083 M 62.5,337.667 c 2.562,2.566 4.733,4.666 4.824,4.666 0.092,0 -1.929,-2.1 -4.491,-4.666 C 60.272,335.1 58.101,333 58.009,333 c -0.092,0 1.929,2.1 4.491,4.667 m 274.828,0.25 -3.828,3.916 3.917,-3.828 c 2.154,-2.105 3.916,-3.867 3.916,-3.916 0,-0.24 -0.45,0.19 -4.005,3.828 m -54.704,4.333 c -0.414,0.529 -0.403,0.54 0.126,0.126 0.494,-0.388 0.672,-0.388 1.167,0 0.528,0.414 0.54,0.403 0.126,-0.126 -0.252,-0.321 -0.571,-0.583 -0.71,-0.583 -0.138,0 -0.457,0.262 -0.709,0.583 M 132.744,343 c 0,0.642 0.069,0.904 0.152,0.583 0.084,-0.321 0.084,-0.845 0,-1.166 -0.083,-0.321 -0.152,-0.059 -0.152,0.583 m 197.735,1.417 -0.979,1.083 1.083,-0.979 c 0.596,-0.538 1.084,-1.026 1.084,-1.083 0,-0.258 -0.275,-0.031 -1.188,0.979 m -51.497,1.166 -1.149,1.25 1.25,-1.148 c 1.164,-1.07 1.404,-1.352 1.149,-1.352 -0.056,0 -0.618,0.563 -1.25,1.25 m -1.649,4.188 c 0,0.057 0.488,0.545 1.084,1.083 l 1.083,0.979 -0.979,-1.083 c -0.913,-1.01 -1.188,-1.237 -1.188,-0.979 m -80.854,26.979 -0.979,1.083 1.083,-0.979 c 0.596,-0.538 1.084,-1.026 1.084,-1.083 0,-0.258 -0.275,-0.031 -1.188,0.979 m -10.562,3.491 c 0.595,0.074 1.57,0.074 2.166,0 0.596,-0.074 0.109,-0.134 -1.083,-0.134 -1.192,0 -1.679,0.06 -1.083,0.134 m 4,14.328 c 0.412,0.079 1.087,0.079 1.5,0 0.412,-0.08 0.075,-0.145 -0.75,-0.145 -0.825,0 -1.163,0.065 -0.75,0.145 m 19,0 c 0.412,0.079 1.087,0.079 1.5,0 0.412,-0.08 0.075,-0.145 -0.75,-0.145 -0.825,0 -1.163,0.065 -0.75,0.145"
       fill="#d9a627"
       id="path127"
       style="display:inline" />
    <path
       d="m 194.917,5.577 c 0.779,0.071 2.054,0.071 2.833,0 0.779,-0.07 0.142,-0.127 -1.417,-0.127 -1.558,0 -2.196,0.057 -1.416,0.127 m 7.666,0 c 0.779,0.071 2.054,0.071 2.834,0 0.779,-0.07 0.141,-0.127 -1.417,-0.127 -1.558,0 -2.196,0.057 -1.417,0.127 m -12.758,42.256 c 0,14.484 0.041,20.36 0.092,13.059 0.05,-7.301 0.05,-19.151 0,-26.333 -0.051,-7.183 -0.092,-1.209 -0.092,13.274 m -83.674,14.25 -1.318,1.417 1.417,-1.318 c 1.317,-1.225 1.57,-1.515 1.318,-1.515 -0.055,0 -0.692,0.637 -1.417,1.416 m 209.168,2.167 -1.486,1.583 1.574,-1.477 1.574,-1.476 0.76,0.643 0.759,0.644 -0.635,-0.75 c -0.839,-0.992 -0.83,-0.995 -2.546,0.833 m 10.667,7.167 c 0.817,0.87 1.53,1.583 1.583,1.583 0.251,0 -0.014,-0.299 -1.486,-1.681 L 324.5,69.833 Z M 106.083,70.563 c 0.321,0.084 0.846,0.084 1.167,0 0.321,-0.084 0.058,-0.152 -0.583,-0.152 -0.642,0 -0.904,0.068 -0.584,0.152 m 200.071,3.187 -1.654,1.75 1.75,-1.654 c 1.626,-1.537 1.903,-1.846 1.654,-1.846 -0.053,0 -0.84,0.787 -1.75,1.75 M 127,76.167 c 0.622,0.641 1.206,1.166 1.297,1.166 0.092,0 -0.342,-0.525 -0.964,-1.166 C 126.711,75.525 126.128,75 126.036,75 c -0.092,0 0.342,0.525 0.964,1.167 m -19.245,4.072 c 0.506,0.077 1.256,0.075 1.666,-0.004 0.41,-0.079 -0.004,-0.142 -0.921,-0.14 -0.917,0.003 -1.252,0.068 -0.745,0.144 m 189.066,3.178 -1.654,1.75 1.75,-1.654 c 1.626,-1.538 1.903,-1.846 1.654,-1.846 -0.053,0 -0.84,0.787 -1.75,1.75 m 13.666,0 -1.654,1.75 1.75,-1.654 c 1.626,-1.538 1.903,-1.846 1.654,-1.846 -0.052,0 -0.84,0.787 -1.75,1.75 M 112,87.104 c 0,0.058 0.487,0.545 1.083,1.084 l 1.084,0.979 -0.979,-1.084 C 112.275,87.074 112,86.847 112,87.104 m 83.909,0.47 c 0.592,0.074 1.642,0.075 2.334,0.003 0.691,-0.073 0.207,-0.133 -1.076,-0.134 -1.284,-0.002 -1.85,0.057 -1.258,0.131 m 6,0 c 0.592,0.074 1.642,0.075 2.334,0.003 0.691,-0.073 0.207,-0.133 -1.076,-0.134 -1.284,-0.002 -1.85,0.057 -1.258,0.131 m 85.578,5.509 -1.654,1.75 1.75,-1.654 c 1.626,-1.537 1.903,-1.846 1.654,-1.846 -0.052,0 -0.84,0.788 -1.75,1.75 m 13.18,0.417 c -0.81,0.825 -1.397,1.5 -1.306,1.5 0.092,0 0.829,-0.675 1.639,-1.5 0.81,-0.825 1.397,-1.5 1.305,-1.5 -0.091,0 -0.829,0.675 -1.638,1.5 M 197.735,92.914 c 1.23,0.063 3.33,0.064 4.667,0 1.337,-0.063 0.331,-0.115 -2.235,-0.116 -2.567,0 -3.661,0.052 -2.432,0.116 m 10.348,0.316 c 0.321,0.084 0.846,0.084 1.167,0 0.321,-0.084 0.058,-0.153 -0.583,-0.153 -0.642,0 -0.905,0.069 -0.584,0.153 m 117.729,0.853 -0.979,1.084 1.084,-0.979 c 0.595,-0.539 1.083,-1.026 1.083,-1.084 0,-0.257 -0.275,-0.03 -1.188,0.979 m 15.938,4.48 c 0.321,0.084 0.846,0.084 1.167,0 0.321,-0.084 0.058,-0.152 -0.584,-0.152 -0.641,0 -0.904,0.068 -0.583,0.152 m -50.263,4.52 -1.654,1.75 1.75,-1.654 c 1.626,-1.537 1.903,-1.846 1.654,-1.846 -0.052,0 -0.84,0.788 -1.75,1.75 m -122.904,9.819 c 0.413,0.079 1.088,0.079 1.5,0 0.413,-0.08 0.075,-0.145 -0.75,-0.145 -0.825,0 -1.162,0.065 -0.75,0.145 M 297,116.167 c 0.996,1.008 1.886,1.833 1.977,1.833 0.092,0 -0.648,-0.825 -1.644,-1.833 -0.995,-1.009 -1.885,-1.834 -1.977,-1.834 -0.092,0 0.648,0.825 1.644,1.834 m -111,2.604 c 0,0.057 0.487,0.545 1.083,1.083 l 1.084,0.979 -0.979,-1.083 C 186.275,118.74 186,118.513 186,118.771 m -65.667,1.729 c -0.809,0.825 -1.397,1.5 -1.305,1.5 0.092,0 0.829,-0.675 1.639,-1.5 0.809,-0.825 1.397,-1.5 1.305,-1.5 -0.092,0 -0.829,0.675 -1.639,1.5 m 3.827,3.917 -3.327,3.416 3.417,-3.327 c 1.879,-1.83 3.417,-3.367 3.417,-3.416 0,-0.242 -0.416,0.153 -3.507,3.327 m 181.597,2.25 c 0,0.825 0.065,1.162 0.145,0.75 0.079,-0.413 0.079,-1.088 0,-1.5 -0.08,-0.413 -0.145,-0.075 -0.145,0.75 m -27.09,0.771 c 0,0.057 0.487,0.545 1.083,1.083 l 1.083,0.979 -0.979,-1.083 c -0.912,-1.01 -1.187,-1.237 -1.187,-0.979 m -27.75,7.808 c 0.962,0.067 2.537,0.067 3.5,0 0.962,-0.068 0.175,-0.123 -1.75,-0.123 -1.925,0 -2.713,0.055 -1.75,0.123 m -57.136,3.921 c 0.001,1.466 0.06,2.025 0.13,1.241 0.071,-0.784 0.07,-1.984 -0.002,-2.667 -0.072,-0.682 -0.129,-0.041 -0.128,1.426 m -69.635,-1.084 -0.979,1.084 1.083,-0.979 c 1.01,-0.913 1.237,-1.188 0.979,-1.188 -0.057,0 -0.545,0.487 -1.083,1.083 m 225.169,1.834 -1.148,1.25 1.25,-1.149 c 0.687,-0.632 1.25,-1.194 1.25,-1.25 0,-0.255 -0.282,-0.015 -1.352,1.149 m -192.565,0.992 c 0.688,0.072 1.813,0.072 2.5,0 0.688,-0.071 0.125,-0.13 -1.25,-0.13 -1.375,0 -1.937,0.059 -1.25,0.13 m 162.504,0.993 c 0.415,0.08 1.015,0.077 1.333,-0.006 0.319,-0.084 -0.02,-0.149 -0.754,-0.145 -0.733,0.003 -0.994,0.072 -0.579,0.151 M 156,149.167 c 0.622,0.641 1.206,1.166 1.297,1.166 0.092,0 -0.342,-0.525 -0.964,-1.166 -0.622,-0.642 -1.205,-1.167 -1.297,-1.167 -0.092,0 0.342,0.525 0.964,1.167 m -26.685,2.75 -1.148,1.25 1.25,-1.149 c 0.687,-0.632 1.25,-1.194 1.25,-1.25 0,-0.255 -0.282,-0.015 -1.352,1.149 m 191.442,3.75 c 0,0.825 0.065,1.162 0.145,0.75 0.079,-0.413 0.079,-1.088 0,-1.5 -0.08,-0.413 -0.145,-0.075 -0.145,0.75 m -152.827,1.247 c 1.153,0.065 2.953,0.065 4,-10e-4 1.047,-0.066 0.103,-0.12 -2.097,-0.119 -2.2,10e-4 -3.056,0.055 -1.903,0.12 m -26.847,1.649 c 0.321,0.084 0.846,0.084 1.167,0 0.321,-0.084 0.058,-0.152 -0.583,-0.152 -0.642,0 -0.905,0.068 -0.584,0.152 m 110.024,2.104 c 0,1.191 0.06,1.679 0.134,1.083 0.074,-0.596 0.074,-1.571 0,-2.167 -0.074,-0.596 -0.134,-0.108 -0.134,1.084 m -19.628,1.75 -0.979,1.083 1.083,-0.979 c 0.596,-0.538 1.084,-1.026 1.084,-1.083 0,-0.258 -0.275,-0.031 -1.188,0.979 m -95.062,1.416 c 0.004,0.734 0.072,0.994 0.152,0.58 0.08,-0.415 0.077,-1.015 -0.007,-1.334 -0.083,-0.318 -0.148,0.021 -0.145,0.754 m 79.676,2.079 c 0.877,0.069 2.227,0.068 3,-0.002 0.774,-0.07 0.057,-0.126 -1.593,-0.125 -1.65,0.001 -2.283,0.058 -1.407,0.127 m -26.721,3.152 c -0.021,0.86 0.08,1.637 0.225,1.726 0.145,0.09 0.211,-0.389 0.147,-1.063 -0.195,-2.062 -0.331,-2.305 -0.372,-0.663 m 44.379,0.436 c 0.003,0.733 0.072,0.994 0.151,0.579 0.08,-0.414 0.077,-1.014 -0.006,-1.333 -0.084,-0.319 -0.149,0.021 -0.145,0.754 m -58.996,-0.594 c 0.506,0.076 1.256,0.074 1.666,-0.005 0.41,-0.079 -0.004,-0.141 -0.921,-0.139 -0.917,0.003 -1.252,0.067 -0.745,0.144 m -6.834,0.996 c 0.414,0.08 1.014,0.077 1.333,-0.006 0.319,-0.084 -0.021,-0.149 -0.754,-0.145 -0.733,0.003 -0.994,0.072 -0.579,0.151 m 49.666,0.334 c 0.415,0.079 1.015,0.076 1.334,-0.007 0.318,-0.083 -0.021,-0.149 -0.754,-0.145 -0.734,0.004 -0.994,0.072 -0.58,0.152 m 53.667,0.333 c 0.415,0.08 1.015,0.077 1.333,-0.007 0.319,-0.083 -0.02,-0.148 -0.754,-0.145 -0.733,0.004 -0.994,0.072 -0.579,0.152 m 14.897,4.848 -1.318,1.416 1.417,-1.317 c 1.317,-1.226 1.57,-1.516 1.318,-1.516 -0.055,0 -0.692,0.637 -1.417,1.417 m -40.339,1.333 -0.979,1.083 1.084,-0.979 c 0.595,-0.538 1.083,-1.026 1.083,-1.083 0,-0.258 -0.275,-0.031 -1.188,0.979 m -118.979,1.583 c 0.716,0.734 1.377,1.334 1.469,1.334 0.092,0 -0.419,-0.6 -1.135,-1.334 C 126.451,177.6 125.79,177 125.698,177 c -0.092,0 0.419,0.6 1.135,1.333 m 79.924,1 c 0,0.825 0.065,1.163 0.145,0.75 0.079,-0.412 0.079,-1.087 0,-1.5 -0.08,-0.412 -0.145,-0.075 -0.145,0.75 m 85.722,3.084 -0.979,1.083 1.083,-0.979 c 0.596,-0.538 1.084,-1.026 1.084,-1.083 0,-0.258 -0.275,-0.031 -1.188,0.979 M 245,183.22 c 0,0.182 0.412,0.694 0.917,1.139 l 0.916,0.808 -0.833,-1 c -0.458,-0.55 -0.871,-1.063 -0.917,-1.139 -0.046,-0.077 -0.083,0.01 -0.083,0.192 m 43.982,3.03 -1.149,1.25 1.25,-1.149 c 1.164,-1.069 1.404,-1.351 1.149,-1.351 -0.056,0 -0.618,0.563 -1.25,1.25 m -83.649,3.917 c 0.622,0.641 1.206,1.166 1.298,1.166 0.091,0 -0.342,-0.525 -0.964,-1.166 -0.622,-0.642 -1.206,-1.167 -1.298,-1.167 -0.091,0 0.342,0.525 0.964,1.167 m 75.923,-0.259 c 0.599,0.074 1.499,0.073 2,-0.003 0.501,-0.076 0.011,-0.137 -1.089,-0.135 -1.1,0.002 -1.51,0.064 -0.911,0.138 M 5.448,196.167 c 10e-4,1.466 0.059,2.025 0.13,1.241 0.07,-0.784 0.069,-1.984 -0.002,-2.667 -0.072,-0.682 -0.13,-0.041 -0.128,1.426 m 115.017,2.666 c 0,2.567 0.053,3.573 0.116,2.236 0.064,-1.337 0.063,-3.437 -0.001,-4.667 -0.064,-1.229 -0.116,-0.135 -0.115,2.431 m 274.337,1.334 c 0,2.933 0.051,4.088 0.113,2.567 0.062,-1.521 0.061,-3.921 -0.001,-5.333 -0.062,-1.412 -0.113,-0.168 -0.112,2.766 m -167.802,1 c 0.622,0.641 1.206,1.166 1.297,1.166 0.092,0 -0.342,-0.525 -0.964,-1.166 -0.622,-0.642 -1.205,-1.167 -1.297,-1.167 -0.092,0 0.342,0.525 0.964,1.167 m -221.552,3 c 10e-4,1.466 0.059,2.025 0.13,1.241 0.07,-0.784 0.069,-1.984 -0.002,-2.667 -0.072,-0.682 -0.13,-0.041 -0.128,1.426 m 245.645,2.412 c 0.877,0.069 2.227,0.068 3,-0.002 0.774,-0.07 0.057,-0.126 -1.593,-0.125 -1.65,0.001 -2.283,0.058 -1.407,0.127 m 28.683,2.588 c 0.002,1.283 0.062,1.767 0.134,1.076 0.072,-0.692 0.071,-1.742 -0.003,-2.334 -0.073,-0.592 -0.132,-0.026 -0.131,1.258 m -102.794,-0.25 -1.149,1.25 1.25,-1.149 c 1.164,-1.069 1.404,-1.351 1.149,-1.351 -0.056,0 -0.618,0.562 -1.25,1.25 m 47.458,1.75 c 0,1.191 0.061,1.679 0.134,1.083 0.074,-0.596 0.074,-1.571 0,-2.167 -0.073,-0.596 -0.134,-0.108 -0.134,1.084 m -59.19,2.568 c 0.412,0.08 1.087,0.08 1.5,0 0.412,-0.079 0.075,-0.144 -0.75,-0.144 -0.825,0 -1.163,0.065 -0.75,0.144 m 82.167,0.995 c 0.32,0.084 0.845,0.084 1.166,0 0.321,-0.084 0.059,-0.153 -0.583,-0.153 -0.642,0 -0.904,0.069 -0.583,0.153 m 32,1.27 c 0.004,0.733 0.072,0.994 0.152,0.579 0.08,-0.414 0.077,-1.014 -0.007,-1.333 -0.083,-0.319 -0.148,0.021 -0.145,0.754 m -54.666,1.333 c 0.003,0.734 0.072,0.994 0.151,0.58 0.08,-0.415 0.077,-1.015 -0.006,-1.334 -0.084,-0.318 -0.149,0.021 -0.145,0.754 m 37.993,1.5 c 0,0.642 0.069,0.904 0.152,0.584 0.084,-0.321 0.084,-0.846 0,-1.167 -0.083,-0.321 -0.152,-0.058 -0.152,0.583 m -16.244,10 c 0.716,0.734 1.377,1.334 1.469,1.334 0.091,0 -0.42,-0.6 -1.136,-1.334 -0.716,-0.733 -1.377,-1.333 -1.468,-1.333 -0.092,0 0.419,0.6 1.135,1.333 m 83.646,5.75 -0.979,1.084 1.083,-0.979 c 0.596,-0.539 1.083,-1.026 1.083,-1.084 0,-0.257 -0.275,-0.03 -1.187,0.979 m -155.479,3.084 c -0.81,0.825 -1.397,1.5 -1.306,1.5 0.092,0 0.829,-0.675 1.639,-1.5 0.81,-0.825 1.397,-1.5 1.305,-1.5 -0.091,0 -0.829,0.675 -1.638,1.5 m -36.5,14.5 c 1.088,1.1 2.054,2 2.145,2 0.092,0 -0.723,-0.9 -1.812,-2 -1.089,-1.1 -2.054,-2 -2.146,-2 -0.091,0 0.724,0.9 1.813,2 m 14.75,6.902 c 0.412,0.079 1.087,0.079 1.5,0 0.412,-0.08 0.075,-0.145 -0.75,-0.145 -0.825,0 -1.163,0.065 -0.75,0.145 m 85.75,5.598 c 0.622,0.641 1.205,1.166 1.297,1.166 0.092,0 -0.342,-0.525 -0.964,-1.166 -0.622,-0.642 -1.206,-1.167 -1.297,-1.167 -0.092,0 0.342,0.525 0.964,1.167 m 10.242,5.074 c 0.592,0.073 1.642,0.074 2.334,0.002 0.691,-0.072 0.207,-0.132 -1.076,-0.134 -1.284,-10e-4 -1.85,0.058 -1.258,0.132 m -49.322,42.995 c 0.415,0.079 1.015,0.076 1.334,-0.007 0.318,-0.083 -0.021,-0.149 -0.754,-0.145 -0.734,0.004 -0.994,0.072 -0.58,0.152 m -55.163,10.431 c 0,0.825 0.065,1.162 0.145,0.75 0.079,-0.413 0.079,-1.088 0,-1.5 -0.08,-0.413 -0.145,-0.075 -0.145,0.75 M 121,336.104 c 0,0.058 0.487,0.545 1.083,1.084 l 1.084,0.979 -0.979,-1.084 C 121.275,336.074 121,335.847 121,336.104 m 177.812,14.646 -0.979,1.083 1.084,-0.979 c 0.595,-0.538 1.083,-1.026 1.083,-1.083 0,-0.258 -0.275,-0.031 -1.188,0.979 m -172.163,4.167 -1.149,1.25 1.25,-1.149 c 1.163,-1.069 1.403,-1.351 1.149,-1.351 -0.056,0 -0.618,0.562 -1.25,1.25 m -9.399,3.985 c 0.412,0.079 1.087,0.079 1.5,0 0.412,-0.08 0.075,-0.145 -0.75,-0.145 -0.825,0 -1.163,0.065 -0.75,0.145 m 55.52,8.265 c 0.002,1.1 0.064,1.509 0.138,0.91 0.074,-0.599 0.073,-1.499 -0.003,-2 -0.076,-0.501 -0.137,-0.01 -0.135,1.09 m 24.663,27.748 c 1.613,0.061 4.163,0.061 5.667,-0.001 1.503,-0.061 0.183,-0.111 -2.933,-0.111 -3.117,0 -4.347,0.051 -2.734,0.112"
       fill="#8b7b5f"
       id="path129"
       style="display:inline" />
  </g>
</svg>
