<svg xmlns="http://www.w3.org/2000/svg" width="398" height="277" style="shape-rendering:geometricPrecision;text-rendering:geometricPrecision;image-rendering:optimizeQuality;fill-rule:evenodd;clip-rule:evenodd"><path style="opacity:.911" fill="#f57936" d="M124.5 53.5a60.93 60.93 0 0 0-.5-11c-1.213 3.645-1.713 7.312-1.5 11-1.291.237-2.291-.096-3-1 1.166-1.666 1.166-3.333 0-5-.952 1.545-1.285 3.212-1 5-1.068.934-2.401 1.268-4 1v-21h13v21h-3z"/><path style="opacity:.971" fill="#f36f25" d="M131.5 32.5h6v3h-4c-.169 2.412.497 4.579 2 6.5-1.954 2.118-2.287 4.284-1 6.5a30.968 30.968 0 0 0 2 2c-1.545.952-3.212 1.285-5 1v-19z"/><path style="opacity:.909" fill="#f37129" d="M194.5 32.5v19h-3c-1.439-9.121-2.106-8.788-2 1-.709.904-1.709 1.237-3 1v-21h8z"/><path style="opacity:.074" fill="#f9b38c" d="M194.5 32.5c1.961 6.587 2.628 13.587 2 21-2.45.202-4.783-.131-7-1-.106-9.788.561-10.121 2-1h3v-19z"/><path style="opacity:.692" fill="#f4732d" d="M230.5 32.5a103.043 103.043 0 0 0-1 19h-4a63.22 63.22 0 0 0-2-19h7z"/><path style="opacity:.907" fill="#f57c3a" d="M253.5 39.5c1.013-1.16 1.347-3.16 1-6h3c-.302 2.56.032 4.893 1 7v13h-4a16.874 16.874 0 0 0-1-8c-.607.124-.94.457-1 1v7h-5v-21h5c-.302 2.56.032 4.893 1 7z"/><path style="opacity:.927" fill="#f36f26" d="M262.5 32.5h5c-.027 1.7-.694 3.033-2 4-.237 1.291.096 2.291 1 3v5c-.904.709-1.237 1.709-1 3 .221 1.235.888 2.235 2 3-1.545.952-3.212 1.285-5 1v-19z"/><path style="opacity:.913" fill="#f57936" d="M208.5 32.5c.345 7.32 1.012 7.32 2 0h4c-.661 2.988-1.328 5.988-2 9 .497 2.318.83 4.652 1 7-1.257 1.123-.924 1.79 1 2v3h-3a64.953 64.953 0 0 1-2.5-5 12.93 12.93 0 0 0-.5 5h-3v-21h3z"/><path style="opacity:.714" fill="#f9b691" d="M208.5 32.5h2c-.988 7.32-1.655 7.32-2 0z"/><path style="opacity:.977" fill="#f57d3c" d="M147.5 49.5c-1.241 2.431-2.408 2.431-3.5 0a10.136 10.136 0 0 0-1.5 4h-3a29.23 29.23 0 0 1 1-9c1.149-.291 1.816-1.124 2-2.5-.184-1.376-.851-2.209-2-2.5v-1c.624-.417.957-1.084 1-2-.247-1.213-.914-1.88-2-2 2.488-1.888 5.488-2.555 9-2a53.469 53.469 0 0 1-2 10 21.335 21.335 0 0 1 1 7z"/><path style="opacity:.999" fill="#f47834" d="M180.5 36.5c-.51 2.888.156 5.221 2 7 .841 1.88 1.175 3.88 1 6-1.794 2.44-3.794 2.44-6 0-1.968.6-2.968 1.933-3 4h-2c.268-1.599-.066-2.932-1-4v-1c2.691-2.44 3.358-5.44 2-9a51.56 51.56 0 0 0 1-7h6v4z"/><path style="opacity:.22" fill="#fbcbb0" d="M279.5 32.5a2.427 2.427 0 0 1 2 .5c-.58 1.335-.913 2.502-1 3.5-.934-1.068-1.268-2.401-1-4z"/><path style="opacity:.331" fill="#fdd3bb" d="M65.5 36.5c-4.844.717-9.511.717-14 0 4.667-1.333 9.333-1.333 14 0z"/><path style="opacity:.263" fill="#fac1a1" d="M267.5 32.5c1.676.683 2.343 2.017 2 4h-4c1.306-.967 1.973-2.3 2-4z"/><path style="opacity:.82" fill="#f57a38" d="M275.5 32.5a16.874 16.874 0 0 0 1 8c1.229-2.699 1.229-5.365 0-8h3c-.268 1.599.066 2.932 1 4 .3 4.5.3 9.167 0 14-4.39 1.442-6.057-.058-5-4.5-.13-1.059-.63-1.892-1.5-2.5a50.464 50.464 0 0 0-.5 10h-3v-21h5z"/><path style="opacity:1" fill="#fcb995" d="M80.5 36.5c-4 1.333-8 1.333-12 0 4-1.333 8-1.333 12 0z"/><path style="opacity:1" fill="#fbb690" d="M81.5 36.5c4.667-1.333 9.333-1.333 14 0-4.567 1.297-9.233 1.297-14 0z"/><path style="opacity:.82" fill="#fbbe9e" d="M139.5 34.5c1.086.12 1.753.787 2 2-.043.916-.376 1.583-1 2-.934-1.068-1.268-2.401-1-4z"/><path style="opacity:.752" fill="#f67e3d" d="M164.5 37.5c-.06-.543-.393-.876-1-1l-1 6c-.089 2.482.245 4.149 1 5 .934-1.068 1.268-2.401 1-4 4.568-.417 6.068 1.583 4.5 6-1.318 3.441-3.818 4.775-7.5 4 0-1.333-.667-2-2-2 0-1.333-.667-2-2-2a112.97 112.97 0 0 1 .5-15c3.101-2.22 6.435-2.553 10-1 1.035 2.391 1.202 4.724.5 7-1.189.929-2.522 1.262-4 1v-4z"/><path style="opacity:.688" fill="#fbd6c1" d="M244.5 35.5c.961 1.765 1.295 3.765 1 6h-4c.709-.904 1.709-1.237 3-1v-5z"/><path style="opacity:.529" fill="#f79965" d="M258.5 40.5c-.968-2.107-1.302-4.44-1-7h-3c.347 2.84.013 4.84-1 6v-7h5v8z"/><path style="opacity:1" fill="#f8a476" d="M275.5 32.5h1c1.229 2.635 1.229 5.301 0 8a16.874 16.874 0 0 1-1-8z"/><path style="opacity:1" fill="#fbb48d" d="M312.5 36.5c-4.333 1.333-8.667 1.333-13 0 4.333-1.333 8.667-1.333 13 0z"/><path style="opacity:1" fill="#fbbb98" d="M326.5 36.5c-4.101 1.29-8.101 1.29-12 0 4-1.333 8-1.333 12 0z"/><path style="opacity:1" fill="#faab80" d="M335.5 36.5c-2.333 1.333-4.667 1.333-7 0 2.333-1.333 4.667-1.333 7 0z"/><path style="opacity:1" fill="#fcb893" d="M343.5 36.5c-2.333 1.333-4.667 1.333-7 0 2.333-1.333 4.667-1.333 7 0z"/><path style="opacity:1" fill="#f67937" d="M111.5 38.5a930.82 930.82 0 0 0-61 1h-4c-1-1.333-2-1.333-3 0a9.864 9.864 0 0 1-6-1 3.646 3.646 0 0 1 1-1.5 84.938 84.938 0 0 1 13-.5c4.489.717 9.156.717 14 0h3c4 1.333 8 1.333 12 0h1c4.767 1.297 9.433 1.297 14 0a49.977 49.977 0 0 1 15-.5c.752.67 1.086 1.504 1 2.5z"/><path style="opacity:.271" fill="#f79a66" d="M230.5 32.5c2.47.86 2.637 2.194.5 4a145.05 145.05 0 0 0-.5 17c-2.281.423-3.948-.244-5-2h4a103.043 103.043 0 0 1 1-19z"/><path style="opacity:1" fill="#f36e25" d="M294.5 36.5h5c4.333 1.333 8.667 1.333 13 0h2c3.899 1.29 7.899 1.29 12 0h2c2.333 1.333 4.667 1.333 7 0h1c2.333 1.333 4.667 1.333 7 0a84.94 84.94 0 0 1 13 .5c.457.414.791.914 1 1.5a13.118 13.118 0 0 1-7 1c-.667-1.333-1.333-1.333-2 0h-4c-8.484-.993-17.151-1.326-26-1-11.338.166-22.672 0-34-.5 3.525-.179 6.859-.679 10-1.5z"/><path style="opacity:.961" fill="#fcc5a7" d="M111.5 38.5v6h-3c.734-1.208 1.067-2.541 1-4h-59v-1a930.82 930.82 0 0 1 61-1z"/><path style="opacity:.455" fill="#fcd4be" d="M164.5 37.5c-.979 3.125-1.313 6.458-1 10-.755-.851-1.089-2.518-1-5l1-6c.607.124.94.457 1 1z"/><path style="opacity:.681" fill="#f9b38d" d="M240.5 37.5c-1.333 3.333-1.333 6.667 0 10-.06.543-.393.876-1 1-1.333-4-1.333-8 0-12 .607.124.94.457 1 1z"/><path style="opacity:.961" fill="#f9ab81" d="M294.5 36.5c-3.141.821-6.475 1.321-10 1.5 11.328.5 22.662.666 34 .5-11.154.995-22.488 1.328-34 1-1.291-1.042-1.291-2.208 0-3.5 3.527-.807 6.86-.64 10 .5z"/><path style="opacity:.461" fill="#fabf9e" d="M137.5 35.5c-.778.656-1.444 1.489-2 2.5 2.667 2.667 2.667 5.333 0 8 .243.902.577 1.735 1 2.5h-2c-1.287-2.216-.954-4.382 1-6.5-1.503-1.921-2.169-4.088-2-6.5h4z"/><path style="opacity:.106" fill="#fcceb5" d="M318.5 38.5c8.849-.326 17.516.007 26 1-.667 0-1 .333-1 1h-59v-1c11.512.328 22.846-.005 34-1z"/><path style="opacity:.22" fill="#fcc8ad" d="M46.5 39.5c.709.904 1.709 1.237 3 1-1.889 1.242-3.889 1.242-6 0v-1c1-1.333 2-1.333 3 0z"/><path style="opacity:1" fill="#f68d53" d="M43.5 40.5c2.111 1.242 4.111 1.242 6 0h21c-.38 1.431-1.38 2.264-3 2.5 4.851.175 9.518.675 14 1.5h-44c.26-3.568 2.26-4.901 6-4z"/><path style="opacity:.965" fill="#f8a576" d="M131.5 32.5v19c1.788.285 3.455-.048 5-1a30.968 30.968 0 0 1-2-2h2c.951 1.419 1.284 3.085 1 5h-8c-.628-7.413.039-14.413 2-21z"/><path style="opacity:1" fill="#f68e55" d="M350.5 39.5c0 .667.333 1 1 1a44.093 44.093 0 0 0 3 2 625.46 625.46 0 0 0-10 2h-32c4.816-.826 9.816-1.326 15-1.5-1.619-.236-2.619-1.069-3-2.5h19c1.915.285 3.581-.049 5-1 .667-1.333 1.333-1.333 2 0z"/><path style="opacity:1" fill="#f47a37" d="M70.5 40.5h39c.067 1.459-.266 2.792-1 4h-27c-4.482-.825-9.149-1.325-14-1.5 1.62-.236 2.62-1.069 3-2.5z"/><path style="opacity:.298" fill="#faad83" d="M180.5 36.5c1.424 2.014 2.09 4.348 2 7-1.844-1.779-2.51-4.112-2-7z"/><path style="opacity:.051" fill="#fbcaae" d="M266.5 39.5c1.149.291 1.816 1.124 2 2.5-.184 1.376-.851 2.209-2 2.5v-5z"/><path style="opacity:1" fill="#f47c3a" d="M284.5 40.5h40c.381 1.431 1.381 2.264 3 2.5-5.184.174-10.184.674-15 1.5h-29c-.268-1.599.066-2.932 1-4z"/><path style="opacity:.925" fill="#fabe9d" d="M140.5 39.5c1.149.291 1.816 1.124 2 2.5-.184 1.376-.851 2.209-2 2.5v-5z"/><path style="opacity:1" fill="#f99a66" d="M173.5 39.5c1.358 3.56.691 6.56-2 9 .176-3.227.843-6.227 2-9z"/><path style="opacity:.357" fill="#fbc4a6" d="M351.5 40.5a11.99 11.99 0 0 1 6 1c1.211.774 1.211 1.607 0 2.5a84.94 84.94 0 0 1-13 .5 625.46 625.46 0 0 1 10-2 44.093 44.093 0 0 1-3-2z"/><path style="opacity:.694" fill="#f79b68" d="M217.5 32.5v19h3v-19c.991 6.813 1.325 13.813 1 21h-5c-.325-7.187.009-14.187 1-21z"/><path style="opacity:1" fill="#f37028" d="M217.5 32.5h3v19h-3v-19z"/><path style="opacity:.633" fill="#fbc8ad" d="M240.5 44.5c1.419-.951 3.085-1.285 5-1 .295 2.235-.039 4.235-1 6v-5h-4z"/><path style="opacity:.118" fill="#fccfb6" d="m64.5 45.5-11 2c-1.599.268-2.932-.066-4-1 4.805-.987 9.805-1.32 15-1z"/><path style="opacity:.118" fill="#fbc7ab" d="M329.5 45.5c5.526-.321 10.86.012 16 1-4.805.987-9.805 1.32-15 1l-1-2z"/><path style="opacity:.388" fill="#faba96" d="M41.5 46.5a27.185 27.185 0 0 1 5 3c-2.982.396-5.649-.271-8-2 .825-.886 1.825-1.219 3-1z"/><path style="opacity:.957" fill="#f8a77a" d="M64.5 45.5h19c-.291 1.15-1.124 1.816-2.5 2a416.228 416.228 0 0 0-27.5 0l11-2z"/><path style="opacity:.957" fill="#fab087" d="M90.5 45.5c6.854-.324 13.521.01 20 1-3.149.665-6.482.998-10 1-3.739-.014-7.072-.68-10-2z"/><path style="opacity:.871" fill="#f47733" d="M244.5 35.5v5c-1.291-.237-2.291.096-3 1-.934-1.068-1.268-2.401-1-4-.06-.543-.393-.876-1-1-1.333 4-1.333 8 0 12 .607-.124.94-.457 1-1v-3h4v5c1.268 1.287.935 2.287-1 3a9.864 9.864 0 0 1-6 1c-.238-1.904-1.238-3.238-3-4a69.234 69.234 0 0 1 1-16c2.606-1.152 5.273-1.318 8-.5.752.67 1.086 1.504 1 2.5z"/><path style="opacity:.63" fill="#fab691" d="M252.5 46.5c.06-.543.393-.876 1-1a16.874 16.874 0 0 1 1 8l-2-7z"/><path style="opacity:.957" fill="#faba97" d="M304.5 45.5c-6.258 1.8-12.925 2.633-20 2.5 1.237.232 2.237.732 3 1.5-1.042 1.291-2.208 1.291-3.5 0-.684-1.284-.517-2.45.5-3.5 6.658-.5 13.325-.666 20-.5z"/><path style="opacity:.957" fill="#f79e6d" d="M308.5 45.5h21l1 2a79.654 79.654 0 0 0-18 0c-1.833-.085-3.166-.752-4-2z"/><path style="opacity:.76" fill="#f77e3e" d="M83.5 45.5h7c2.928 1.32 6.261 1.986 10 2 3.518-.002 6.851-.335 10-1 1.483 2.184.816 3.517-2 4a1067.907 1067.907 0 0 0-62-1 27.185 27.185 0 0 0-5-3h8c1.068.934 2.401 1.268 4 1a416.228 416.228 0 0 1 27.5 0c1.376-.184 2.209-.85 2.5-2z"/><path style="opacity:.737" fill="#f7a070" d="M151.5 32.5v19h3v-19c.991 6.813 1.325 13.813 1 21h-5c-.325-7.187.009-14.187 1-21z"/><path style="opacity:1" fill="#f3732c" d="M151.5 32.5h3v19h-3v-19z"/><path style="opacity:.747" fill="#f57b39" d="M304.5 45.5h4c.834 1.248 2.167 1.915 4 2a79.654 79.654 0 0 1 18 0c5.195.32 10.195-.013 15-1h7a9.818 9.818 0 0 0-4 3c-20.318.112-40.651.112-61 0-.763-.768-1.763-1.268-3-1.5 7.075.133 13.742-.7 20-2.5z"/><path style="opacity:.878" fill="#f9b48f" d="M352.5 46.5c1.478-.262 2.811.071 4 1-2.433 1.554-5.1 2.22-8 2a9.818 9.818 0 0 1 4-3z"/><path style="opacity:.071" fill="#fbccb2" d="M213.5 48.5c.838.342 1.172 1.008 1 2-1.924-.21-2.257-.877-1-2z"/><path style="opacity:.224" fill="#fac6a9" d="M157.5 49.5c1.333 0 2 .667 2 2-1.333 0-2-.667-2-2z"/><path style="opacity:.039" fill="#f9b48f" d="M119.5 52.5h-1c-.285-1.788.048-3.455 1-5 1.166 1.667 1.166 3.334 0 5z"/><path style="opacity:.429" fill="#fbc5a7" d="M234.5 49.5c1.762.762 2.762 2.096 3 4-1.762-.762-2.762-2.096-3-4z"/><path style="opacity:.035" fill="#f8ab81" d="M124.5 53.5h-2c-.213-3.688.287-7.355 1.5-11a60.93 60.93 0 0 1 .5 11z"/><path style="opacity:.035" fill="#faba96" d="M147.5 49.5c.934 1.068 1.268 2.401 1 4h-6a10.136 10.136 0 0 1 1.5-4c1.092 2.431 2.259 2.431 3.5 0z"/><path style="opacity:.039" fill="#fcc3a3" d="M159.5 51.5c1.333 0 2 .667 2 2-1.333 0-2-.667-2-2z"/><path style="opacity:.004" fill="#fbccb2" d="M171.5 49.5c.934 1.068 1.268 2.401 1 4-1.086-.12-1.753-.787-2-2 .043-.916.376-1.583 1-2z"/><path style="opacity:.039" fill="#f9ae85" d="M183.5 49.5c.934 1.068 1.268 2.401 1 4-2.644.34-4.977-.327-7-2-.765 1.112-1.765 1.779-3 2 .032-2.067 1.032-3.4 3-4 2.206 2.44 4.206 2.44 6 0z"/><path style="opacity:.027" fill="#fac4a6" d="M211.5 53.5h-3c-.16-1.7.006-3.366.5-5a64.953 64.953 0 0 0 2.5 5z"/><path style="opacity:.039" fill="#f79863" d="M262.5 32.5v19c1.788.285 3.455-.048 5-1-1.112-.765-1.779-1.765-2-3 3.146.294 4.313 1.961 3.5 5-2.719.944-5.552 1.277-8.5 1-.628-7.413.039-14.413 2-21z"/><path style="opacity:.039" fill="#f79a66" d="M280.5 50.5c.832.828.499 1.662-1 2.5-2.186.061-4.186.228-6 .5-.165-3.35.002-6.683.5-10 .87.608 1.37 1.441 1.5 2.5-1.057 4.442.61 5.942 5 4.5z"/><path style="opacity:.976" fill="#f36d27" d="M104.5 70.5h13c-.237 1.291.096 2.291 1 3v7c-.973 2.448-1.306 5.115-1 8h-6c-.06-.543-.393-.876-1-1a394.395 394.395 0 0 0-1.5 37c2.538 2.336 5.371 2.67 8.5 1-.268 1.599.066 2.932 1 4 .129 4.378.129 8.545 0 12.5-8.66.5-17.327.666-26 .5-3.125-.979-6.458-1.313-10-1 .32-5.195-.013-10.195-1-15 0-.667.333-1 1-1 2.635 1.229 5.301 1.229 8 0-.124-.607-.457-.94-1-1v-1c.977-2.787 1.31-5.787 1-9h-3c-7.009.44-14.009.773-21 1v4c-1.311 2.06-1.311 4.226 0 6.5 2.646.497 5.313.664 8 .5v1c-1.186 1.461-1.186 2.795 0 4v4c-.841 1.879-1.175 3.879-1 6-2.235-.295-4.235.039-6 1h-30v-14a81.216 81.216 0 0 0 2.5-3c2.339 1.578 4.172 1.245 5.5-1v-3c1.333-2 1.333-4 0-6v-10c1.333-3.667 1.333-7.333 0-11v-4c.838-.342 1.172-1.008 1-2-2.738-1.525-5.738-2.525-9-3v-12a7508.078 7508.078 0 0 0 34-2h1c.233 1.562.9 2.895 2 4v2c-1.72 2.158-2.553 4.825-2.5 8-2.026.415-3.526 1.415-4.5 3-.977 2.787-1.31 5.787-1 9h22c.972 1.251 1.639.918 2-1a10.028 10.028 0 0 0-1-3v-5h-4c-1.333-1.333-2.667-1.333-4 0-.904-.709-1.237-1.709-1-3 1.15-.291 1.816-1.124 2-2.5-.028-1.07-.361-1.903-1-2.5v-3c.961-1.765 1.295-3.765 1-6h1c1.55 1.22 3.216 1.22 5 0h2c2.141.663 4.475.997 7 1 2.769-.029 5.103-.695 7-2z"/><path style="opacity:.989" fill="#f36d28" d="M316.5 73.5a72.368 72.368 0 0 1-.5 12c-1.487.655-2.653 1.655-3.5 3 .984 4.15 3.151 7.483 6.5 10 1.847-.67 3.014-2.003 3.5-4-.124-.607-.457-.94-1-1a30.818 30.818 0 0 0 3-4.5c-1.619-.236-2.619-1.069-3-2.5a128.105 128.105 0 0 1 3-16h16c4.534.716 9.201 1.382 14 2 .683-.363 1.35-.696 2-1 .987 4.805 1.321 9.805 1 15-1.333 0-2 .667-2 2h-2c-.597-.639-1.43-.972-2.5-1-1.376.184-2.209.85-2.5 2 0 .667-.333 1-1 1-2.493 2.158-4.16 4.824-5 8-2.296 1.233-3.63 3.233-4 6 .032 2.119-.968 3.452-3 4-5.487 4.666-7.487 10.666-6 18 3.109-.236 6.109.097 9 1a55.155 55.155 0 0 1-1 14.5c-11.662.5-23.329.667-35 .5-1.649-6.226-1.316-12.226 1-18h1c1.432 2.147 3.265 2.48 5.5 1l.5-3.5c-.108-1.681-.775-2.848-2-3.5.849-3.637-.484-6.303-4-8a2204.534 2204.534 0 0 1-7-10c0-1.333-.667-2-2-2l-4-6c1.025-.397 1.192-1.063.5-2-2.239-3.462-5.406-4.795-9.5-4v-14c8.734.635 17.067-.032 25-2a16.603 16.603 0 0 1 7-.5c1.473.71 2.14 1.876 2 3.5z"/><path style="opacity:.263" fill="#f79867" d="M340.5 70.5c5.526-.321 10.86.012 16 1-.65.304-1.317.637-2 1a494.178 494.178 0 0 1-14-2z"/><path style="opacity:1" fill="#f8a377" d="M71.5 71.5a7508.078 7508.078 0 0 1-34 2c-.086-.996.248-1.83 1-2.5 11.175-.826 22.175-.659 33 .5z"/><path style="opacity:.995" fill="#fcc1a2" d="M88.5 71.5c-1.784 1.22-3.45 1.22-5 0 1.667-1.333 3.333-1.333 5 0z"/><path style="opacity:1" fill="#f9a87d" d="M104.5 70.5c-1.897 1.305-4.231 1.971-7 2-2.525-.003-4.859-.337-7-1 4.47-.986 9.137-1.32 14-1z"/><path style="opacity:.906" fill="#fbcdb4" d="M117.5 70.5c2.052.553 2.385 1.553 1 3-.904-.709-1.237-1.709-1-3z"/><path style="opacity:1" fill="#f9ab82" d="M142.5 71.5c-4.667 1.333-9.333 1.333-14 0 4.667-1.333 9.333-1.333 14 0z"/><path style="opacity:.992" fill="#f36d28" d="M126.5 71.5h2c4.667 1.333 9.333 1.333 14 0h6c3.667 1.333 7.333 1.333 11 0 .667 0 1 .333 1 1a75.462 75.462 0 0 1-1 16h-1c-1.693-2.266-3.86-2.6-6.5-1l-.5 13c.008 4.722.675 9.055 2 13 .59 4.861 2.923 8.527 7 11 .12 1.086.787 1.753 2 2 1.667-1.333 3.333-1.333 5 0 1.213-.247 1.88-.914 2-2h1c-.065.438.101.772.5 1 1.417-.578 2.25-1.578 2.5-3a14.698 14.698 0 0 1 3-3.5c-.671-.986-.671-2.153 0-3.5 1.225-.652 1.892-1.819 2-3.5-.014-1.385-.348-2.551-1-3.5v-19c.111-.617.444-1.117 1-1.5a32.438 32.438 0 0 0-8-.5c-.548-2.377-.881-5.21-1-8.5l.5-6.5c.383-.556.883-.89 1.5-1a66.627 66.627 0 0 0 23 0h4c2 1.333 4 1.333 6 0 .992-.172 1.658.162 2 1-1.3 4.9-1.3 9.9 0 15 0 .667-.333 1-1 1-2.448-.973-5.115-1.306-8-1-.295 2.235.039 4.235 1 6a202.645 202.645 0 0 1-1.5 32c-3.359 5.857-7.859 10.524-13.5 14-1.679-.215-2.679.452-3 2h-1c.065-.438-.101-.772-.5-1-.995.566-1.828 1.233-2.5 2-6.697 1.298-13.364 1.298-20 0-2.645-1.81-5.645-2.81-9-3-1.73-.526-3.064-1.526-4-3a529.784 529.784 0 0 0-9-10c-1.748-8.527-2.415-17.194-2-26 1.333-2 1.333-4 0-6v-5c-.634-1.447-1.801-2.113-3.5-2-1.07.028-1.903.361-2.5 1-.992.172-1.658-.162-2-1a777.016 777.016 0 0 0 2-16z"/><path style="opacity:1" fill="#faaf89" d="M148.5 71.5c3.667-1.333 7.333-1.333 11 0-3.667 1.333-7.333 1.333-11 0z"/><path style="opacity:1" fill="#faaf88" d="M194.5 71.5a66.627 66.627 0 0 1-23 0 66.627 66.627 0 0 1 23 0z"/><path style="opacity:1" fill="#fbbe9f" d="M204.5 71.5c-2 1.333-4 1.333-6 0 2-1.333 4-1.333 6 0z"/><path style="opacity:.99" fill="#f36e29" d="M214.5 70.5c5.652.532 11.319.865 17 1 5.991.666 12.157 1 18.5 1 6.538-.004 12.705-.67 18.5-2h4c0 1.333.667 2 2 2v1c-.991 6.813-1.325 13.813-1 21a46.797 46.797 0 0 0-13 1c-3.099-1.033-3.766-3.033-2-6-.12-1.086-.787-1.753-2-2-1.213.247-1.88.914-2 2h-13c-1.248.834-1.915 2.167-2 4-.174 2.193.493 4.027 2 5.5 5.184.816 10.184.65 15-.5.839 1.141 1.506 2.474 2 4a28.819 28.819 0 0 0-1 10 200.398 200.398 0 0 1-17 2v10c6.479.991 13.146 1.324 20 1 .268-1.599-.066-2.932-1-4v-2a85.983 85.983 0 0 0 9-3c2.894-.458 5.394.209 7.5 2a430.712 430.712 0 0 0-.5 23 641.383 641.383 0 0 1-62 .5c-1.75-1.754-2.417-3.921-2-6.5 1.265-1.014 1.931-2.514 2-4.5-.008-1.707-.342-3.207-1-4.5.462-1.38 1.462-2.047 3-2 1.349.346 2.683.679 4 1 .841.509 1.341-.157 1.5-2l.5-17.5c-.004-6.207-.671-12.04-2-17.5-1.779-1.844-4.112-2.51-7-2v-1a328.494 328.494 0 0 0 2-15z"/><path style="opacity:1" fill="#f9b18b" d="M268.5 70.5c-5.795 1.33-11.962 1.996-18.5 2-6.343 0-12.509-.334-18.5-1a342.838 342.838 0 0 1 37-1z"/><path style="opacity:.051" fill="#fbbd9d" d="M272.5 70.5c1.333 0 2 .667 2 2 0-1.333-.667-2-2-2z"/><path style="opacity:1" fill="#fcaa81" d="M72.5 71.5c2.81.458 3.476 1.791 2 4-1.1-1.105-1.767-2.438-2-4z"/><path style="opacity:.88" fill="#fbcdb5" d="M82.5 71.5c.295 2.235-.039 4.235-1 6-.647-.774-.98-1.774-1-3 .14-1.53.806-2.53 2-3z"/><path style="opacity:1" fill="#f9a57a" d="M307.5 70.5c-7.933 1.968-16.266 2.635-25 2v14c4.094-.795 7.261.538 9.5 4 .692.937.525 1.603-.5 2-1.337-.815-2.337-1.981-3-3.5-2.834-.045-5.334-.879-7.5-2.5a49.226 49.226 0 0 1 0-14l1.5-1.5c8.327-.5 16.66-.666 25-.5z"/><path style="opacity:.024" fill="#f9a478" d="M214.5 70.5a328.494 328.494 0 0 1-2 15c-1.147-4.146-1.314-8.48-.5-13 .417-1.256 1.25-1.923 2.5-2z"/><path style="opacity:.004" fill="#f89a6a" d="M274.5 73.5c.665 3.15.998 6.483 1 10 1.948 12.695-3.052 16.695-15 12a46.797 46.797 0 0 1 13-1c-.325-7.187.009-14.187 1-21z"/><path style="opacity:.965" fill="#f9ab82" d="M126.5 71.5a777.016 777.016 0 0 1-2 16c-1.15-4.816-1.316-9.816-.5-15 .671-.752 1.504-1.086 2.5-1z"/><path style="opacity:.733" fill="#f8a77d" d="M160.5 72.5c1.15 4.816 1.316 9.816.5 15-.383.556-.883.89-1.5 1a75.462 75.462 0 0 0 1-16z"/><path style="opacity:.165" fill="#f79c6c" d="M206.5 72.5c1.333 5 1.333 10 0 15-1.3-5.1-1.3-10.1 0-15z"/><path style="opacity:.875" fill="#f8a275" d="M81.5 80.5c.639.597.972 1.43 1 2.5-.184 1.376-.85 2.209-2 2.5-.284-1.915.049-3.581 1-5z"/><path style="opacity:.965" fill="#fbb895" d="M324.5 70.5a128.105 128.105 0 0 0-3 16c-1.277-4.89-1.11-9.89.5-15 .671-.752 1.504-1.086 2.5-1z"/><path style="opacity:.039" fill="#fab896" d="M118.5 80.5c.656 1.122.989 2.455 1 4-.085 1.833-.752 3.166-2 4-.306-2.885.027-5.552 1-8z"/><path style="opacity:.791" fill="#f68a52" d="M74.5 77.5v11h-7c.974-1.585 2.474-2.585 4.5-3-.053-3.175.78-5.842 2.5-8z"/><path style="opacity:.929" fill="#f9a376" d="M212.5 86.5c2.888-.51 5.221.156 7 2-2.888.51-5.221-.156-7-2z"/><path style="opacity:.929" fill="#f78f5a" d="M316.5 73.5c.987 4.805 1.321 9.805 1 15a4.932 4.932 0 0 0-3 .5 30.083 30.083 0 0 0 5 7.5 44.293 44.293 0 0 1 2-3c.543.06.876.393 1 1-.486 1.997-1.653 3.33-3.5 4-3.349-2.517-5.516-5.85-6.5-10 .847-1.345 2.013-2.345 3.5-3 .499-3.986.666-7.986.5-12z"/><path style="opacity:.086" fill="#fbcbb3" d="M357.5 86.5c0 1.333-.667 2-2 2 0-1.333.667-2 2-2z"/><path style="opacity:.078" fill="#f7935f" d="M37.5 85.5c3.262.475 6.262 1.475 9 3h-2a18.436 18.436 0 0 1-6-.5c-.752-.67-1.086-1.504-1-2.5z"/><path style="opacity:.818" fill="#fbcfb9" d="M81.5 88.5c1.333-1.333 2.667-1.333 4 0-1.205 1.186-2.539 1.186-4 0z"/><path style="opacity:.825" fill="#fbd0ba" d="M170.5 87.5a32.438 32.438 0 0 1 8 .5c-.556.383-.889.883-1 1.5a18.437 18.437 0 0 1-6-.5c-.556-.383-.889-.883-1-1.5z"/><path style="opacity:.22" fill="#fccbb2" d="M353.5 88.5c-1.55-.008-3.217.325-5 1 .291-1.15 1.124-1.816 2.5-2 1.07.028 1.903.361 2.5 1z"/><path style="opacity:.02" fill="#fab795" d="M132.5 89.5c-2.235.295-4.235-.039-6-1 .597-.639 1.43-.972 2.5-1 1.699-.113 2.866.553 3.5 2z"/><path style="opacity:.02" fill="#f8ae87" d="M258.5 89.5h-4c.12-1.086.787-1.753 2-2 1.213.247 1.88.914 2 2z"/><path style="opacity:.533" fill="#fbd2bc" d="M44.5 88.5h2c.172.992-.162 1.658-1 2-.838-.342-1.172-1.008-1-2z"/><path style="opacity:.988" fill="#fbba99" d="M158.5 88.5h-5v25c-1.325-3.945-1.992-8.278-2-13l.5-13c2.64-1.6 4.807-1.266 6.5 1z"/><path style="opacity:.573" fill="#f79969" d="M205.5 88.5c-2.107.968-4.441 1.302-7 1v4c-.961-1.765-1.295-3.765-1-6 2.885-.306 5.552.027 8 1z"/><path style="opacity:.854" fill="#fbd1bc" d="M45.5 94.5c1.333 3.667 1.333 7.333 0 11-1.333-3.667-1.333-7.333 0-11z"/><path style="opacity:.99" fill="#fbb997" d="M132.5 94.5c1.333 2 1.333 4 0 6-1.333-2-1.333-4 0-6z"/><path style="opacity:.192" fill="#f8a173" d="M347.5 90.5c-.883 3.204-2.55 5.87-5 8 .84-3.176 2.507-5.842 5-8z"/><path style="opacity:.22" fill="#fccab0" d="M89.5 93.5c.482.916.815 1.916 1 3-.361 1.918-1.028 2.251-2 1-.268-1.599.066-2.932 1-4z"/><path style="opacity:.839" fill="#f9a579" d="M241.5 89.5v8c5.195-.32 10.195.013 15 1-4.816 1.15-9.816 1.316-15 .5-1.507-1.473-2.174-3.307-2-5.5.085-1.833.752-3.166 2-4z"/><path style="opacity:.18" fill="#f8a072" d="M219.5 88.5c1.329 5.46 1.996 11.293 2 17.5l-.5 17.5c-.159 1.843-.659 2.509-1.5 2v-37z"/><path style="opacity:.149" fill="#fbc7ad" d="M295.5 98.5c1.333 0 2 .667 2 2-1.333 0-2-.667-2-2z"/><path style="opacity:.012" fill="#fab08a" d="M342.5 98.5c-.798 2.466-2.131 4.466-4 6 .37-2.767 1.704-4.767 4-6z"/><path style="opacity:.923" fill="#fbcdb6" d="M177.5 108.5c.652.949.986 2.115 1 3.5-.108 1.681-.775 2.848-2 3.5-.302-2.559.032-4.893 1-7z"/><path style="opacity:.222" fill="#f9a174" d="M304.5 110.5c3.516 1.697 4.849 4.363 4 8-.84-2.861-2.173-5.527-4-8z"/><path style="opacity:1" fill="#f99969" d="M257.5 112.5c.086.996-.248 1.829-1 2.5l-14 1c-.544.717-1.211 1.217-2 1.5v-3a200.398 200.398 0 0 0 17-2z"/><path style="opacity:.196" fill="#faa67b" d="M335.5 108.5a61.858 61.858 0 0 1-4.5 9 24.935 24.935 0 0 0-.5 7c2.357-.163 4.69.003 7 .5.752.671 1.086 1.504 1 2.5-2.891-.903-5.891-1.236-9-1-1.487-7.334.513-13.334 6-18z"/><path style="opacity:.767" fill="#fbcfb9" d="M45.5 115.5c1.333 2 1.333 4 0 6-1.333-2-1.333-4 0-6z"/><path style="opacity:.945" fill="#f8a579" d="M268.5 116.5a85.983 85.983 0 0 1-9 3c-.086-.996.248-1.829 1-2.5a32.462 32.462 0 0 1 8-.5z"/><path style="opacity:.215" fill="#fccfb8" d="M87.5 114.5h3c.31 3.213-.023 6.213-1 9a141.46 141.46 0 0 1-2-9z"/><path style="opacity:.322" fill="#fab694" d="M173.5 122.5c-.25 1.422-1.083 2.422-2.5 3-.399-.228-.565-.562-.5-1 .473-1.406 1.473-2.073 3-2z"/><path style="opacity:.208" fill="#fac3a5" d="M240.5 118.5c.951 1.419 1.284 3.085 1 5h18c-6.145.99-12.478 1.323-19 1v-6z"/><path style="opacity:.996" fill="#f79c6c" d="M259.5 121.5c.934 1.068 1.268 2.401 1 4-6.854.324-13.521-.009-20-1 6.522.323 12.855-.01 19-1v-2z"/><path style="opacity:1" fill="#fab28d" d="M66.5 119.5v5c3.198-.536 5.865.131 8 2a32.462 32.462 0 0 1-8-.5c-1.311-2.274-1.311-4.44 0-6.5z"/><path style="opacity:1" fill="#fcb693" d="M82.5 125.5c2.107-.968 4.44-1.302 7-1 .543.06.876.393 1 1-2.699 1.229-5.365 1.229-8 0z"/><path style="opacity:1" fill="#fbb28d" d="M111.5 88.5a334.103 334.103 0 0 0-1 36c2.559-.302 4.893.032 7 1-3.129 1.67-5.962 1.336-8.5-1-.08-12.34.42-24.673 1.5-37 .607.124.94.457 1 1z"/><path style="opacity:1" fill="#fbad86" d="M160.5 124.5h9c-.12 1.086-.787 1.753-2 2-1.667-1.333-3.333-1.333-5 0-1.213-.247-1.88-.914-2-2z"/><path style="opacity:1" fill="#f9a77d" d="M308.5 118.5c1.225.652 1.892 1.819 2 3.5l-.5 3.5c-2.235 1.48-4.068 1.147-5.5-1h4v-6z"/><path style="opacity:.62" fill="#fbb592" d="M45.5 124.5c-1.328 2.245-3.161 2.578-5.5 1a81.216 81.216 0 0 1-2.5 3c-.17-1.322.163-2.489 1-3.5a24.935 24.935 0 0 1 7-.5z"/><path style="opacity:.902" fill="#fbc4a8" d="M117.5 125.5c1.086.12 1.753.787 2 2-.043.916-.376 1.583-1 2-.934-1.068-1.268-2.401-1-4z"/><path style="opacity:.156" fill="#fdd4c0" d="M74.5 127.5c1.333 1.333 1.333 2.667 0 4-1.186-1.205-1.186-2.539 0-4z"/><path style="opacity:.024" fill="#f89c6c" d="M212.5 126.5c.658 1.293.992 2.793 1 4.5-.069 1.986-.735 3.486-2 4.5-.31-3.213.023-6.213 1-9z"/><path style="opacity:.153" fill="#f9a073" d="M134.5 126.5a529.784 529.784 0 0 1 9 10c-4.395-2.062-7.395-5.396-9-10z"/><path style="opacity:.177" fill="#fccfb9" d="M74.5 135.5c.968 2.107 1.302 4.441 1 7h-8c1.765-.961 3.765-1.295 6-1-.175-2.121.159-4.121 1-6z"/><path style="opacity:.643" fill="#f79867" d="M303.5 124.5c-2.316 5.774-2.649 11.774-1 18-.617-.111-1.117-.444-1.5-1a64.218 64.218 0 0 1 0-16c.671-.752 1.504-1.086 2.5-1z"/><path style="opacity:.875" fill="#fab997" d="M81.5 126.5c.987 4.805 1.32 9.805 1 15 3.542-.313 6.875.021 10 1h-12c-.321-5.526.012-10.86 1-16z"/><path style="opacity:.439" fill="#fccab0" d="M183.5 139.5c-.473 1.406-1.473 2.073-3 2 .321-1.548 1.321-2.215 3-2z"/><path style="opacity:.039" fill="#faaf88" d="M147.5 139.5c3.355.19 6.355 1.19 9 3-3.544.368-6.544-.632-9-3z"/><path style="opacity:.027" fill="#f9b390" d="M179.5 141.5c-.709.904-1.709 1.237-3 1 .672-.767 1.505-1.434 2.5-2 .399.228.565.562.5 1z"/><path style="opacity:.004" fill="#f9bc9b" d="M332.5 145.5c-3.333 1.333-6.667 1.333-10 0 3.333-1.333 6.667-1.333 10 0z"/><path style="opacity:.047" fill="#fabd9d" d="M72.5 148.5a94.873 94.873 0 0 1-10-2c2.128-1.129 4.462-1.296 7-.5 1.442.377 2.442 1.21 3 2.5z"/><path style="opacity:.047" fill="#fbbe9f" d="M261.5 148.5a126.86 126.86 0 0 1-11-2c3.14-1.141 6.473-1.308 10-.5.752.671 1.086 1.504 1 2.5z"/><path style="opacity:.989" fill="#f36f29" d="M308.5 154.5c6.636-.522 6.636-1.355 0-2.5 2.26-.549 3.926-1.716 5-3.5 2.708-1.853 5.708-2.853 9-3 3.333 1.333 6.667 1.333 10 0h1c.47 1.193 1.47 1.86 3 2 1.908.636 3.575.636 5 0h1c1.546 2.431 3.879 3.764 7 4h1c-.073 1.527.594 2.527 2 3 1.148 4.983 1.148 9.983 0 15h-11c-.848-1.125-1.848-1.125-3 0-.996.086-1.829-.248-2.5-1-.002-2.551-.836-4.551-2.5-6-1.194-1.277-2.86-1.944-5-2-4.909-.548-8.242 1.452-10 6 .457.798 1.124 1.131 2 1 0 .667.333 1 1 1 .458 2.809 1.791 3.476 4 2h5c.12 1.086.787 1.753 2 2 .916-.043 1.583-.376 2-1a19.22 19.22 0 0 1 6 1c-.03.997.47 1.664 1.5 2a92.54 92.54 0 0 1 9.5 4c.333 1 1 1.667 2 2a571.415 571.415 0 0 1 3 15v1c-2.469 1.107-3.469 3.107-3 6v1a86.251 86.251 0 0 1-11 6c-.798.457-1.131 1.124-1 2h-1c-.06-.543-.393-.876-1-1-2.259.284-3.926 1.284-5 3h-14c-3.215-3.073-7.215-4.406-12-4-.667 0-1-.333-1-1-1.008-1.839-2.508-3.172-4.5-4a50.648 50.648 0 0 1-1-15c3.892-.329 7.392-1.329 10.5-3a8.43 8.43 0 0 1 4 .5 26.67 26.67 0 0 1 1.5 6.5 9.175 9.175 0 0 0 4.5 2c3.398 2.321 7.232 2.655 11.5 1 1.03-.336 1.53-1.003 1.5-2 1.1-1.105 1.767-2.438 2-4-2.619-3.66-5.953-4.993-10-4-9.706.906-17.873-2.094-24.5-9-1.202-2.177-1.702-4.511-1.5-7 1.35-2.12 3.017-1.953 5 .5 1 .667 2 .667 3 0 .408-3.479.742-6.979 1-10.5l5-4c-.502-1.021-1.168-1.188-2-.5a55.747 55.747 0 0 1-5.5 4.5 57.348 57.348 0 0 1-.5 9c-2.411-2.583-5.078-3.25-8-2l-2 1c-1.535.854-2.868.854-4 0l1-8a56.381 56.381 0 0 1-6-5v-1a40.914 40.914 0 0 0 9-.5c1.607-1.049 2.273-2.549 2-4.5-.434-2.666.566-3.833 3-3.5a127.9 127.9 0 0 1 3 7.5 5.576 5.576 0 0 0 3 1z"/><path style="opacity:.869" fill="#fcd3bd" d="M43.5 146.5c-.709.904-1.709 1.237-3 1v-1c1-1.333 2-1.333 3 0z"/><path style="opacity:.984" fill="#f36e29" d="M43.5 146.5h19a94.873 94.873 0 0 0 10 2v4c-1.728 2.922-2.728 6.255-3 10a20.691 20.691 0 0 1-5 1v4c-1.186 1.205-1.186 2.539 0 4v23c1.194 1.277 2.86 1.944 5 2l5-.5c.556-.383.89-.883 1-1.5.996.086 1.83-.248 2.5-1 .218-2.926.718-5.76 1.5-8.5 5-.667 10-.667 15 0 .701 6.956 1.368 13.956 2 21-.648 1.44-.98 2.94-1 4.5-9.515-.327-18.848.006-28 1h-5c-2.448-.973-5.115-1.306-8-1-5.195-.321-10.195.013-15 1-1.309-1.124-1.975-2.624-2-4.5.12-2.787.454-5.621 1-8.5 2.217-.869 4.55-1.202 7-1 .268-1.599-.066-2.932-1-4a237.166 237.166 0 0 1 1-30.5 12.93 12.93 0 0 0-5-.5c-1.25-5.131-1.25-10.131 0-15 1.291.237 2.291-.096 3-1z"/><path style="opacity:.992" fill="#f36f2b" d="M106.5 146.5c.652 1.225 1.819 1.892 3.5 2 1.681-.108 2.848-.775 3.5-2 3.35-.165 6.683.002 10 .5.556.383.889.883 1 1.5-.983 3.798-1.317 7.798-1 12a24.935 24.935 0 0 0-7 .5c-1.274.977-1.274 1.811 0 2.5v21c-.597.235-.93.735-1 1.5l1.5 4.5c.671.752 1.504 1.086 2.5 1v1c-.438-.065-.772.101-1 .5 3.893 4.683 8.227 5.517 13 2.5h1c2.772-.095 4.772-1.429 6-4-.124-.607-.457-.94-1-1a115.853 115.853 0 0 0 2-27c.543-.06.876-.393 1-1a13.116 13.116 0 0 0-7-1c.536-3.198-.131-5.865-2-8-.256-2.292.077-4.459 1-6.5 6.992-.5 13.992-.666 21-.5.291 1.149 1.124 1.816 2.5 2 2.539-1.102 5.039-1.102 7.5 0a43.117 43.117 0 0 1 1 13 18.453 18.453 0 0 0-6 .5c-1.301 1.616-1.301 3.116 0 4.5.166 8.007 0 16.007-.5 24-.331 3.655-1.498 6.988-3.5 10a133.596 133.596 0 0 1-16 12c-6.789 2.237-13.455 2.237-20 0-.211-1.924-.877-2.257-2-1h-1c-2.596-2.976-5.93-4.976-10-6-3.385-2.409-5.551-5.743-6.5-10a210.742 210.742 0 0 1-1.5-32c-.12-1.086-.787-1.753-2-2-.916.043-1.583.376-2 1h-3v-7c1.333-2.333 1.333-4.667 0-7 .418-.722 1.084-1.222 2-1.5a98.43 98.43 0 0 1 14-.5z"/><path style="opacity:.98" fill="#f36d28" d="M173.5 146.5h1c1.723 1.3 3.89 1.967 6.5 2 2.61-.033 4.777-.7 6.5-2h15c2.243 1.312 4.91 1.978 8 2 3.09-.022 5.757-.688 8-2h1c1.802.958 3.802 1.625 6 2v3c-1.297 4.767-1.297 9.434 0 14v2a212.116 212.116 0 0 0-13 2c-2.742-1.058-3.409-2.891-2-5.5a50.464 50.464 0 0 0-10-.5c-2.107-.968-4.441-1.302-7-1-.284 1.915.049 3.581 1 5v1c-1.629 1.696-1.296 2.696 1 3h11a32.8 32.8 0 0 1 3 7c1.532 3.042 1.199 5.876-1 8.5l-13 1c-.837 1.011-1.17 2.178-1 3.5-1.301 1.384-1.301 2.884 0 4.5l8.5.5c3.252-.019 6.085-.686 8.5-2-.239-1.967.094-3.801 1-5.5a32.462 32.462 0 0 1 8-.5c1.333 1.333 2.667 1.333 4 0 .667 0 1 .333 1 1-.295 2.235.039 4.235 1 6v4a212.116 212.116 0 0 0-2 13h-25c-.47-1.193-1.47-1.86-3-2-1.53.14-2.53.807-3 2h-4c-2.928-1.32-6.261-1.986-10-2-3.518.002-6.851.335-10 1-.838-.342-1.172-1.008-1-2 1.22-1.55 1.22-3.216 0-5v-6a26.335 26.335 0 0 0 5-2c.617-.111 1.117-.444 1.5-1 .826-11.174.659-22.174-.5-33a364.488 364.488 0 0 0-6-3v-9c1.548-.321 2.215-1.321 2-3 1.291.237 2.291-.096 3-1z"/><path style="opacity:.125" fill="#f6905b" d="M202.5 146.5h16c-2.243 1.312-4.91 1.978-8 2-3.09-.022-5.757-.688-8-2z"/><path style="opacity:.282" fill="#fccbb2" d="M225.5 148.5c-2.198-.375-4.198-1.042-6-2 1.101-1.098 2.434-1.265 4-.5 1.256.417 1.923 1.25 2 2.5z"/><path style="opacity:.89" fill="#fccfb7" d="M234.5 146.5c-1 1.333-2 1.333-3 0 1-1.333 2-1.333 3 0z"/><path style="opacity:.997" fill="#f36e29" d="M231.5 146.5c1 1.333 2 1.333 3 0h16a126.86 126.86 0 0 0 11 2v3c-1.333 3.333-1.333 6.667 0 10-.763.768-1.763 1.268-3 1.5 1.66 1.488 2.66 3.321 3 5.5.966 3.672 2.466 3.672 4.5 0l2.5-5c-.124-.607-.457-.94-1-1-1.25-.077-2.083-.744-2.5-2-.791-4.426-.457-8.759 1-13 .671-.752 1.504-1.086 2.5-1a78.644 78.644 0 0 0 25 0c2.785-.584 4.452.416 5 3a71.006 71.006 0 0 1-10 5c-.838.342-1.172 1.008-1 2 1.163 2.482 3.163 3.816 6 4-1.618 2.285-3.618 4.285-6 6-2.493 2.158-4.16 4.824-5 8-1.678 4.697-4.344 8.697-8 12-2.736 2.358-3.57 5.358-2.5 9 2.184 2.332 4.684 2.665 7.5 1v15c-4.434-1.294-8.767-1.294-13 0h-1c-5.81-.99-11.81-1.323-18-1v-13a18.453 18.453 0 0 0 6-.5c1.291-1.292 1.291-2.458 0-3.5-.501-3.995-1.834-7.662-4-11-.942-3.59-2.942-6.257-6-8-1.406-.473-2.073-1.473-2-3 .073-1.527-.594-2.527-2-3-1.406-.473-2.073-1.473-2-3 .073-1.527-.594-2.527-2-3h-1c-1.052-1.756-2.719-2.423-5-2 .263-4.1-.07-8.1-1-12 .321-1.548 1.321-2.215 3-2z"/><path style="opacity:.89" fill="#fcd1bb" d="M293.5 146.5a78.644 78.644 0 0 1-25 0 78.644 78.644 0 0 1 25 0z"/><path style="opacity:.89" fill="#f9a87f" d="M333.5 145.5c2.995-.206 5.662.46 8 2-1.425.636-3.092.636-5 0-1.53-.14-2.53-.807-3-2z"/><path style="opacity:.961" fill="#f9b38e" d="M106.5 146.5h7c-.652 1.225-1.819 1.892-3.5 2-1.681-.108-2.848-.775-3.5-2z"/><path style="opacity:.961" fill="#f8a174" d="M174.5 146.5h13c-1.723 1.3-3.89 1.967-6.5 2-2.61-.033-4.777-.7-6.5-2z"/><path style="opacity:1" fill="#fbb794" d="M90.5 148.5c1.333 2.333 1.333 4.667 0 7-1.333-2.333-1.333-4.667 0-7z"/><path style="opacity:1" fill="#faa072" d="M173.5 146.5c-.709.904-1.709 1.237-3 1 .215 1.679-.452 2.679-2 3-.124-4.075 1.543-5.408 5-4z"/><path style="opacity:.898" fill="#faaa81" d="M342.5 147.5c2.831.579 5.164 1.912 7 4-3.121-.236-5.454-1.569-7-4z"/><path style="opacity:.937" fill="#f89f71" d="M153.5 146.5c4.267-.297 8.434.036 12.5 1a49.226 49.226 0 0 1 0 14c-2.135 1.778-4.635 2.445-7.5 2v3c-1.301-1.384-1.301-2.884 0-4.5a18.453 18.453 0 0 1 6-.5 43.117 43.117 0 0 0-1-13c-2.461-1.102-4.961-1.102-7.5 0-1.376-.184-2.209-.851-2.5-2z"/><path style="opacity:.722" fill="#fdbfa0" d="M313.5 148.5c-1.074 1.784-2.74 2.951-5 3.5 6.636 1.145 6.636 1.978 0 2.5-1.012-3.759.654-5.759 5-6z"/><path style="opacity:.035" fill="#fbc9af" d="M124.5 148.5c1.333 4 1.333 8 0 12h-1c-.317-4.202.017-8.202 1-12z"/><path style="opacity:1" fill="#f6864c" d="M40.5 146.5v1c-1.25 4.869-1.25 9.869 0 15-.996.086-1.83-.248-2.5-1a49.248 49.248 0 0 1 0-14c.67-.752 1.504-1.086 2.5-1z"/><path style="opacity:.908" fill="#fbd2bc" d="M225.5 151.5c1.333 4.667 1.333 9.333 0 14-1.297-4.566-1.297-9.233 0-14z"/><path style="opacity:.075" fill="#fdc5a9" d="M298.5 149.5h1c.273 1.951-.393 3.451-2 4.5a40.914 40.914 0 0 1-9 .5 71.006 71.006 0 0 0 10-5z"/><path style="opacity:.455" fill="#f9b38f" d="M350.5 151.5c1.406.473 2.073 1.473 2 3-1.406-.473-2.073-1.473-2-3z"/><path style="opacity:.004" fill="#f69664" d="M72.5 152.5a40.939 40.939 0 0 1-.5 9c-.67.752-1.504 1.086-2.5 1 .272-3.745 1.272-7.078 3-10z"/><path style="opacity:.212" fill="#f8a77c" d="M288.5 155.5a56.381 56.381 0 0 0 6 5h-1c-2.837-.184-4.837-1.518-6-4 .667 0 1-.333 1-1z"/><path style="opacity:1" fill="#f99d6d" d="M131.5 153.5c1.869 2.135 2.536 4.802 2 8a13.116 13.116 0 0 1 7 1c-.124.607-.457.94-1 1-7.333.653-9.999-2.68-8-10z"/><path style="opacity:.957" fill="#faa67a" d="M228.5 148.5c.93 3.9 1.263 7.9 1 12 2.281-.423 3.948.244 5 2-2.544.396-4.711-.271-6.5-2-.812-4.189-.645-8.189.5-12z"/><path style="opacity:.055" fill="#fbcab0" d="M261.5 151.5c1.333 3.333 1.333 6.667 0 10-1.333-3.333-1.333-6.667 0-10z"/><path style="opacity:1" fill="#fcd4bf" d="m301.5 170.5-2-3c2.922-1.25 5.589-.583 8 2 .399-2.922.566-5.922.5-9a55.747 55.747 0 0 0 5.5-4.5c.832-.688 1.498-.521 2 .5l-5 4a241.918 241.918 0 0 1-1 10.5c-1 .667-2 .667-3 0-1.983-2.453-3.65-2.62-5-.5z"/><path style="opacity:.463" fill="#f89561" d="M123.5 160.5h1c-2.216 1.732-4.882 2.732-8 3-1.274-.689-1.274-1.523 0-2.5a24.935 24.935 0 0 1 7-.5z"/><path style="opacity:.463" fill="#f8a77d" d="M168.5 159.5a364.488 364.488 0 0 1 6 3 12.93 12.93 0 0 1-5-.5c-.752-.671-1.086-1.504-1-2.5z"/><path style="opacity:.322" fill="#f9af89" d="M97.5 163.5c-1.599.268-2.932-.066-4-1 .417-.624 1.084-.957 2-1 1.213.247 1.88.914 2 2z"/><path style="opacity:.99" fill="#fbb591" d="M200.5 163.5h-5c.268 1.599-.066 2.932-1 4-.951-1.419-1.284-3.085-1-5 2.559-.302 4.893.032 7 1z"/><path style="opacity:.145" fill="#fab28e" d="M235.5 162.5c1.406.473 2.073 1.473 2 3-1.406-.473-2.073-1.473-2-3z"/><path style="opacity:.212" fill="#faab83" d="M333.5 162.5c-4.411-.479-8.578.188-12.5 2a4.934 4.934 0 0 0-.5 3c-.876.131-1.543-.202-2-1 1.758-4.548 5.091-6.548 10-6 2.14.056 3.806.723 5 2z"/><path style="opacity:.034" fill="#fcddcd" d="M64.5 167.5c1.333 1.333 1.333 2.667 0 4-1.186-1.461-1.186-2.795 0-4z"/><path style="opacity:.184" fill="#f89d6e" d="M225.5 167.5c.086.996-.248 1.829-1 2.5-4.189.812-8.189.645-12-.5a212.116 212.116 0 0 1 13-2z"/><path style="opacity:.42" fill="#f9b490" d="M267.5 162.5c.543.06.876.393 1 1l-2.5 5c-2.034 3.672-3.534 3.672-4.5 0 .617.111 1.117.444 1.5 1a36.829 36.829 0 0 0 4.5-7z"/><path style="opacity:.337" fill="#fbc3a4" d="M293.5 168.5c1.132.854 2.465.854 4 0-.8 2.241-2.466 3.241-5 3-.237-1.291.096-2.291 1-3z"/><path style="opacity:.184" fill="#feddcc" d="M341.5 169.5c-1 1.333-2 1.333-3 0 1.152-1.125 2.152-1.125 3 0z"/><path style="opacity:.988" fill="#fbbc9c" d="M194.5 168.5c.904.709 1.237 1.709 1 3-2.296-.304-2.629-1.304-1-3z"/><path style="opacity:.047" fill="#fbbe9e" d="M239.5 168.5c1.406.473 2.073 1.473 2 3-1.406-.473-2.073-1.473-2-3z"/><path style="opacity:.914" fill="#fcc2a4" d="M321.5 168.5c1.495.489 2.829 1.155 4 2-2.209 1.476-3.542.809-4-2z"/><path style="opacity:.259" fill="#f9a478" d="M287.5 166.5c-.591 3.384-2.258 6.051-5 8 .84-3.176 2.507-5.842 5-8z"/><path style="opacity:.8" fill="#f9b38f" d="M330.5 170.5c1.599-.268 2.932.066 4 1-.417.624-1.084.957-2 1-1.213-.247-1.88-.914-2-2z"/><path style="opacity:.016" fill="#fbaf88" d="M340.5 172.5c4.585.512 8.251 2.512 11 6a92.54 92.54 0 0 0-9.5-4c-1.03-.336-1.53-1.003-1.5-2z"/><path style="opacity:.976" fill="#faa275" d="M206.5 171.5c1.624-.14 2.79.527 3.5 2 .78 1.887.613 3.554-.5 5a32.8 32.8 0 0 0-3-7z"/><path style="opacity:.22" fill="#f89d6e" d="M243.5 174.5c3.058 1.743 5.058 4.41 6 8-2.314-2.33-4.314-4.996-6-8z"/><path style="opacity:.298" fill="#faa478" d="M353.5 180.5c3.688 4.546 4.688 9.546 3 15a571.415 571.415 0 0 0-3-15z"/><path style="opacity:1" fill="#fab28c" d="M116.5 184.5a43.355 43.355 0 0 1 3 7c-.996.086-1.829-.248-2.5-1l-1.5-4.5c.07-.765.403-1.265 1-1.5z"/><path style="opacity:1" fill="#fa9d6e" d="M337.5 190.5c-3.411-1.38-6.744-2.714-10-4 4.047-.993 7.381.34 10 4z"/><path style="opacity:.929" fill="#fcccb3" d="M224.5 188.5c-1.333 1.333-2.667 1.333-4 0 1.333-1.333 2.667-1.333 4 0z"/><path style="opacity:.965" fill="#f9a377" d="M274.5 186.5a41.73 41.73 0 0 0-1 9c2.235-.295 4.235.039 6 1-2.816 1.665-5.316 1.332-7.5-1-1.07-3.642-.236-6.642 2.5-9z"/><path style="opacity:.643" fill="#f9a980" d="M312.5 186.5c-3.108 1.671-6.608 2.671-10.5 3a50.648 50.648 0 0 0 1 15c1.992.828 3.492 2.161 4.5 4-3.142-.299-5.309-1.966-6.5-5-.667-5-.667-10 0-15l1.5-1.5a50.464 50.464 0 0 1 10-.5z"/><path style="opacity:.816" fill="#f9a479" d="M225.5 189.5c1.193.47 1.86 1.47 2 3-.02 1.226-.353 2.226-1 3-.961-1.765-1.295-3.765-1-6z"/><path style="opacity:.484" fill="#f8a276" d="M137.5 190.5c.543.06.876.393 1 1-1.228 2.571-3.228 3.905-6 4 2-1.333 3.667-3 5-5z"/><path style="opacity:.18" fill="#fbbfa0" d="M194.5 191.5c.904.709 1.237 1.709 1 3h16c-2.415 1.314-5.248 1.981-8.5 2l-8.5-.5c-1.301-1.616-1.301-3.116 0-4.5z"/><path style="opacity:.984" fill="#f9b38e" d="M64.5 194.5h11c-.11.617-.444 1.117-1 1.5l-5 .5c-2.14-.056-3.806-.723-5-2z"/><path style="opacity:1" fill="#f8a275" d="M44.5 193.5c.934 1.068 1.268 2.401 1 4-2.45-.202-4.783.131-7 1-.086-.996.248-1.829 1-2.5 2.244-.05 3.91-.883 5-2.5z"/><path style="opacity:1" fill="#faad85" d="M119.5 192.5c3.509 2.615 7.509 3.615 12 3-4.773 3.017-9.107 2.183-13-2.5.228-.399.562-.565 1-.5z"/><path style="opacity:1" fill="#f9ae87" d="M173.5 196.5a26.335 26.335 0 0 1-5 2c-.086-.996.248-1.829 1-2.5 1.566-.765 2.899-.598 4 .5z"/><path style="opacity:1" fill="#f89e70" d="M335.5 194.5c.03.997-.47 1.664-1.5 2-4.268 1.655-8.102 1.321-11.5-1a52.392 52.392 0 0 0 13-1z"/><path style="opacity:.298" fill="#f9a478" d="M356.5 196.5c-.255 2.467-1.255 4.467-3 6-.469-2.893.531-4.893 3-6z"/><path style="opacity:1" fill="#faad86" d="M253.5 193.5c1.291 1.042 1.291 2.208 0 3.5a18.453 18.453 0 0 1-6 .5v13c6.19-.323 12.19.01 18 1-6.204 1.311-12.538 1.311-19 0a33.225 33.225 0 0 1-.5-14 85.907 85.907 0 0 0 7.5-4z"/><path style="opacity:1" fill="#fbb38f" d="M168.5 204.5c1.22 1.784 1.22 3.45 0 5-1.333-1.667-1.333-3.333 0-5z"/><path style="opacity:.008" fill="#faab82" d="M105.5 205.5c4.07 1.024 7.404 3.024 10 6a50.656 50.656 0 0 1-8-3.5c-.881-.708-1.547-1.542-2-2.5z"/><path style="opacity:.794" fill="#fbccb3" d="M279.5 197.5c.617.111 1.117.444 1.5 1a30.485 30.485 0 0 1 0 11c-.383.556-.883.889-1.5 1v-13z"/><path style="opacity:.004" fill="#faa87d" d="M353.5 203.5c-3.114 3.936-7.114 6.602-12 8-.131-.876.202-1.543 1-2a86.251 86.251 0 0 0 11-6z"/><path style="opacity:.533" fill="#f89f70" d="M154.5 200.5c-3.914 5.917-9.247 9.917-16 12a133.596 133.596 0 0 0 16-12z"/><path style="opacity:.012" fill="#fab998" d="M226.5 199.5c1.309 3.851 1.309 7.851 0 12-.683.363-1.35.696-2 1a212.116 212.116 0 0 1 2-13z"/><path style="opacity:.969" fill="#fbc1a3" d="M54.5 210.5c2.885-.306 5.552.027 8 1-2.448.973-5.115 1.306-8 1v-2z"/><path style="opacity:.969" fill="#f8a377" d="M199.5 212.5h-6c.47-1.193 1.47-1.86 3-2 1.53.14 2.53.807 3 2z"/><path style="opacity:.251" fill="#f89866" d="M308.5 209.5c4.785-.406 8.785.927 12 4a79.262 79.262 0 0 1-12-4z"/><path style="opacity:.137" fill="#f69765" d="M54.5 210.5v2c-5.195.321-10.195-.013-15-1 4.805-.987 9.805-1.321 15-1z"/><path style="opacity:.137" fill="#fabc9d" d="M95.5 210.5c-.11.617-.444 1.117-1 1.5-9.176.824-18.176.657-27-.5 9.152-.994 18.485-1.327 28-1z"/><path style="opacity:.137" fill="#fab795" d="M118.5 212.5c-.992.172-1.658-.162-2-1 1.123-1.257 1.789-.924 2 1z"/><path style="opacity:.137" fill="#f79664" d="M189.5 212.5c-6.854.324-13.521-.009-20-1 3.149-.665 6.482-.998 10-1 3.739.014 7.072.68 10 2z"/><path style="opacity:.137" fill="#f9a478" d="M279.5 211.5c-4.333 1.333-8.667 1.333-13 0 4.233-1.294 8.566-1.294 13 0z"/><path style="opacity:.055" fill="#fbaf89" d="M340.5 211.5c-1.602 1.574-3.602 2.241-6 2 1.074-1.716 2.741-2.716 5-3 .607.124.94.457 1 1z"/><path style="opacity:.985" fill="#f57c3b" d="M122.5 228.5a17.65 17.65 0 0 0-.5 6c1.257-2.246 3.09-3.579 5.5-4v19h-12v-21h7z"/><path style="opacity:.736" fill="#f47732" d="M147.5 228.5c3.185-.48 6.019.186 8.5 2 .5 6.325.666 12.658.5 19h-9v-21z"/><path style="opacity:.87" fill="#fbd2ba" d="M190.5 228.5v20c-.667 0-1 .333-1 1-.665-3.317-.999-6.817-1-10.5.012-3.902.679-7.402 2-10.5z"/><path style="opacity:.898" fill="#f57a37" d="M190.5 228.5a18.453 18.453 0 0 1 6 .5 9.454 9.454 0 0 1 1.5 2.5c-.111 5.572.055 11.239.5 17h-4c-.333-10.667-.667-10.667-1 0h-3v-20z"/><path style="opacity:.802" fill="#f36d24" d="M202.5 228.5h4v14c-1.333.667-1.333 1.333 0 2v5h-4v-21z"/><path style="opacity:.642" fill="#fcc1a0" d="M210.5 228.5a20.69 20.69 0 0 0 1 5c-1.984.016-2.984-.984-3-3 .247-1.213.914-1.88 2-2z"/><path style="opacity:.693" fill="#f4722b" d="M248.5 228.5c1.3 7.03 1.3 14.03 0 21h-6v-21h6z"/><path style="opacity:.83" fill="#f47733" d="M278.5 230.5c-.66 1.464-.993 3.131-1 5 .056 2.14.723 3.806 2 5v9h-9a86.773 86.773 0 0 0-1-18c.78-1.955 2.28-2.955 4.5-3 2.008-.193 3.508.474 4.5 2z"/><path style="opacity:.176" fill="#f9b997" d="M139.5 228.5c1.333 0 2 .667 2 2 0-1.333-.667-2-2-2z"/><path style="opacity:.85" fill="#f3722b" d="M166.5 228.5c2.368 2.465 3.368 5.465 3 9h-4c.219-1.175-.114-2.175-1-3a31.116 31.116 0 0 0-1 11h3a51.569 51.569 0 0 1-1-7h4c.256 3.769-.077 7.436-1 11a32.462 32.462 0 0 1-8-.5c-.837-1.011-1.17-2.178-1-3.5 1.333-.667 1.333-1.333 0-2v-11c1.548-.321 2.215-1.321 2-3 1.542-.801 3.208-1.134 5-1z"/><path style="opacity:.882" fill="#fbac82" d="M183.5 230.5h-7c.652-1.225 1.819-1.892 3.5-2 1.681.108 2.848.775 3.5 2z"/><path style="opacity:.99" fill="#f67f3f" d="M139.5 228.5c0 1.333.667 2 2 2a82.782 82.782 0 0 1 3 19c-2.321.271-4.321-.396-6-2-2.023 1.673-4.356 2.34-7 2a408.536 408.536 0 0 0 3.5-20c1.356-.88 2.856-1.214 4.5-1z"/><path style="opacity:.412" fill="#fccfb7" d="M161.5 229.5c.215 1.679-.452 2.679-2 3-.073-1.527.594-2.527 2-3z"/><path style="opacity:.995" fill="#f57937" d="M176.5 230.5h7a106.44 106.44 0 0 1 3 19c-2.576.032-4.909-.635-7-2 .065-.438-.101-.772-.5-1-.71 1.473-1.876 2.14-3.5 2 .268-1.599-.066-2.932-1-4a152.1 152.1 0 0 1 2-14z"/><path style="opacity:.926" fill="#f9b189" d="M202.5 228.5v21c-1.321-3.098-1.988-6.598-2-10.5.012-3.902.679-7.402 2-10.5z"/><path style="opacity:.991" fill="#f57d3c" d="M229.5 234.5c-.597.235-.93.735-1 1.5.199 2.448 1.199 4.281 3 5.5.841 1.879 1.175 3.879 1 6-.838.342-1.172 1.008-1 2-2.222.322-4.056-.345-5.5-2-1.754 1.75-3.921 2.417-6.5 2a71.691 71.691 0 0 1 4-20c4.59-1.676 6.59-.01 6 5z"/><path style="opacity:.992" fill="#f68041" d="M260.5 247.5c-.06-.543-.393-.876-1-1-1.024 1.353-2.357 2.02-4 2 .237-1.291-.096-2.291-1-3a69.276 69.276 0 0 1 3.5-16c1.699-.906 3.533-1.239 5.5-1a290.78 290.78 0 0 1 4 21c-2.711.315-5.044-.352-7-2z"/><path style="opacity:.286" fill="#f8a273" d="M166.5 228.5c3.204.878 4.87 3.045 5 6.5-.184 1.376-.851 2.209-2 2.5.368-3.535-.632-6.535-3-9z"/><path style="opacity:.936" fill="#f78040" d="M210.5 228.5h7a81.99 81.99 0 0 0-2 21h-4c-1.003-5.493-1.003-10.826 0-16a20.69 20.69 0 0 1-1-5z"/><path style="opacity:1" fill="#f47634" d="M109.5 233.5c-1.025 1.701-2.525 3.035-4.5 4-1.3-1.207-2.8-1.874-4.5-2h-2c-4.847-.268-9.514.398-14 2-1.951.273-3.451-.393-4.5-2-1.835 2.464-3.835 2.464-6 0-2.333 2.667-4.667 2.667-7 0-1.077.929-2.244 1.596-3.5 2h-4v-1c-2.659-.417-4.992-1.417-7-3 18.911-.163 37.911-.163 57 0z"/><path style="opacity:1" fill="#f57a3a" d="M351.5 233.5c1.109.79 2.442 1.29 4 1.5a66.525 66.525 0 0 1-5.5 2.5 27.23 27.23 0 0 0-5.5-2 31.802 31.802 0 0 0-13 2c-3.102.003-3.435-.497-1-1.5-2.514-.569-4.848-.069-7 1.5a18.184 18.184 0 0 1-3.5-2c-3.276 1.727-6.776 2.394-10.5 2-4.115-1.552-8.448-2.385-13-2.5 1.882-.198 3.548-.698 5-1.5 16.749-.45 33.416-.45 50 0z"/><path style="opacity:.012" fill="#f89f6e" d="M52.5 233.5c2.008 1.583 4.341 2.583 7 3a67.145 67.145 0 0 0-14.5 1 60.052 60.052 0 0 1-6.5-3c4.47-.986 9.137-1.319 14-1z"/><path style="opacity:.369" fill="#fbccb3" d="M38.5 234.5a60.052 60.052 0 0 0 6.5 3 67.145 67.145 0 0 1 14.5-1v1c-6.479.991-13.146 1.324-20 1-.64-.982-1.307-1.982-2-3 .124-.607.457-.94 1-1z"/><path style="opacity:.369" fill="#f9b996" d="M84.5 237.5c-7 1.333-14 1.333-21 0 1.256-.404 2.423-1.071 3.5-2 2.333 2.667 4.667 2.667 7 0 2.165 2.464 4.165 2.464 6 0 1.049 1.607 2.549 2.273 4.5 2z"/><path style="opacity:.369" fill="#f9b692" d="M344.5 235.5v3c-11.845.328-23.512-.005-35-1 3.724.394 7.224-.273 10.5-2a18.184 18.184 0 0 0 3.5 2c2.152-1.569 4.486-2.069 7-1.5-2.435 1.003-2.102 1.503 1 1.5a31.802 31.802 0 0 1 13-2z"/><path style="opacity:.369" fill="#fddcca" d="M351.5 233.5c6.224-.509 7.224 1.158 3 5h-10v-3a27.23 27.23 0 0 1 5.5 2 66.525 66.525 0 0 0 5.5-2.5c-1.558-.21-2.891-.71-4-1.5z"/><path style="opacity:1" fill="#f58a4f" d="M109.5 233.5c1.676.683 2.343 2.017 2 4-1.333 0-2 .667-2 2-20.361-.655-40.361.012-60 2h-12c-.215-1.679.452-2.679 2-3 6.854.324 13.521-.009 20-1h4c7 1.333 14 1.333 21 0 4.486-1.602 9.153-2.268 14-2-2.855 1.75-6.189 2.583-10 2.5 4.333.667 8.667.667 13 0-.752-.671-1.086-1.504-1-2.5 1.7.126 3.2.793 4.5 2 1.975-.965 3.475-2.299 4.5-4z"/><path style="opacity:.369" fill="#f9ba97" d="M98.5 235.5h2c-.086.996.248 1.829 1 2.5a42.479 42.479 0 0 1-13 0c3.811.083 7.145-.75 10-2.5z"/><path style="opacity:.996" fill="#f58a4e" d="M122.5 228.5h7c.628 7.413-.039 14.413-2 21v-19c-2.41.421-4.243 1.754-5.5 4a17.65 17.65 0 0 1 .5-6z"/><path style="opacity:.992" fill="#faae85" d="M229.5 234.5c1.424 2.015 2.09 4.348 2 7-1.801-1.219-2.801-3.052-3-5.5.07-.765.403-1.265 1-1.5z"/><path style="opacity:.592" fill="#f9b792" d="M278.5 230.5c.979 3.125 1.313 6.458 1 10-1.277-1.194-1.944-2.86-2-5 .007-1.869.34-3.536 1-5z"/><path style="opacity:1" fill="#f68e55" d="M284.5 233.5c3.144 5.102 6.144 5.102 9 0h8c-1.452.802-3.118 1.302-5 1.5 4.552.115 8.885.948 13 2.5 11.488.995 23.155 1.328 35 1h13v3h-12c-19.973-1.988-40.306-2.655-61-2 .172-.992-.162-1.658-1-2-.268-1.599.066-2.932 1-4z"/><path style="opacity:.84" fill="#f26921" d="M284.5 233.5h9c-2.856 5.102-5.856 5.102-9 0z"/><path style="opacity:.998" fill="#f36b20" d="m109.5 239.5-9 2h-4c-5-1.333-10-1.333-15 0h-4c-.333-1.333-.667-1.333-1 0h-6c-.333-1.333-.667-1.333-1 0h-6c-1.667-1.333-3.333-1.333-5 0h-9c19.639-1.988 39.639-2.655 60-2z"/><path style="opacity:.996" fill="#f36d22" d="M284.5 239.5c20.694-.655 41.027.012 61 2h-10c-1.333-1.333-2.667-1.333-4 0h-18c-5-1.333-10-1.333-15 0h-5l-9-2z"/><path style="opacity:.811" fill="#f9bb99" d="M111.5 237.5c.268 1.599-.066 2.932-1 4h-10l9-2c0-1.333.667-2 2-2z"/><path style="opacity:.185" fill="#f9b58f" d="M169.5 238.5c1.914 3.184 2.58 6.851 2 11h-3c.923-3.564 1.256-7.231 1-11z"/><path style="opacity:1" fill="#f7935c" d="M248.5 228.5c2.422 1.192 3.422 3.192 3 6a422.544 422.544 0 0 0-.5 14c-.671.752-1.504 1.086-2.5 1 1.3-6.97 1.3-13.97 0-21z"/><path style="opacity:.106" fill="#fedcca" d="M63.5 241.5c-1.667 1.333-3.333 1.333-5 0 1.667-1.333 3.333-1.333 5 0z"/><path style="opacity:.105" fill="#fdcfb7" d="M70.5 241.5c2 1.333 4 1.333 6 0 .333-1.333.667-1.333 1 0 1.333 1.333 2.667 1.333 4 0 5-1.333 10-1.333 15 0l-3 2a105.651 105.651 0 0 1-29 0l5-2c.333-1.333.667-1.333 1 0z"/><path style="opacity:.105" fill="#fde6da" d="M101.5 241.5h9l-6 2h-7l4-2z"/><path style="opacity:.103" fill="#fdd3bc" d="M283.5 237.5c.838.342 1.172 1.008 1 2l9 2 4 2c-2.441 1.256-4.774 1.256-7 0-1.792-.809-3.792-1.309-6-1.5-.88-1.356-1.214-2.856-1-4.5z"/><path style="opacity:.106" fill="#fddccb" d="M335.5 241.5c-1.333 1.333-2.667 1.333-4 0 1.333-1.333 2.667-1.333 4 0z"/><path style="opacity:.141" fill="#fde2d3" d="M313.5 241.5c1.333 1.333 2.667 1.333 4 0h2c1.765.961 3.765 1.295 6 1-7.547.664-15.214.997-23 1l-4-2c5-1.333 10-1.333 15 0z"/><path style="opacity:1" fill="#fcc9ae" d="M165.5 237.5v1a51.569 51.569 0 0 0 1 7h-3a31.116 31.116 0 0 1 1-11c.886.825 1.219 1.825 1 3z"/><path style="opacity:.722" fill="#fbbc9a" d="M206.5 242.5c1.333.667 1.333 1.333 0 2-1.333-.667-1.333-1.333 0-2z"/><path style="opacity:1" fill="#f9ae84" d="M246.5 240.5c1.149.291 1.816 1.124 2 2.5l-1 2.5c-.952-1.545-1.285-3.212-1-5z"/><path style="opacity:1" fill="#f9aa7f" d="M325.5 242.5c1.915-.284 3.581.049 5 1a98.524 98.524 0 0 1-28 0 263.497 263.497 0 0 0 23-1z"/><path style="opacity:.341" fill="#fbc5a8" d="M46.5 243.5a9.82 9.82 0 0 1-4 3c-1.478.262-2.811-.071-4-1a3.646 3.646 0 0 1 1-1.5 24.935 24.935 0 0 1 7-.5z"/><path style="opacity:1" fill="#f36f27" d="M46.5 243.5h18a105.651 105.651 0 0 0 29 0h16c-9.792 1.658-19.792 2.658-30 3h-6c-8-1.333-16-1.333-24 0h-7a9.82 9.82 0 0 0 4-3z"/><path style="opacity:.533" fill="#fbc9ad" d="M159.5 243.5c1.333.667 1.333 1.333 0 2-1.333-.667-1.333-1.333 0-2z"/><path style="opacity:1" fill="#f36e25" d="M290.5 243.5c2.226 1.256 4.559 1.256 7 0h5a98.524 98.524 0 0 0 28 0h18a9.82 9.82 0 0 1 4 3h-7c-8.235-1.314-16.568-1.314-25 0h-6l-30-2c1.765-.961 3.765-1.295 6-1z"/><path style="opacity:.992" fill="#fcc4a6" d="M73.5 246.5c-8 1.333-16 1.333-24 0 8-1.333 16-1.333 24 0z"/><path style="opacity:.992" fill="#fbbd9a" d="M109.5 243.5c1.676.683 2.343 2.017 2 4-10.846.328-21.513-.006-32-1 10.208-.342 20.208-1.342 30-3z"/><path style="opacity:.992" fill="#fbbf9e" d="m284.5 244.5 30 2c-10.153.994-20.486 1.328-31 1-.237-1.291.096-2.291 1-3z"/><path style="opacity:.989" fill="#fbc5a7" d="M345.5 246.5a78.644 78.644 0 0 1-25 0c8.432-1.314 16.765-1.314 25 0z"/><path style="opacity:.353" fill="#fbcaaf" d="M348.5 243.5c2.357-.163 4.69.003 7 .5.457.414.791.914 1 1.5-1.189.929-2.522 1.262-4 1a9.82 9.82 0 0 0-4-3z"/><path style="opacity:1" fill="#f9a374" d="M174.5 244.5c.934 1.068 1.268 2.401 1 4 1.624.14 2.79-.527 3.5-2 .399.228.565.562.5 1-1.418 1.808-3.418 2.475-6 2-.284-1.915.049-3.581 1-5z"/><path style="opacity:.608" fill="#f8a577" d="M198.5 248.5c-2.787.977-5.787 1.31-9 1 0-.667.333-1 1-1h3c.333-10.667.667-10.667 1 0h4z"/><path style="opacity:.008" fill="#facbb1" d="M232.5 247.5c1.257 1.123.924 1.789-1 2-.172-.992.162-1.658 1-2z"/><path style="opacity:.024" fill="#fab28b" d="M254.5 245.5c.904.709 1.237 1.709 1 3 1.643.02 2.976-.647 4-2 .607.124.94.457 1 1-.111.617-.444 1.117-1 1.5a18.453 18.453 0 0 1-6 .5c-.268-1.599.066-2.932 1-4z"/></svg>