<?xml version="1.0" encoding="UTF-8" standalone="no"?>
<svg
   xmlns:dc="http://purl.org/dc/elements/1.1/"
   xmlns:cc="http://creativecommons.org/ns#"
   xmlns:rdf="http://www.w3.org/1999/02/22-rdf-syntax-ns#"
   xmlns:svg="http://www.w3.org/2000/svg"
   xmlns="http://www.w3.org/2000/svg"
   xmlns:sodipodi="http://sodipodi.sourceforge.net/DTD/sodipodi-0.dtd"
   xmlns:inkscape="http://www.inkscape.org/namespaces/inkscape"
   height="158.11603"
   viewBox="0 0 800 158.11602"
   width="800"
   version="1.1"
   id="svg30"
   sodipodi:docname="black_walnut_cafe_logo.svg"
   inkscape:version="1.0.1 (3bc2e813f5, 2020-09-07)">
  <metadata
     id="metadata36">
    <rdf:RDF>
      <cc:Work
         rdf:about="">
        <dc:format>image/svg+xml</dc:format>
        <dc:type
           rdf:resource="http://purl.org/dc/dcmitype/StillImage" />
      </cc:Work>
    </rdf:RDF>
  </metadata>
  <defs
     id="defs34" />
  <sodipodi:namedview
     pagecolor="#ffffff"
     bordercolor="#666666"
     borderopacity="1"
     objecttolerance="10"
     gridtolerance="10"
     guidetolerance="10"
     inkscape:pageopacity="0"
     inkscape:pageshadow="2"
     inkscape:window-width="1981"
     inkscape:window-height="928"
     id="namedview32"
     showgrid="false"
     inkscape:zoom="1.795"
     inkscape:cx="400"
     inkscape:cy="79.10058"
     inkscape:window-x="0"
     inkscape:window-y="0"
     inkscape:window-maximized="0"
     inkscape:current-layer="svg30" />
  <g
     fill-rule="evenodd"
     id="g28"
     transform="matrix(2,0,0,2,0,0.0320309)">
    <path
       d="m 111.343,0.344 c -15.036,4.151 -14.172,27.597 1.108,30.086 7.428,1.209 13.632,-3.64 14.783,-11.555 l 0.103,-0.708 h -1.668 c -1.628,0 -1.669,0.009 -1.669,0.381 0,1.552 -1.532,4.917 -2.863,6.291 -3.261,3.364 -8.851,3.435 -12.082,0.153 -4.2,-4.267 -4.288,-15.642 -0.152,-19.749 3.566,-3.542 8.89,-2.879 12.011,1.495 0.756,1.059 2.415,4.184 2.418,4.554 0.001,0.15 0.397,0.208 1.418,0.208 h 1.417 V 5.851 c 0,-6.415 0.149,-5.853 -1.556,-5.848 -1.352,0.003 -1.386,0.035 -1.797,1.673 -0.434,1.729 -0.344,1.653 -1.119,0.953 -2.497,-2.256 -6.922,-3.232 -10.352,-2.285 M 77.711,0.708 c -0.09,0.115 -0.28,0.546 -0.422,0.959 -0.142,0.412 -0.608,1.65 -1.035,2.75 -0.427,1.1 -0.998,2.6 -1.268,3.333 -0.271,0.733 -0.563,1.483 -0.649,1.667 -0.23,0.488 -1.67,4.244 -1.67,4.355 0,0.052 -0.11,0.331 -0.244,0.619 -0.134,0.289 -0.468,1.126 -0.741,1.859 -0.273,0.733 -0.715,1.896 -0.982,2.583 -0.266,0.688 -1.015,2.638 -1.663,4.334 -0.648,1.696 -1.229,3.214 -1.292,3.375 -0.097,0.249 -0.343,0.291 -1.679,0.291 H 64.5 v 1.503 1.502 l 5.125,-0.044 5.125,-0.044 0.051,-1.078 c 0.088,-1.889 0.14,-1.839 -1.905,-1.839 -1.341,0 -1.747,-0.05 -1.69,-0.208 1.939,-5.396 2.378,-6.577 2.51,-6.75 0.206,-0.272 10.371,-0.305 10.539,-0.034 0.099,0.161 2.412,6.802 2.412,6.927 0,0.031 -0.994,0.077 -2.209,0.102 l -2.208,0.047 -0.048,1.458 -0.048,1.458 H 89 95.846 L 95.798,28.375 95.75,26.917 93.754,26.833 91.759,26.75 90.533,23.333 C 89.013,19.097 88.865,18.686 88.037,16.417 87.67,15.408 86.223,11.415 84.822,7.542 L 82.276,0.5 h -2.201 c -1.562,0 -2.248,0.06 -2.364,0.208 m 161.737,1.334 c -0.33,0.848 -0.872,2.254 -1.205,3.125 -0.333,0.87 -0.781,2.033 -0.996,2.583 -0.215,0.55 -0.776,2.012 -1.247,3.25 -0.471,1.237 -1.032,2.7 -1.246,3.25 -0.214,0.55 -0.965,2.5 -1.667,4.333 -0.703,1.834 -1.525,3.971 -1.826,4.75 -0.302,0.78 -0.726,1.883 -0.943,2.453 l -0.395,1.036 -1.587,0.047 -1.586,0.048 v 1.416 1.417 l 5.132,0.044 5.131,0.044 -0.048,-1.461 -0.048,-1.46 -1.709,-0.048 c -0.939,-0.026 -1.708,-0.093 -1.708,-0.149 0,-0.081 1.986,-5.622 2.428,-6.774 0.1,-0.261 0.542,-0.28 5.367,-0.24 l 5.258,0.044 1.217,3.542 1.218,3.541 h -2.244 -2.244 v 1.5 1.5 h 6.84 6.84 l -0.049,-1.458 -0.048,-1.458 -2.001,-0.047 -2.001,-0.046 -2.385,-6.62 C 250.385,16.562 249.171,13.208 249,12.75 248.828,12.292 247.764,9.348 246.635,6.208 L 244.583,0.5 h -2.268 -2.267 z M 0,2.153 V 3.667 H 2.417 4.833 V 15.25 26.833 H 2.417 0 v 1.5 1.5 h 7.629 c 11.18,0 13.623,-0.475 16.048,-3.124 C 28.033,21.95 24.885,15.461 17.866,14.728 16.631,14.6 16.694,14.459 18.152,14.085 24.884,12.356 26.448,4.918 20.691,2.012 18.437,0.874 17.68,0.794 8.375,0.713 L 0,0.64 Z m 33.5,0.009 v 1.496 l 2.375,0.046 2.375,0.046 0.043,11.537 0.043,11.537 -2.377,0.046 -2.376,0.047 -0.048,1.458 -0.048,1.458 h 12.092 12.093 l -0.044,-4.708 -0.045,-4.708 -0.958,-0.05 c -1.132,-0.059 -1.08,-0.136 -1.632,2.383 -0.942,4.292 -0.587,4.083 -6.933,4.083 H 42.998 L 43.041,15.292 43.083,3.75 45.458,3.704 47.833,3.658 V 2.162 0.667 H 40.667 33.5 Z m 101.035,-0.039 0.048,1.46 2.417,0.084 2.417,0.083 0.042,11.542 0.043,11.541 h -2.414 c -2.791,0 -2.646,-0.103 -2.555,1.839 l 0.05,1.078 h 6.834 6.833 l 0.051,-1.078 c 0.089,-1.911 0.174,-1.839 -2.138,-1.839 h -1.996 v -3.64 -3.64 l 1.766,-1.776 C 146.904,16.8 147.749,16 147.81,16 c 0.089,0 3.083,4.087 4.19,5.72 0.137,0.203 0.981,1.394 1.875,2.646 0.894,1.252 1.625,2.317 1.625,2.366 0,0.049 -0.769,0.111 -1.708,0.137 l -1.709,0.048 -0.048,1.458 -0.048,1.458 h 6.513 6.513 l -0.048,-1.458 -0.048,-1.458 -1.834,-0.053 -1.833,-0.053 -1.617,-2.197 c -2.248,-3.054 -6.479,-8.768 -7.66,-10.346 -0.542,-0.723 -0.96,-1.392 -0.928,-1.485 0.031,-0.093 2.077,-2.182 4.547,-4.641 l 4.491,-4.472 1.792,-10e-4 1.792,-0.002 v -1.5 -1.5 h -5.84 -5.84 l 0.048,1.458 0.048,1.458 1.709,0.048 c 0.991,0.027 1.708,0.117 1.708,0.213 0,0.156 -11.116,11.823 -11.264,11.823 -0.038,0 -0.069,-2.698 -0.069,-5.995 V 3.677 L 146.208,3.63 148.25,3.583 V 2.167 0.75 l -6.882,-0.044 -6.881,-0.043 z m 47.298,0.037 v 1.496 l 2.031,0.047 2.031,0.047 0.204,0.75 c 0.113,0.412 0.667,2.212 1.233,4 1.695,5.357 3.684,11.684 4.007,12.75 0.167,0.55 0.615,1.975 0.996,3.167 0.381,1.191 0.93,2.934 1.22,3.873 l 0.528,1.707 2.27,0.001 2.269,0.002 0.675,-1.958 c 0.372,-1.077 1.137,-3.309 1.7,-4.959 0.927,-2.713 2.283,-6.665 3.475,-10.124 0.512,-1.487 0.613,-1.555 0.867,-0.584 0.102,0.39 0.437,1.608 0.746,2.708 0.308,1.1 0.871,3.125 1.251,4.5 0.38,1.375 0.942,3.4 1.249,4.5 0.307,1.1 0.804,2.882 1.103,3.959 L 210.234,30 h 2.288 2.288 l 4.29,-12.958 c 2.36,-7.127 4.362,-13.052 4.449,-13.167 0.106,-0.139 0.65,-0.208 1.638,-0.208 h 1.48 V 2.164 0.662 l -5.125,0.044 -5.125,0.044 v 1.417 1.416 l 1.791,0.048 c 0.986,0.026 1.792,0.117 1.792,0.202 0,0.086 -0.106,0.477 -0.235,0.87 -0.129,0.392 -0.434,1.389 -0.677,2.214 -0.244,0.825 -0.545,1.8 -0.669,2.166 -0.124,0.367 -0.462,1.454 -0.75,2.417 -0.288,0.963 -0.589,1.938 -0.669,2.167 -0.08,0.229 -0.337,1.054 -0.57,1.833 -2.09,6.985 -2.726,8.917 -2.933,8.917 -0.158,0 -0.606,-1.418 -1.449,-4.584 -1.913,-7.178 -3.383,-12.623 -3.817,-14.143 -0.627,-2.196 -0.806,-2.023 2.102,-2.023 h 2.5 v -1.5 -1.5 h -7 -7 v 1.5 1.5 h 1.97 1.969 l 0.274,0.875 c 0.607,1.939 0.672,1.621 -1.877,9.125 -1.293,3.804 -2.61,7.71 -2.928,8.679 -0.996,3.034 -0.824,3.205 -2.517,-2.513 -0.23,-0.779 -0.556,-1.866 -0.725,-2.416 -0.168,-0.55 -0.459,-1.525 -0.648,-2.167 -0.188,-0.642 -0.973,-3.274 -1.745,-5.851 -0.771,-2.576 -1.454,-4.917 -1.516,-5.203 l -0.114,-0.52 2.303,-0.046 2.304,-0.047 V 2.167 0.75 l -6.875,-0.044 -6.875,-0.043 z m 82.834,0.007 v 1.5 h 2.416 2.417 V 15.25 26.833 h -2.417 -2.416 v 1.5 1.5 h 12.083 12.083 v -4.649 c 0,-5.199 0.09,-4.851 -1.253,-4.851 -0.895,0 -0.849,-0.077 -1.424,2.408 -1.01,4.366 -0.546,4.092 -6.928,4.092 h -5.061 V 15.25 3.667 h 2.416 2.417 v -1.5 -1.5 h -7.167 -7.166 z M 296,2.162 v 1.495 l 2.208,0.046 2.209,0.047 0.042,11.537 0.043,11.537 -2.209,0.046 -2.21,0.047 -0.048,1.46 -0.048,1.46 6.215,-0.043 6.215,-0.044 v -1.417 -1.416 l -2.292,-0.047 -2.292,-0.046 V 16.731 c 0,-7.999 0.044,-10.078 0.209,-10.025 0.114,0.038 0.698,0.775 1.297,1.639 0.599,0.865 1.506,2.172 2.016,2.905 0.509,0.733 1.411,2.046 2.005,2.917 0.593,0.87 2.091,3.045 3.329,4.833 1.238,1.787 2.839,4.113 3.559,5.167 4.879,7.144 4.27,6.494 6.094,6.497 2.023,0.004 1.825,1.493 1.825,-13.697 v -13.3 h 2.166 2.167 v -1.5 -1.5 h -6.167 -6.166 v 1.495 1.495 l 2.291,0.047 2.292,0.046 0.043,8.887 c 0.024,4.888 -0.022,9.004 -0.101,9.146 -0.156,0.278 -0.488,-0.106 -1.994,-2.313 -0.775,-1.136 -1.364,-1.989 -4.948,-7.163 -2.641,-3.812 -5.813,-8.429 -7.11,-10.349 L 305.768,0.667 H 300.884 296 Z m 38.869,-0.037 0.048,1.458 2.083,0.084 2.083,0.083 0.085,9.75 c 0.09,10.533 0.058,10.143 1.006,12.012 3.635,7.162 17.523,6.721 21.364,-0.679 0.684,-1.319 0.696,-1.489 0.788,-11.416 L 362.417,3.75 364.458,3.703 366.5,3.656 V 2.162 0.667 h -6 -6 v 1.5 1.5 h 2.25 2.25 l -0.003,8.708 c -0.003,9.221 -0.067,10.142 -0.806,11.566 -2.528,4.872 -11.659,4.484 -13.807,-0.588 l -0.467,-1.103 -0.05,-9.287 -0.049,-9.286 2.133,-0.047 2.132,-0.047 0.048,-1.458 0.049,-1.458 h -6.68 -6.68 z m 38.67,3.75 0.044,5.208 0.932,0.05 c 1.128,0.059 1.115,0.073 1.806,-1.966 1.64,-4.84 2.71,-5.852 6.236,-5.895 l 1.86,-0.022 0.042,11.787 0.043,11.788 -2.543,0.046 -2.542,0.046 -0.048,1.458 -0.049,1.458 h 7.424 7.423 v -1.5 -1.5 H 391.583 389 V 15.264 c 0,-6.364 0.046,-11.689 0.101,-11.834 0.219,-0.57 3.954,-0.215 5.057,0.481 1.102,0.696 2.13,2.467 3.1,5.339 0.672,1.989 0.605,1.917 1.748,1.917 H 400 V 5.917 0.667 H 386.748 373.495 Z M 15.722,3.906 c 2.606,0.499 3.528,1.587 3.528,4.165 0,3.754 -1.564,4.918 -6.792,5.052 L 9.5,13.199 V 8.544 c 0,-2.56 0.05,-4.705 0.111,-4.766 0.211,-0.211 4.845,-0.114 6.111,0.128 m 227.448,6.111 c 0.833,2.42 1.698,4.91 1.922,5.534 0.224,0.624 0.408,1.205 0.408,1.292 0,0.094 -1.669,0.157 -4.167,0.157 -4.538,0 -4.37,0.04 -3.982,-0.947 0.423,-1.075 2.861,-7.681 3.857,-10.449 0.231,-0.642 0.19,-0.736 1.962,4.413 M 80.291,8.292 c 0.567,1.627 1.475,4.252 2.019,5.833 L 83.298,17 h -4.232 c -2.328,0 -4.233,-0.047 -4.233,-0.104 0,-0.099 2.427,-6.791 3.288,-9.063 0.225,-0.596 0.522,-1.402 0.66,-1.791 0.362,-1.023 0.381,-0.995 1.51,2.25 m -63.544,8.044 c 2.806,0.887 3.839,2.234 3.832,4.997 -0.009,4.144 -1.699,5.342 -7.704,5.465 L 9.5,26.868 v -5.541 -5.541 l 3.042,0.091 c 2.499,0.075 3.249,0.157 4.205,0.459 M 120,45.499 v 0.833 l 22.708,0.042 22.709,0.043 0.042,16.312 0.043,16.313 0.79,-0.086 c 0.435,-0.047 1.841,-0.287 3.125,-0.534 3.551,-0.682 5.332,-1.018 9.333,-1.763 2.017,-0.375 4.417,-0.825 5.333,-1 0.917,-0.175 2.492,-0.476 3.5,-0.668 1.009,-0.193 2.621,-0.491 3.584,-0.662 0.962,-0.172 3.137,-0.588 4.833,-0.926 3.783,-0.752 4.897,-0.779 7.833,-0.195 2.282,0.455 7.905,1.524 11.25,2.14 1.009,0.186 2.584,0.481 3.5,0.656 2.811,0.537 5.079,0.963 7.084,1.33 2.268,0.416 4.799,0.9 7.032,1.344 0.888,0.177 1.844,0.322 2.125,0.322 h 0.509 V 62.667 46.333 H 258 280.667 V 45.5 44.667 H 200.333 120 Z m 62.007,9.209 c 1.419,0.726 1.553,0.976 0.882,1.647 l -0.524,0.524 -0.882,-0.44 c -2.923,-1.456 -5.829,0.971 -4.918,4.108 0.625,2.149 2.819,2.986 5.021,1.916 l 0.754,-0.366 0.537,0.536 c 0.679,0.679 0.554,0.919 -0.866,1.659 -4.455,2.32 -9.387,-2.671 -7.1,-7.185 1.337,-2.638 4.523,-3.715 7.096,-2.399 m 13.094,0.75 c 0.331,0.711 0.885,1.929 1.232,2.709 0.347,0.779 0.947,2.091 1.333,2.916 1.741,3.716 1.747,3.752 0.714,3.748 -0.819,-0.004 -0.919,-0.082 -1.444,-1.123 l -0.442,-0.875 h -2.291 -2.292 l -0.397,0.92 c -0.418,0.969 -0.707,1.156 -1.617,1.052 -0.698,-0.08 -0.666,-0.382 0.24,-2.315 1.343,-2.863 2.797,-6.001 3.336,-7.198 0.662,-1.473 0.876,-1.451 1.628,0.166 m 17.316,-0.291 v 0.75 l -2.292,0.046 -2.292,0.046 v 1.49 1.49 l 1.959,0.047 1.958,0.047 0.053,0.553 c 0.089,0.928 -0.126,1.031 -2.157,1.031 h -1.813 v 1.883 c 0,2.08 -0.083,2.283 -0.938,2.283 -1.058,0 -1.062,-0.017 -1.062,-5.248 0,-2.598 0.046,-4.845 0.103,-4.992 0.09,-0.234 0.493,-0.261 3.292,-0.222 l 3.189,0.046 z m 13.848,-0.417 c 0.289,1.151 0.132,1.236 -2.392,1.287 l -2.29,0.046 -0.049,1.209 -0.049,1.208 1.799,0.003 c 2.153,0.003 2.254,0.05 2.185,1.014 l -0.052,0.733 -1.966,0.047 -1.965,0.047 0.049,1.286 0.048,1.287 2.29,0.046 2.29,0.046 0.109,0.436 c 0.06,0.239 0.04,0.631 -0.044,0.87 l -0.152,0.435 -2.975,0.046 c -2.052,0.031 -3.045,-0.014 -3.204,-0.146 -0.245,-0.203 -0.359,-9.966 -0.119,-10.206 0.061,-0.061 1.522,-0.111 3.247,-0.111 h 3.135 z m -32.356,3.607 c -0.066,0.207 -0.368,0.905 -0.672,1.551 l -0.554,1.175 1.43,0.049 c 1.774,0.06 1.708,0.172 0.924,-1.57 -0.701,-1.557 -0.936,-1.808 -1.128,-1.205"
       fill="#060606"
       id="path24" />
    <path
       d="m 0,0.32 c 0,0.31 0.253,0.322 8.375,0.393 11.492,0.101 13.63,0.685 15.224,4.162 1.795,3.917 -0.599,7.965 -5.447,9.21 -1.458,0.374 -1.521,0.515 -0.286,0.643 7.019,0.733 10.167,7.222 5.811,11.981 -2.425,2.649 -4.868,3.124 -16.048,3.124 H 0 V 54.417 79 h 82.751 82.751 L 165.459,62.708 165.417,46.417 142.708,46.374 120,46.332 v -0.833 -0.832 h 80.333 80.334 V 45.5 46.333 H 258 235.333 V 62.667 79 H 317.667 400 V 45.083 11.167 h -0.994 c -1.143,0 -1.076,0.072 -1.748,-1.917 -0.97,-2.872 -1.998,-4.643 -3.1,-5.339 C 393.055,3.215 389.32,2.86 389.101,3.43 389.046,3.575 389,8.9 389,15.264 v 11.569 h 2.583 2.584 v 1.5 1.5 h -7.423 -7.424 l 0.049,-1.458 0.048,-1.458 2.542,-0.046 2.543,-0.046 -0.043,-11.788 -0.042,-11.787 -1.86,0.022 c -3.526,0.043 -4.596,1.055 -6.236,5.895 -0.691,2.039 -0.678,2.025 -1.806,1.966 l -0.932,-0.05 -0.044,-5.208 -0.044,-5.208 h 13.253 C 399.889,0.667 400,0.664 400,0.333 400,0 399.893,0 262.875,0.013 187.456,0.02 125.844,0.064 125.958,0.11 c 0.161,0.065 0.209,1.371 0.209,5.737 V 11.5 h -1.417 c -1.021,0 -1.417,-0.058 -1.418,-0.208 -0.003,-0.37 -1.662,-3.495 -2.418,-4.554 -3.121,-4.374 -8.445,-5.037 -12.011,-1.495 -4.136,4.107 -4.048,15.482 0.152,19.749 3.231,3.282 8.821,3.211 12.082,-0.153 1.331,-1.374 2.863,-4.739 2.863,-6.291 0,-0.372 0.041,-0.381 1.669,-0.381 h 1.668 l -0.103,0.708 C 126.083,26.79 119.879,31.639 112.451,30.43 97.183,27.943 96.315,4.387 111.343,0.353 L 112.583,0.02 56.292,0.01 C 0.892,0 0,0.005 0,0.32 M 116.417,0.111 c 2.076,0.453 4.017,1.379 5.278,2.518 0.775,0.7 0.685,0.776 1.119,-0.953 0.194,-0.773 0.446,-1.466 0.561,-1.539 0.115,-0.072 -1.479,-0.124 -3.542,-0.115 -2.062,0.009 -3.6,0.049 -3.416,0.089 M 84.822,7.542 c 1.401,3.873 2.848,7.866 3.215,8.875 0.828,2.269 0.976,2.68 2.496,6.916 l 1.226,3.417 1.995,0.083 1.996,0.084 0.048,1.458 0.048,1.458 H 89 82.154 l 0.048,-1.458 0.048,-1.458 2.208,-0.047 c 1.215,-0.025 2.209,-0.071 2.209,-0.102 0,-0.125 -2.313,-6.766 -2.412,-6.927 -0.168,-0.271 -10.333,-0.238 -10.539,0.034 -0.132,0.173 -0.571,1.354 -2.51,6.75 -0.057,0.158 0.349,0.208 1.69,0.208 2.045,0 1.993,-0.05 1.905,1.839 L 74.75,29.75 69.625,29.794 64.5,29.838 v -1.502 -1.503 h 1.566 c 1.336,0 1.582,-0.042 1.679,-0.291 0.063,-0.161 0.644,-1.679 1.292,-3.375 0.648,-1.696 1.397,-3.646 1.663,-4.334 0.267,-0.687 0.709,-1.85 0.982,-2.583 0.273,-0.733 0.607,-1.57 0.741,-1.859 0.134,-0.288 0.244,-0.567 0.244,-0.619 0,-0.111 1.44,-3.867 1.67,-4.355 0.086,-0.184 0.378,-0.934 0.649,-1.667 0.27,-0.733 0.841,-2.233 1.268,-3.333 0.427,-1.1 0.893,-2.338 1.035,-2.75 C 77.699,0.475 77.64,0.5 80.075,0.5 h 2.201 z M 246.635,6.208 c 1.129,3.14 2.193,6.084 2.365,6.542 0.171,0.458 1.385,3.812 2.696,7.454 l 2.385,6.62 2.001,0.046 2.001,0.047 0.048,1.458 0.049,1.458 h -6.84 -6.84 v -1.5 -1.5 h 2.244 2.244 l -1.218,-3.541 -1.217,-3.542 -5.258,-0.044 c -4.825,-0.04 -5.267,-0.021 -5.367,0.24 -0.442,1.152 -2.428,6.693 -2.428,6.774 0,0.056 0.769,0.123 1.708,0.149 l 1.709,0.048 0.048,1.46 0.048,1.461 -5.131,-0.044 -5.132,-0.044 v -1.417 -1.416 l 1.586,-0.048 1.587,-0.047 0.395,-1.036 c 0.217,-0.57 0.641,-1.673 0.943,-2.453 0.301,-0.779 1.123,-2.916 1.826,-4.75 0.702,-1.833 1.453,-3.783 1.667,-4.333 0.214,-0.55 0.775,-2.013 1.246,-3.25 0.471,-1.238 1.032,-2.7 1.247,-3.25 0.215,-0.55 0.663,-1.713 0.996,-2.583 0.333,-0.871 0.875,-2.277 1.205,-3.125 l 0.6,-1.542 h 2.267 2.268 z M 47.833,2.162 V 3.658 L 45.458,3.704 43.083,3.75 43.041,15.292 42.998,26.833 h 5.062 c 6.346,0 5.991,0.209 6.933,-4.083 0.552,-2.519 0.5,-2.442 1.632,-2.383 l 0.958,0.05 0.045,4.708 0.044,4.708 H 45.579 33.487 l 0.048,-1.458 0.048,-1.458 2.376,-0.047 2.377,-0.046 L 38.293,15.287 38.25,3.75 35.875,3.704 33.5,3.658 V 2.162 0.667 h 7.167 7.166 z M 148.25,2.167 v 1.416 l -2.042,0.047 -2.041,0.047 v 5.995 c 0,3.297 0.031,5.995 0.069,5.995 0.148,0 11.264,-11.667 11.264,-11.823 0,-0.096 -0.717,-0.186 -1.708,-0.213 l -1.709,-0.048 -0.048,-1.458 -0.048,-1.458 h 5.84 5.84 v 1.5 1.5 l -1.792,0.002 -1.792,10e-4 -4.491,4.472 c -2.47,2.459 -4.516,4.548 -4.547,4.641 -0.032,0.093 0.386,0.762 0.928,1.485 1.181,1.578 5.412,7.292 7.66,10.346 l 1.617,2.197 1.833,0.053 1.834,0.053 0.048,1.458 0.048,1.458 h -6.513 -6.513 l 0.048,-1.458 0.048,-1.458 1.709,-0.048 c 0.939,-0.026 1.708,-0.088 1.708,-0.137 0,-0.049 -0.731,-1.114 -1.625,-2.366 C 152.981,23.114 152.137,21.923 152,21.72 150.893,20.087 147.899,16 147.81,16 c -0.061,0 -0.906,0.8 -1.877,1.777 l -1.766,1.776 v 3.64 3.64 h 1.996 c 2.312,0 2.227,-0.072 2.138,1.839 l -0.051,1.078 h -6.833 -6.834 l -0.05,-1.078 c -0.091,-1.942 -0.236,-1.839 2.555,-1.839 h 2.414 L 139.459,15.292 139.417,3.75 137,3.667 l -2.417,-0.084 -0.048,-1.46 -0.048,-1.46 6.881,0.043 6.882,0.044 z m 47.333,0 v 1.416 l -2.304,0.047 -2.303,0.046 0.114,0.52 c 0.062,0.286 0.745,2.627 1.516,5.203 0.772,2.577 1.557,5.209 1.745,5.851 0.189,0.642 0.48,1.617 0.648,2.167 0.169,0.55 0.495,1.637 0.725,2.416 1.693,5.718 1.521,5.547 2.517,2.513 0.318,-0.969 1.635,-4.875 2.928,-8.679 2.549,-7.504 2.484,-7.186 1.877,-9.125 l -0.274,-0.875 h -1.969 -1.97 v -1.5 -1.5 h 7 7 v 1.5 1.5 h -2.5 c -2.908,0 -2.729,-0.173 -2.102,2.023 0.434,1.52 1.904,6.965 3.817,14.143 0.843,3.166 1.291,4.584 1.449,4.584 0.207,0 0.843,-1.932 2.933,-8.917 0.233,-0.779 0.49,-1.604 0.57,-1.833 0.08,-0.229 0.381,-1.204 0.669,-2.167 0.288,-0.963 0.626,-2.05 0.75,-2.417 0.124,-0.366 0.425,-1.341 0.669,-2.166 0.243,-0.825 0.548,-1.822 0.677,-2.214 C 219.894,4.31 220,3.919 220,3.833 220,3.748 219.194,3.657 218.208,3.631 L 216.417,3.583 V 2.167 0.75 l 5.125,-0.044 5.125,-0.044 v 1.502 1.503 h -1.48 c -0.988,0 -1.532,0.069 -1.638,0.208 -0.087,0.115 -2.089,6.04 -4.449,13.167 L 214.81,30 h -2.288 -2.288 l -0.546,-1.958 c -0.299,-1.077 -0.796,-2.859 -1.103,-3.959 -0.307,-1.1 -0.869,-3.125 -1.249,-4.5 -0.38,-1.375 -0.943,-3.4 -1.251,-4.5 -0.309,-1.1 -0.644,-2.318 -0.746,-2.708 -0.254,-0.971 -0.355,-0.903 -0.867,0.584 -1.192,3.459 -2.548,7.411 -3.475,10.124 -0.563,1.65 -1.328,3.882 -1.7,4.959 l -0.675,1.958 -2.269,-0.002 -2.27,-0.001 -0.528,-1.707 c -0.29,-0.939 -0.839,-2.682 -1.22,-3.873 -0.381,-1.192 -0.829,-2.617 -0.996,-3.167 -0.323,-1.066 -2.312,-7.393 -4.007,-12.75 -0.566,-1.788 -1.12,-3.588 -1.233,-4 L 185.895,3.75 183.864,3.703 181.833,3.656 V 2.16 0.663 l 6.875,0.043 6.875,0.044 z m 83.417,0 v 1.5 h -2.417 -2.416 V 15.25 26.833 h 5.061 c 6.382,0 5.918,0.274 6.928,-4.092 0.575,-2.485 0.529,-2.408 1.424,-2.408 1.343,0 1.253,-0.348 1.253,4.851 v 4.649 H 276.75 264.667 v -1.5 -1.5 h 2.416 2.417 V 15.25 3.667 h -2.417 -2.416 v -1.5 -1.5 h 7.166 7.167 z m 27.64,-0.209 c 1.297,1.92 4.469,6.537 7.11,10.349 3.584,5.174 4.173,6.027 4.948,7.163 1.506,2.207 1.838,2.591 1.994,2.313 0.079,-0.142 0.125,-4.258 0.101,-9.146 L 320.75,3.75 318.458,3.704 316.167,3.657 V 2.162 0.667 h 6.166 6.167 v 1.5 1.5 h -2.167 -2.166 v 13.3 c 0,15.19 0.198,13.701 -1.825,13.697 -1.824,-0.003 -1.215,0.647 -6.094,-6.497 -0.72,-1.054 -2.321,-3.38 -3.559,-5.167 -1.238,-1.788 -2.736,-3.963 -3.329,-4.833 -0.594,-0.871 -1.496,-2.184 -2.005,-2.917 -0.51,-0.733 -1.417,-2.04 -2.016,-2.905 -0.599,-0.864 -1.183,-1.601 -1.297,-1.639 -0.165,-0.053 -0.209,2.026 -0.209,10.025 v 10.093 l 2.292,0.046 2.292,0.047 v 1.416 1.417 l -6.215,0.044 -6.215,0.043 0.048,-1.46 0.048,-1.46 2.21,-0.047 2.209,-0.046 L 300.459,15.287 300.417,3.75 298.208,3.703 296,3.657 V 2.162 0.667 h 4.884 4.884 z m 41.491,0.167 -0.048,1.458 -2.132,0.047 -2.133,0.047 0.049,9.286 0.05,9.287 0.467,1.103 c 2.148,5.072 11.279,5.46 13.807,0.588 0.739,-1.424 0.803,-2.345 0.806,-11.566 L 359,3.667 h -2.25 -2.25 v -1.5 -1.5 h 6 6 v 1.495 1.494 l -2.042,0.047 -2.041,0.047 -0.091,9.667 c -0.092,9.927 -0.104,10.097 -0.788,11.416 -3.841,7.4 -17.729,7.841 -21.364,0.679 -0.948,-1.869 -0.916,-1.479 -1.006,-12.012 L 339.083,3.75 337,3.667 334.917,3.583 334.869,2.125 334.82,0.667 h 6.68 6.68 z M 0,15.25 V 26.833 H 2.417 4.833 V 15.25 3.667 H 2.417 0 Z M 9.611,3.778 C 9.55,3.839 9.5,5.984 9.5,8.544 v 4.655 l 2.958,-0.076 C 17.686,12.989 19.25,11.825 19.25,8.071 19.25,5.493 18.328,4.405 15.722,3.906 14.456,3.664 9.822,3.567 9.611,3.778 m 231.597,1.826 c -0.996,2.768 -3.434,9.374 -3.857,10.449 -0.388,0.987 -0.556,0.947 3.982,0.947 2.498,0 4.167,-0.063 4.167,-0.157 0,-0.087 -0.184,-0.668 -0.408,-1.292 -0.224,-0.624 -1.089,-3.114 -1.922,-5.534 -1.772,-5.149 -1.731,-5.055 -1.962,-4.413 M 78.781,6.042 c -0.138,0.389 -0.435,1.195 -0.66,1.791 -0.861,2.272 -3.288,8.964 -3.288,9.063 0,0.057 1.905,0.104 4.233,0.104 h 4.232 L 82.31,14.125 C 78.968,4.406 79.184,4.901 78.781,6.042 M 9.5,21.327 v 5.541 l 3.375,-0.07 C 18.88,26.675 20.57,25.477 20.579,21.333 20.588,17.46 18.52,16.056 12.542,15.877 L 9.5,15.786 Z m 168.226,33.187 c -4.323,1.662 -4.515,7.812 -0.307,9.821 2.566,1.224 7.001,-0.159 5.458,-1.702 l -0.537,-0.536 -0.754,0.366 c -2.202,1.07 -4.396,0.233 -5.021,-1.916 -0.911,-3.137 1.995,-5.564 4.918,-4.108 l 0.882,0.44 0.524,-0.524 c 1.399,-1.4 -2.602,-2.826 -5.163,-1.841 m 15.747,0.778 c -0.539,1.197 -1.993,4.335 -3.336,7.198 -0.906,1.933 -0.938,2.235 -0.24,2.315 0.91,0.104 1.199,-0.083 1.617,-1.052 l 0.397,-0.92 h 2.292 2.291 l 0.442,0.875 c 0.525,1.041 0.625,1.119 1.444,1.123 1.033,0.004 1.027,-0.032 -0.714,-3.748 -0.386,-0.825 -0.986,-2.137 -1.333,-2.916 -2.059,-4.624 -2.069,-4.634 -2.86,-2.875 m 12.463,-0.699 c -0.057,0.147 -0.103,2.394 -0.103,4.992 0,5.231 0.004,5.248 1.062,5.248 0.855,0 0.938,-0.203 0.938,-2.283 v -1.883 h 1.813 c 2.031,0 2.246,-0.103 2.157,-1.031 l -0.053,-0.553 -1.958,-0.047 -1.959,-0.047 v -1.49 -1.49 l 2.292,-0.046 2.292,-0.046 v -0.75 -0.75 l -3.189,-0.046 c -2.799,-0.039 -3.202,-0.012 -3.292,0.222 m 13.842,-0.149 c -0.24,0.24 -0.126,10.003 0.119,10.206 0.159,0.132 1.152,0.177 3.204,0.146 l 2.975,-0.046 0.152,-0.435 c 0.084,-0.239 0.104,-0.631 0.044,-0.87 l -0.109,-0.436 -2.29,-0.046 -2.29,-0.046 -0.048,-1.287 -0.049,-1.286 1.965,-0.047 1.966,-0.047 0.052,-0.733 c 0.069,-0.964 -0.032,-1.011 -2.185,-1.014 l -1.799,-0.003 0.049,-1.208 0.049,-1.209 2.29,-0.046 c 2.524,-0.051 2.681,-0.136 2.392,-1.287 l -0.105,-0.417 h -3.135 c -1.725,0 -3.186,0.05 -3.247,0.111 m -24.741,5.118 c 0.784,1.742 0.85,1.63 -0.924,1.57 l -1.43,-0.049 0.554,-1.175 c 0.304,-0.646 0.606,-1.344 0.672,-1.551 0.192,-0.603 0.427,-0.352 1.128,1.205 m 4.296,13.215 c -1.287,0.262 -6.669,1.284 -8.166,1.552 -0.963,0.171 -2.538,0.463 -3.5,0.647 -3.681,0.704 -5.367,1.022 -8.917,1.683 -2.017,0.375 -4.417,0.825 -5.333,0.999 -0.917,0.174 -2.717,0.511 -4,0.75 -1.284,0.239 -2.409,0.464 -2.5,0.5 -0.092,0.036 14.983,0.066 33.5,0.066 37.613,10e-4 34.629,0.111 28.416,-1.041 -1.329,-0.246 -2.754,-0.516 -3.166,-0.601 -0.413,-0.084 -2.025,-0.384 -3.584,-0.668 -1.558,-0.283 -3.358,-0.621 -4,-0.75 -0.641,-0.13 -1.991,-0.386 -3,-0.569 -2.33,-0.425 -8.347,-1.561 -11.166,-2.109 -2.269,-0.441 -3.881,-0.602 -4.584,-0.459"
       fill="#fbfbfb"
       id="path26" />
  </g>
</svg>
