<svg xmlns="http://www.w3.org/2000/svg" height="158.116" width="800" fill-rule="evenodd" xmlns:v="https://vecta.io/nano"><path d="M222.686.72c-30.072 8.302-28.344 55.194 2.216 60.172 14.856 2.418 27.264-7.28 29.566-23.11l.206-1.416h-3.336c-3.256 0-3.338.018-3.338.762 0 3.104-3.064 9.834-5.726 12.582-6.522 6.728-17.702 6.87-24.164.306-8.4-8.534-8.576-31.284-.304-39.498 7.132-7.084 17.78-5.758 24.022 2.99 1.512 2.118 4.83 8.368 4.836 9.108.002.3.794.416 2.836.416h2.834V11.734c0-12.83.298-11.706-3.112-11.696-2.704.006-2.772.07-3.594 3.346-.868 3.458-.688 3.306-2.238 1.906-4.994-4.512-13.844-6.464-20.704-4.57m-67.264.728c-.18.23-.56 1.092-.844 1.918s-1.216 3.3-2.07 5.5l-2.536 6.666c-.542 1.466-1.126 2.966-1.298 3.334-.46.976-3.34 8.488-3.34 8.71 0 .104-.22.662-.488 1.238s-.936 2.252-1.482 3.718l-1.964 5.166-3.326 8.668-2.584 6.75c-.194.498-.686.582-3.358.582H129v3.006 3.004l10.25-.088 10.25-.088.102-2.156c.176-3.778.28-3.678-3.81-3.678-2.682 0-3.494-.1-3.38-.416l5.02-13.5c.412-.544 20.742-.61 21.078-.068.198.322 4.824 13.604 4.824 13.854 0 .062-1.988.154-4.418.204l-4.416.094-.096 2.916-.096 2.916H178h13.692l-.096-2.916-.096-2.916-3.992-.168-3.99-.166-2.452-6.834-4.992-13.832-6.43-17.75-5.092-14.084h-4.402c-3.124 0-4.496.12-4.728.416m323.474 2.668l-2.41 6.25-1.992 5.166-2.494 6.5-2.492 6.5-3.334 8.666-3.652 9.5-1.886 4.906-.79 2.072-3.174.094-3.172.096v2.832 2.834l10.264.088 10.262.088-.096-2.922-.096-2.92-3.418-.096c-1.878-.052-3.416-.186-3.416-.298 0-.162 3.972-11.244 4.856-13.548.2-.522 1.084-.56 10.734-.48l10.516.088 2.434 7.084 2.436 7.082h-4.488H489v3 3h13.68 13.68l-.098-2.916-.096-2.916-4.002-.094-4.002-.092-4.77-13.24L498 25.532l-4.73-13.084-4.104-11.416h-4.536-4.534zM0 4.338v3.028h4.834 4.832v23.166 23.166H4.834 0v3 3h15.258c22.36 0 27.246-.95 32.096-6.248 8.712-9.518 2.416-22.496-11.622-23.962-2.47-.256-2.344-.538.572-1.286 13.464-3.458 16.592-18.334 5.078-24.146C36.874 1.78 35.36 1.62 16.75 1.458L0 1.312zm67 .018v2.992l4.75.092 4.75.092.086 23.074.086 23.074-4.754.092-4.752.094-.096 2.916-.096 2.916h24.184 24.186l-.088-9.416-.09-9.416-1.916-.1c-2.264-.118-2.16-.272-3.264 4.766-1.884 8.584-1.174 8.166-13.866 8.166H85.996l.086-23.082.084-23.084 4.75-.092 4.75-.092V4.356v-2.99H81.334 67zm202.07-.078l.096 2.92 4.834.168 4.834.166.084 23.084.086 23.082h-4.828c-5.582 0-5.292-.206-5.11 3.678l.1 2.156h13.668H296.5l.102-2.156c.178-3.822.348-3.678-4.276-3.678h-3.992v-7.28-7.28l3.532-3.552c1.942-1.954 3.632-3.554 3.754-3.554.178 0 6.166 8.174 8.38 11.44.274.406 1.962 2.788 3.75 5.292s3.25 4.634 3.25 4.732-1.538.222-3.416.274l-3.418.096-.096 2.916-.096 2.916H317h13.026l-.096-2.916-.096-2.916-3.668-.106-3.666-.106-3.234-4.394-15.32-20.692c-1.084-1.446-1.92-2.784-1.856-2.97s4.154-4.364 9.094-9.282l8.982-8.944 3.584-.002 3.584-.004v-3-3h-11.68-11.68l.096 2.916.096 2.916 3.418.096c1.982.054 3.416.234 3.416.426 0 .312-22.232 23.646-22.528 23.646-.076 0-.138-5.396-.138-11.99V7.386l4.082-.094 4.084-.094V4.366 1.532l-13.764-.088-13.762-.086zm94.596.074v2.992l4.062.094 4.062.094.408 1.5c.226.824 1.334 4.424 2.466 8l8.014 25.5 1.992 6.334 2.44 7.746 1.056 3.414 4.54.002 4.538.004 1.35-3.916 3.4-9.918 6.95-20.248c1.024-2.974 1.226-3.11 1.734-1.168l1.492 5.416 2.502 9 2.498 9 2.206 7.918 1.092 3.916h4.576 4.576l8.58-25.916 8.898-26.334c.212-.278 1.3-.416 3.276-.416h2.96V4.36 1.356l-10.25.088-10.25.088v2.834 2.832l3.582.096c1.972.052 3.584.234 3.584.404s-.212.954-.47 1.74a198.79 198.79 0 0 0-1.354 4.428l-1.338 4.332c-.248.734-.924 2.908-1.5 4.834L434 27.366c-.16.458-.674 2.108-1.14 3.666-4.18 13.97-5.452 17.834-5.866 17.834-.316 0-1.212-2.836-2.898-9.168l-7.634-28.286c-1.254-4.392-1.612-4.046 4.204-4.046h5v-3-3h-14-14v3 3h3.94 3.938l.548 1.75c1.214 3.878 1.344 3.242-3.754 18.25l-5.856 17.358c-1.992 6.068-1.648 6.41-5.034-5.026l-1.45-4.832-1.296-4.334-3.49-11.702-3.032-10.406-.228-1.04 4.606-.092 4.608-.094V4.366 1.532l-13.75-.088-13.75-.086zm165.668.014v3h4.832H539v23.166 23.166h-4.834-4.832v3 3H553.5h24.166V50.4c0-10.398.18-9.702-2.506-9.702-1.79 0-1.698-.154-2.848 4.816-2.02 8.732-1.092 8.184-13.856 8.184h-10.122V30.532 7.366h4.832H558v-3-3h-14.334-14.332zM592 4.356v2.99l4.416.092 4.418.094.084 23.074.086 23.074-4.418.092-4.42.094-.096 2.92-.096 2.92 12.43-.086 12.43-.088v-2.834-2.832l-4.584-.094-4.584-.092V33.494c0-15.998.088-20.156.418-20.05.228.076 1.396 1.55 2.594 3.278l4.032 5.81 4.01 5.834 6.658 9.666 7.118 10.334c9.758 14.288 8.54 12.988 12.188 12.994 4.046.008 3.65 2.986 3.65-27.394v-26.6h4.332H657v-3-3h-12.334-12.332v2.99 2.99l4.582.094 4.584.092.086 17.774c.048 9.776-.044 18.008-.202 18.292-.312.556-.976-.212-3.988-4.626L627.5 24.646 613.28 3.948l-1.744-2.582h-9.768H592zm77.738-.074l.096 2.916 4.166.168 4.166.166.17 19.5c.18 21.066.116 20.286 2.012 24.024 7.27 14.324 35.046 13.442 42.728-1.358 1.368-2.638 1.392-2.978 1.576-22.832l.182-19.334 4.082-.094L733 7.344V4.356v-2.99h-12-12v3 3h4.5 4.5l-.006 17.416c-.006 18.442-.134 20.284-1.612 23.132-5.056 9.744-23.318 8.968-27.614-1.176l-.934-2.206-.1-18.574-.098-18.572 4.266-.094 4.264-.094.096-2.916.098-2.916H683h-13.36zm77.34 7.5l.088 10.416 1.864.1c2.256.118 2.23.146 3.612-3.932 3.28-9.68 5.42-11.704 12.472-11.79l3.72-.044.084 23.574.086 23.576-5.086.092-5.084.092-.096 2.916-.098 2.916h14.848 14.846v-3-3h-5.168H778V30.56l.202-23.668c.438-1.14 7.908-.43 10.114.962s4.26 4.934 6.2 10.678c1.344 3.978 1.21 3.834 3.496 3.834H800v-10.5-10.5h-26.504-26.506zM31.444 7.844c5.212.998 7.056 3.174 7.056 8.33 0 7.508-3.128 9.836-13.584 10.104L19 26.43v-9.31c0-5.12.1-9.41.222-9.532.422-.422 9.69-.228 12.222.256M486.34 20.066l3.844 11.068c.448 1.248.816 2.41.816 2.584 0 .188-3.338.314-8.334.314-9.076 0-8.74.08-7.964-1.894.846-2.15 5.722-15.362 7.714-20.898.462-1.284.38-1.472 3.924 8.826m-325.758-3.45l4.038 11.666 1.976 5.75h-8.464c-4.656 0-8.466-.094-8.466-.208 0-.198 4.854-13.582 6.576-18.126l1.32-3.582c.724-2.046.762-1.99 3.02 4.5M33.494 32.704c5.612 1.774 7.678 4.468 7.664 9.994-.018 8.288-3.398 10.684-15.408 10.93l-6.75.14V42.686 31.604l6.084.182c4.998.15 6.498.314 8.41.918M240 91.03v1.666l45.416.084 45.418.086.084 32.624.086 32.626 1.58-.172c.87-.094 3.682-.574 6.25-1.068l18.666-3.526 10.666-2 7-1.336 7.168-1.324 9.666-1.852c7.566-1.504 9.794-1.558 15.666-.39l22.5 4.28 7 1.312 14.168 2.66 14.064 2.688c1.776.354 3.688.644 4.25.644h1.018v-32.666-32.668H516h45.334v-1.666-1.666H400.666 240zm124.014 18.418c2.838 1.452 3.106 1.952 1.764 3.294l-1.048 1.048-1.764-.88c-5.846-2.912-11.658 1.942-9.836 8.216 1.25 4.298 5.638 5.972 10.042 3.832l1.508-.732 1.074 1.072c1.358 1.358 1.108 1.838-1.732 3.318-8.91 4.64-18.774-5.342-14.2-14.37 2.674-5.276 9.046-7.43 14.192-4.798m26.188 1.5l2.464 5.418 2.666 5.832c3.482 7.432 3.494 7.504 1.428 7.496-1.638-.008-1.838-.164-2.888-2.246l-.884-1.75h-4.582-4.584l-.794 1.84c-.836 1.938-1.414 2.312-3.234 2.104-1.396-.16-1.332-.764.48-4.63l6.672-14.396c1.324-2.946 1.752-2.902 3.256.332m34.632-.582v1.5l-4.584.092-4.584.092v2.98 2.98l3.918.094 3.916.094.106 1.106c.178 1.856-.252 2.062-4.314 2.062h-3.626v3.766c0 4.16-.166 4.566-1.876 4.566-2.116 0-2.124-.034-2.124-10.496 0-5.196.092-9.69.206-9.984.18-.468.986-.522 6.584-.444l6.378.092zm27.696-.834c.578 2.302.264 2.472-4.784 2.574l-4.58.092-.098 2.418-.098 2.416 3.598.006c4.306.006 4.508.1 4.37 2.028l-.104 1.466-3.932.094-3.93.094.098 2.572.096 2.574 4.58.092 4.58.092.218.872c.12.478.08 1.262-.088 1.74l-.304.87-5.95.092c-4.104.062-6.09-.028-6.408-.292-.49-.406-.718-19.932-.238-20.412.122-.122 3.044-.222 6.494-.222h6.27zm-64.712 7.214c-.132.414-.736 1.81-1.344 3.102l-1.108 2.35 2.86.098c3.548.12 3.416.344 1.848-3.14-1.402-3.114-1.872-3.616-2.256-2.41" fill="#060606"/><path d="M0 .672c0 .62.506.644 16.75.786 22.984.202 27.26 1.37 30.448 8.324 3.59 7.834-1.198 15.93-10.894 18.42-2.916.748-3.042 1.03-.572 1.286C49.77 30.954 56.066 43.932 47.354 53.45c-4.85 5.298-9.736 6.248-32.096 6.248H0v49.168 49.166h165.502 165.502l-.086-32.584-.084-32.582-45.418-.086L240 92.696V91.03v-1.664h160.666 160.668v1.666 1.666H516h-45.334v32.668 32.666h164.668H800V90.198 22.366h-1.988c-2.286 0-2.152.144-3.496-3.834-1.94-5.744-3.996-9.286-6.2-10.678s-9.676-2.102-10.114-.962c-.11.29-.202 10.94-.202 23.668v23.138h5.166 5.168v3 3h-14.846-14.848l.098-2.916.096-2.916 5.084-.092 5.086-.092-.086-23.576-.084-23.574-3.72.044c-7.052.086-9.192 2.11-12.472 11.79-1.382 4.078-1.356 4.05-3.612 3.932l-1.864-.1-.088-10.416-.088-10.416h26.506C799.778 1.366 800 1.36 800 .698s-.214-.666-274.25-.64L251.916.252c.322.13.418 2.742.418 11.474v11.306H249.5c-2.042 0-2.834-.116-2.836-.416-.006-.74-3.324-6.99-4.836-9.108-6.242-8.748-16.89-10.074-24.022-2.99-8.272 8.214-8.096 30.964.304 39.498 6.462 6.564 17.642 6.422 24.164-.306 2.662-2.748 5.726-9.478 5.726-12.582 0-.744.082-.762 3.338-.762h3.336l-.206 1.416c-2.302 15.83-14.71 25.528-29.566 23.11-30.536-4.974-32.272-52.086-2.216-60.154l2.48-.666-112.582-.02C1.784.032 0 .042 0 .672M232.834.254c4.152.906 8.034 2.758 10.556 5.036 1.55 1.4 1.37 1.552 2.238-1.906.388-1.546.892-2.932 1.122-3.078s-2.958-.248-7.084-.23-7.2.098-6.832.178m-63.19 14.862l6.43 17.75 4.992 13.832 2.452 6.834 3.99.166 3.992.168.096 2.916.096 2.916H178h-13.692l.096-2.916.096-2.916 4.416-.094c2.43-.05 4.418-.142 4.418-.204 0-.25-4.626-13.532-4.824-13.854-.336-.542-20.666-.476-21.078.068-.264.346-1.142 2.708-5.02 13.5-.114.316.698.416 3.38.416 4.09 0 3.986-.1 3.81 3.678l-.102 2.156-10.25.088-10.25.088v-3.004-3.006h3.132c2.672 0 3.164-.084 3.358-.582l2.584-6.75 3.326-8.668 1.964-5.166c.546-1.466 1.214-3.14 1.482-3.718s.488-1.134.488-1.238c0-.222 2.88-7.734 3.34-8.71.172-.368.756-1.868 1.298-3.334l2.536-6.666 2.07-5.5c.82-2.384.702-2.334 5.572-2.334h4.402zm323.626-2.668L498 25.532l5.392 14.908 4.77 13.24 4.002.092 4.002.094.096 2.916.098 2.916h-13.68H489v-3-3h4.488 4.488l-2.436-7.082-2.434-7.084-10.516-.088c-9.65-.08-10.534-.042-10.734.48C470.972 42.228 467 53.31 467 53.472c0 .112 1.538.246 3.416.298l3.418.096.096 2.92.096 2.922-10.262-.088-10.264-.088v-2.834-2.832l3.172-.096 3.174-.094.79-2.072 1.886-4.906 3.652-9.5 3.334-8.666 2.492-6.5 2.494-6.5 1.992-5.166 2.41-6.25 1.2-3.084h4.534 4.536zM95.666 4.356v2.992l-4.75.092-4.75.092-.084 23.084-.086 23.082H96.12c12.692 0 11.982.418 13.866-8.166 1.104-5.038 1-4.884 3.264-4.766l1.916.1.09 9.416.088 9.416H91.158 66.974l.096-2.916.096-2.916 4.752-.094 4.754-.092-.086-23.074L76.5 7.532l-4.75-.092L67 7.348V4.356v-2.99h14.334 14.332zm200.834.01v2.832l-4.084.094-4.082.094v11.99l.138 11.99C288.768 31.366 311 8.032 311 7.72c0-.192-1.434-.372-3.416-.426l-3.418-.096-.096-2.916-.096-2.916h11.68 11.68v3 3l-3.584.004-3.584.002-8.982 8.944-9.094 9.282c-.064.186.772 1.524 1.856 2.97l15.32 20.692 3.234 4.394 3.666.106 3.668.106.096 2.916.096 2.916H317h-13.026l.096-2.916.096-2.916 3.418-.096c1.878-.052 3.416-.176 3.416-.274s-1.462-2.228-3.25-4.732L304 43.472c-2.214-3.266-8.202-11.44-8.38-11.44-.122 0-1.812 1.6-3.754 3.554l-3.532 3.552v7.28 7.28h3.992c4.624 0 4.454-.144 4.276 3.678l-.102 2.156h-13.666-13.668l-.1-2.156c-.182-3.884-.472-3.678 5.11-3.678h4.828l-.086-23.082-.084-23.084L274 7.366l-4.834-.168-.096-2.92-.096-2.92 13.762.086 13.764.088zm94.666 0v2.832l-4.608.094-4.606.092.228 1.04c.124.572 1.49 5.254 3.032 10.406l3.49 11.702 1.296 4.334 1.45 4.832c3.386 11.436 3.042 11.094 5.034 5.026l5.856-17.358c5.098-15.008 4.968-14.372 3.754-18.25l-.548-1.75h-3.938-3.94v-3-3h14 14v3 3h-5c-5.816 0-5.458-.346-4.204 4.046l7.634 28.286c1.686 6.332 2.582 9.168 2.898 9.168.414 0 1.686-3.864 5.866-17.834l1.14-3.666c.16-.458.762-2.408 1.338-4.334l1.5-4.834a160.68 160.68 0 0 0 1.338-4.332l1.354-4.428c.258-.786.47-1.568.47-1.74s-1.612-.352-3.584-.404l-3.582-.096V4.366 1.532l10.25-.088 10.25-.088V4.36v3.006h-2.96c-1.976 0-3.064.138-3.276.416-.174.23-4.178 12.08-8.898 26.334l-8.58 25.916h-4.576-4.576l-1.092-3.916-2.206-7.918-2.498-9-2.502-9-1.492-5.416c-.508-1.942-.71-1.806-1.734 1.168l-6.95 20.248-3.4 9.918-1.35 3.916-4.538-.004-4.54-.002-1.056-3.414-2.44-7.746-1.992-6.334-8.014-25.5-2.466-8-.408-1.5-4.062-.094-4.062-.094V4.352 1.358l13.75.086 13.75.088zm166.834 0v3h-4.834-4.832v23.166 23.166h10.122c12.764 0 11.836.548 13.856-8.184 1.15-4.97 1.058-4.816 2.848-4.816 2.686 0 2.506-.696 2.506 9.702v9.298H553.5h-24.166v-3-3h4.832H539V30.532 7.366h-4.834-4.832v-3-3h14.332H558zm55.28-.418l14.22 20.698 9.896 14.326c3.012 4.414 3.676 5.182 3.988 4.626.158-.284.25-8.516.202-18.292L641.5 7.532l-4.584-.092-4.582-.094v-2.99-2.99h12.332H657v3 3h-4.334-4.332v26.6c0 30.38.396 27.402-3.65 27.394-3.648-.006-2.43 1.294-12.188-12.994l-7.118-10.334-6.658-9.666-4.01-5.834-4.032-5.81c-1.198-1.728-2.366-3.202-2.594-3.278-.33-.106-.418 4.052-.418 20.05V53.68l4.584.092 4.584.094v2.832 2.834l-12.43.088-12.43.086.096-2.92.096-2.92 4.42-.094 4.418-.092-.086-23.074-.084-23.074-4.418-.094L592 7.346v-2.99-2.99h9.768 9.768zm82.982.334l-.096 2.916-4.264.094-4.266.094.098 18.572.1 18.574.934 2.206c4.296 10.144 22.558 10.92 27.614 1.176 1.478-2.848 1.606-4.69 1.612-23.132L718 7.366h-4.5-4.5v-3-3h12 12v2.99 2.988l-4.084.094-4.082.094-.182 19.334c-.184 19.854-.208 20.194-1.576 22.832-7.682 14.8-35.458 15.682-42.728 1.358-1.896-3.738-1.832-2.958-2.012-24.024l-.17-19.5L674 7.366l-4.166-.168-.096-2.916-.098-2.916H683h13.36zM0 30.532v23.166h4.834 4.832V30.532 7.366H4.834 0zM19.222 7.588C19.1 7.71 19 12 19 17.12v9.31l5.916-.152C35.372 26.01 38.5 23.682 38.5 16.174c0-5.156-1.844-7.332-7.056-8.33-2.532-.484-11.8-.678-12.222-.256m463.194 3.652l-7.714 20.898c-.776 1.974-1.112 1.894 7.964 1.894 4.996 0 8.334-.126 8.334-.314 0-.174-.368-1.336-.816-2.584l-3.844-11.068c-3.544-10.298-3.462-10.11-3.924-8.826m-324.854.876l-1.32 3.582-6.576 18.126c0 .114 3.81.208 8.466.208h8.464l-1.976-5.75c-6.684-19.438-6.252-18.448-7.058-16.166M19 42.686v11.082l6.75-.14c12.01-.246 15.39-2.642 15.408-10.93.018-7.746-4.118-10.554-16.074-10.912L19 31.604zm336.452 66.374c-8.646 3.324-9.03 15.624-.614 19.642 5.132 2.448 14.002-.318 10.916-3.404l-1.074-1.072-1.508.732c-4.404 2.14-8.792.466-10.042-3.832-1.822-6.274 3.99-11.128 9.836-8.216l1.764.88 1.048-1.048c2.798-2.8-5.204-5.652-10.326-3.682m31.494 1.556l-6.672 14.396c-1.812 3.866-1.876 4.47-.48 4.63 1.82.208 2.398-.166 3.234-2.104l.794-1.84h4.584 4.582l.884 1.75c1.05 2.082 1.25 2.238 2.888 2.246 2.066.008 2.054-.064-1.428-7.496l-2.666-5.832c-4.118-9.248-4.138-9.268-5.72-5.75m24.926-1.398c-.114.294-.206 4.788-.206 9.984 0 10.462.008 10.496 2.124 10.496 1.71 0 1.876-.406 1.876-4.566v-3.766h3.626c4.062 0 4.492-.206 4.314-2.062l-.106-1.106-3.916-.094-3.918-.094v-2.98-2.98l4.584-.092 4.584-.092v-1.5-1.5l-6.378-.092c-5.598-.078-6.404-.024-6.584.444m27.684-.298c-.48.48-.252 20.006.238 20.412.318.264 2.304.354 6.408.292l5.95-.092.304-.87c.168-.478.208-1.262.088-1.74l-.218-.872-4.58-.092-4.58-.092-.096-2.574-.098-2.572 3.93-.094 3.932-.094.104-1.466c.138-1.928-.064-2.022-4.37-2.028l-3.598-.006.098-2.416.098-2.418 4.58-.092c5.048-.102 5.362-.272 4.784-2.574l-.21-.834h-6.27c-3.45 0-6.372.1-6.494.222m-49.482 10.236c1.568 3.484 1.7 3.26-1.848 3.14l-2.86-.098 1.108-2.35c.608-1.292 1.212-2.688 1.344-3.102.384-1.206.854-.704 2.256 2.41m8.592 26.43l-16.332 3.104-7 1.294-17.834 3.366-10.666 1.998-8 1.5-5 1c-.184.072 29.966.132 67 .132 75.226.002 69.258.222 56.832-2.082l-6.332-1.202c-.826-.168-4.05-.768-7.168-1.336l-8-1.5-6-1.138-22.332-4.218c-4.538-.882-7.762-1.204-9.168-.918" fill="#fbfbfb"/></svg>