<?xml version="1.0" encoding="UTF-8"?>
<svg id="layer" width="301" height="301" version="1.1" viewBox="0 0 301 301" xml:space="preserve" xmlns="http://www.w3.org/2000/svg">
<g transform="translate(-20,-171.4)">
	<path style="fill:#FFD200;" d="m170.6 457.3c-74.6 0-135.3-60.7-135.3-135.3s60.7-135.3 135.3-135.3 135.3 60.7 135.3 135.3c0 74.5-60.7 135.3-135.3 135.3"/>
	<path d="m170.6 171.4c-83.2 0-150.6 67.4-150.6 150.5s67.4 150.5 150.5 150.5 150.5-67.4 150.5-150.5c0.1-83.1-67.3-150.5-150.4-150.5m0 285.9c-74.6 0-135.3-60.7-135.3-135.3s60.7-135.3 135.3-135.3 135.3 60.7 135.3 135.3c0 74.5-60.7 135.3-135.3 135.3"/>
	<path d="m266.1 342.9c6.5-9.9 7.2-29.1 5.8-35.5-0.3-0.1-19.1-10.3-62.1-24.7 4.5-2.1 8.4-6.1 8.5-6.3-0.6-1.4-13.4-9.9-19.6-11.7 9.5-6.1 25.9-23.8 29.1-27.4-10-4.5-23.1-5.8-26.6-6 7.6-6 22-15.6 27.9-17.2-0.2-0.2-8.5-4.3-21.8-4.6-20.2-0.5-30.9 4-45.7 11.6-0.1 0 5.7-14.9 6.6-17.6-5.1 2.6-10.8 5.8-15.3 9.4-9.3 7.2-18 13.2-25 22.4-5 6.3-3.8 14-2.9 16.1 1.3 3.6 3 7.4 3.8 11.1 1.4 7.1 0.6 7.4 0.1 7.4-5.4 1-9.8 4.7-13.6 9.4-4.5 5.7-6.9 12.2-8.9 19.1-1.6-0.6-7.9-3.1-18.5-3.1-19.4 0-26.5 13.2-27.8 16.8-5.5 15.2 2.7 35.5 2.7 35.5s0.8 14.7 4 23.6c1.1 3.3 6.9 4 10.6 4.2 9.6 0.4 8.8 13.6 6.3 20.6 0 0.1 13-2.2 14.1-15.1 0-0.1 5.8 3.7 7.7 7 0.1 0 6-6.6 3.5-15.3 9.5 11.4 11.4 32.3 11.6 32.2 2.4-1.8 6.4-6.7 6.4-6.7s-1.6 11.2-4.2 11.7c-2.6 0.4-5.6 0.9-5.6 0.9l-8.7 10.9h25.3c0.2-6.1 3.9-19.3 5.5-23.4 2 2.5 6.7 6.1 6.8 6.2 0.2-0.3-0.3-7.2 6.6-23.2 3.1 4.9 5.3 7.9 5.5 7.9 18.6-3.8 60.2-29.9 60.6-30.2 1 1.3 11.6 17.4 26.6 22.7-3.4 10.6-21.6 27.9-23.4 28.3-0.4 0.1-5.3 1-5.3 1l-8.7 10.8h26.7c2-12.8 23.6-28.1 29.3-39.5 1.3-2 0-3.9-0.2-4.4-3.5-4.8-4.4-7.4-4-13.7-0.3-7.9 3.1-14.6 6.3-21.2"/>
	<path style="fill:#FFFFFF;" d="m78.9 339.4c-3.4 0.1-6.6 1.9-8.1 5v1.9l9.2-3.2 1.6-3.2c-0.8-0.4-1.8-0.5-2.7-0.5"/>
	<path style="fill:#9FA1A4;" d="m157 372c2.8 4.4 4.8 7.2 5 7.1 16.9-3.5 47.2-22.5 47.6-22.8z"/>
	<path style="fill:#9FA1A4;" d="m178.1 266.6-11 7.3s16.2-0.7 35.3 4c-0.1-0.1-9.3-8.6-24.3-11.3"/>
	<path style="fill:#FFFFFF;" d="m209.8 241.8c-27.2 1.3-38.6 8.6-38.6 8.6l8.2-9.9c5.1-6.8 13.7-15.4 26.9-23.8-49.6 19.9-59.8 34.3-59.8 34.3l2.7-12.1c0.3-2.2 3.3-12.7 3.8-15.3-16.4 13.4-20.9 21.9-19 28.4 1.3 4.4 6 14.2 6.2 20.9 0.2 7.8-2.5 14.6-4.8 23.5 0 0 28.7 9.3 44.1 5.6 0 0-6.8-5.3-6.9-8.4 19.6-5.5 29.5-16 29.7-15.9-19.1-4.7-35.3-4-35.3-4l11-7.3c10.8-8 23.2-13.6 31.8-24.6"/>
	<path style="fill:#9FA1A4;" d="m149.1 239c18.6-11.5 34.3-17.1 44.6-19.8 8-2.1 12.6-2.4 12.6-2.4-49.6 19.9-59.8 34.3-59.8 34.3z"/>
	<path style="fill:#9FA1A4;" d="m179.4 240.6s16.4-1.8 30.4 1.3c-27.2 1.3-38.6 8.6-38.6 8.6l8.2-9.9"/>
	<path style="fill:#FFFFFF;" d="m83.9 328.1c5.3-2.2 9.8-10.3 11.4-18-0.1-5.3-0.9-9.4-0.9-9.4 0.1 0.9-2.6 21.2-17.7 21.8-3.5 0.1-4.9 0.8-5.4 4.9-0.1 0.5 0 1 0 1.6 3.6 0.8 7.7 1.2 12.6-0.9"/>
	<path style="fill:#9FA1A4;" d="m75 333.8s12.7 1.8 16.9-6.4c3.6-6.6 3.3-16.5 3.3-17.3-1.5 7.7-6.1 15.8-11.4 18-4.9 2-9 1.6-12.7 0.8 0.2 0.4 0.6 4 3.9 4.9"/>
</g>
</svg>
