<?xml version="1.0" encoding="UTF-8" standalone="no"?>
<svg
   xmlns:dc="http://purl.org/dc/elements/1.1/"
   xmlns:cc="http://creativecommons.org/ns#"
   xmlns:rdf="http://www.w3.org/1999/02/22-rdf-syntax-ns#"
   xmlns:svg="http://www.w3.org/2000/svg"
   xmlns="http://www.w3.org/2000/svg"
   xmlns:sodipodi="http://sodipodi.sourceforge.net/DTD/sodipodi-0.dtd"
   xmlns:inkscape="http://www.inkscape.org/namespaces/inkscape"
   enable-background="new 0 0 1059.5 1016.9"
   viewBox="0 0 1641.2 1808"
   version="1.1"
   id="svg91"
   sodipodi:docname="burger_king_logo.svg"
   width="1641.2"
   height="1808"
   inkscape:version="1.0.1 (3bc2e813f5, 2020-09-07)">
  <metadata
     id="metadata97">
    <rdf:RDF>
      <cc:Work
         rdf:about="">
        <dc:format>image/svg+xml</dc:format>
        <dc:type
           rdf:resource="http://purl.org/dc/dcmitype/StillImage" />
      </cc:Work>
    </rdf:RDF>
  </metadata>
  <defs
     id="defs95" />
  <sodipodi:namedview
     pagecolor="#ffffff"
     bordercolor="#666666"
     borderopacity="1"
     objecttolerance="10"
     gridtolerance="10"
     guidetolerance="10"
     inkscape:pageopacity="0"
     inkscape:pageshadow="2"
     inkscape:window-width="1773"
     inkscape:window-height="1167"
     id="namedview93"
     showgrid="false"
     inkscape:zoom="0.49174139"
     inkscape:cx="941.26896"
     inkscape:cy="1327.0694"
     inkscape:window-x="0"
     inkscape:window-y="0"
     inkscape:window-maximized="0"
     inkscape:current-layer="svg91" />
  <path
     d="m 1517.4,1708.6 c -137,77.2 -371.8,99.4 -696.8,99.4 -325,0 -559.8,-22 -696.8,-99.4 C 41.6,1662.4 0,1599.2 0,1554 c 0,-25.8 13.8,-40.4 44.2,-40.4 h 1552.6 c 30.6,0 44.2,14.8 44.2,40.4 0.2,45.2 -41.4,108.2 -123.6,154.6 z M 1597,509.6 H 44.4 C 13.8,509.6 0.2,493.8 0.2,465.4 0.2,297.2 253.6,0 820.8,0 c 561.8,0 820.4,297 820.4,465.4 0,28.4 -13.6,44.2 -44.2,44.2 z"
     fill="#ff8732"
     id="path65"
     style="stroke-width:2" />
  <g
     fill="#d62300"
     id="g89"
     transform="matrix(2,0,0,2,-238.8,-107)">
    <path
       d="m 284.8,655.3 c -2.4,-3.7 -2.6,-6.1 -2.6,-7.1 0,-2.9 1.6,-5 4.7,-7.9 7.4,-6.8 25.5,-23.9 35.6,-39.4 7.6,-11.8 10.8,-22.6 10.8,-31.5 0,-22.9 -20.8,-40.8 -43.5,-40.8 -14.5,0 -28.2,8.2 -37.4,23.1 -12.4,20 -27.1,43.1 -36.6,52.3 -2.4,2.4 -3.7,2.9 -5.5,2.9 -3.2,0 -4.5,-2.1 -4.5,-5.5 v -26.3 c 0,-25.8 -15.3,-46.5 -42.9,-46.5 -27.9,0 -42.9,20.8 -42.9,46.5 v 162 c 0,25.8 15,46.5 42.9,46.5 27.7,0 42.9,-20.8 42.9,-46.5 v -37.3 c 0,-3.2 1.3,-5.5 4.5,-5.5 4.2,0 5.3,4.2 6.3,6.3 6.1,14.5 23.7,45.2 40,63.4 11.1,12.1 24.8,19.7 39.2,19.7 24.5,0 45,-21.3 45,-44.2 0,-14.2 -6.1,-24.7 -17.6,-37.3 -14.6,-16.1 -32,-37.1 -38.4,-46.9 z"
       id="path67" />
    <path
       d="m 613.2,513.6 c 41.3,0 67.4,-26.3 67.4,-64.7 0,-24.5 -14.8,-41.3 -44.2,-41.3 H 628 c -15.5,0 -27.7,7.4 -27.7,23.9 0,14.7 12.9,21.8 22.7,21.8 5,0 8.2,1.6 8.2,5.3 0,4.7 -5.5,7.9 -11.9,7.9 -19.8,0 -33.2,-13.9 -33.2,-40 0,-28.9 18.4,-39.4 32.7,-39.4 17.4,0 20.3,8.9 32.4,8.9 14,0 23.4,-11.6 23.4,-23.7 0,-8.9 -4,-15.8 -10,-20.5 -11.1,-8.2 -26.6,-14.2 -49.8,-14.2 -40.8,0 -80.6,26.8 -80.6,88.9 0,59.5 39.8,87.1 79,87.1 z"
       id="path69" />
    <path
       d="m 150.3,512 h 37.1 c 35,0 56.4,-23.4 56.4,-52.6 0,-23.4 -14,-34.2 -17.1,-36.8 -1.3,-1.1 -2.6,-2.1 -2.6,-3.2 0,-1.3 0.8,-1.8 2.1,-3.4 5,-5.8 10,-15 10,-28.4 0,-31.5 -21.3,-48.4 -54.5,-48.4 h -31.3 c -20.8,0 -30.8,12.1 -30.8,28.4 v 116 c -0.1,16.3 9.9,28.4 30.7,28.4 z m 15.5,-127.5 c 0,-3.4 2.1,-6.1 6.6,-6.1 h 3.4 c 11.3,0 14.8,7.9 14.8,14.7 0,6.3 -3.4,15.3 -14.8,15.3 h -3.4 c -4.5,0 -6.6,-2.6 -6.6,-6.1 z m 0,61.5 c 0,-3.4 2.1,-6.1 6.6,-6.1 h 4.7 c 12.6,0 16.3,8.4 16.3,16 0,6.8 -3.7,16.6 -16.3,16.6 h -4.7 c -4.5,0 -6.6,-2.6 -6.6,-6.1 z"
       id="path71" />
    <path
       d="m 837.9,513.4 c 16.9,0 26.1,-12.6 26.1,-28.4 v -27.9 c 0,-3.4 1.6,-5 4.2,-5 3.2,0 4.2,1.8 4.7,5 2.4,13.4 8.7,31.5 15.8,40.8 9,11.8 17.4,15.5 25.8,15.5 13.7,0 25.5,-10.8 25.5,-24.2 0,-8.9 -3.7,-15.5 -8.4,-21.6 -9,-11.3 -14.5,-18.7 -17.9,-27.9 -0.8,-2.1 -0.3,-4 2.1,-5.8 8.2,-6.3 17.6,-20.2 17.6,-42.3 0,-33.4 -27.7,-52.3 -61.1,-52.3 h -29.8 c -20.8,0 -30.8,12.1 -30.8,28.4 V 485 c 0.1,15.7 9.3,28.4 26.2,28.4 z M 861,389 c 0,-3.4 2.1,-6.1 6.6,-6.1 h 3.7 c 11.1,0 14.5,7.9 14.5,14.7 0,6.6 -3.4,15.3 -14.5,15.3 h -3.7 c -4.5,0 -6.6,-2.6 -6.6,-6.1 z"
       id="path73" />
    <path
       d="m 404.9,528.6 c -29.5,0 -45.6,22.1 -45.6,49.7 V 734 c 0,27.6 16.1,49.7 45.6,49.7 29.5,0 45.6,-22.1 45.6,-49.7 V 578.3 c 0,-27.6 -16.1,-49.7 -45.6,-49.7 z"
       id="path75" />
    <path
       d="m 873.1,629.8 h -12.9 c -23.2,0 -41.1,10.8 -41.1,34.4 0,21.6 19.5,31.8 34,31.8 7.1,0 12.1,2.1 12.1,7.6 0,6.8 -8.4,11.3 -17.4,11.3 -29.8,0 -50,-20.2 -50,-57.8 0,-41.8 27.7,-57.1 49,-57.1 26.1,0 30.3,13.2 48.5,13.2 21.1,0 35.3,-17.1 35.3,-34.4 0,-12.9 -5.8,-22.9 -15,-29.7 -16.1,-11.8 -40.3,-20.5 -74.5,-20.5 -61.4,0 -121.1,38.6 -121.1,128.6 0,86 59.8,126.2 118.8,126.2 61.9,0 101.1,-38.1 101.1,-93.9 -0.1,-35.2 -22.2,-59.7 -66.8,-59.7 z"
       id="path77" />
    <path
       d="m 773.6,512 c 14.8,0 26.3,-8.7 26.3,-24.5 0,-15.5 -11.6,-24.2 -26.3,-24.2 h -23.7 c -4.5,0 -6.6,-2.6 -6.6,-6.1 v -5 c 0,-3.4 2.1,-6.1 6.6,-6.1 h 18.2 c 12.6,0 22.7,-7.6 22.7,-21 0,-13.4 -10,-21 -22.7,-21 h -18.2 c -4.5,0 -6.6,-2.6 -6.6,-6.1 v -4 c 0,-3.4 2.1,-6.1 6.6,-6.1 h 23.7 c 14.8,0 26.3,-8.7 26.3,-24.5 0,-15.5 -11.6,-24.2 -26.3,-24.2 h -49.8 c -20.8,0 -30.8,12.1 -30.8,28.4 v 116 c 0,16.3 10,28.4 30.8,28.4 z"
       id="path79" />
    <path
       d="m 321.2,513.4 c 42.7,0 65.3,-25.5 65.3,-57.6 v -88.6 c 0,-15.8 -9.2,-28.4 -26.1,-28.4 -16.9,0 -26.1,12.6 -26.1,28.4 v 85.7 c 0,6.3 -3.7,13.7 -13.2,13.7 -9.5,0 -12.6,-7.4 -12.6,-13.7 v -85.7 c 0,-15.8 -9.5,-28.4 -26.3,-28.4 -16.9,0 -26.1,12.6 -26.1,28.4 v 88.6 c 0,32.1 22.4,57.6 65.1,57.6 z"
       id="path81" />
    <path
       d="m 506.1,513.4 c 13.7,0 25.5,-10.8 25.5,-24.2 0,-8.9 -3.7,-15.5 -8.4,-21.6 -7.6,-10 -14.5,-18.7 -17.9,-27.9 -0.8,-2.1 -0.3,-4 2.1,-5.8 8.2,-6.3 17.6,-20.2 17.6,-42.3 0,-33.4 -27.7,-52.3 -61.1,-52.3 h -29.8 c -20.8,0 -30.8,12.1 -30.8,28.4 V 485 c 0,15.8 9.2,28.4 26.1,28.4 16.9,0 26.1,-12.6 26.1,-28.4 v -27.9 c 0,-3.4 1.6,-5 4.2,-5 3.2,0 4.2,1.8 4.7,5 2.4,13.4 8.7,31.5 15.8,40.8 9,11.8 17.4,15.5 25.9,15.5 z M 462.9,412.9 h -3.7 c -4.5,0 -6.6,-2.6 -6.6,-6.1 V 389 c 0,-3.4 2.1,-6.1 6.6,-6.1 h 3.7 c 11.1,0 14.5,7.9 14.5,14.7 -0.1,6.6 -3.5,15.3 -14.5,15.3 z"
       id="path83" />
    <path
       d="m 657.5,528.6 c -27.1,0 -41.9,20.2 -41.9,45.8 v 56.8 c 0,4.7 -1.6,6.8 -4.5,6.8 -2.1,0 -3.7,-1.3 -5.5,-5 L 569,562 c -14,-27.1 -28.4,-33.4 -45,-33.4 -27.7,0 -42.9,20.8 -42.9,46.8 v 162.5 c 0,25.5 14.8,45.8 41.9,45.8 27.1,0 41.9,-20.2 41.9,-45.8 v -56.8 c 0,-4.7 1.6,-6.8 4.5,-6.8 2.1,0 3.7,1.3 5.5,5 l 36.6,71 c 14,27.1 29,33.4 45,33.4 27.7,0 42.9,-20.8 42.9,-46.8 V 574.4 c -0.1,-25.6 -14.8,-45.8 -41.9,-45.8 z"
       id="path85" />
  </g>
</svg>
