<?xml version="1.0" encoding="UTF-8"?>
<svg width="1641.2" height="1808" enable-background="new 0 0 1059.5 1016.9" version="1.1" viewBox="0 0 1641.2 1808" xmlns="http://www.w3.org/2000/svg" xmlns:cc="http://creativecommons.org/ns#" xmlns:dc="http://purl.org/dc/elements/1.1/" xmlns:rdf="http://www.w3.org/1999/02/22-rdf-syntax-ns#">
 <metadata>
  <rdf:RDF>
   <cc:Work rdf:about="">
    <dc:format>image/svg+xml</dc:format>
    <dc:type rdf:resource="http://purl.org/dc/dcmitype/StillImage"/>
    <dc:title/>
   </cc:Work>
  </rdf:RDF>
 </metadata>
 <path d="m1517.4 1708.6c-137 77.2-371.8 99.4-696.8 99.4s-559.8-22-696.8-99.4c-82.2-46.2-123.8-109.4-123.8-154.6 0-25.8 13.8-40.4 44.2-40.4h1552.6c30.6 0 44.2 14.8 44.2 40.4 0.2 45.2-41.4 108.2-123.6 154.6zm79.6-1199h-1552.6c-30.6 0-44.2-15.8-44.2-44.2 0-168.2 253.4-465.4 820.6-465.4 561.8 0 820.4 297 820.4 465.4 0 28.4-13.6 44.2-44.2 44.2z" fill="#ff8732" stroke-width="2"/>
 <g transform="matrix(2,0,0,2,-238.8,-107)" fill="#d62300">
  <path d="m284.8 655.3c-2.4-3.7-2.6-6.1-2.6-7.1 0-2.9 1.6-5 4.7-7.9 7.4-6.8 25.5-23.9 35.6-39.4 7.6-11.8 10.8-22.6 10.8-31.5 0-22.9-20.8-40.8-43.5-40.8-14.5 0-28.2 8.2-37.4 23.1-12.4 20-27.1 43.1-36.6 52.3-2.4 2.4-3.7 2.9-5.5 2.9-3.2 0-4.5-2.1-4.5-5.5v-26.3c0-25.8-15.3-46.5-42.9-46.5-27.9 0-42.9 20.8-42.9 46.5v162c0 25.8 15 46.5 42.9 46.5 27.7 0 42.9-20.8 42.9-46.5v-37.3c0-3.2 1.3-5.5 4.5-5.5 4.2 0 5.3 4.2 6.3 6.3 6.1 14.5 23.7 45.2 40 63.4 11.1 12.1 24.8 19.7 39.2 19.7 24.5 0 45-21.3 45-44.2 0-14.2-6.1-24.7-17.6-37.3-14.6-16.1-32-37.1-38.4-46.9z"/>
  <path d="m613.2 513.6c41.3 0 67.4-26.3 67.4-64.7 0-24.5-14.8-41.3-44.2-41.3h-8.4c-15.5 0-27.7 7.4-27.7 23.9 0 14.7 12.9 21.8 22.7 21.8 5 0 8.2 1.6 8.2 5.3 0 4.7-5.5 7.9-11.9 7.9-19.8 0-33.2-13.9-33.2-40 0-28.9 18.4-39.4 32.7-39.4 17.4 0 20.3 8.9 32.4 8.9 14 0 23.4-11.6 23.4-23.7 0-8.9-4-15.8-10-20.5-11.1-8.2-26.6-14.2-49.8-14.2-40.8 0-80.6 26.8-80.6 88.9 0 59.5 39.8 87.1 79 87.1z"/>
  <path d="m150.3 512h37.1c35 0 56.4-23.4 56.4-52.6 0-23.4-14-34.2-17.1-36.8-1.3-1.1-2.6-2.1-2.6-3.2 0-1.3 0.8-1.8 2.1-3.4 5-5.8 10-15 10-28.4 0-31.5-21.3-48.4-54.5-48.4h-31.3c-20.8 0-30.8 12.1-30.8 28.4v116c-0.1 16.3 9.9 28.4 30.7 28.4zm15.5-127.5c0-3.4 2.1-6.1 6.6-6.1h3.4c11.3 0 14.8 7.9 14.8 14.7 0 6.3-3.4 15.3-14.8 15.3h-3.4c-4.5 0-6.6-2.6-6.6-6.1zm0 61.5c0-3.4 2.1-6.1 6.6-6.1h4.7c12.6 0 16.3 8.4 16.3 16 0 6.8-3.7 16.6-16.3 16.6h-4.7c-4.5 0-6.6-2.6-6.6-6.1z"/>
  <path d="m837.9 513.4c16.9 0 26.1-12.6 26.1-28.4v-27.9c0-3.4 1.6-5 4.2-5 3.2 0 4.2 1.8 4.7 5 2.4 13.4 8.7 31.5 15.8 40.8 9 11.8 17.4 15.5 25.8 15.5 13.7 0 25.5-10.8 25.5-24.2 0-8.9-3.7-15.5-8.4-21.6-9-11.3-14.5-18.7-17.9-27.9-0.8-2.1-0.3-4 2.1-5.8 8.2-6.3 17.6-20.2 17.6-42.3 0-33.4-27.7-52.3-61.1-52.3h-29.8c-20.8 0-30.8 12.1-30.8 28.4v117.3c0.1 15.7 9.3 28.4 26.2 28.4zm23.1-124.4c0-3.4 2.1-6.1 6.6-6.1h3.7c11.1 0 14.5 7.9 14.5 14.7 0 6.6-3.4 15.3-14.5 15.3h-3.7c-4.5 0-6.6-2.6-6.6-6.1z"/>
  <path d="m404.9 528.6c-29.5 0-45.6 22.1-45.6 49.7v155.7c0 27.6 16.1 49.7 45.6 49.7s45.6-22.1 45.6-49.7v-155.7c0-27.6-16.1-49.7-45.6-49.7z"/>
  <path d="m873.1 629.8h-12.9c-23.2 0-41.1 10.8-41.1 34.4 0 21.6 19.5 31.8 34 31.8 7.1 0 12.1 2.1 12.1 7.6 0 6.8-8.4 11.3-17.4 11.3-29.8 0-50-20.2-50-57.8 0-41.8 27.7-57.1 49-57.1 26.1 0 30.3 13.2 48.5 13.2 21.1 0 35.3-17.1 35.3-34.4 0-12.9-5.8-22.9-15-29.7-16.1-11.8-40.3-20.5-74.5-20.5-61.4 0-121.1 38.6-121.1 128.6 0 86 59.8 126.2 118.8 126.2 61.9 0 101.1-38.1 101.1-93.9-0.1-35.2-22.2-59.7-66.8-59.7z"/>
  <path d="m773.6 512c14.8 0 26.3-8.7 26.3-24.5 0-15.5-11.6-24.2-26.3-24.2h-23.7c-4.5 0-6.6-2.6-6.6-6.1v-5c0-3.4 2.1-6.1 6.6-6.1h18.2c12.6 0 22.7-7.6 22.7-21s-10-21-22.7-21h-18.2c-4.5 0-6.6-2.6-6.6-6.1v-4c0-3.4 2.1-6.1 6.6-6.1h23.7c14.8 0 26.3-8.7 26.3-24.5 0-15.5-11.6-24.2-26.3-24.2h-49.8c-20.8 0-30.8 12.1-30.8 28.4v116c0 16.3 10 28.4 30.8 28.4z"/>
  <path d="m321.2 513.4c42.7 0 65.3-25.5 65.3-57.6v-88.6c0-15.8-9.2-28.4-26.1-28.4s-26.1 12.6-26.1 28.4v85.7c0 6.3-3.7 13.7-13.2 13.7s-12.6-7.4-12.6-13.7v-85.7c0-15.8-9.5-28.4-26.3-28.4-16.9 0-26.1 12.6-26.1 28.4v88.6c0 32.1 22.4 57.6 65.1 57.6z"/>
  <path d="m506.1 513.4c13.7 0 25.5-10.8 25.5-24.2 0-8.9-3.7-15.5-8.4-21.6-7.6-10-14.5-18.7-17.9-27.9-0.8-2.1-0.3-4 2.1-5.8 8.2-6.3 17.6-20.2 17.6-42.3 0-33.4-27.7-52.3-61.1-52.3h-29.8c-20.8 0-30.8 12.1-30.8 28.4v117.3c0 15.8 9.2 28.4 26.1 28.4s26.1-12.6 26.1-28.4v-27.9c0-3.4 1.6-5 4.2-5 3.2 0 4.2 1.8 4.7 5 2.4 13.4 8.7 31.5 15.8 40.8 9 11.8 17.4 15.5 25.9 15.5zm-43.2-100.5h-3.7c-4.5 0-6.6-2.6-6.6-6.1v-17.8c0-3.4 2.1-6.1 6.6-6.1h3.7c11.1 0 14.5 7.9 14.5 14.7-0.1 6.6-3.5 15.3-14.5 15.3z"/>
  <path d="m657.5 528.6c-27.1 0-41.9 20.2-41.9 45.8v56.8c0 4.7-1.6 6.8-4.5 6.8-2.1 0-3.7-1.3-5.5-5l-36.6-71c-14-27.1-28.4-33.4-45-33.4-27.7 0-42.9 20.8-42.9 46.8v162.5c0 25.5 14.8 45.8 41.9 45.8s41.9-20.2 41.9-45.8v-56.8c0-4.7 1.6-6.8 4.5-6.8 2.1 0 3.7 1.3 5.5 5l36.6 71c14 27.1 29 33.4 45 33.4 27.7 0 42.9-20.8 42.9-46.8v-162.5c-0.1-25.6-14.8-45.8-41.9-45.8z"/>
 </g>
</svg>
