<?xml version="1.0" encoding="UTF-8" standalone="no"?>
<svg
   xmlns:dc="http://purl.org/dc/elements/1.1/"
   xmlns:cc="http://creativecommons.org/ns#"
   xmlns:rdf="http://www.w3.org/1999/02/22-rdf-syntax-ns#"
   xmlns:svg="http://www.w3.org/2000/svg"
   xmlns="http://www.w3.org/2000/svg"
   xmlns:sodipodi="http://sodipodi.sourceforge.net/DTD/sodipodi-0.dtd"
   xmlns:inkscape="http://www.inkscape.org/namespaces/inkscape"
   clip-rule="evenodd"
   fill-rule="evenodd"
   viewBox="0 0 299.99899 299.99899"
   version="1.1"
   id="svg34"
   sodipodi:docname="chipotle_logo.svg"
   width="299.99899"
   height="299.99899"
   inkscape:version="1.0.1 (3bc2e813f5, 2020-09-07)">
  <metadata
     id="metadata40">
    <rdf:RDF>
      <cc:Work
         rdf:about="">
        <dc:format>image/svg+xml</dc:format>
        <dc:type
           rdf:resource="http://purl.org/dc/dcmitype/StillImage" />
      </cc:Work>
    </rdf:RDF>
  </metadata>
  <defs
     id="defs38" />
  <sodipodi:namedview
     pagecolor="#ffffff"
     bordercolor="#666666"
     borderopacity="1"
     objecttolerance="10"
     gridtolerance="10"
     guidetolerance="10"
     inkscape:pageopacity="0"
     inkscape:pageshadow="2"
     inkscape:window-width="1352"
     inkscape:window-height="1015"
     id="namedview36"
     showgrid="false"
     inkscape:zoom="1.4446429"
     inkscape:cx="149.994"
     inkscape:cy="149.995"
     inkscape:window-x="201"
     inkscape:window-y="197"
     inkscape:window-maximized="0"
     inkscape:current-layer="svg34" />
  <path
     d="m 299.999,149.997 c 0,82.8 -67.198,150.002 -149.997,150.002 C 67.202,299.999 0,232.797 0,149.997 0,67.197 67.202,0 150.002,0 c 82.8,0 149.997,67.198 149.997,149.997 z"
     fill="#a81612"
     id="path26" />
  <path
     d="m 240.932,149.997 c 0,50.195 -40.736,90.935 -90.931,90.935 -50.195,0 -90.935,-40.74 -90.935,-90.935 0,-50.195 40.74,-90.931 90.935,-90.931 50.195,0 90.931,40.736 90.931,90.931 z"
     fill="#ffffff"
     id="path28" />
  <path
     d="m 234.197,149.997 c 0,46.476 -37.719,84.2 -84.196,84.2 -46.476,0 -84.2,-37.724 -84.2,-84.2 0,-46.476 37.724,-84.196 84.2,-84.196 46.476,0 84.196,37.719 84.196,84.196 z"
     fill="#451400"
     id="path30" />
  <path
     d="m 136.318,258.563 3.893,0.465 5.913,20.31 -4.413,-0.528 -1.241,-4.514 -8.114,-0.97 -2.269,4.094 -4.305,-0.514 z m 20.605,1.197 3.901,-0.387 10.187,10.947 -1.176,-11.842 4.176,-0.415 1.911,19.232 -3.599,0.358 -10.529,-11.302 1.215,12.227 -4.176,0.415 -1.91,-19.232 z m -50.041,12.093 c -1.338,-0.469 -2.495,-1.146 -3.47,-2.035 -0.977,-0.887 -1.734,-1.899 -2.273,-3.033 -0.539,-1.134 -0.843,-2.357 -0.91,-3.668 -0.067,-1.311 0.127,-2.617 0.583,-3.92 l 0.02,-0.052 c 0.456,-1.303 1.118,-2.441 1.985,-3.415 0.867,-0.974 1.869,-1.744 3.004,-2.313 1.135,-0.568 2.372,-0.895 3.709,-0.983 1.337,-0.087 2.709,0.115 4.117,0.607 0.851,0.298 1.605,0.64 2.26,1.025 0.655,0.385 1.226,0.8 1.714,1.244 0.489,0.444 0.915,0.925 1.28,1.442 0.364,0.518 0.682,1.058 0.953,1.621 l -3.584,2.051 c -0.487,-0.892 -1.036,-1.65 -1.647,-2.274 -0.611,-0.623 -1.377,-1.096 -2.298,-1.418 -0.765,-0.268 -1.524,-0.368 -2.279,-0.301 -0.755,0.067 -1.459,0.279 -2.11,0.636 -0.652,0.358 -1.228,0.833 -1.729,1.428 -0.501,0.595 -0.888,1.284 -1.162,2.066 l -0.02,0.051 c -0.274,0.782 -0.402,1.566 -0.385,2.352 0.015,0.787 0.165,1.52 0.443,2.203 0.277,0.682 0.689,1.29 1.235,1.822 0.545,0.532 1.208,0.935 1.99,1.209 1.042,0.364 1.99,0.482 2.845,0.352 0.855,-0.13 1.755,-0.4 2.698,-0.81 l 1.65,3.473 c -0.645,0.34 -1.29,0.621 -1.934,0.845 -0.643,0.223 -1.314,0.374 -2.015,0.45 -0.699,0.077 -1.431,0.065 -2.195,-0.035 -0.764,-0.102 -1.59,-0.307 -2.476,-0.619 z m 32.526,-1.464 -1.805,-6.527 -3.294,5.918 z m 66.643,-2.652 c -1.379,0.615 -2.737,0.948 -4.073,1 -1.337,0.052 -2.594,-0.143 -3.768,-0.586 -1.175,-0.444 -2.237,-1.119 -3.186,-2.026 -0.948,-0.907 -1.715,-2.017 -2.299,-3.327 l -0.02,-0.051 c -0.563,-1.26 -0.858,-2.544 -0.886,-3.852 -0.03,-1.307 0.183,-2.56 0.636,-3.76 0.452,-1.2 1.135,-2.29 2.048,-3.271 0.912,-0.981 2.041,-1.772 3.386,-2.372 0.791,-0.352 1.534,-0.619 2.229,-0.798 0.696,-0.179 1.367,-0.291 2.011,-0.337 0.644,-0.046 1.278,-0.025 1.901,0.06 0.623,0.085 1.247,0.22 1.873,0.404 l -1.131,4.041 c -0.463,-0.136 -0.912,-0.238 -1.346,-0.307 -0.434,-0.068 -0.865,-0.098 -1.293,-0.087 -0.429,0.009 -0.872,0.065 -1.33,0.17 -0.457,0.102 -0.939,0.267 -1.442,0.492 -0.707,0.315 -1.301,0.756 -1.783,1.324 -0.483,0.568 -0.845,1.203 -1.086,1.905 -0.241,0.702 -0.344,1.443 -0.308,2.224 0.035,0.78 0.222,1.549 0.559,2.306 l 0.021,0.05 c 0.36,0.807 0.822,1.493 1.386,2.057 0.565,0.565 1.199,0.992 1.903,1.283 0.704,0.29 1.442,0.43 2.212,0.419 0.772,-0.009 1.552,-0.193 2.342,-0.545 1.445,-0.644 2.506,-1.541 3.184,-2.69 l -1.125,-2.521 -3.909,1.743 -1.496,-3.355 7.666,-3.418 3.418,7.666 c -0.563,1.178 -1.349,2.319 -2.358,3.424 -1.008,1.105 -2.319,2.018 -3.934,2.737 v -10e-4 z m -114.192,-24.926 3.61,2.246 -10.212,16.409 -3.61,-2.247 z m 121.766,-1.805 6.976,-5.421 c 1.933,-1.501 3.817,-2.137 5.651,-1.907 1.55,0.195 2.889,1.018 4.018,2.472 l 0.036,0.046 c 0.959,1.236 1.441,2.477 1.442,3.723 0.001,1.246 -0.344,2.429 -1.036,3.549 l 7.963,2.554 -3.924,3.049 -7.064,-2.343 -0.046,0.036 -2.595,2.016 3.795,4.884 -3.358,2.608 -11.858,-15.261 -0.001,-0.004 z m -144.516,-4.792 1.615,-11.374 3.676,3.346 -1.218,7.367 7.24,-1.886 3.574,3.253 -11.134,2.634 -1.671,11.844 -3.675,-3.344 1.255,-7.818 -7.687,1.963 -3.573,-3.252 11.598,-2.734 z m 157.035,6.953 c 0.828,-0.643 1.312,-1.333 1.449,-2.071 0.139,-0.737 -0.046,-1.433 -0.555,-2.087 l -0.035,-0.046 c -0.565,-0.726 -1.22,-1.09 -1.968,-1.093 -0.747,-0.002 -1.535,0.319 -2.364,0.963 l -3.335,2.591 3.405,4.382 3.401,-2.642 0.002,0.002 z m 7.291,-19.106 2.778,-3.219 14.634,12.625 -2.777,3.22 -14.635,-12.625 z m -176.428,-17.673 8.198,12.054 -3.129,2.128 -5.822,-8.562 -3.242,2.205 5.124,7.533 -3.128,2.127 -5.124,-7.533 -3.356,2.282 5.9,8.676 -3.127,2.127 -8.276,-12.168 15.981,-10.869 z m 185.861,5.481 2.149,-3.668 13.338,7.82 4.873,-8.313 3.335,1.955 -7.023,11.981 -16.673,-9.775 z M 131.863,113.571 c -1.007,-1.174 -1.862,-2.082 -3.631,-2.676 -2.325,-1.089 -5.115,-0.711 -7.514,-0.32 -0.742,-0.148 2.085,-1.487 2.559,-2.078 0.941,-1.178 2.578,-1.53 3.996,-2.238 2.089,0.248 5.263,1.283 7.354,2.078 1.928,0.481 4.527,1.278 6.555,1.278 7.232,-6.667 15.702,-13.411 23.979,-19.663 1.297,-0.508 12.464,-2.116 15.508,-2.078 2.082,1.041 4.415,0.112 5.595,2.078 2.08,2.973 6.959,7.211 6.235,9.592 -0.041,2.979 -0.943,6.028 -1.758,9.112 -0.046,0.092 -4.537,0.32 -4.796,0.32 h -3.038 c -1.252,0 -1.65,-0.212 -1.918,-0.479 1.964,-1.385 3.137,-2.466 4.956,-4.636 0.571,-0.571 -0.135,-2.162 -0.32,-2.718 -0.868,-2.471 -2.507,-4.347 -3.197,-6.875 -3.568,0.206 -8.281,0.079 -11.83,0.959 -1.284,0.513 -2.51,0.985 -3.676,1.918 -2.045,2.182 -2.66,2.27 -5.915,5.595 0.344,3.142 -1.512,6.126 -1.12,9.432 1.692,3.612 0.949,2.651 6.715,3.197 1.064,0.122 2.686,-0.109 3.257,0.181 0.22,0.112 0.284,0.302 0.1,0.619 -0.23,0.396 -0.125,2.221 -1.758,3.037 -0.816,0.409 -2.24,0.747 -3.637,1.025 1.623,2.535 2.57,6.194 5.119,7.733 2.206,4.044 4.849,8.629 5.01,11.063 0.51,2.039 -0.761,6.278 -1.879,8.141 -0.087,3.432 -3.172,7.283 -5.426,10.646 -1.377,2.294 -3.208,6.894 -5.427,8.558 -3.411,3.007 -1.784,1.266 -0.418,4.592 0.577,1.443 1.463,1.789 1.043,3.757 -0.571,2.68 0.139,6.126 1.461,5.845 1.368,-0.29 1.481,0.531 2.922,1.253 2.301,1.15 4.399,2.475 6.262,3.966 1.885,1.508 4.171,2.971 6.054,4.383 1.077,0.808 1.897,0.892 3.34,1.253 1.41,0.352 1.639,1.088 3.131,1.461 1.685,0.422 2.075,1.933 1.67,3.549 -0.408,1.631 -1.22,3.147 -2.088,4.592 -1.186,1.979 -2.32,4.518 -4.591,5.427 -0.951,0.38 -2.744,2.922 -3.758,2.922 -1.558,0 -3.396,0.626 -4.801,0.626 -1.34,0 -3.248,-0.336 -4.592,0 -1.288,0.322 -2.873,0 -4.383,0 -2.819,0 -5.768,0.208 -8.558,0.208 -1.703,0 -4.232,0.195 -5.845,-0.208 -1.584,-0.397 -3.322,-1.253 -5.01,-1.253 -3.235,0 -4.968,-1.843 -8.141,-2.296 -0.487,-0.069 -0.976,-0.128 -1.461,-0.209 -2.271,-0.379 -3.13,-0.415 -4.383,-2.923 -8.777,-15.215 -24.268,-31.14 -24.214,-37.989 -0.618,-2.471 -1.253,-7.253 -1.253,-9.811 l -0.209,-10.855 c 0,-2.439 -0.039,-5.746 0.835,-7.932 0.818,-2.045 0.682,-4.314 1.461,-6.262 0.449,-1.123 -0.019,-3.643 1.043,-4.175 3.286,-3.222 6.289,-7.836 10.855,-10.437 2.748,-1.815 9.169,-1.239 12.524,-2.087 l 1.008,-0.201 z m -86.406,66.052 1.608,4.291 -5.872,7.624 9.436,1.89 1.608,4.292 -18.099,6.779 -1.481,-3.955 11.816,-4.425 -9.639,-2.199 -0.041,-0.103 5.765,-7.909 -11.738,4.397 -1.462,-3.903 18.099,-6.779 h 0.002 z m 94.793,-58.335 c -5.91,0.025 -11.75,0.29 -17.535,1.876 -4.333,1.481 -9.23,4.993 -10.228,10.646 0,4.01 -1.044,4.728 -1.044,8.767 -0.463,7.116 -0.644,15.523 -0.418,22.543 6.931,11.054 14.132,20.345 21.083,30.059 5.474,6.426 6.448,5.065 20.664,6.262 7.157,0.511 14.807,0.06 20.665,-4.175 0.245,-0.98 0.692,-1.123 0.958,-1.095 0.328,0.035 0.384,0.328 -0.541,-0.365 -1.721,-1.291 -5.717,-4.921 -7.723,-5.636 -2.271,-0.809 -2.718,-3.08 -4.592,-3.548 -1.103,-0.276 -3.132,0.747 -3.132,-0.626 0,-1.39 -0.209,-3.882 -0.209,-5.219 0,-1.546 0.374,-3.724 0,-5.219 -0.465,-1.86 -1.927,-1.498 -2.296,-3.34 -0.254,-1.259 -0.765,-4.94 -0.209,-6.054 0.545,-1.09 1.51,-2.392 2.088,-3.548 0.613,-1.226 0.837,-1.049 1.669,-2.714 l 2.505,-3.548 c 1.479,-2.46 5.515,-8.036 6.053,-13.777 0.27,-4.33 -1.889,-6.648 -3.757,-10.437 -2.37,-3.317 -4.661,-6.876 -7.732,-10.207 -2.209,0.773 -3.2,2.544 -4.879,3.622 -1.331,0.855 -4.093,0.686 -6.305,0.527 -1.247,0 -1.572,-0.226 -2.398,-0.64 -0.608,-0.304 -0.799,-1.598 -0.959,-2.238 -0.123,-0.495 -1.12,-1.366 -1.731,-1.916 z m 112.997,70.314 1.331,-4.038 14.684,4.842 3.017,-9.151 3.672,1.211 -4.348,13.188 z M 150.063,132.325 c 1.403,0 1.629,-1.21 2.763,-1.777 0.924,-0.462 2.379,0.602 3.158,1.382 0.763,0.763 0.942,1.732 1.777,2.566 0.843,0.843 2.361,1.959 2.763,2.763 0.389,0.778 2.093,2.066 1.822,3.147 -1.266,3.905 -3.521,8.235 -6.362,10.671 -0.377,1.507 -1.016,2.511 -1.963,3.773 -0.635,2.968 -4.342,6.493 -4.749,10.439 -0.336,1.68 -0.197,2.973 -0.197,4.737 0.139,3.282 1.13,6.389 2.171,9.475 0.961,1.924 2.038,4.007 2.566,6.119 0.959,2.945 2.318,5.574 4.145,7.304 0.398,0.265 2.626,1.913 1.579,2.961 -2.162,1.881 -6.555,1.293 -12.83,-2.763 -0.962,-1.202 -1.938,-2.441 -3.158,-3.356 -1.09,-0.818 -2.634,-2.505 -3.356,-3.948 l -4.343,-6.711 -0.396,-0.79 c -0.907,-1.816 -1.213,-3.244 -2.566,-4.935 -1.959,-2.448 -2.413,-5.324 -4.343,-7.896 -1.108,-1.479 -1.386,-3.365 -2.171,-4.935 -0.65,-1.301 -0.697,-4.276 -0.197,-5.527 0.661,-1.65 -0.046,-3.961 0.396,-5.724 l 0.79,-4.343 c 0.251,-1.003 0.195,-2.319 1.184,-2.566 3.046,-0.679 5.566,-1.685 8.685,-1.777 0.937,-0.157 4.196,-0.187 5.132,0 2.442,0.697 3.518,2.557 4.54,4.935 1.533,3.098 -0.085,5.566 -0.987,8.093 -0.819,1.365 -1.541,3.161 -2.171,4.737 -0.53,1.324 -1.382,2.767 -1.382,4.145 0,1.044 -0.791,2.172 -1.579,2.961 -2.606,1.134 -4.754,-0.977 -5.33,-3.75 -0.219,-1.095 -1.026,-3.061 -0.592,-4.145 0.713,-1.784 0.816,-2.612 2.566,-2.961 1.11,-0.222 2.369,0.677 2.369,2.171 0,0.58 0.082,2.994 0.197,2.763 0.764,-1.529 1.364,-3.195 2.171,-4.54 0.714,-1.189 0.987,-2.535 0.987,-3.948 0,-2.997 1.322,-2.709 -1.382,-4.737 -1.182,-0.886 -2.002,-0.79 -3.75,-0.79 -2.675,-0.227 -5.723,-1.051 -5.922,2.961 -1.017,2.848 -0.752,4.989 -0.395,8.093 0,1.865 -0.213,4.283 0.197,5.922 0.281,1.126 1.021,1.845 1.579,2.961 0.733,1.465 1.779,2.769 2.566,4.343 1.943,4.004 4.973,7.966 5.724,11.844 1.342,1.342 1.61,2.597 2.763,3.75 0.579,0.579 1,1.391 1.777,1.974 0.76,0.57 1.549,0.957 2.171,1.579 0.552,0.552 0.42,0.874 1.522,1.15 2.527,0.632 1.33,-0.085 0.452,-2.137 -1.259,-2.805 -2.514,-5.96 -3.555,-9.5 -0.279,-0.95 -0.544,-1.928 -0.788,-2.935 -0.132,-0.395 -0.241,-0.798 -0.395,-1.184 -0.549,-1.37 -0.441,-2.75 -0.79,-4.145 -0.265,-1.063 -0.511,-4.978 -0.01,-5.979 0.456,-0.912 0.953,-2.419 1.393,-3.299 1.178,-3.252 1.743,-3.914 2.961,-6.514 0.753,-3.076 2.637,-5.392 3.915,-8.195 0.381,-0.834 1.087,-1.71 1.218,-2.662 0.269,-1.072 1.985,-2.955 0.79,-3.553 -2.455,-1.49 -3.837,-3.353 -6.909,-3.948 -3.339,-0.334 -3.725,-0.996 -10.264,-1.184 -4.953,0.515 -8.67,2.028 -13.423,2.961 -0.409,0.817 -2.369,2.414 -2.369,3.553 0,1.665 -0.79,3.065 -0.79,4.737 v 5.33 c 0,1.312 -0.197,2.689 -0.197,3.948 0,1.296 0.037,2.493 0.197,3.75 0.228,1.786 1.064,3.707 1.184,5.527 1.428,3.266 2.823,6.547 3.553,9.475 0.642,1.604 1.78,2.77 2.566,4.343 0.489,0.978 1.181,2.168 1.777,2.763 0.748,0.748 1.817,2.9 1.777,3.75 h -0.002 c -1.98,-1.98 -1.092,-0.178 -2.171,-0.987 -2.995,-3.261 -6.135,-7.224 -9.672,-12.436 -0.887,-2.219 -2.294,-4.157 -3.158,-6.317 -0.638,-1.594 -0.987,-3.137 -0.987,-4.935 0.112,-4.494 -0.236,-9.367 0.041,-13.828 0.209,-3.36 1.14,-6.317 1.737,-9.662 0.394,-7.965 7.24,-5.461 13.817,-6.909 1.292,-0.259 2.912,-0.716 3.948,-0.197 1.156,0.578 3.833,1.319 5.132,1.579 1.837,0.367 3.851,0.987 5.724,0.987 h 3.356 z M 30.587,148.233 c 1.939,0 3.513,1.574 3.513,3.514 0,1.939 -1.574,3.513 -3.513,3.513 -1.94,0 -3.513,-1.574 -3.513,-3.513 0,-1.94 1.573,-3.514 3.513,-3.514 z m 240.17,0 c 1.94,0 3.514,1.574 3.514,3.514 0,1.939 -1.574,3.513 -3.514,3.513 -1.939,0 -3.513,-1.574 -3.513,-3.513 0,-1.94 1.574,-3.514 3.513,-3.514 z m 3.248,-58.34 9.369,23.81 -5.677,2.044 -7.07,-17.346 -9.174,3.585 5.379,13.904 -6.039,2.043 -5.379,-13.904 -6.13,2.401 7.521,17.95 -6.039,2.043 -9.456,-24.415 32.696,-12.117 z M 57.028,111.896 c -1.082,2.27 -2.508,4.185 -4.276,5.744 -1.768,1.559 -3.718,2.712 -5.849,3.458 -2.131,0.746 -4.377,1.061 -6.738,0.945 -2.361,-0.116 -4.666,-0.692 -6.917,-1.727 l -0.091,-0.04 c -2.251,-1.036 -4.17,-2.404 -5.757,-4.104 -1.587,-1.701 -2.786,-3.601 -3.598,-5.7 -0.81,-2.099 -1.173,-4.334 -1.087,-6.703 0.086,-2.37 0.699,-4.749 1.837,-7.136 0.69,-1.445 1.439,-2.71 2.248,-3.794 0.809,-1.084 1.656,-2.015 2.54,-2.795 0.885,-0.78 1.824,-1.444 2.819,-1.994 0.995,-0.549 2.02,-1.012 3.078,-1.388 l 3.022,6.675 c -1.688,0.698 -3.146,1.53 -4.374,2.492 -1.227,0.963 -2.214,2.226 -2.959,3.789 -0.619,1.298 -0.937,2.617 -0.954,3.957 -0.015,1.34 0.235,2.615 0.756,3.826 0.521,1.211 1.269,2.31 2.243,3.298 0.976,0.988 2.138,1.793 3.489,2.414 l 0.089,0.041 c 1.351,0.622 2.733,0.987 4.144,1.097 1.412,0.11 2.754,-0.02 4.028,-0.385 1.273,-0.367 2.436,-0.983 3.489,-1.848 1.052,-0.864 1.895,-1.96 2.528,-3.285 0.844,-1.77 1.226,-3.418 1.149,-4.946 -0.077,-1.527 -0.398,-3.158 -0.961,-4.892 l 6.524,-2.284 c 0.491,1.198 0.878,2.382 1.161,3.555 0.284,1.172 0.43,2.381 0.44,3.626 0.01,1.245 -0.145,2.531 -0.467,3.858 -0.321,1.327 -0.841,2.742 -1.558,4.247 v -0.001 z m 190.772,-58.28 4.682,5.34 -21.836,18.45 12.161,13.749 -5.505,4.113 -15.752,-18.543 26.249,-23.11 z M 41.81,66.681 47.124,61.168 58.633,72.676 69.674,61.271 58.165,49.586 l 4.784,-4.45 24.526,24.159 -3.898,4.981 -9.35,-8.636 -11.218,10.875 9.174,8.812 -5.315,5.512 -25.057,-24.158 z m 173.299,-29.814 -10.354,-6.136 3.341,-5.04 25.223,14.989 -3.34,5.223 -8.718,-5.591 -15.114,24.469 -5.97,-3.446 14.933,-24.469 z M 83.337,31.145 89.092,28.028 105.494,58.727 99.739,61.844 83.337,31.146 Z m 26.176,-11.351 14.395,-2.735 c 2.115,-0.401 4.063,-0.483 5.842,-0.243 1.78,0.24 3.539,0.758 4.914,1.554 1.375,0.796 2.523,1.842 3.446,3.136 0.922,1.295 1.567,2.8 1.932,4.513 l 0.021,0.096 c 0.413,1.937 0.406,3.705 -0.021,5.305 -0.427,1.6 -1.181,3.015 -2.262,4.245 -1.082,1.23 -2.615,2.255 -4.239,3.076 -1.623,0.82 -3.424,1.419 -5.404,1.795 l -6.98,1.482 1.953,10.544 -6.661,1.109 -6.937,-33.877 z m 66.872,-3.826 c 2.683,0.704 5.047,1.818 7.092,3.342 2.045,1.524 3.711,3.296 4.998,5.315 1.287,2.019 2.149,4.22 2.583,6.606 0.436,2.385 0.381,4.806 -0.163,7.263 l -0.02,0.099 c -0.544,2.457 -1.517,4.637 -2.919,6.541 -1.403,1.903 -3.103,3.451 -5.101,4.643 -1.999,1.192 -4.235,1.958 -6.71,2.297 -2.474,0.339 -5.053,0.157 -7.735,-0.547 -2.682,-0.704 -5.045,-1.817 -7.091,-3.342 -2.045,-1.525 -3.711,-3.297 -4.998,-5.315 -1.287,-2.019 -2.149,-4.221 -2.584,-6.606 -0.436,-2.385 -0.381,-4.807 0.164,-7.265 l 0.02,-0.098 c 0.544,-2.458 1.517,-4.638 2.92,-6.541 1.402,-1.903 3.102,-3.45 5.1,-4.642 1.999,-1.192 4.235,-1.958 6.71,-2.297 2.475,-0.339 5.053,-0.157 7.735,0.547 z m -1.644,6.953 c -1.523,-0.4 -2.991,-0.49 -4.406,-0.271 -1.415,0.217 -2.687,0.698 -3.815,1.442 -1.129,0.744 -2.093,1.696 -2.893,2.856 -0.799,1.16 -1.362,2.477 -1.688,3.951 l -0.021,0.099 c -0.326,1.474 -0.378,2.933 -0.155,4.379 0.222,1.445 0.697,2.783 1.423,4.014 0.727,1.231 1.672,2.301 2.837,3.214 1.164,0.912 2.508,1.568 4.031,1.967 1.555,0.408 3.033,0.501 4.432,0.279 1.399,-0.222 2.662,-0.706 3.79,-1.45 1.127,-0.744 2.092,-1.696 2.892,-2.856 0.8,-1.16 1.364,-2.477 1.69,-3.953 l 0.02,-0.097 c 0.326,-1.475 0.379,-2.935 0.156,-4.381 -0.224,-1.444 -0.698,-2.782 -1.424,-4.013 -0.726,-1.23 -1.664,-2.299 -2.811,-3.208 -1.148,-0.907 -2.5,-1.566 -4.056,-1.974 h -0.001 z m -47.746,11.044 c 1.946,-0.37 3.535,-1.141 4.402,-2.314 0.866,-1.172 1.147,-2.472 0.843,-3.901 l -0.021,-0.095 c -0.352,-1.65 -1.182,-2.798 -2.489,-3.442 -1.307,-0.643 -3.116,-0.78 -5.063,-0.41 l -5.989,1.138 2.176,10.19 z"
     fill="#ffffff"
     id="path32" />
</svg>
