<?xml version="1.0" encoding="UTF-8" standalone="no"?>
<svg
   xmlns:dc="http://purl.org/dc/elements/1.1/"
   xmlns:cc="http://creativecommons.org/ns#"
   xmlns:rdf="http://www.w3.org/1999/02/22-rdf-syntax-ns#"
   xmlns:svg="http://www.w3.org/2000/svg"
   xmlns="http://www.w3.org/2000/svg"
   xmlns:sodipodi="http://sodipodi.sourceforge.net/DTD/sodipodi-0.dtd"
   xmlns:inkscape="http://www.inkscape.org/namespaces/inkscape"
   enable-background="new 0 0 220 83"
   viewBox="0 0 325.665 330.4"
   version="1.1"
   id="svg231"
   sodipodi:docname="chuck_e_cheese_logo.svg"
   width="325.66501"
   height="330.39999"
   inkscape:version="1.0.1 (3bc2e813f5, 2020-09-07)">
  <metadata
     id="metadata126">
    <rdf:RDF>
      <cc:Work
         rdf:about="">
        <dc:format>image/svg+xml</dc:format>
        <dc:type
           rdf:resource="http://purl.org/dc/dcmitype/StillImage" />
      </cc:Work>
    </rdf:RDF>
  </metadata>
  <defs
     id="defs235" />
  <sodipodi:namedview
     id="namedview233"
     pagecolor="#ffffff"
     bordercolor="#666666"
     borderopacity="1.0"
     inkscape:pageshadow="2"
     inkscape:pageopacity="0.0"
     inkscape:pagecheckerboard="0"
     showgrid="false"
     inkscape:zoom="4.9954545"
     inkscape:cx="198.19353"
     inkscape:cy="165.43776"
     inkscape:window-width="1697"
     inkscape:window-height="1027"
     inkscape:window-x="0"
     inkscape:window-y="25"
     inkscape:window-maximized="0"
     inkscape:current-layer="svg231"
     inkscape:document-rotation="0" />
  <path
     d="m 280.505,302.32 c -0.28,-0.12 -2.96,0.32 -2.84,-0.32 0.12,-0.28 -0.32,-2.28 0.32,-2.24 0.2,0.2 8.48002,-0.44 8.20002,0.32 0.4,2.72 -0.72,2.24 -2.84,2.24 v 9.44 c 0.04,0.6 -2.16002,0.2 -2.44002,0.32 -0.88,0.04 -0.04,-9.44 -0.32,-9.76 z"
     fill="#8c827a"
     id="path149"
     style="stroke-width:4" />
  <path
     d="m 290.26502,299.8 c 0.96,-1.92 4.56,7.4 5.04,7.52 h 0.04 c 0.52,-0.12 4.04,-9.48 5.04,-7.52 -0.24,0.32 2.68,12.44 1.68,12.32 -0.28,-0.12 -2.4,0.28 -2.4,-0.28 0,0 -0.8,-5.48 -0.8,-5.48 h -0.04 c -3.84,7.64 -3.08,7.52 -6.92,0 h -0.04 c -0.2,0.2 -0.48,6 -1.08,5.76 -0.32,-0.16 -2.6,0.36 -2.4,-0.4 0,0 1.88,-11.92 1.88,-11.92 z"
     fill="#8c827a"
     id="path151"
     style="stroke-width:4" />
  <path
     d="m 162.825,321.72 c -205.679999,-3.68 -205.679999,-309.36 0,-313.04 205.68002,3.68 205.68002,309.4 0,313.04 z"
     fill="#ffffff"
     id="path153"
     style="stroke-width:4" />
  <path
     d="m 162.825,0 c -217.119999,3.92 -217.079999,326.56 0,330.4 217.12002,-3.88 217.12002,-326.56 0,-330.4 z m 0,321.72 c -205.679999,-3.68 -205.679999,-309.36 0,-313.04 205.68002,3.68 205.68002,309.4 0,313.04 z"
     fill="#8c827a"
     id="path155"
     style="stroke-width:4" />
  <path
     d="m 162.825,16.12 c -195.959999,3.52 -195.879999,294.72 0.04,298.2 196.00002,-3.52 195.92002,-294.72 -0.04,-298.2 z"
     fill="#db0032"
     id="path157"
     style="stroke-width:4" />
  <path
     d="m 290.26502,159.2 c -1.88,-11.04 -9.60002,-19.88 -16.92002,-25.08 17.76002,-39.4 5.36,-125.08 -41.56,-131.16 -26.2,3.28 -35.96,33 -40.68,60.4 -14.4,-8.76 -34.32,-18.4 -34.72,0.12 -4.68,0.76 -7.92,6.04 -6.52,10.56 -9.6,-0.48 -19.36,0.84 -29.36,9.44 C 106.465,46.52 55.504997,-4.32 16.344998,30.76 -14.295002,66.4 3.3049983,151.28 48.064997,177 c -16.6,47.76 46.76,82.92 86.520003,76.6 21.44,-0.84 31.44,30.28 59.8,29.52 39.68,7.64 57.04,-58 74.28,-81.96 14.00002,-11.36 24.00002,-24.84 21.60002,-41.96 z"
     fill="#ffffff"
     id="path159"
     style="stroke-width:4" />
  <path
     d="m 161.345,172.2 c -6.4,1.04 -13.36,-0.32 -19.76,-1.72 -23.24,-12.56 -0.96,-66.72 29.12,-43.64 19.88,17.52 12.72,42.48 -9.36,45.36 z"
     fill="#ffffff"
     id="path161"
     style="stroke-width:4" />
  <path
     d="m 244.465,127.92 c -10.64,-26.64 -38.8,-17.4 -32.48,7.6 2.24,7.72 7.68,13.44 13.8,16.12 0.04,0.04 0.12,0.04 0.16,0.08 4.28,2 8.84,-0.08 13.4,2.36 2.52,-0.72 10.16,-18.92 5.12,-26.16 z"
     fill="#ffffff"
     id="path163"
     style="stroke-width:4" />
  <path
     d="m 261.945,195.32 c 20.24002,-21.96 11.96,-53.72 -16,-55.88 -1.04,8.72 -6.56,14.6 -6.56,14.6 -4.56,-2.48 -9.12,-0.36 -13.4,-2.36 -0.04,-0.04 -0.12,-0.04 -0.16,-0.08 -6.12,-2.64 -11.56,-8.36 -13.8,-16.12 -30.6,-8.96 -22.8,50.72 -70.4,34.92 -0.68,-0.16 -1.4,-0.32 -2.08,-0.48 -25.92,-10.16 -68.400003,-16.48 -71.760003,21.6 -3.52,30.92 29.72,39.96 65.880003,54.6 7.84,-0.04 16.36,0.12 22.28,7 22.8,12.52 44.32,23.4 73.52,3.16 l 33.48,-60.12 c -0.64,0.6 -1.48,-0.16 -1,-0.84 z"
     fill="#d6d1ca"
     id="path165"
     style="stroke-width:4" />
  <path
     d="m 213.505,234.8 -4.88,-7.8 c 13,0.32 25.24,-3.12 32.92,-7.04 9.32,-12.24 -27.6,9.44 -52.04,-0.84 -25.56,-6.56 -36.88,-21.08 -64,-16.56 -1.2,0.2 -1.24,1.92 -0.04,2.2 21.24,5.12 37.04,25.88 45.48,35.56 14.68,19.68 54.4,21.44 64.12,-6.24 -5.76,0.8 -17.12,6.6 -21.56,0.72 z"
     fill="#030202"
     id="path167"
     style="stroke-width:4" />
  <path
     d="m 241.545,220 c -7.68,3.88 -19.88,7.36 -32.92,7.04 6.08,14.56 14.16,10.16 26.44,7.08 2.12,-4.24 4.2,-9 6.48,-14.12 z"
     fill="#ffffff"
     id="path169"
     style="stroke-width:4" />
  <path
     d="M 83.424998,200.84 C 106.025,187.92 160.825,171.72 187.545,183.68 c 0.2,1.08 -0.72,2.04 -1.8,1.84 -17.44,-4.76 -67.8,1.72 -102.320002,15.32 z"
     fill="#8c827a"
     id="path171"
     style="stroke-width:4" />
  <path
     d="m 112.545,219.48 c 16.72,-11.2 50.8,-29.68 74.4,-24.72 0.32,1.32 -0.68,2.56 -2.04,2.56 -20.32,-1.52 -55.96,16.44 -72.36,22.16 z"
     fill="#8c827a"
     id="path173"
     style="stroke-width:4" />
  <path
     d="m 309.46502,164.4 c -11.6,-3.44 -57.40002,-7.48 -45.84002,0.84 9.08,-4.36 35.16002,0.72 45.84002,-0.84 z"
     fill="#8c827a"
     id="path175"
     style="stroke-width:4" />
  <path
     d="m 309.82502,179.52 c -16.24,-3.2 -41.16002,-10.48 -48.80002,-5.44 0.08,1.2 0.88,2.16 2.32,2.04 9.52,-2.12 36.20002,4.64 46.48002,3.4 z"
     fill="#8c827a"
     id="path177"
     style="stroke-width:4" />
  <path
     d="m 228.345,255.48 c -23.36,21.84 -53.88,10.68 -71.52,-3.16 11.96,26.36 64.52,34.12 71.52,3.16 z"
     fill="#8c827a"
     id="path179"
     style="stroke-width:4" />
  <path
     d="m 37.984997,159.8 c 6.4,6 11.36,10.24 19.44,13.56 5.88,-10.56 21.440001,-29.76 46.640003,-24.08 C 105.905,17.44 -22.534999,-2.88 37.984997,159.8 Z"
     fill="#ebbeaf"
     id="path181"
     style="stroke-width:4" />
  <path
     d="m 225.785,151.64 c 0.04,0.04 0.12,0.04 0.16,0.08 4.28,2 8.84,-0.08 13.4,2.36 11.96,-9.4 6.24,-42.08 -13.68,-42.08 -20.76,0 -17.56,33.68 0.12,39.64 z"
     fill="#ffffff"
     id="path183"
     style="stroke-width:4" />
  <path
     d="M 282.98502,160.56 C 280.705,146.48 266.465,137.32 261.545,136.36 c 0,0 13.68,-7.4 11.92,-43.44 -6.12,-110.24 -73.16,-104.84 -76.12,-12.04 -4.16,-9.8 -29.56,-25.12 -33.48,-18.64 7.56,6.2 14.4,18.68 12.76,25.44 -3.92,-9.4 -17.64,-21.36 -19.44,-15.12 3.04,2.96 7.16,8.12 7.52,12.68 -15.36,-6.64 -35,-6.48 -46.12,11.96 C 98.264997,28.36 0.50499835,-17.84 9.3449983,94.56 c 2.3599997,24.72 11.9999987,46.24 28.6399987,65.2 0.84,1 2.44,-0.08 1.76,-1.24 -17.88,-28.44 -34.8399987,-123.52 15.16,-113.16 35.320001,9.12 56.560003,85.2 49.160003,103.92 -25.200002,-5.68 -40.760003,13.56 -46.640003,24.08 -5.88,10.52 -0.04,0 -0.04,-0.04 -22.48,45.36 41.2,79.08 76.280003,72.88 -36.680003,-14.8 -70.040003,-24 -65.760003,-55.44 4.600001,-39.04 47.600003,-29.6 73.720003,-20.28 -13.16,-4.08 -13.4,-42.8 7.2,-47.56 22.2,-10.16 41.56,27.2 30.72,39 10.32,-10.48 13.76,-34.2 32.52,-26.32 -5.56,-20.36 14.56,-32.24 27.52,-16.28 5.6,-24.52 -26.2,-25.48 -26.16,-45.32 -2.36,-16 5.8,-50.28 19.24,-50.28 34.12,-1.32 43.04,122.76 11.84,104.36 0,0 0,-0.04 -0.04,-0.04 1.6,4.16 1.88,8.08 1.48,11.56 28.08,2.24 36.16002,33.92 16,55.88 12.24,-3.88 23.12002,-22.12 21.04002,-34.92 z"
     fill="#8c827a"
     id="path185"
     style="stroke-width:4" />
  <path
     d="m 261.985,74.64 c -18.2,-107.4 -70.28,-16.92 -40.32,14.88 12.68,6.44 19.88,17.04 17.88,29.68 1.84,2.2 3.52,5.12 4.96,8.72 17.72,11.24 21.04,-20.04 17.48,-53.28 z"
     fill="#ebbeaf"
     id="path187"
     style="stroke-width:4" />
  <path
     d="m 237.385,130.8 c -2.16,15 -19.36,-3.52 -4.28,-4.6 -6.32,-5.04 -16.92,-4.12 -22.24,1.92 -0.12,12.76 9.76,24.52 21.92,25.36 7.04,-4.56 9.36,-15.6 4.6,-22.68 z"
     fill="#61a60e"
     id="path189"
     style="stroke-width:4" />
  <path
     d="m 232.265,136.48 c -3.84,0.12 -6.44,-4.36 -4.52,-7.64 -6,-2.72 -13.68,0.76 -15.68,6.84 2.16,7.36 7.28,12.88 13.08,15.64 6.88,-1.04 11.56,-8.6 9.2,-15.28 -0.68,0.28 -1.36,0.44 -2.08,0.44 z"
     id="path191"
     style="stroke-width:4" />
  <path
     d="m 230.265,152.68 c 29.92,-3.68 32.2,55.32 5.96,58.04 -27,2.72 -39.4,-55.44 -5.96,-58.04 z"
     id="path193"
     style="stroke-width:4" />
  <path
     d="m 248.745,180.08 c 2.24,-5.32 -5.2,-20.92 -10.28,-12.04 1.4,2.44 7.68,20.12 10.32,12.08 -0.04,0 -0.04,-0.04 -0.04,-0.04 z"
     fill="#ffffff"
     id="path195"
     style="stroke-width:4" />
  <path
     d="m 171.585,140.92 c 1.2,2.48 0.52,5.88 -1.48,7.68 4.68,8.68 -2.2,20.12 -12.16,19.84 -18.44,0.16 -17.2,-28.96 1.16,-27.24 1.04,-2.64 3.8,-4.52 6.76,-4.24 -22.52,-10.64 -38.76,24.76 -16.4,35 19.32,6.08 37.48,-15.12 22.12,-31.04 z"
     fill="#61a60e"
     id="path197"
     style="stroke-width:4" />
  <path
     d="m 165.385,150.52 c -4.72,0.08 -8.12,-4.96 -6.32,-9.32 -18.36,-1.72 -19.6,27.4 -1.16,27.24 9.96,0.24 16.84,-11.16 12.16,-19.84 -1.2,1.16 -2.84,1.92 -4.68,1.92 z"
     fill="#030202"
     id="path199"
     style="stroke-width:4" />
</svg>
