<?xml version="1.0" encoding="UTF-8" standalone="no"?>
<svg
   xmlns:dc="http://purl.org/dc/elements/1.1/"
   xmlns:cc="http://creativecommons.org/ns#"
   xmlns:rdf="http://www.w3.org/1999/02/22-rdf-syntax-ns#"
   xmlns:svg="http://www.w3.org/2000/svg"
   xmlns="http://www.w3.org/2000/svg"
   xmlns:sodipodi="http://sodipodi.sourceforge.net/DTD/sodipodi-0.dtd"
   xmlns:inkscape="http://www.inkscape.org/namespaces/inkscape"
   viewBox="0 0 399.36168 87.96"
   version="1.1"
   id="svg18"
   sodipodi:docname="city_bbq_logo.svg"
   width="399.36166"
   height="87.959999"
   inkscape:version="1.0.1 (3bc2e813f5, 2020-09-07)">
  <metadata
     id="metadata24">
    <rdf:RDF>
      <cc:Work
         rdf:about="">
        <dc:format>image/svg+xml</dc:format>
        <dc:type
           rdf:resource="http://purl.org/dc/dcmitype/StillImage" />
      </cc:Work>
    </rdf:RDF>
  </metadata>
  <defs
     id="defs22" />
  <sodipodi:namedview
     pagecolor="#ffffff"
     bordercolor="#666666"
     borderopacity="1"
     objecttolerance="10"
     gridtolerance="10"
     guidetolerance="10"
     inkscape:pageopacity="0"
     inkscape:pageshadow="2"
     inkscape:window-width="785"
     inkscape:window-height="480"
     id="namedview20"
     showgrid="false"
     inkscape:zoom="3.5957532"
     inkscape:cx="199.6807"
     inkscape:cy="43.98"
     inkscape:window-x="0"
     inkscape:window-y="0"
     inkscape:window-maximized="0"
     inkscape:current-layer="svg18" />
  <g
     fill="#0c2945"
     fill-rule="evenodd"
     id="g16"
     transform="matrix(2,0,0,2,5.7162149e-4,0)">
    <path
       d="m 139.21,6.94 h -12 a 0.53,0.53 0 0 0 -0.53,0.53 v 25.19 a 0.54,0.54 0 0 0 0.54,0.54 h 12.06 a 0.27,0.27 0 0 0 0.27,-0.27 0.3,0.3 0 0 0 -0.05,-0.16 6.27,6.27 0 0 1 -1.34,-3.64 v -0.42 a 0.27,0.27 0 0 0 -0.27,-0.27 h -5.64 A 0.54,0.54 0 0 1 131.71,27.9 V 23 a 0.54,0.54 0 0 1 0.54,-0.54 h 4 a 0.54,0.54 0 0 0 0.54,-0.54 v -3.7 a 0.54,0.54 0 0 0 -0.54,-0.54 h -4 a 0.54,0.54 0 0 1 -0.54,-0.54 v -4.93 a 0.54,0.54 0 0 1 0.54,-0.54 h 5.64 a 0.27,0.27 0 0 0 0.27,-0.27 V 11 a 6.26,6.26 0 0 1 1.31,-3.6 0.26,0.26 0 0 0 -0.09,-0.37 0.25,0.25 0 0 0 -0.17,-0.09 z M 119,15.72 a 1.64,1.64 0 0 1 -1.62,1.62 h -1.71 a 0.4,0.4 0 0 1 -0.4,-0.39 v -4.86 a 0.38,0.38 0 0 1 0.39,-0.39 h 1.72 a 1.63,1.63 0 0 1 1.62,1.62 z m 0,11.11 a 1.64,1.64 0 0 1 -1.62,1.62 h -1.71 a 0.4,0.4 0 0 1 -0.4,-0.4 v -5.59 a 0.4,0.4 0 0 1 0.4,-0.4 h 1.71 a 1.64,1.64 0 0 1 1.62,1.62 z m 3.52,-7.33 a 4,4 0 0 0 1.53,-3.6 V 10.77 A 3.72,3.72 0 0 0 120.52,7 h -9.7 a 0.55,0.55 0 0 0 -0.55,0.54 v 25.12 a 0.54,0.54 0 0 0 0.54,0.54 h 9.39 a 3.87,3.87 0 0 0 3.87,-3.87 v -5.27 c 0,-1.19 0.09,-3.24 -1.55,-4.18 -0.24,-0.14 -0.12,-0.26 0,-0.38 z M 102.7,18.09 a 2.16,2.16 0 0 1 -2.16,2.12 h -1.26 a 0.28,0.28 0 0 1 -0.27,-0.27 v -8 a 0.28,0.28 0 0 1 0.27,-0.27 h 1.31 a 2.15,2.15 0 0 1 2.16,2.14 z m 2.22,6.37 a 5.23,5.23 0 0 0 2.8,-4.76 v -8.65 a 4.11,4.11 0 0 0 -4.11,-4.11 h -9.14 a 0.54,0.54 0 0 0 -0.54,0.54 v 25.19 a 0.54,0.54 0 0 0 0.54,0.54 h 3.94 a 0.54,0.54 0 0 0 0.54,-0.54 V 25.39 A 0.35,0.35 0 0 1 99.3,25 a 0.36,0.36 0 0 1 0.34,0.23 l 2.72,7.41 a 0.81,0.81 0 0 0 0.76,0.53 h 4.21 a 0.41,0.41 0 0 0 0.41,-0.39 0.4,0.4 0 0 0 0,-0.15 c -0.47,-1.28 -2.49,-6.74 -2.91,-7.9 a 0.23,0.23 0 0 1 0.12,-0.31 z M 180,11.69 h 6.3 a 0.54,0.54 0 0 0 0.54,-0.54 V 7.49 A 0.55,0.55 0 0 0 186.3,6.94 H 175 a 0.53,0.53 0 0 0 -0.53,0.53 v 25.19 a 0.54,0.54 0 0 0 0.54,0.54 h 11.32 a 0.54,0.54 0 0 0 0.54,-0.54 V 29 a 0.54,0.54 0 0 0 -0.54,-0.54 H 180 a 0.54,0.54 0 0 1 -0.54,-0.54 V 23 A 0.54,0.54 0 0 1 180,22.46 h 4 a 0.54,0.54 0 0 0 0.54,-0.54 v -3.7 A 0.54,0.54 0 0 0 184,17.68 h -4 a 0.54,0.54 0 0 1 -0.54,-0.54 V 12.21 A 0.54,0.54 0 0 1 180,11.69 Z M 162.59,7 h -3.94 a 0.54,0.54 0 0 0 -0.54,0.54 v 21.67 a 4.06,4.06 0 0 0 4.06,4 h 5.67 a 4,4 0 0 0 4,-4 V 7.56 A 0.54,0.54 0 0 0 171.3,7.02 h -3.93 a 0.54,0.54 0 0 0 -0.54,0.54 v 19.59 a 1.34,1.34 0 0 1 -1.35,1.35 h -1 a 1.34,1.34 0 0 1 -1.35,-1.33 V 7.56 A 0.54,0.54 0 0 0 162.59,7.02 Z M 149.28,27.08 A 1.34,1.34 0 0 1 148,28.43 h -1.44 a 1.34,1.34 0 0 1 -1.35,-1.35 v -14 a 1.34,1.34 0 0 1 1.35,-1.35 h 1.42 a 1.33,1.33 0 0 1 1.35,1.3 z m 5,-15.3 A 4.88,4.88 0 0 0 149.42,6.92 H 145 a 4.87,4.87 0 0 0 -4.87,4.86 v 16.56 a 4.87,4.87 0 0 0 4.87,4.87 h 12.06 a 0.23,0.23 0 0 0 0.22,-0.24 0.28,0.28 0 0 0 0,-0.12 5.56,5.56 0 0 1 -1.28,-3.78 v -0.64 h -1.75 V 11.78 Z M 30.19,14.7 c 0.08,-0.39 0.15,-0.71 0.23,-1.19 a 1.79,1.79 0 0 0 -1,-1.85 c -1.48,-0.95 -0.85,-1.81 -1.19,-1.85 -1.38,-0.15 -2.14,3.83 -1,4.82 1.14,0.99 2.77,0.85 2.96,0.07 z M 191.09,0 H 2.81 A 2.86,2.86 0 0 0 0,2.9 v 34.67 a 2.86,2.86 0 0 0 2.81,2.89 h 44.4 l 0.48,-3.07 H 3 V 3.08 h 188.07 l -0.15,34 a 0.35,0.35 0 0 1 -0.34,0.36 H 56.06 l -0.47,3.07 h 135.5 a 2.86,2.86 0 0 0 2.81,-2.89 V 2.9 A 2.86,2.86 0 0 0 191.09,0 Z M 56.58,20.21 a 10.47,10.47 0 0 1 0.56,-1.83 1,1 0 0 0 -0.28,-1.06 4.2,4.2 0 0 0 -2.39,-0.95 c -1,0 -1.51,1.77 -1.7,3 -2.33,14.81 -6,10.7 -6,9.4 0,-1.3 0.78,-5.56 1.08,-7.35 a 16.66,16.66 0 0 1 0.82,-2.94 1,1 0 0 0 -0.32,-1.12 4.27,4.27 0 0 0 -2.38,-1 c -1,0 -1.43,1.34 -1.66,2.78 -2.59,15.74 -7.64,10.75 -7.28,8.5 0.25,-1.43 1.11,-6.86 1.25,-7.66 0.07,-0.43 0.17,-1.14 0.55,-1.14 h 2.53 c 0.45,0 0.73,-0.37 0.92,-1.57 0.19,-1.2 -0.15,-1.14 -0.53,-1.14 h -2.47 c 0,0 -0.39,0.15 -0.31,-0.36 0.08,-0.51 0.38,-2.37 0.47,-2.86 0.09,-0.49 -0.1,-1 -1.58,-1.89 -1.48,-0.89 -2,-0.63 -2.08,0.17 -0.08,0.8 -0.59,3.7 -0.67,4.22 -0.08,0.52 0,0.71 -0.38,0.72 h -1.8 c -0.39,0 -0.55,0.15 -0.71,1.14 -0.16,0.99 0,1.57 0.32,1.57 h 1.74 c 0.24,0 0.3,0.08 0.24,0.4 -0.06,0.32 -0.28,1.4 -0.32,1.69 -2.06,13.26 -6.36,9.26 -6,7.17 0.15,-1 1.19,-8 1.36,-9 0.17,-1 -1.46,-2 -1.79,-2.11 -1.24,-0.57 -1.69,-0.15 -1.81,0.57 -0.17,1.05 -1.29,8.13 -1.54,9.64 -0.49,3 0.24,4.08 2,5.21 3.55,2.25 6.28,-1.32 6.81,-2.09 a 3.79,3.79 0 0 0 1.65,1.82 c 4.7,2.93 7.59,-1.31 8.06,-2.07 0.83,2.12 4.61,4.81 7.93,1.58 -0.07,0.48 -1.78,11.29 -1.86,11.82 0,0 -0.19,0.51 0.6,0.51 0.79,0 1.13,-1.19 3,-1.67 0.61,-0.15 0.62,-0.83 0.7,-1.33 0.08,-0.5 2.11,-13.63 3,-19.09 -0.03,-0.18 0.14,-1.03 0.27,-1.68 z M 21.58,16 c 1,0.37 1.2,0.05 1.39,-0.28 0.9,-1.51 2.21,-3.9 1.35,-6.1 C 23.38,7.21 14.9,3.45 10.52,10.82 7,16.75 5.6,23.09 7.2,27.21 c 2.26,5.83 9.28,7 12.2,5.22 a 8.72,8.72 0 0 0 3.79,-5 0.76,0.76 0 0 0 -0.27,-0.64 C 22.7,26.61 22.4,26.37 22.18,26.22 a 1.11,1.11 0 0 0 -1.46,0.41 12.33,12.33 0 0 1 -1.66,2.08 c -3.92,3.34 -7,0.06 -8,-2.6 -1.83,-4.63 2.86,-19.77 9.19,-16.53 1.41,0.73 0.23,3.71 0,4.76 -0.23,1.05 0.33,1.28 1.33,1.66 z m 60.56,-2.35 a 2,2 0 0 1 1.92,-2 1.86,1.86 0 0 1 1.82,1.86 v 6.39 a 0.27,0.27 0 0 1 -0.27,0.27 h -3.2 A 0.28,0.28 0 0 1 82.14,19.9 Z m -0.58,19.56 a 0.54,0.54 0 0 0 0.54,-0.54 v -7.54 a 0.27,0.27 0 0 1 0.27,-0.27 h 3 a 0.27,0.27 0 0 1 0.27,0.27 v 7.54 a 0.54,0.54 0 0 0 0.53,0.55 h 4.23 a 0.54,0.54 0 0 0 0.54,-0.54 V 11 a 4.06,4.06 0 0 0 -4,-4 h -5.7 a 4.07,4.07 0 0 0 -4.06,4 v 21.67 a 0.55,0.55 0 0 0 0.54,0.54 z M 69.38,15.72 a 1.63,1.63 0 0 1 -1.62,1.62 h -1.71 a 0.4,0.4 0 0 1 -0.4,-0.39 V 12.09 A 0.38,0.38 0 0 1 66,11.7 h 1.72 a 1.61,1.61 0 0 1 1.62,1.6 v 2.42 z m 0,11.11 a 1.63,1.63 0 0 1 -1.62,1.62 h -1.71 a 0.4,0.4 0 0 1 -0.4,-0.4 v -5.59 a 0.4,0.4 0 0 1 0.4,-0.4 h 1.71 a 1.63,1.63 0 0 1 1.62,1.62 z M 72.9,19.5 a 4,4 0 0 0 1.53,-3.6 V 10.77 A 3.72,3.72 0 0 0 70.88,7 h -9.7 a 0.54,0.54 0 0 0 -0.54,0.54 v 25.12 a 0.55,0.55 0 0 0 0.53,0.54 h 9.39 a 3.87,3.87 0 0 0 3.87,-3.87 v -5.27 c 0,-1.19 0.09,-3.24 -1.55,-4.18 -0.24,-0.14 -0.12,-0.26 0,-0.38 z"
       id="path10" />
    <path
       d="m 197.33,40.21 a 2.1,2.1 0 1 1 2,-2.2 v 0.1 a 2,2 0 0 1 -1.9,2.1 z m 0,-4.48 a 2.38,2.38 0 1 0 2.35,2.41 2.33,2.33 0 0 0 -2.28,-2.38 z"
       id="path12" />
    <path
       d="m 197.79,38.43 -0.09,-0.15 a 0.67,0.67 0 0 0 0.51,-0.7 0.72,0.72 0 0 0 -0.68,-0.76 h -1 v 2.62 h 0.29 v -1.1 h 0.57 l 0.56,1.09 h 0.29 z m -0.37,-0.34 h -0.56 v -1 h 0.56 a 0.46,0.46 0 0 1 0.49,0.43 v 0.07 a 0.47,0.47 0 0 1 -0.44,0.5 z"
       id="path14" />
  </g>
</svg>
