<svg id="svg" version="1.1" xmlns="http://www.w3.org/2000/svg" xmlns:xlink="http://www.w3.org/1999/xlink" width="400" height="400" viewBox="0, 0, 400,400"><g id="svgg"><path id="path0" d="M182.300 15.082 C 182.795 15.178,183.605 15.178,184.100 15.082 C 184.595 14.987,184.190 14.909,183.200 14.909 C 182.210 14.909,181.805 14.987,182.300 15.082 M217.305 15.087 C 217.914 15.179,218.814 15.177,219.305 15.082 C 219.797 14.987,219.300 14.911,218.200 14.914 C 217.100 14.917,216.697 14.995,217.305 15.087 M246.623 19.963 C 246.500 20.162,246.787 20.224,247.262 20.100 C 247.849 19.946,248.034 20.021,247.842 20.332 C 247.655 20.635,247.781 20.705,248.213 20.540 C 248.736 20.339,248.761 20.221,248.334 19.950 C 247.632 19.506,246.902 19.511,246.623 19.963 M272.099 28.178 C 272.703 28.493,273.423 28.866,273.699 29.006 C 273.974 29.146,273.775 28.887,273.256 28.430 C 272.736 27.974,272.016 27.601,271.656 27.602 C 271.252 27.604,271.422 27.825,272.099 28.178 M124.455 30.133 C 124.121 30.536,124.154 30.667,124.589 30.667 C 124.906 30.667,125.053 30.486,124.917 30.265 C 124.767 30.024,124.942 29.969,125.355 30.127 C 125.763 30.284,125.942 30.230,125.797 29.995 C 125.461 29.451,124.981 29.500,124.455 30.133 M101.416 42.139 C 100.811 42.582,100.779 42.736,101.239 43.003 C 101.549 43.183,101.660 43.174,101.487 42.985 C 101.316 42.796,101.586 42.414,102.087 42.135 C 102.589 41.856,102.809 41.622,102.576 41.614 C 102.344 41.606,101.821 41.843,101.416 42.139 M152.600 56.214 C 129.068 60.037,108.577 73.153,101.066 89.200 C 100.397 90.630,99.331 92.649,98.699 93.686 C 89.264 109.155,89.198 143.443,98.569 160.000 C 99.503 161.650,100.653 163.810,101.125 164.800 C 102.166 166.987,103.538 168.959,108.100 174.821 C 113.008 181.129,113.168 180.694,104.180 185.492 C 97.876 188.857,89.567 194.452,85.947 197.769 C 78.383 204.701,74.955 208.451,72.394 212.600 C 67.025 221.296,66.852 221.648,64.865 227.916 C 59.528 244.754,59.369 256.771,64.285 271.800 C 67.912 282.890,74.938 292.680,85.800 301.780 C 90.656 305.848,100.464 311.641,105.400 313.356 C 106.940 313.891,109.820 314.979,111.800 315.773 C 121.301 319.583,131.363 321.191,145.735 321.197 C 166.015 321.205,180.269 317.397,197.800 307.290 C 200.660 305.642,204.091 303.441,205.424 302.399 C 206.757 301.358,208.647 300.005,209.624 299.392 C 210.601 298.779,212.815 297.034,214.544 295.513 C 219.306 291.323,219.985 291.236,223.379 294.371 C 224.491 295.398,226.390 297.035,227.600 298.009 C 228.810 298.983,230.970 300.843,232.400 302.142 C 246.742 315.172,258.324 321.101,270.221 321.505 C 288.841 322.137,303.125 315.543,315.938 300.400 C 324.162 290.681,332.551 271.090,335.205 255.400 C 335.652 252.760,336.269 249.610,336.577 248.400 C 338.468 240.955,339.449 230.999,338.362 230.295 C 337.083 229.468,335.666 230.273,335.179 232.104 C 330.752 248.769,321.817 261.087,309.800 267.095 C 294.944 274.522,286.428 272.457,271.200 257.733 C 258.145 245.111,257.887 244.732,260.218 241.578 C 262.834 238.038,269.364 226.552,271.008 222.600 C 274.785 213.521,277.590 205.290,277.605 203.248 C 277.611 202.262,282.044 189.548,284.037 184.800 C 286.174 179.708,287.853 177.861,292.896 175.054 C 303.580 169.107,305.301 163.249,306.588 128.473 C 307.680 98.984,307.413 89.260,305.562 91.085 C 304.994 91.645,303.810 98.608,303.195 105.000 C 302.963 107.420,302.511 111.740,302.192 114.600 C 301.873 117.460,301.331 123.310,300.987 127.600 C 300.643 131.890,300.010 137.145,299.581 139.277 C 299.151 141.409,298.800 143.710,298.800 144.390 C 298.800 148.485,295.067 150.423,293.398 147.195 C 292.770 145.982,293.427 133.018,294.362 128.166 C 294.578 127.048,294.948 123.206,295.186 119.628 C 295.423 116.051,295.900 110.756,296.245 107.862 C 297.586 96.615,297.008 86.745,295.262 91.081 C 294.864 92.069,293.352 103.610,292.599 111.400 C 292.450 112.940,292.087 115.280,291.793 116.600 C 291.498 117.920,291.141 120.260,290.997 121.800 C 290.854 123.340,290.398 126.760,289.984 129.400 C 289.569 132.040,289.045 136.049,288.818 138.309 C 288.132 145.161,287.288 147.200,285.140 147.200 C 282.658 147.200,282.462 145.067,283.781 132.400 C 284.699 123.590,285.175 118.079,285.440 113.200 C 285.578 110.670,285.944 107.353,286.255 105.830 C 286.565 104.306,287.005 100.526,287.232 97.430 C 287.460 94.333,287.681 91.368,287.723 90.840 C 287.765 90.313,287.586 89.806,287.324 89.715 C 286.654 89.482,285.350 94.192,284.810 98.800 C 284.565 100.890,284.115 103.590,283.811 104.800 C 283.506 106.010,283.140 108.080,282.996 109.400 C 282.853 110.720,282.478 113.359,282.162 115.264 C 281.587 118.734,281.322 120.732,279.408 136.000 C 278.273 145.062,278.000 146.089,276.554 146.748 C 272.921 148.404,271.191 145.924,272.205 140.514 C 272.552 138.662,273.004 135.224,273.209 132.874 C 273.415 130.523,273.941 125.810,274.380 122.400 C 276.204 108.203,277.813 90.502,277.421 88.940 C 277.109 87.699,275.689 87.671,275.413 88.900 C 274.614 92.448,273.473 98.794,272.792 103.470 C 272.349 106.511,271.721 110.260,271.397 111.800 C 268.989 123.239,265.672 141.828,264.616 149.800 C 264.267 152.440,263.809 155.320,263.600 156.200 C 262.200 162.080,263.640 167.997,267.460 172.064 C 273.021 177.985,273.754 187.962,269.586 201.000 C 263.611 219.689,255.904 236.415,252.815 237.395 C 251.489 237.816,250.549 237.018,239.400 226.009 C 233.460 220.144,222.570 209.513,215.200 202.385 C 178.839 167.217,181.381 170.312,186.673 167.652 C 210.189 155.831,226.859 123.641,221.852 99.719 C 215.664 70.158,185.070 50.938,152.600 56.214 M173.107 58.790 C 179.659 60.679,185.090 63.711,189.426 67.899 C 204.248 82.214,208.325 103.903,201.227 130.680 C 199.789 136.100,196.247 142.597,191.689 148.172 C 187.628 153.138,174.733 160.893,171.668 160.212 C 164.815 158.690,146.621 141.485,139.930 130.200 C 138.364 127.560,136.860 125.033,136.587 124.584 C 136.314 124.135,135.549 122.065,134.886 119.984 C 126.630 94.053,132.940 70.149,150.269 61.708 C 158.725 57.590,165.808 56.684,173.107 58.790 M347.438 85.242 C 347.857 85.705,348.113 86.110,348.007 86.142 C 347.901 86.174,348.126 86.645,348.507 87.189 C 348.888 87.733,349.200 87.947,349.200 87.665 C 349.200 87.371,349.413 87.273,349.700 87.435 C 349.975 87.590,349.488 86.971,348.619 86.059 C 347.010 84.371,346.047 83.705,347.438 85.242 M48.800 90.800 C 48.330 91.460,48.036 92.000,48.146 92.000 C 48.256 92.000,48.730 91.460,49.200 90.800 C 49.670 90.140,49.964 89.600,49.854 89.600 C 49.744 89.600,49.270 90.140,48.800 90.800 M34.457 113.257 C 34.175 113.709,34.032 114.166,34.140 114.273 C 34.247 114.381,34.544 114.078,34.800 113.600 C 35.405 112.470,35.124 112.190,34.457 113.257 M381.628 153.000 C 381.628 153.220,381.886 153.850,382.200 154.400 C 382.514 154.950,382.772 155.220,382.772 155.000 C 382.772 154.780,382.514 154.150,382.200 153.600 C 381.886 153.050,381.628 152.780,381.628 153.000 M14.893 172.000 C 14.893 172.770,14.975 173.085,15.076 172.700 C 15.176 172.315,15.176 171.685,15.076 171.300 C 14.975 170.915,14.893 171.230,14.893 172.000 M386.924 176.600 C 386.926 177.920,387.001 178.412,387.090 177.693 C 387.179 176.974,387.177 175.894,387.086 175.293 C 386.995 174.692,386.922 175.280,386.924 176.600 M126.155 194.091 C 128.990 197.011,133.670 202.004,136.555 205.188 C 139.440 208.371,145.490 214.862,150.000 219.612 C 154.510 224.363,160.257 230.488,162.770 233.225 C 165.284 235.961,171.830 242.970,177.316 248.800 C 187.773 259.911,191.302 263.699,199.025 272.100 C 201.604 274.905,203.863 277.200,204.046 277.200 C 204.229 277.200,205.868 278.596,207.689 280.302 C 209.510 282.008,211.765 284.003,212.701 284.736 C 216.012 287.330,215.547 288.803,210.123 292.897 C 190.335 307.834,176.394 310.143,152.000 302.521 C 129.243 295.411,110.802 274.995,105.463 251.000 C 103.610 242.671,103.505 241.742,103.309 231.939 C 103.088 220.877,103.336 218.839,105.838 211.200 C 107.917 204.852,113.440 194.754,116.784 191.184 C 119.995 187.757,120.008 187.761,126.155 194.091 M386.931 225.400 C 386.933 226.940,387.005 227.521,387.092 226.691 C 387.179 225.861,387.177 224.601,387.089 223.891 C 387.000 223.181,386.929 223.860,386.931 225.400 M378.840 260.600 C 378.796 261.278,378.723 261.308,378.363 260.800 C 378.030 260.330,377.975 260.436,378.111 261.288 C 378.206 261.886,378.143 262.288,377.970 262.181 C 377.463 261.868,377.070 262.830,377.521 263.281 C 378.037 263.797,379.330 261.455,379.071 260.473 C 378.929 259.937,378.882 259.962,378.840 260.600 M371.878 278.205 C 371.512 278.972,371.372 279.600,371.567 279.600 C 371.920 279.600,372.922 277.189,372.673 276.940 C 372.602 276.869,372.244 277.438,371.878 278.205 M33.614 287.471 C 33.649 288.273,34.772 289.806,34.786 289.071 C 34.794 288.671,34.530 288.073,34.200 287.743 C 33.870 287.413,33.606 287.291,33.614 287.471 M359.435 300.254 C 359.493 300.504,359.270 301.134,358.939 301.654 C 358.572 302.234,358.737 302.135,359.368 301.400 C 359.933 300.740,360.394 300.020,360.392 299.800 C 360.390 299.580,360.232 299.645,360.042 299.945 C 359.852 300.245,359.615 300.335,359.514 300.145 C 359.413 299.955,359.378 300.004,359.435 300.254 M43.866 304.733 C 43.940 305.026,44.000 305.341,44.000 305.433 C 44.000 305.525,44.191 305.600,44.424 305.600 C 44.657 305.600,44.745 305.435,44.621 305.234 C 44.497 305.033,44.531 304.792,44.698 304.700 C 44.864 304.607,44.787 304.582,44.526 304.643 C 44.265 304.705,43.980 304.630,43.891 304.478 C 43.803 304.325,43.792 304.440,43.866 304.733 M355.461 306.667 C 355.054 307.210,354.805 307.738,354.907 307.840 C 355.008 307.942,355.400 307.554,355.778 306.978 C 356.667 305.621,356.422 305.381,355.461 306.667 M347.983 316.900 C 347.240 317.835,346.948 318.346,347.335 318.036 C 348.063 317.451,349.777 315.200,349.494 315.200 C 349.406 315.200,348.726 315.965,347.983 316.900 M59.400 324.800 C 60.259 325.680,61.052 326.400,61.162 326.400 C 61.272 326.400,60.659 325.680,59.800 324.800 C 58.941 323.920,58.148 323.200,58.038 323.200 C 57.928 323.200,58.541 323.920,59.400 324.800 M337.100 328.300 C 336.715 328.387,336.400 328.730,336.400 329.061 C 336.400 329.392,334.690 331.368,332.600 333.451 C 329.639 336.402,328.800 337.050,328.800 336.386 C 328.800 335.873,328.601 335.606,328.300 335.717 C 328.025 335.818,327.864 336.148,327.942 336.450 C 328.282 337.764,328.260 338.218,327.843 338.494 C 327.547 338.690,327.586 338.790,327.961 338.794 C 328.545 338.800,337.387 330.312,338.034 329.124 C 338.452 328.357,338.123 328.067,337.100 328.300 M106.781 363.498 C 108.009 364.580,108.862 364.713,107.770 363.652 C 107.346 363.240,106.927 362.968,106.837 363.048 C 106.747 363.128,106.469 363.060,106.218 362.897 C 105.967 362.733,106.221 363.004,106.781 363.498 M290.974 364.758 C 291.257 365.216,290.065 365.687,289.502 365.339 C 289.251 365.184,289.194 365.266,289.362 365.538 C 289.519 365.792,289.427 366.000,289.157 366.000 C 288.887 366.000,288.770 366.103,288.896 366.229 C 289.261 366.595,291.652 365.208,291.389 364.783 C 291.259 364.572,291.063 364.400,290.953 364.400 C 290.843 364.400,290.852 364.561,290.974 364.758 M123.060 371.387 C 122.721 372.270,123.586 372.585,124.324 371.847 C 124.743 371.428,124.800 371.200,124.486 371.200 C 124.219 371.200,124.000 371.380,124.000 371.600 C 124.000 371.820,123.826 372.000,123.613 372.000 C 123.399 372.000,123.329 371.730,123.455 371.400 C 123.582 371.070,123.596 370.800,123.486 370.800 C 123.376 370.800,123.184 371.064,123.060 371.387 M138.601 377.598 C 138.233 378.194,140.316 379.044,140.846 378.514 C 141.144 378.216,141.141 378.011,140.835 377.822 C 140.596 377.674,140.400 377.743,140.400 377.976 C 140.400 378.209,140.209 378.400,139.976 378.400 C 139.743 378.400,139.663 378.222,139.797 378.005 C 139.942 377.770,139.763 377.716,139.355 377.873 C 138.889 378.051,138.762 377.985,138.958 377.668 C 139.117 377.411,139.157 377.200,139.047 377.200 C 138.937 377.200,138.736 377.379,138.601 377.598 M152.904 381.427 C 152.273 382.102,154.618 383.142,155.280 382.480 C 155.594 382.166,155.483 382.105,154.885 382.262 C 154.216 382.437,154.094 382.329,154.256 381.706 C 154.487 380.823,153.632 380.647,152.904 381.427 M188.100 388.294 C 189.145 388.376,190.855 388.376,191.900 388.294 C 192.945 388.212,192.090 388.144,190.000 388.144 C 187.910 388.144,187.055 388.212,188.100 388.294 M209.100 388.289 C 209.815 388.378,210.985 388.378,211.700 388.289 C 212.415 388.201,211.830 388.128,210.400 388.128 C 208.970 388.128,208.385 388.201,209.100 388.289 " stroke="none" fill="#f8faf8" fill-rule="evenodd"></path><path id="path1" d="M193.800 13.983 C 193.140 14.160,190.946 14.327,188.924 14.353 C 186.772 14.380,185.136 14.579,184.980 14.832 C 184.801 15.122,183.636 15.175,181.456 14.994 C 178.725 14.767,177.799 14.858,175.713 15.562 C 174.345 16.023,172.320 16.400,171.213 16.400 C 170.106 16.400,169.199 16.535,169.199 16.700 C 169.198 16.865,168.306 17.001,167.216 17.003 C 166.123 17.004,165.003 17.239,164.717 17.526 C 164.293 17.954,164.344 18.002,165.000 17.793 C 165.723 17.564,165.732 17.583,165.097 17.991 C 164.710 18.240,164.215 18.333,163.997 18.198 C 163.779 18.063,163.600 18.127,163.600 18.339 C 163.600 18.551,163.245 18.632,162.812 18.519 C 161.488 18.173,153.999 19.212,151.924 20.030 C 150.850 20.453,149.606 20.800,149.162 20.800 C 148.717 20.800,148.436 20.935,148.538 21.100 C 148.640 21.265,148.246 21.425,147.662 21.454 C 146.203 21.529,142.342 23.009,142.692 23.358 C 142.848 23.515,142.687 23.531,142.333 23.396 C 141.980 23.260,140.998 23.521,140.152 23.975 C 139.305 24.429,138.231 24.800,137.766 24.800 C 136.543 24.800,134.367 25.622,134.598 25.997 C 134.882 26.456,133.720 26.821,132.934 26.519 C 132.490 26.349,132.364 26.418,132.555 26.727 C 132.741 27.027,132.629 27.109,132.237 26.959 C 131.374 26.628,128.734 27.570,129.058 28.094 C 129.204 28.330,129.141 28.411,128.918 28.273 C 128.237 27.852,126.373 28.929,126.624 29.600 C 126.803 30.081,126.747 30.101,126.344 29.700 C 125.595 28.956,125.015 29.095,125.651 29.865 C 126.143 30.462,126.116 30.486,125.394 30.102 C 124.545 29.650,122.918 30.385,123.494 30.961 C 123.649 31.116,123.468 31.124,123.093 30.980 C 122.684 30.823,121.698 31.135,120.634 31.759 C 119.657 32.332,118.564 32.800,118.205 32.800 C 117.814 32.800,117.667 32.985,117.838 33.262 C 118.016 33.549,117.948 33.615,117.658 33.436 C 117.080 33.079,115.514 33.538,115.790 33.984 C 115.901 34.163,115.678 34.285,115.296 34.255 C 114.911 34.225,114.649 34.437,114.710 34.730 C 114.770 35.021,114.635 35.145,114.409 35.005 C 113.886 34.682,109.952 36.799,110.233 37.253 C 110.347 37.439,110.202 37.499,109.909 37.387 C 109.617 37.274,109.022 37.470,108.589 37.821 C 108.155 38.172,108.053 38.328,108.362 38.168 C 108.734 37.975,108.826 38.034,108.634 38.345 C 108.475 38.602,108.190 38.718,108.002 38.601 C 107.574 38.336,103.117 40.983,103.442 41.309 C 103.572 41.439,103.322 41.452,102.885 41.338 C 102.448 41.224,101.971 41.324,101.824 41.561 C 101.654 41.837,101.817 41.898,102.279 41.732 C 102.676 41.589,102.865 41.621,102.700 41.803 C 102.535 41.985,102.039 42.160,101.598 42.193 C 101.157 42.225,100.514 42.600,100.169 43.026 C 99.823 43.452,99.666 43.557,99.819 43.260 C 100.167 42.583,98.609 43.339,98.160 44.064 C 97.970 44.372,98.061 44.416,98.438 44.198 C 98.771 44.005,98.864 44.020,98.667 44.236 C 98.483 44.436,98.213 44.606,98.067 44.614 C 97.356 44.652,96.006 45.686,96.219 46.030 C 96.351 46.244,96.311 46.373,96.130 46.315 C 95.487 46.110,93.214 47.299,93.467 47.708 C 93.612 47.943,93.531 48.004,93.281 47.850 C 92.710 47.497,87.550 51.195,87.877 51.724 C 88.019 51.955,87.921 51.998,87.644 51.827 C 87.046 51.457,85.917 52.342,86.266 52.907 C 86.408 53.136,86.352 53.217,86.142 53.088 C 85.932 52.958,85.032 53.425,84.142 54.126 C 83.251 54.827,81.959 55.829,81.270 56.353 C 80.582 56.877,80.132 57.490,80.271 57.715 C 80.424 57.963,80.323 58.000,80.013 57.808 C 79.511 57.498,75.368 61.445,75.522 62.086 C 75.559 62.243,75.367 62.286,75.095 62.181 C 74.464 61.939,69.391 66.492,68.712 67.910 C 68.430 68.497,68.020 68.950,67.800 68.917 C 67.174 68.823,65.990 70.061,66.271 70.515 C 66.410 70.740,66.331 70.804,66.095 70.658 C 65.853 70.509,64.069 72.235,62.022 74.597 C 60.017 76.908,58.495 78.800,58.638 78.800 C 58.781 78.800,58.676 79.068,58.404 79.396 C 58.132 79.723,57.774 79.907,57.608 79.805 C 57.096 79.489,55.898 81.109,56.225 81.675 C 56.392 81.964,56.391 82.076,56.223 81.925 C 55.838 81.580,51.166 86.952,51.027 87.900 C 50.970 88.285,50.693 88.600,50.411 88.600 C 50.128 88.600,49.608 89.050,49.253 89.600 C 48.629 90.570,48.633 90.582,49.389 90.000 C 50.058 89.485,50.039 89.585,49.257 90.700 C 48.408 91.911,47.481 92.628,48.251 91.479 C 48.443 91.192,48.369 91.237,48.086 91.579 C 46.946 92.955,43.883 97.831,43.875 98.282 C 43.870 98.548,43.734 98.683,43.571 98.582 C 43.231 98.372,40.800 101.902,40.800 102.607 C 40.800 102.865,40.459 103.385,40.041 103.763 C 39.624 104.140,39.083 105.242,38.839 106.212 C 38.573 107.268,38.063 108.152,37.566 108.418 C 37.075 108.681,36.830 109.101,36.964 109.451 C 37.090 109.778,37.017 109.934,36.802 109.801 C 36.264 109.469,34.810 111.962,35.101 112.718 C 35.243 113.090,35.169 113.228,34.913 113.070 C 34.673 112.921,34.514 113.109,34.545 113.504 C 34.575 113.887,34.388 114.159,34.128 114.109 C 33.868 114.059,33.435 114.689,33.165 115.507 C 32.894 116.326,32.247 117.799,31.725 118.779 C 31.204 119.760,30.882 120.836,31.010 121.169 C 31.138 121.503,31.114 121.647,30.957 121.490 C 30.531 121.064,29.508 122.722,29.841 123.301 C 29.999 123.575,29.977 123.662,29.791 123.494 C 29.194 122.951,26.433 129.370,26.275 131.671 C 26.249 132.039,26.057 132.235,25.846 132.105 C 25.626 131.969,25.576 132.160,25.727 132.555 C 25.872 132.933,25.841 133.149,25.657 133.035 C 25.329 132.833,23.807 137.325,23.875 138.296 C 23.894 138.568,23.755 138.696,23.567 138.579 C 23.102 138.292,22.648 140.222,23.026 140.877 C 23.192 141.165,23.184 141.270,23.008 141.111 C 22.569 140.714,21.096 143.552,21.370 144.266 C 21.493 144.586,21.415 144.733,21.195 144.597 C 20.976 144.462,20.800 144.786,20.800 145.326 C 20.800 145.861,20.429 147.136,19.976 148.160 C 19.488 149.264,19.255 150.384,19.403 150.911 C 19.577 151.531,19.539 151.636,19.277 151.258 C 19.024 150.894,18.807 151.976,18.613 154.559 C 18.455 156.672,18.170 158.305,17.981 158.188 C 17.538 157.914,16.677 161.087,16.931 162.059 C 17.038 162.466,16.962 162.800,16.763 162.800 C 16.563 162.800,16.400 163.482,16.400 164.315 C 16.400 165.149,16.034 166.544,15.587 167.415 C 14.944 168.670,14.827 169.427,15.028 171.052 C 15.190 172.373,15.123 173.200,14.840 173.375 C 14.598 173.525,14.400 174.155,14.400 174.775 C 14.400 175.395,14.113 176.590,13.762 177.430 C 13.339 178.442,13.206 179.506,13.367 180.579 C 13.549 181.783,13.502 182.046,13.186 181.600 C 12.882 181.170,12.795 183.241,12.880 188.900 C 12.946 193.245,12.865 196.800,12.700 196.800 C 12.322 196.800,12.301 204.968,12.678 205.344 C 12.830 205.497,12.912 208.992,12.858 213.111 C 12.804 217.230,12.928 221.410,13.132 222.400 C 13.773 225.504,14.480 228.173,14.859 228.914 C 15.060 229.306,15.113 230.476,14.977 231.514 C 14.796 232.895,14.945 233.989,15.534 235.600 C 15.976 236.810,16.457 238.790,16.603 240.000 C 16.748 241.210,17.194 242.920,17.593 243.800 C 17.991 244.680,18.430 246.390,18.568 247.600 C 19.130 252.551,19.292 253.296,19.684 252.740 C 19.944 252.371,19.986 252.559,19.816 253.334 C 19.671 253.997,19.723 254.371,19.942 254.236 C 20.148 254.109,20.423 254.283,20.554 254.623 C 20.713 255.038,20.627 255.149,20.295 254.962 C 19.909 254.744,19.910 254.801,20.300 255.221 C 20.575 255.518,20.800 256.275,20.800 256.904 C 20.800 257.555,20.970 257.942,21.195 257.803 C 21.416 257.666,21.492 257.815,21.368 258.140 C 21.245 258.461,21.495 259.415,21.923 260.261 C 22.352 261.108,22.834 262.430,22.994 263.200 C 23.155 263.970,23.627 265.161,24.043 265.847 C 24.459 266.533,24.800 267.399,24.800 267.771 C 24.800 268.143,24.978 268.337,25.195 268.203 C 25.416 268.066,25.492 268.215,25.368 268.540 C 25.245 268.860,25.517 269.940,25.972 270.939 C 26.427 271.938,26.800 272.992,26.800 273.281 C 26.800 273.570,27.227 274.615,27.748 275.603 C 28.270 276.591,28.835 277.850,29.003 278.400 C 29.378 279.620,30.609 281.257,30.920 280.947 C 31.044 280.823,31.059 281.054,30.954 281.460 C 30.848 281.867,31.054 282.560,31.411 283.000 C 31.767 283.440,31.953 283.587,31.823 283.328 C 31.693 283.068,31.759 282.749,31.968 282.619 C 32.187 282.485,32.274 282.804,32.172 283.366 C 32.074 283.907,32.175 284.461,32.397 284.598 C 32.619 284.735,32.800 285.207,32.800 285.647 C 32.800 286.156,32.970 286.342,33.268 286.158 C 33.583 285.964,33.652 286.087,33.481 286.534 C 33.340 286.901,33.418 287.200,33.655 287.200 C 33.892 287.200,33.986 287.461,33.863 287.780 C 33.715 288.167,33.833 288.285,34.220 288.137 C 34.651 287.971,34.800 288.239,34.800 289.181 C 34.800 289.877,34.960 290.349,35.155 290.228 C 35.350 290.107,35.485 290.322,35.455 290.704 C 35.425 291.087,35.595 291.365,35.833 291.322 C 36.072 291.279,36.275 291.459,36.284 291.722 C 36.310 292.441,37.855 295.567,39.189 297.600 C 39.839 298.590,40.648 299.940,40.988 300.600 C 42.003 302.570,43.477 304.388,43.813 304.084 C 43.986 303.928,44.005 304.140,43.855 304.557 C 43.621 305.203,43.672 305.238,44.201 304.800 C 44.541 304.517,44.935 304.402,45.076 304.543 C 45.218 304.684,45.134 304.800,44.890 304.800 C 44.256 304.800,44.656 306.440,45.470 307.178 C 46.109 307.757,46.116 307.744,45.578 307.000 C 45.047 306.265,45.056 306.244,45.687 306.738 C 46.065 307.034,46.339 307.394,46.295 307.538 C 46.163 307.979,47.728 310.368,48.028 310.183 C 48.183 310.087,48.285 310.322,48.255 310.704 C 48.225 311.087,48.404 311.362,48.653 311.316 C 48.902 311.269,49.082 311.539,49.053 311.916 C 49.024 312.292,49.219 312.557,49.486 312.505 C 49.753 312.452,49.888 312.632,49.786 312.905 C 49.535 313.573,52.755 317.275,53.295 316.941 C 53.532 316.795,53.608 316.863,53.466 317.093 C 53.325 317.322,53.490 317.743,53.834 318.028 C 54.177 318.313,54.786 319.189,55.187 319.973 C 55.587 320.758,56.969 322.492,58.258 323.827 C 59.546 325.161,59.970 325.521,59.200 324.627 L 57.800 323.000 59.483 324.565 C 60.409 325.426,61.068 326.290,60.947 326.486 C 60.647 326.971,73.037 339.348,73.522 339.048 C 73.735 338.916,74.155 339.122,74.455 339.504 C 74.957 340.145,74.937 340.155,74.200 339.626 C 73.760 339.310,74.480 340.162,75.800 341.519 C 77.120 342.876,78.423 343.905,78.695 343.807 C 78.968 343.709,79.148 343.785,79.095 343.975 C 78.950 344.505,81.995 346.451,82.489 346.145 C 82.728 345.997,82.810 346.060,82.671 346.285 C 82.439 346.660,83.882 348.328,84.242 348.100 C 84.329 348.045,84.413 348.135,84.429 348.300 C 84.492 348.964,85.784 350.015,86.296 349.819 C 86.596 349.703,86.745 349.765,86.627 349.956 C 86.398 350.327,91.147 353.468,91.682 353.300 C 91.857 353.245,91.955 353.351,91.900 353.536 C 91.750 354.039,94.325 356.094,94.764 355.822 C 94.973 355.693,95.275 355.798,95.434 356.055 C 95.615 356.348,95.550 356.416,95.262 356.238 C 95.008 356.081,94.800 356.037,94.800 356.141 C 94.800 356.546,100.050 359.617,100.386 359.408 C 100.583 359.287,100.875 359.398,101.034 359.655 C 101.226 359.966,101.134 360.025,100.762 359.832 C 100.453 359.672,100.555 359.828,100.989 360.179 C 101.422 360.530,102.047 360.714,102.376 360.588 C 102.706 360.461,102.847 360.486,102.690 360.643 C 102.316 361.017,103.890 362.115,104.373 361.817 C 104.577 361.690,104.875 361.798,105.034 362.055 C 105.215 362.348,105.150 362.416,104.862 362.238 C 104.608 362.081,104.400 362.047,104.400 362.162 C 104.400 362.278,104.782 362.576,105.248 362.826 C 105.935 363.194,106.035 363.177,105.771 362.740 C 105.507 362.301,105.562 362.293,106.060 362.697 C 106.397 362.970,106.821 363.060,107.001 362.897 C 107.180 362.733,107.217 362.909,107.081 363.287 C 106.946 363.665,107.035 364.098,107.279 364.249 C 107.564 364.425,107.610 364.339,107.406 364.010 C 107.193 363.665,107.272 363.563,107.644 363.698 C 107.950 363.809,108.149 364.119,108.087 364.388 C 108.026 364.656,108.194 364.802,108.462 364.713 C 108.731 364.623,109.290 364.890,109.706 365.306 C 110.122 365.722,110.727 365.960,111.052 365.836 C 111.430 365.690,111.539 365.775,111.355 366.073 C 111.162 366.385,111.293 366.450,111.755 366.273 C 112.133 366.127,112.340 366.174,112.215 366.376 C 112.090 366.577,112.396 366.865,112.894 367.016 C 113.392 367.166,115.368 368.178,117.284 369.266 C 119.201 370.353,121.036 371.188,121.362 371.121 C 121.688 371.055,122.203 371.335,122.505 371.744 C 123.010 372.429,123.106 372.437,123.698 371.844 C 124.655 370.888,125.046 371.063,124.162 372.053 C 123.405 372.901,123.406 372.904,124.350 372.610 C 125.064 372.388,125.222 372.440,124.988 372.820 C 124.760 373.189,124.909 373.265,125.538 373.100 C 126.091 372.956,126.307 373.028,126.138 373.300 C 125.969 373.573,126.185 373.645,126.738 373.500 C 127.297 373.354,127.507 373.427,127.335 373.705 C 127.165 373.980,127.317 374.041,127.755 373.873 C 128.133 373.727,128.340 373.774,128.215 373.976 C 127.921 374.451,129.451 374.939,130.058 374.564 C 130.330 374.396,130.416 374.450,130.265 374.694 C 130.113 374.941,130.585 375.221,131.415 375.376 C 132.189 375.522,133.427 375.997,134.166 376.433 C 134.904 376.869,136.067 377.264,136.749 377.313 C 137.431 377.361,138.079 377.633,138.189 377.917 C 138.347 378.329,138.574 378.336,139.294 377.952 C 140.120 377.512,140.151 377.528,139.643 378.144 C 139.158 378.733,139.170 378.786,139.743 378.566 C 140.105 378.428,140.400 378.143,140.400 377.934 C 140.400 377.724,140.607 377.681,140.861 377.837 C 141.179 378.034,141.087 378.303,140.561 378.707 C 139.844 379.258,139.863 379.281,140.888 379.104 C 141.486 379.000,141.894 379.048,141.794 379.210 C 141.469 379.735,146.932 381.228,149.496 381.315 C 150.869 381.362,151.994 381.529,151.996 381.687 C 151.998 381.846,152.300 381.860,152.666 381.719 C 153.149 381.534,153.242 381.609,153.004 381.994 C 152.791 382.339,152.831 382.428,153.121 382.249 C 153.365 382.098,153.475 381.740,153.365 381.454 C 153.255 381.165,153.440 380.933,153.783 380.933 C 154.527 380.933,154.587 381.651,153.900 382.345 C 153.498 382.752,153.626 382.765,154.560 382.412 C 155.627 382.009,155.674 382.029,155.160 382.655 C 154.648 383.277,154.711 383.313,155.900 383.077 C 156.654 382.928,157.200 382.984,157.200 383.210 C 157.200 383.425,157.747 383.600,158.416 383.600 C 159.085 383.600,160.374 383.979,161.282 384.442 C 162.414 385.019,163.353 385.215,164.275 385.065 C 165.066 384.937,165.522 385.002,165.385 385.224 C 165.254 385.435,165.871 385.600,166.796 385.600 C 167.700 385.600,169.016 385.909,169.720 386.286 C 170.713 386.818,172.043 386.975,175.659 386.986 C 178.222 386.994,180.252 387.110,180.170 387.245 C 179.901 387.686,184.102 388.109,188.800 388.115 C 193.278 388.120,193.315 388.127,190.200 388.386 C 188.316 388.542,192.510 388.679,200.400 388.719 C 210.921 388.772,214.402 388.659,216.600 388.193 C 218.140 387.867,219.815 387.600,220.323 387.600 C 220.832 387.600,221.163 387.465,221.061 387.300 C 220.958 387.135,222.538 387.057,224.573 387.126 C 227.495 387.225,228.786 387.079,230.723 386.426 C 232.071 385.972,233.720 385.600,234.387 385.600 C 235.054 385.600,235.600 385.431,235.600 385.225 C 235.600 385.019,236.205 384.948,236.944 385.068 C 237.822 385.211,238.907 385.013,240.070 384.499 C 241.050 384.065,242.877 383.583,244.131 383.426 C 245.608 383.241,246.317 382.989,246.144 382.709 C 245.984 382.450,246.063 382.392,246.342 382.564 C 247.002 382.972,248.468 382.433,248.140 381.903 C 247.966 381.621,248.107 381.555,248.534 381.719 C 248.900 381.860,249.200 381.790,249.200 381.564 C 249.200 381.338,249.368 381.256,249.573 381.383 C 250.089 381.702,254.422 381.160,254.202 380.804 C 254.104 380.645,254.496 380.606,255.072 380.716 C 255.788 380.853,256.030 380.773,255.839 380.463 C 255.662 380.177,255.775 380.092,256.143 380.234 C 256.465 380.357,257.275 380.175,257.944 379.829 C 258.613 379.483,259.462 379.200,259.830 379.200 C 260.500 379.200,263.989 377.823,267.000 376.370 C 267.880 375.945,268.836 375.598,269.124 375.599 C 269.412 375.600,269.552 375.446,269.436 375.258 C 269.319 375.070,269.696 375.006,270.272 375.116 C 270.988 375.253,271.230 375.173,271.039 374.863 C 270.863 374.579,270.974 374.492,271.334 374.630 C 271.650 374.751,272.602 374.479,273.448 374.025 C 274.295 373.571,275.148 373.200,275.344 373.200 C 276.163 373.200,280.367 371.070,280.171 370.754 C 280.054 370.564,280.267 370.528,280.645 370.673 C 281.077 370.838,281.234 370.779,281.070 370.513 C 280.921 370.273,281.109 370.114,281.504 370.145 C 281.889 370.175,282.151 369.963,282.090 369.670 C 282.030 369.379,282.157 369.250,282.372 369.383 C 282.790 369.641,285.600 368.608,285.600 368.197 C 285.600 368.063,285.392 368.081,285.138 368.238 C 284.859 368.411,284.785 368.348,284.951 368.079 C 285.102 367.835,285.519 367.748,285.878 367.885 C 286.350 368.066,286.440 367.989,286.204 367.606 C 285.999 367.275,286.032 367.173,286.292 367.333 C 286.912 367.716,289.246 366.797,288.934 366.293 C 288.763 366.016,288.924 365.962,289.391 366.141 C 290.028 366.386,290.048 366.339,289.557 365.744 C 289.047 365.126,289.080 365.111,289.948 365.574 C 290.681 365.965,290.827 365.968,290.593 365.588 C 290.395 365.268,290.483 365.165,290.844 365.293 C 291.641 365.576,293.683 364.458,293.351 363.921 C 293.198 363.672,293.256 363.588,293.485 363.729 C 294.006 364.051,303.032 358.607,302.905 358.047 C 302.851 357.812,303.099 357.740,303.470 357.882 C 303.949 358.066,304.041 357.990,303.804 357.606 C 303.600 357.277,303.632 357.173,303.887 357.330 C 304.387 357.639,310.888 353.021,310.499 352.633 C 310.348 352.481,310.489 352.457,310.812 352.579 C 311.135 352.701,311.859 352.396,312.419 351.900 C 312.979 351.405,313.159 351.171,312.819 351.381 C 312.301 351.699,312.284 351.667,312.715 351.185 C 312.999 350.869,313.539 350.607,313.915 350.605 C 314.292 350.602,314.551 350.362,314.490 350.070 C 314.428 349.773,314.573 349.660,314.820 349.812 C 315.390 350.165,317.253 348.420,316.924 347.842 C 316.785 347.599,316.814 347.529,316.988 347.686 C 317.457 348.109,318.868 347.234,318.549 346.718 C 318.390 346.460,318.459 346.389,318.714 346.547 C 319.251 346.878,322.088 344.466,321.769 343.950 C 321.643 343.747,321.704 343.630,321.904 343.690 C 322.487 343.866,327.991 339.109,327.717 338.666 C 327.572 338.431,327.729 338.364,328.095 338.504 C 328.801 338.775,328.801 338.234,328.095 336.953 C 327.641 336.129,327.787 335.600,328.467 335.600 C 328.650 335.600,328.800 335.969,328.800 336.419 C 328.800 337.037,329.736 336.306,332.600 333.451 C 334.690 331.368,336.400 329.400,336.400 329.078 C 336.400 328.369,337.894 327.904,338.261 328.499 C 338.427 328.767,338.330 328.804,338.000 328.600 C 337.636 328.375,337.572 328.432,337.791 328.785 C 338.018 329.153,338.398 328.921,339.153 327.956 C 339.729 327.220,341.051 325.646,342.091 324.457 C 343.132 323.268,343.898 322.159,343.796 321.993 C 343.693 321.827,343.877 321.468,344.204 321.196 C 344.532 320.924,344.800 320.842,344.800 321.013 C 344.800 321.184,345.156 321.002,345.591 320.609 C 346.025 320.215,346.282 319.733,346.161 319.537 C 346.040 319.341,346.179 319.230,346.470 319.290 C 346.762 319.351,347.002 319.089,347.004 318.710 C 347.007 318.330,347.361 317.700,347.791 317.310 C 348.559 316.613,348.559 316.618,347.787 317.600 L 347.000 318.600 347.873 317.862 C 348.353 317.457,348.660 316.901,348.555 316.627 C 348.450 316.352,348.687 315.874,349.082 315.564 C 349.751 315.038,349.760 315.054,349.207 315.800 C 348.618 316.595,348.620 316.595,349.521 315.825 C 350.020 315.399,350.334 314.805,350.219 314.504 C 350.103 314.204,350.151 314.046,350.325 314.153 C 350.498 314.261,350.869 313.981,351.149 313.532 C 351.568 312.862,351.564 312.767,351.130 313.002 C 350.838 313.159,351.064 312.863,351.632 312.344 C 353.047 311.050,354.800 308.577,354.800 307.876 C 354.800 307.558,355.105 307.051,355.477 306.749 C 356.053 306.281,356.103 306.283,355.815 306.762 C 355.590 307.135,355.626 307.231,355.921 307.049 C 356.165 306.898,356.252 306.481,356.115 306.122 C 355.951 305.697,356.021 305.566,356.315 305.747 C 356.579 305.911,357.011 305.553,357.357 304.884 C 357.681 304.256,358.229 303.508,358.574 303.222 C 359.275 302.639,359.439 301.805,358.770 302.218 C 358.533 302.365,358.569 302.119,358.850 301.668 C 359.130 301.220,359.548 300.886,359.780 300.927 C 360.011 300.967,360.138 300.640,360.062 300.200 C 359.986 299.760,360.058 299.532,360.221 299.692 C 360.385 299.853,361.226 298.773,362.090 297.292 C 362.954 295.812,363.935 294.296,364.270 293.925 C 364.605 293.554,364.743 293.031,364.577 292.763 C 364.396 292.470,364.443 292.380,364.696 292.536 C 365.162 292.824,365.725 291.726,365.390 291.184 C 365.273 290.995,365.560 290.636,366.026 290.386 C 366.588 290.085,366.807 289.672,366.675 289.165 C 366.565 288.744,366.619 288.488,366.795 288.597 C 366.971 288.705,367.238 288.301,367.388 287.697 C 367.539 287.094,367.891 286.330,368.170 286.000 C 369.188 284.797,371.174 280.682,370.929 280.285 C 370.779 280.043,370.876 279.999,371.165 280.178 C 371.468 280.365,371.613 280.275,371.548 279.940 C 371.343 278.887,372.049 277.438,372.470 278.047 C 372.742 278.440,372.779 278.340,372.599 277.700 C 372.450 277.171,372.522 276.800,372.773 276.800 C 373.008 276.800,373.200 276.535,373.200 276.212 C 373.200 275.888,373.654 274.631,374.209 273.419 C 374.763 272.206,375.333 270.625,375.475 269.907 C 375.617 269.188,376.088 268.118,376.521 267.529 C 376.954 266.940,377.199 266.175,377.066 265.829 C 376.934 265.483,376.954 265.199,377.113 265.197 C 377.665 265.191,378.353 263.218,377.900 262.938 C 377.631 262.772,377.593 262.881,377.797 263.238 C 378.046 263.674,378.005 263.696,377.614 263.335 C 376.848 262.628,377.504 261.835,378.336 262.461 C 378.896 262.883,378.922 262.874,378.500 262.401 C 378.225 262.092,378.003 261.471,378.006 261.020 C 378.011 260.344,378.080 260.305,378.400 260.800 C 378.731 261.313,378.789 261.298,378.794 260.700 C 378.797 260.315,378.959 260.000,379.153 260.000 C 379.348 260.000,379.616 259.685,379.749 259.300 C 380.856 256.102,381.212 254.680,381.430 252.600 C 381.568 251.280,382.040 249.431,382.480 248.492 C 382.920 247.552,383.174 246.508,383.044 246.171 C 382.910 245.822,382.979 245.663,383.205 245.803 C 383.441 245.949,383.600 245.366,383.600 244.350 C 383.600 243.416,383.977 241.873,384.438 240.921 C 384.900 239.968,385.364 238.066,385.470 236.694 C 385.577 235.322,386.006 233.365,386.424 232.344 C 387.046 230.825,387.154 229.773,387.015 226.544 C 386.904 223.932,386.955 223.140,387.167 224.200 C 387.478 225.757,387.488 225.735,387.557 223.400 C 387.597 222.080,387.889 219.920,388.208 218.600 C 389.038 215.164,389.031 187.779,388.200 184.000 C 387.885 182.570,387.600 180.320,387.567 179.000 C 387.514 176.954,387.455 176.777,387.166 177.800 C 386.940 178.600,386.886 177.887,387.004 175.663 C 387.143 173.031,387.014 171.850,386.390 170.076 C 385.956 168.840,385.600 167.046,385.600 166.090 C 385.600 165.135,385.437 164.454,385.237 164.577 C 385.038 164.700,384.967 164.447,385.080 164.015 C 385.193 163.583,384.906 162.446,384.443 161.488 C 383.979 160.531,383.600 159.084,383.600 158.274 C 383.600 157.463,383.445 156.800,383.255 156.800 C 383.066 156.800,383.002 156.323,383.113 155.741 C 383.246 155.047,383.168 154.773,382.887 154.946 C 382.505 155.182,381.879 154.081,381.780 153.000 C 381.356 148.365,381.063 146.766,380.728 147.250 C 380.458 147.640,380.420 147.542,380.597 146.910 C 380.735 146.421,380.577 145.431,380.247 144.710 C 379.917 143.990,379.439 142.595,379.184 141.612 C 378.930 140.628,378.469 139.463,378.161 139.023 C 377.852 138.582,377.600 137.891,377.600 137.487 C 377.600 137.083,377.422 136.863,377.205 136.997 C 376.978 137.137,376.911 136.977,377.046 136.624 C 377.176 136.285,376.904 135.365,376.442 134.581 C 375.979 133.796,375.600 132.884,375.600 132.554 C 375.600 132.223,375.437 132.054,375.237 132.177 C 375.038 132.300,374.966 132.052,375.078 131.625 C 375.189 131.198,374.918 130.073,374.475 129.124 C 374.032 128.176,373.110 126.140,372.426 124.600 C 371.742 123.060,370.919 121.350,370.597 120.800 C 370.276 120.250,369.626 118.945,369.153 117.900 C 368.680 116.855,368.137 116.000,367.947 116.000 C 367.756 116.000,367.600 115.774,367.600 115.498 C 367.600 114.624,364.397 108.354,364.058 108.564 C 363.879 108.675,363.733 108.534,363.733 108.251 C 363.733 107.969,363.163 106.909,362.467 105.897 C 361.770 104.884,361.200 103.898,361.200 103.706 C 361.200 103.069,359.328 100.805,359.040 101.093 C 358.885 101.249,358.871 101.080,359.010 100.719 C 359.318 99.916,358.510 98.285,357.970 98.619 C 357.756 98.751,357.630 98.621,357.690 98.330 C 357.751 98.038,357.562 97.849,357.270 97.910 C 356.979 97.970,356.851 97.841,356.986 97.623 C 357.121 97.405,356.417 96.227,355.421 95.005 C 354.426 93.783,353.332 92.242,352.989 91.579 C 352.646 90.916,352.189 90.483,351.973 90.617 C 351.757 90.750,351.613 90.711,351.654 90.530 C 351.788 89.927,351.122 88.801,350.763 89.023 C 350.568 89.143,350.511 88.976,350.636 88.651 C 350.775 88.288,349.981 87.087,348.572 85.530 C 345.873 82.548,345.226 81.907,346.019 83.000 C 346.553 83.735,346.545 83.757,345.913 83.262 C 345.535 82.966,345.241 82.606,345.260 82.462 C 345.364 81.678,345.152 81.183,344.805 81.397 C 344.587 81.532,344.502 81.399,344.616 81.102 C 344.730 80.805,344.368 80.134,343.812 79.611 C 343.255 79.088,342.800 78.804,342.800 78.979 C 342.800 79.155,342.532 79.076,342.204 78.804 C 341.877 78.532,341.687 78.184,341.781 78.030 C 342.009 77.662,336.423 71.800,335.846 71.800 C 335.601 71.800,335.378 71.575,335.350 71.300 C 335.322 71.025,335.278 70.620,335.250 70.400 C 335.223 70.180,335.009 70.000,334.776 70.000 C 334.543 70.000,334.482 70.225,334.641 70.500 C 334.808 70.790,334.776 70.860,334.564 70.667 C 334.364 70.483,334.196 70.213,334.190 70.067 C 334.173 69.599,329.491 64.996,329.139 65.100 C 328.952 65.155,328.845 65.045,328.900 64.856 C 329.040 64.375,325.106 60.811,324.707 61.057 C 324.527 61.169,324.430 61.079,324.490 60.859 C 324.657 60.250,319.874 55.967,319.279 56.193 C 318.993 56.302,318.869 56.212,319.005 55.993 C 319.140 55.774,318.924 55.472,318.525 55.323 C 318.126 55.174,317.020 54.410,316.066 53.626 C 315.112 52.842,314.167 52.245,313.966 52.300 C 313.765 52.355,313.645 52.249,313.700 52.064 C 313.846 51.574,311.281 49.503,310.854 49.767 C 310.654 49.890,310.245 49.678,309.945 49.296 C 309.441 48.652,309.460 48.645,310.200 49.193 C 310.995 49.782,310.995 49.780,310.225 48.879 C 309.799 48.380,309.205 48.066,308.904 48.181 C 308.604 48.297,308.469 48.213,308.603 47.995 C 308.853 47.591,307.091 46.662,306.000 46.621 C 305.670 46.609,305.400 46.388,305.400 46.131 C 305.400 45.511,300.038 41.930,299.555 42.228 C 299.349 42.355,299.230 42.221,299.290 41.930 C 299.357 41.608,299.047 41.412,298.502 41.432 C 298.008 41.449,297.692 41.375,297.800 41.266 C 298.143 40.923,295.572 39.570,295.114 39.853 C 294.831 40.028,294.792 39.936,295.004 39.594 C 295.249 39.197,295.142 39.136,294.578 39.353 C 294.163 39.512,293.956 39.511,294.117 39.350 C 294.472 38.995,290.774 36.769,290.309 37.057 C 290.128 37.168,290.030 37.043,290.090 36.778 C 290.151 36.513,289.795 36.260,289.300 36.215 C 288.805 36.170,288.265 35.985,288.100 35.803 C 287.935 35.621,288.124 35.589,288.521 35.732 C 288.983 35.898,289.146 35.837,288.976 35.561 C 288.829 35.324,288.370 35.219,287.954 35.328 C 287.539 35.436,287.284 35.389,287.387 35.221 C 287.637 34.816,285.645 33.925,285.160 34.225 C 284.951 34.354,284.830 34.229,284.890 33.947 C 284.956 33.639,284.281 33.244,283.200 32.959 C 282.210 32.697,280.140 31.789,278.600 30.940 C 274.901 28.900,273.474 28.272,273.823 28.837 C 274.015 29.148,273.841 29.143,273.237 28.820 C 272.764 28.567,272.473 28.206,272.589 28.017 C 272.706 27.829,272.396 27.763,271.901 27.872 C 271.177 28.031,271.118 27.985,271.600 27.641 C 272.445 27.037,271.418 27.056,270.274 27.665 C 269.509 28.073,269.463 28.055,269.906 27.518 C 270.391 26.930,268.314 26.175,266.504 26.281 C 266.232 26.297,266.126 26.119,266.270 25.887 C 266.434 25.621,266.277 25.562,265.845 25.727 C 265.449 25.880,265.259 25.829,265.396 25.607 C 265.526 25.396,265.130 25.117,264.516 24.987 C 263.902 24.857,262.230 24.335,260.800 23.827 C 256.548 22.316,255.581 22.046,255.823 22.437 C 255.948 22.640,255.595 22.598,255.038 22.345 C 254.481 22.091,254.132 21.710,254.263 21.499 C 254.406 21.267,254.143 21.228,253.600 21.400 C 252.940 21.609,252.781 21.554,253.005 21.193 C 253.230 20.827,252.940 20.743,251.883 20.866 C 251.045 20.964,250.553 20.876,250.691 20.653 C 250.825 20.436,250.557 20.370,250.062 20.500 C 249.587 20.624,249.288 20.581,249.397 20.405 C 249.506 20.228,249.312 19.975,248.965 19.842 C 248.060 19.495,247.709 19.555,248.334 19.950 C 248.761 20.221,248.736 20.339,248.213 20.540 C 247.781 20.705,247.655 20.635,247.842 20.332 C 248.038 20.015,247.829 19.949,247.163 20.117 C 246.273 20.342,246.255 20.319,246.932 19.813 C 247.773 19.184,245.286 18.730,240.532 18.645 C 239.143 18.620,238.005 18.494,238.003 18.364 C 238.001 18.235,237.468 18.160,236.817 18.199 C 236.166 18.238,235.734 18.107,235.857 17.907 C 235.980 17.708,236.378 17.658,236.740 17.796 C 237.239 17.986,237.288 17.934,236.940 17.584 C 236.381 17.020,234.677 17.478,235.056 18.091 C 235.219 18.355,235.136 18.408,234.842 18.226 C 234.471 17.996,234.477 17.789,234.872 17.314 C 235.320 16.773,235.176 16.718,233.691 16.860 C 232.761 16.949,232.000 16.897,232.000 16.746 C 232.000 16.595,230.965 16.386,229.700 16.281 C 228.435 16.177,226.410 15.793,225.200 15.427 C 223.537 14.925,222.242 14.827,219.892 15.024 C 217.953 15.187,216.597 15.129,216.287 14.872 C 215.439 14.169,195.976 13.400,193.800 13.983 M174.746 56.235 C 188.262 58.815,197.942 63.985,207.768 73.870 C 225.071 91.278,227.560 114.596,214.675 138.589 C 207.583 151.796,197.596 162.161,186.673 167.652 C 181.381 170.312,178.839 167.217,215.200 202.385 C 222.570 209.513,233.460 220.144,239.400 226.009 C 250.549 237.018,251.489 237.816,252.815 237.395 C 255.904 236.415,263.611 219.689,269.586 201.000 C 273.754 187.962,273.021 177.985,267.460 172.064 C 263.640 167.997,262.200 162.080,263.600 156.200 C 263.809 155.320,264.267 152.440,264.616 149.800 C 265.672 141.828,268.989 123.239,271.397 111.800 C 271.721 110.260,272.349 106.511,272.792 103.470 C 273.473 98.794,274.614 92.448,275.413 88.900 C 275.689 87.671,277.109 87.699,277.421 88.940 C 277.813 90.502,276.204 108.203,274.380 122.400 C 273.941 125.810,273.415 130.523,273.209 132.874 C 273.004 135.224,272.552 138.662,272.205 140.514 C 271.191 145.924,272.921 148.404,276.554 146.748 C 278.000 146.089,278.273 145.062,279.408 136.000 C 281.322 120.732,281.587 118.734,282.162 115.264 C 282.478 113.359,282.853 110.720,282.996 109.400 C 283.140 108.080,283.506 106.010,283.811 104.800 C 284.115 103.590,284.565 100.890,284.810 98.800 C 285.350 94.192,286.654 89.482,287.324 89.715 C 287.586 89.806,287.765 90.313,287.723 90.840 C 287.681 91.368,287.460 94.333,287.232 97.430 C 287.005 100.526,286.565 104.306,286.255 105.830 C 285.944 107.353,285.578 110.670,285.440 113.200 C 285.175 118.079,284.699 123.590,283.781 132.400 C 282.462 145.067,282.658 147.200,285.140 147.200 C 287.288 147.200,288.132 145.161,288.818 138.309 C 289.045 136.049,289.569 132.040,289.984 129.400 C 290.398 126.760,290.854 123.340,290.997 121.800 C 291.141 120.260,291.498 117.920,291.793 116.600 C 292.087 115.280,292.450 112.940,292.599 111.400 C 293.352 103.610,294.864 92.069,295.262 91.081 C 297.008 86.745,297.586 96.615,296.245 107.862 C 295.900 110.756,295.423 116.051,295.186 119.628 C 294.948 123.206,294.578 127.048,294.362 128.166 C 293.427 133.018,292.770 145.982,293.398 147.195 C 295.067 150.423,298.800 148.485,298.800 144.390 C 298.800 143.710,299.151 141.409,299.581 139.277 C 300.010 137.145,300.643 131.890,300.987 127.600 C 301.331 123.310,301.873 117.460,302.192 114.600 C 302.511 111.740,302.963 107.420,303.195 105.000 C 303.810 98.608,304.994 91.645,305.562 91.085 C 307.413 89.260,307.680 98.984,306.588 128.473 C 305.301 163.249,303.580 169.107,292.896 175.054 C 287.853 177.861,286.174 179.708,284.037 184.800 C 282.044 189.548,277.611 202.262,277.605 203.248 C 277.590 205.290,274.785 213.521,271.008 222.600 C 269.364 226.552,262.834 238.038,260.218 241.578 C 257.887 244.732,258.145 245.111,271.200 257.733 C 286.428 272.457,294.944 274.522,309.800 267.095 C 321.817 261.087,330.752 248.769,335.179 232.104 C 335.666 230.273,337.083 229.468,338.362 230.295 C 339.449 230.999,338.468 240.955,336.577 248.400 C 336.269 249.610,335.652 252.760,335.205 255.400 C 332.551 271.090,324.162 290.681,315.938 300.400 C 303.125 315.543,288.841 322.137,270.221 321.505 C 258.324 321.101,246.742 315.172,232.400 302.142 C 230.970 300.843,228.810 298.983,227.600 298.009 C 226.390 297.035,224.491 295.398,223.379 294.371 C 219.985 291.236,219.306 291.323,214.544 295.513 C 212.815 297.034,210.601 298.779,209.624 299.392 C 208.647 300.005,206.757 301.358,205.424 302.399 C 203.211 304.127,195.075 309.031,190.891 311.157 C 188.697 312.272,178.693 316.187,174.800 317.454 C 157.146 323.199,128.408 322.432,111.800 315.773 C 109.820 314.979,106.940 313.891,105.400 313.356 C 102.573 312.374,95.987 308.867,91.200 305.794 C 82.190 300.011,70.307 286.709,66.639 278.298 C 59.494 261.914,58.954 246.568,64.865 227.916 C 66.852 221.648,67.025 221.296,72.394 212.600 C 74.955 208.451,78.383 204.701,85.947 197.769 C 89.567 194.452,97.876 188.857,104.180 185.492 C 113.168 180.694,113.008 181.129,108.100 174.821 C 103.538 168.959,102.166 166.987,101.125 164.800 C 100.653 163.810,99.503 161.650,98.569 160.000 C 89.198 143.443,89.264 109.155,98.699 93.686 C 99.331 92.649,100.397 90.630,101.066 89.200 C 111.448 67.019,147.272 50.991,174.746 56.235 M158.069 58.789 C 140.368 63.641,131.456 76.952,131.414 98.600 C 131.397 107.563,133.909 120.177,136.587 124.584 C 136.860 125.033,138.364 127.560,139.930 130.200 C 146.621 141.485,164.815 158.690,171.668 160.212 C 174.733 160.893,187.628 153.138,191.689 148.172 C 204.250 132.809,208.144 108.020,201.392 86.400 C 195.352 67.060,175.065 54.130,158.069 58.789 M348.619 86.059 C 349.488 86.971,349.975 87.590,349.700 87.435 C 349.413 87.273,349.200 87.371,349.200 87.665 C 349.200 87.947,348.888 87.733,348.507 87.189 C 348.126 86.645,347.901 86.174,348.007 86.142 C 348.113 86.110,347.857 85.705,347.438 85.242 C 346.047 83.705,347.010 84.371,348.619 86.059 M116.784 191.184 C 113.440 194.754,107.917 204.852,105.838 211.200 C 103.336 218.839,103.088 220.877,103.309 231.939 C 103.505 241.742,103.610 242.671,105.463 251.000 C 110.802 274.995,129.243 295.411,152.000 302.521 C 176.394 310.143,190.335 307.834,210.123 292.897 C 215.547 288.803,216.012 287.330,212.701 284.736 C 211.765 284.003,209.510 282.008,207.689 280.302 C 205.868 278.596,204.229 277.200,204.046 277.200 C 203.863 277.200,201.604 274.905,199.025 272.100 C 191.302 263.699,187.773 259.911,177.316 248.800 C 171.830 242.970,165.284 235.961,162.770 233.225 C 160.257 230.488,154.510 224.363,150.000 219.612 C 145.490 214.862,139.440 208.371,136.555 205.188 C 126.862 194.491,121.100 188.781,120.009 188.791 C 119.321 188.797,118.334 189.529,116.784 191.184 M211.700 388.289 C 210.985 388.378,209.815 388.378,209.100 388.289 C 208.385 388.201,208.970 388.128,210.400 388.128 C 211.830 388.128,212.415 388.201,211.700 388.289 " stroke="none" fill="#43b44b" fill-rule="evenodd"></path></g></svg>