<svg viewBox="0 0 305.7 109.7" xmlns="http://www.w3.org/2000/svg"><path d="m74.6 91.2c1-.2 1.5-.3 2.3 0v2.3c-.4-.4-.9-.9-1.3-1.3-.3-.3-.6-.3-1-.2-1.6.3-1.7 2.4-1.7 4.1 0 1.6.3 3.6 1.8 3.6.4 0 .7-.2 1-.5.4-.5.9-1 1.3-1.6v2.4c-.8.5-1.4.6-2.3.6-2.1 0-3.8-2.1-3.8-4.2 0-2.2 1.6-4.7 3.7-5.2z"/><path d="m78.1 95.5c0-2.6 1.5-5.4 3.7-5.9s3.8 2 3.8 5.1c0 3-1.4 5.9-3.7 5.9-2.2 0-3.7-2.5-3.8-5.1zm3.8 4c1.5 0 1.7-2.6 1.7-4.6s-.3-4.5-1.8-4.2-1.7 2.7-1.7 4.6c.1 1.9.3 4.2 1.8 4.2z"/><path d="m89 100.1c-.9 0-1.9 0-2.8.1l.9-1.2c.8-3.4 1.7-6.9 2.5-10.5.4-.1.7-.1 1.1-.2.9 3.4 1.8 6.9 2.7 10.5.3.4.6.9.9 1.3-1.2 0-2.4 0-3.6.1.3-.4.6-.9.8-1.3-.2-.7-.3-1.3-.5-2-.8.1-1.7.1-2.5.2-.2.7-.3 1.3-.5 2 .4.2.7.6 1 1zm-.1-4.3c.6-.1 1.2-.1 1.9-.1-.3-1.3-.6-2.6-1-3.8-.3 1.2-.6 2.6-.9 3.9z"/><path d="m99.3 98.6c.4-.6.7-1.2 1.1-1.8v3.2c-1.9 0-3.8.1-5.7.1.3-.4.6-.9.9-1.4 0-3.3-.1-6.6-.1-9.9-.3-.4-.6-.8-.9-1.2 1.2-.2 2.3-.4 3.5-.6-.3.5-.6 1-.9 1.5 0 3.4.1 6.8.1 10.1z"/><path d="m105.2 99.9.9-1.5c0-3.7-.1-7.3-.2-11-.3-.5-.6-.9-.9-1.4 1.1-.1 2.1-.3 3.2-.4 1.4-.2 3 .7 3 3.6 0 1.1-.7 2.6-1.5 3.1 1.1.2 2 1.9 2 3.6 0 2.9-1.6 3.8-3 3.8-1.1.1-2.3.1-3.5.2zm2.5-12.8c0 1.6 0 3.2.1 4.8h.6c.7-.1 1.2-1 1.1-2.5 0-1.5-.5-2.4-1.2-2.3-.2 0-.4 0-.6 0zm1 11.2c.7 0 1.3-.7 1.3-2.3 0-1.4-.5-2.8-1.3-2.7-.3 0-.6 0-.9.1 0 1.6 0 3.3.1 4.9z"/><path d="m119.5 98.1c.3.5.6 1.1.9 1.6-.8 0-1.6 0-2.4 0-.6-2.3-1.3-4.5-1.9-6.8-.2 0-.4 0-.6 0 0 1.7 0 3.4.1 5.2.3.5.6 1.1.9 1.6-1.2 0-2.3 0-3.5 0 .3-.5.6-1.1.9-1.6 0-3.9-.1-7.8-.1-11.6-.3-.5-.6-1-.9-1.5 1.1-.1 2.1-.2 3.2-.3 1.5-.2 3.2.9 3.2 3.8 0 2-.9 3.4-1.5 3.8.5 1.9 1.1 3.8 1.7 5.8zm-4.2-11.8c0 1.7 0 3.4.1 5.1h.6c.7 0 1.3-1.4 1.3-2.8 0-1.3-.6-2.4-1.3-2.3-.3 0-.5 0-.7 0z"/><path d="m120.6 84.3c1.2-.1 2.3-.2 3.5-.3-.3.6-.6 1.2-.9 1.7 0 4.1.1 8.2.1 12.3.3.6.6 1.1.9 1.7-1.2 0-2.3 0-3.5 0 .3-.6.6-1.1.9-1.7 0-4.1-.1-8.1-.1-12.2-.3-.5-.6-1-.9-1.5z"/><path d="m129.1 83.3c1-.1 1.5 0 2.3.8v3.9c-.4-.8-.9-1.7-1.3-2.5-.3-.5-.6-.7-1-.7-1.6.1-1.7 3.9-1.7 6.9 0 2.9.3 6.6 1.8 6.6.4 0 .7-.2 1-.8.4-.9.9-1.7 1.3-2.6v4c-.8.9-1.4 1-2.3 1-2.1 0-3.8-4-3.9-8.2.1-4.2 1.7-8.3 3.8-8.4z"/><path d="m135.3 97.8c.3.6.6 1.2.9 1.7-1.2 0-2.3 0-3.5 0 .3-.6.6-1.2.9-1.7 0-4.3-.1-8.5-.1-12.8-.3-.6-.6-1.1-.9-1.7 1.2-.1 2.3-.1 3.5-.2-.3.6-.6 1.2-.9 1.8v5.6c1-2 1.9-3.9 2.9-5.9-.3-.5-.5-1-.8-1.6.9 0 1.8-.1 2.8-.1-1.1 2.2-2.2 4.4-3.2 6.6 1.2 3.3 2.5 6.6 3.7 9.9-.9 0-1.8 0-2.8 0 0-.6 0-1.1 0-1.7-.8-2.3-1.7-4.5-2.5-6.8-.1 2.4-.1 4.7 0 6.9z"/><path d="m141.4 93.9c0-.6 0-1.3 0-1.9h3.4v1.9c-1.2 0-2.3 0-3.4 0z"/><path d="m146.2 91.2c0-4.5 1.5-8.8 3.8-8.8s3.8 4.3 3.8 8.8c0 4.6-1.5 8.8-3.8 8.8s-3.8-4.2-3.8-8.8zm3.8 7.1c1.5 0 1.8-4 1.8-7.1s-.3-7.1-1.8-7.1-1.8 4-1.8 7.1.3 7.1 1.8 7.1z"/><path d="m158 82.9c-.3.6-.6 1.2-.9 1.7.5 3.3 1 6.7 1.4 10 .5-3.3 1-6.7 1.6-10-.3-.6-.6-1.2-.9-1.8.9 0 1.9 0 2.8.1-.3.6-.6 1.2-.9 1.8-.8 4.9-1.6 9.8-2.4 14.8-.4 0-.7 0-1.1 0-.8-5-1.5-9.9-2.3-14.9-.3-.6-.6-1.2-.9-1.8 1.2.1 2.4.1 3.6.1z"/><path d="m168.2 99.6c-1.9 0-3.9 0-5.8 0 .3-.6.6-1.2.9-1.8 0-4.3 0-8.7.1-13-.3-.6-.6-1.2-.9-1.8 2 .1 3.9.1 5.9.2v3.9c-.4-.8-.7-1.5-1.1-2.3-.7 0-1.4 0-2.1-.1v5.2h1.5c.3-.6.6-1.2.9-1.8v5.2c-.3-.6-.6-1.2-.9-1.8-.5 0-1 0-1.5 0v6.2h2.1c.4-.7.8-1.5 1.1-2.2-.2 1.5-.2 2.8-.2 4.1z"/><path d="m171.1 97.8c.3.6.6 1.2.9 1.7-.9 0-1.8 0-2.7 0 .3-.6.6-1.2.9-1.7 0-4.3.1-8.5.1-12.8-.3-.6-.6-1.2-.9-1.8.8 0 1.5.1 2.3.1 1.1 3.3 2.3 6.6 3.4 9.8 0-2.6 0-5.2.1-7.9-.3-.6-.6-1.2-.9-1.8.9.1 1.8.1 2.7.2-.3.5-.6 1.1-.9 1.6 0 5.4-.1 10.8-.1 16.2-1.6-4.5-3.2-9.1-4.8-13.8 0 3.5 0 6.9-.1 10.2z"/><path d="m181.6 99.7c.3-.6.6-1.1.9-1.7 0-4.1.1-8.2.1-12.2-.3-.6-.6-1.2-.9-1.7 1.2.1 2.3.2 3.5.3 1.6.2 3.4 1.8 3.3 4.8 0 3-1.8 4.3-3.4 4.3-.3 0-.6 0-.9 0v4.7c.3.6.6 1.1.9 1.7-1.1-.2-2.3-.2-3.5-.2zm3.6-7.9c.8 0 1.5-1.3 1.5-2.8s-.6-3-1.4-3c-.3 0-.6-.1-.9-.1 0 2 0 3.9-.1 5.9z"/><path d="m189.7 84.8c1.2.1 2.3.2 3.5.4-.3.5-.6 1-.9 1.5 0 3.9-.1 7.7-.1 11.6.3.5.6 1.1.9 1.6-1.2 0-2.3 0-3.5 0 .3-.5.6-1.1.9-1.6 0-3.9.1-7.8.1-11.7-.3-.7-.6-1.3-.9-1.8z"/><path d="m195.5 86.9c-.4.6-.8 1.2-1.1 1.8 0-1.2 0-2.3 0-3.5 1.9.2 3.7.5 5.6.7-1.2 4-2.4 8.1-3.7 12.3.8 0 1.5 0 2.3.1.4-.6.8-1.2 1.1-1.9v3.3c-1.9 0-3.7 0-5.6-.1 1.2-4.3 2.5-8.5 3.7-12.6-.8.1-1.6 0-2.3-.1z"/><path d="m202.1 87.7c-.4.6-.8 1.1-1.1 1.7 0-1.1 0-2.2 0-3.3 1.9.3 3.7.5 5.6.8-1.2 3.7-2.4 7.6-3.7 11.6.8 0 1.5 0 2.3.1.4-.6.8-1.2 1.1-1.7v3.1c-1.9 0-3.7-.1-5.6-.1 1.2-4.1 2.4-8.1 3.7-11.9-.8-.1-1.6-.2-2.3-.3z"/><path d="m213.1 100.1c-1.9 0-3.9-.1-5.8-.1.3-.5.6-.9.9-1.3 0-3.3.1-6.7.1-10-.3-.5-.6-1-.9-1.5 1.9.3 3.9.6 5.8.9v2.9c-.4-.6-.7-1.2-1.1-1.8-.7-.1-1.4-.2-2.1-.3 0 1.3 0 2.6-.1 3.9.5 0 1 .1 1.5.1.3-.4.6-.8.9-1.2 0 1.3 0 2.6-.1 3.9-.3-.5-.6-.9-.9-1.4-.5 0-1-.1-1.5-.1 0 1.6 0 3.1-.1 4.7.7 0 1.4 0 2.1.1.4-.5.8-1.1 1.1-1.6.2.9.2 1.8.2 2.8z"/><path d="m220.8 99.1c.3.4.6.8.9 1.2-.8 0-1.6 0-2.4 0-.6-1.7-1.2-3.4-1.8-5.2-.2 0-.4 0-.6-.1 0 1.3 0 2.6-.1 4 .3.4.6.8.9 1.2-1.2 0-2.3 0-3.5-.1.3-.4.6-.8.9-1.2 0-3.1.1-6.2.1-9.2-.3-.5-.6-.9-.9-1.4 1.1.2 2.1.4 3.2.6 1.5.3 3.2 1.5 3.1 3.5 0 1.4-.9 2.2-1.6 2.5.7 1.3 1.2 2.8 1.8 4.2zm-3.9-9.2c0 1.3 0 2.6-.1 3.9.2 0 .4 0 .6.1.7.1 1.3-.8 1.3-1.8s-.5-1.9-1.3-2c-.1-.2-.3-.2-.5-.2z"/><path d="m222.2 89.7c1.2.2 2.3.5 3.5.7-.3.3-.6.6-.9.9 0 2.6 0 5.3-.1 7.9.3.4.6.7.9 1.1-1.2 0-2.3-.1-3.5-.1.3-.4.6-.7.9-1.1 0-2.7.1-5.5.1-8.2-.3-.4-.6-.8-.9-1.2z"/><path d="m228.9 100.4c-.9 0-1.9 0-2.8-.1.3-.3.6-.7.9-1 .9-2.8 1.8-5.5 2.7-8.1.3.1.7.2 1.1.2.8 2.8 1.7 5.6 2.5 8.1.3.3.6.6.9.9-1.2 0-2.4-.1-3.6-.1.3-.3.6-.6.9-.9-.1-.5-.3-1-.5-1.5-.8-.1-1.6-.1-2.5-.2-.2.5-.3 1-.5 1.6.3.4.6.8.9 1.1zm-.1-3.5c.6.1 1.2.1 1.9.2-.3-1-.6-2.1-.9-3.1-.3.9-.7 1.9-1 2.9z"/><path d="m18 56.2h10.5v10.5h-10.5z" fill="#a54c0e"/><path d="m7.5 66.6h10.5v10.4h-10.5z" fill="#a54c0e"/><path d="m7.5 45.7h10.5v10.4h-10.5z" fill="#a54c0e"/><path d="m275.6 56.9h10.5v10.5h-10.5z" fill="#a54c0e"/><path d="m286 46.5h10.4v10.4h-10.4z" fill="#a54c0e"/><path d="m286 67.4h10.4v10.4h-10.4z" fill="#a54c0e"/><path d="m151.3 64.5.9.9c.1.1.2.2.2.2.3.3.9.8.9 1.6s.1.1.1.1l.2.2c0-.1 0-.2 0-.3 0-.8.6-1.3.9-1.6l2.1-2c0-.1 0-.1 0-.3l-.9-6.4c-1.1 0-2.2 0-3.2 0z" fill="none"/><path d="m78.2 34.8c0-3.8-.4-5.7-.9-6.6-.3 0-.7.1-1.1.2l-.4.1v17.3c1.6-1.3 2.4-4.2 2.4-11z" fill="none"/><path d="m209.3 43.8c0-12.2-1-19.3-3.1-21.6h-.1v44.7c.1 0 .2-.1.3-.2 1.3-1.1 2.9-5.9 2.9-22.9z" fill="none"/><path d="m128.5 64.5c.2-.2.2-.5.2-1.3v-8.4c-.5 3.8-1.1 7.7-1.6 11.5z" fill="none"/><path d="m154.5 49.1-.5-3.6-.5 3.6z" fill="none"/><g fill="#c4960c"><path d="m50.7 35.7c-1.4.8-2.3 3.3-2.9 7.5-.5 5.1-.5 11.5-.5 15.2 0 6.3 0 21 1.4 22.9.1 0 .2-.1.3-.1-.8-3.8-.9-12.4-.9-21.4 0-11.5.4-22.3 3.3-23.4-.3-.3-.5-.5-.7-.7z"/><path d="m55.2 83.9c-1.5 2-3 3.4-4.6 4-.8.3-1.5.4-2.1.4-.5.1-1 .2-1.5.2-.6 0-1.3-.1-1.8-.3.1.1.2.2.3.2.9.6 1.8.9 2.9.9.8 0 1.7-.2 2.6-.5 1.6-.6 3.2-1.9 5-4.2l.3-.3-.9-.5c-.2-0-.2-0-.2.1z"/><path d="m60 46.5c0 .3-.1.5-.2.8v.5c0 .3-.1.6-.4.6-.2.1-.3 0-.4-.2-.1.1-.3.2-.4.2-.2.1-.4.1-.6.1.4.8 1.1.9 1.7.8.6-.2 1-.8 1-1.6v-17.8c0-.6-.1-1.4-.7-1.9.1 0 .1 0 0 0v.6z"/><path d="m51.6 61.3-.8-.4c.1.1.2.1.2.2z"/><path d="m63.7 56.8c.2-.3.4-.7.4-1.2 0-.4-.2-.8-.5-1-.1-.1-.2-.1-.3-.2 0 .4-.1.7-.3 1 .1 0 .1.1.1.3 0 .3-.1.5-.4.9-.7.8-1.4 1.7-2.1 2.5-.3.3-.5.6-.6.9v23c0 .3-.1.5-.2.7v.6c0 .2-.1.4-.4.5s-.5 0-.7 0c-.1 0-.1.1-.2.1-.5.2-1.1.2-1.7 0 .4.2.9.5 1.3.7.4.3 1 .3 1.6.2.6-.2 1-.8 1-1.4v-23.6c0-.5.1-.9.5-1.3l2.1-2.5z"/><path d="m50.2 35.6c-1.3.5-2 3.7-2.4 7.7.5-4.3 1.4-6.7 2.9-7.5 0 0-.1-.1-.1-.1-.3-.2-.3-.1-.4-.1z"/><path d="m58.9 84.6c.2.1.4.1.7 0 .2-.1.4-.3.4-.5s0-.4 0-.6c-.3.5-.7.9-1.1 1.1z"/><path d="m62.5 56-2.1 2.5c-.3.3-.4.5-.4.9v.4c.1-.3.3-.7.6-.9.7-.8 1.4-1.7 2.1-2.5.2-.4.4-.6.4-.9 0-.1 0-.2-.1-.3-.1.2-.2.3-.2.4z"/><path d="m59.1 48.3c.1.1.3.2.4.2.2-.1.4-.3.4-.6 0-.2 0-.4 0-.5-.2.3-.4.7-.8.9z"/><path d="m49.8 87.9c-.4.2-.9.3-1.3.4.6 0 1.3-.2 2.1-.4 1.6-.6 3-2 4.6-4 0 0 .1-.1.1-.1l-.4-.2c-1.8 2.3-3.4 3.7-5.1 4.3z"/><path d="m87 37.8c-.5 4.8-2.1 7.9-3.8 9.9.3.2.5.4.7.6 2.8-3.4 4.2-7.8 4.2-13.7 0-4.1-.7-7.2-2.2-9.3.9 2 1.4 4.6 1.4 7.9-0 1.7-.1 3.2-.3 4.6z"/><path d="m86.6 70.6s0 .1 0 0c.3.3.6.5.8.7v-14.9c0-2.3-.6-4-1.6-5.3.5 1.1.7 2.4.7 4v15.5z"/><path d="m76.2 28.4c.5-.1.8-.2 1.1-.2-.2-.3-.3-.5-.5-.6-.1-.1-.2-.2-.6-.2-.1 0-.2 0-.3.1-.3.1-.6.2-1 .3v18.6c.3-.1.6-.3.8-.5v-17.4z"/><path d="m78.3 78.6c0 .2-.1.5-.4.6-3.9 1-7.7 2.2-11.6 3.4-.2.1-.3 0-.4-.1-.2.1-.4.1-.5.2-.1 0-.3.1-.4.1.1.2.2.5.4.6.2.2.5.2.7.2.1 0 .3 0 .4-.1 3.8-1.2 7.7-2.3 11.5-3.4.7-.2 1.2-.8 1.2-1.5 0-.6-.5-1-.7-1.1l-.1-.1c0 .3-.1.7-.3 1 .1 0 .2.1.2.2z"/><path d="m76 53.1c-.3.1-.7.2-1 .3v19.9c0 .6.1.7.1.7.2.2.5.3.7.5v-20.4l.5-.2c.3-.1.6-.1.9-.1-.1-.2-.3-.4-.5-.5-.1-.1-.4-.2-.7-.2z"/><path d="m90.2 74.6c0 .4-.1.7-.3.9.1.1.2.2.2.3 0 .2-.4.3-.7.4-1.3.3-2.6.6-3.9.9-.5.1-1 .2-1.4.2-1.1.2-2.1.2-2.9 0l.2.2c1.1.8 2.5 1 4.4.6 1.3-.3 2.6-.6 3.9-.9.4-.1 1.5-.3 1.5-1.3 0-.2-.1-.4-.2-.6-.1 0-.1-.1-.2-.1-.3-.2-.5-.4-.6-.6z"/><path d="m76.9 79.2c-3.7 1-7.4 2.1-11 3.2.1.1.2.1.4.1 3.8-1.2 7.7-2.3 11.6-3.4.3-.1.4-.3.4-.6 0-.1-.1-.2-.2-.2-.3.4-.7.8-1.2.9z"/><path d="m76.3 27.4c-.3 0-.7 0-1.2.2v.2c.3-.1.6-.2 1-.3 0-.1.1-.1.2-.1z"/><path d="m83.2 47.7c1.7-2.1 3.3-5.1 3.8-9.9-.6 3.9-1.9 7.1-4.1 9.7.1 0 .2.1.3.2z"/><path d="m75.2 53.1h-.2v.2c.3-.1.7-.2 1-.3-.2-0-.5.1-.8.1z"/><path d="m88.3 76.4c-1.3.3-2.6.6-3.8.9-.1 0-.3.1-.4.1.4 0 .9-.1 1.4-.2 1.3-.3 2.6-.6 3.9-.9.4-.1.7-.2.7-.4 0-.1-.1-.2-.2-.3-.5.5-1.2.7-1.6.8z"/><path d="m105.5 17.6c0 .2-.4.5-.5.8-.8.8-1.5 1.7-2.3 2.6-.3.3-.4.6-.5 1v45c0 .7.1.8.1.8.2.2.5.4.7.5v-45.1c0-.8.1-1.2.4-1.6.6-.7 1.2-1.4 1.9-2.1l.4-.4.1-.1s.1-.1.1-.2c.2-.3.5-.6.5-1.1 0-.4-.2-.8-.5-1-.1-.1-.2-.2-.4-.2 0 .4-.2.7-.3.9.3 0 .3.1.3.2z"/><path d="m105.8 71.5s-.1-.1 0 0l-.2-.1c0 .4-.1.7-.3 1 .1.1.2.2.2.3 0 .2-.2.5-.5.5-3.9.7-7.9 1.4-11.8 2.2-.1 0-.2 0-.3 0-.3.1-.5.1-.8.2-.1 0-.2 0-.3 0 .1.2.2.4.4.5.2.2.5.3.8.3h.3c3.9-.8 7.8-1.6 11.7-2.2.7-.1 1.3-.7 1.3-1.5.2-.7-.3-1-.5-1.2z"/><path d="m104.9 17.9-.1.2c-.7.8-1.5 1.7-2.3 2.5-.2.2-.3.5-.3 1.2v.1c.1-.3.3-.7.5-1 .8-.9 1.5-1.7 2.3-2.6.1-.2.5-.5.5-.8 0-.1-.1-.3-.2-.3-.1.2-.2.3-.3.4-0 .2-.1.2-.1.3z"/><path d="m104 73.3c-3.6.6-7.3 1.3-10.9 2.1.1 0 .2.1.3 0 3.9-.8 7.8-1.6 11.8-2.2.3 0 .5-.3.5-.5 0-.1-.1-.2-.2-.3-.4.4-.9.8-1.5.9z"/><path d="m119.2 70.4c.1.1.1.2.1.3 0 .2-.2.4-.5.4-3.1.4-6.2.8-9.3 1.3-.1 0-.1 0-.1 0-.3 0-.7.1-1 .1-.1 0-.1 0-.2 0 .1.2.2.4.4.5.2.2.6.3.9.3h.2c3-.5 6.1-.9 9.3-1.3.8-.1 1.3-.8 1.3-1.4s-.4-1-.6-1.2c0 0-.1-.1-.2-.2l-.1-.1v.1c.1.5-0 .9-.2 1.2z"/><path d="m126.8 66.8c0-.1.1-.1.1-.2l.2-.3c.5-3.9 1.1-7.7 1.6-11.5v-7c-1 7.4-2 14.7-3.1 22.1-.1.4-.2.6-.6.7-.3 0-.6.1-.9.1-.1 0-.2 0-.3.1-.5.1-1.1.1-1.6.2.3.7.8.9 1.3.8.4 0 .8-.1 1.2-.1h.4c.4 0 1.2-.3 1.5-1.5 0-.1 0-.1 0-.2-.4-.3-.6-.8-.6-1.3.1-1.1.5-1.6.8-1.9z"/><path d="m140.6 67.6c0 .3-.1.7-.3.9.1.1.1.2.1.3s-.2.4-.5.4c-.2 0-.5 0-.7 0-.2.1-.3.1-.5.1-3.6.2-7.1.4-10.6.7h-.1c.1.2.2.3.3.5.2.2.5.4 1.1.3 3.5-.3 7.1-.5 10.6-.7.8 0 1.4-.7 1.4-1.3-.1-.1-.2-.1-.3-.2-.2-.1-.4-.5-.5-1z"/><path d="m116.9 64.7c0 .8.1 1 .2 1.1l.7.8c0-.2 0-.3 0-.5v-13.5c-.3-1.8-.5-3.6-.8-5.4v17.5z"/><path d="m140.5 13.8c0 .3-.3.5-.5.8-.6.7-1.3 1.5-1.9 2.3-.2.3-.4.6-.5.9v45c0 .7.1.9.3 1.1l.6.6c0-.1 0-.2 0-.4v-45.2c0-.7.1-1.1.4-1.5l1.9-2.2.1-.1c.3-.3.7-.7.7-1.3 0-.3-.2-.7-.4-.9-.1-.1-.3-.2-.4-.3 0 .4-.1.7-.3.9-.1.1 0 .2 0 .3z"/><path d="m123.6 37.1c.1-.7.2-1.3.3-2l-3-18.8c-.1-.7-.3-1.3-.8-1.7 0 0-.1 0-.1-.1 0 .1 0 .2.1.3z"/><path d="m139.7 14.3c-.6.7-1.2 1.4-1.8 2.2-.2.2-.3.5-.3 1.2v.1c.1-.3.2-.6.5-.9.6-.8 1.3-1.5 1.9-2.3.2-.2.5-.5.5-.8 0-.1-.1-.2-.2-.3-.2.3-.4.5-.6.8z"/><path d="m117.8 71.3c-2.8.3-5.5.7-8.2 1.1h.1c3.1-.5 6.2-.9 9.3-1.3.3 0 .5-.3.5-.4s-.1-.2-.1-.3c-.5.5-1 .8-1.6.9z"/><path d="m125.8 68.7c-.3 1.4-1.1 1.8-1.7 1.9.3 0 .6-.1.9-.1.4 0 .5-.3.6-.7 1-7.4 2-14.7 3.1-22.1v-.2c-.9 7.1-1.9 14.1-2.9 21.2z"/><path d="m139.3 69.4h.7c.3 0 .5-.2.5-.4 0-.1-.1-.2-.1-.3-.3.3-.7.5-1.1.7z"/><path d="m165.4 63.6.5.5c0-.1 0-.1 0-.2-2.4-16.8-4.8-33.5-7.2-50.2-.1-.6-.4-1.1-.8-1.4l7.2 50.2c0 .8.2 1.1.3 1.1z"/><path d="m153.5 49.1.5-3.6-.5-3.5c-.3 2.4-.6 4.7-1 7.1h1c-.1 0 0 0 0 0z"/><path d="m153.4 67.3s-.1-.1-.1-.1c0 .4-.1.8-.3 1.1.1.1.2.2.2.3 0 .2-.2.4-.5.4-.2 0-.4 0-.6 0-.2.1-.5.1-.8.1-2.9 0-5.8.1-8.7.2.1.2.2.3.3.4.3.3.6.4 1 .4 2.9-.1 5.8-.2 8.7-.2.9 0 1.5-.6 1.5-1.4-.3-.3-.5-.6-.5-1-.1-.1-.1-.1-.2-.2z"/><path d="m168.5 67.7c0 .3-.1.6-.3.8.1.1.1.2.1.3 0 .2-.2.4-.5.4-.2 0-.3 0-.5 0-.3.1-.5.2-.8.2h-.1c-3.6-.2-7.3-.3-10.9-.3.2.5.7.8 1.4.8 3.6 0 7.3.1 10.9.3h.1c.5 0 .9-.2 1-.4.2-.2.3-.4.3-.6-.3-.3-.6-.9-.7-1.5z"/><path d="m151.6 56c-.1.1-.1.2-.2.4-.3 2.4-.7 4.8-1 7.1v.1l.8.9 1.1-7.6h3.2l-.1-.8c-1.2-.1-2.5-.1-3.8-.1z"/><path d="m152.1 69h.6c.4 0 .5-.2.5-.4 0-.1-.1-.2-.2-.3-.2.3-.6.5-.9.7z"/><path d="m150.5 63.5c.3-2.3.7-4.7 1-7.1 0-.2.1-.3.2-.4h-.1z"/><path d="m153.4 41.9-1 7.1c.4-2.3.7-4.7 1-7.1z"/><path d="m167.4 69.2h.5c.4 0 .5-.2.5-.4 0-.1-.1-.2-.1-.3-.1.1-.2.3-.3.4-.2.1-.4.2-.6.3z"/><path d="m191.4 50.5v18.3c0 .4-.1.7-.2 1v.4c0 .7-.2 1-.8.9-.1 0-.2 0-.3 0-.2.1-.5.2-.9.2-.1 0-.2 0-.3 0-6.1-.7-12.2-1.3-18.3-1.6.2.4.7.8 1.2.8 6.1.4 12.4.9 18.5 1.6h.3c.5 0 .9-.2 1.1-.4.6-.5.6-1.3.6-1.5v-18.3c-.1-.6-.4-1.2-.9-1.4z"/><path d="m184.2 15c0 .2-.4.4-.5.6-.8.6-1.5 1.3-2.3 2-.3.2-.4.5-.5.8v45.3c.3 0 .5.1.8.1v-44.2c0-.8.1-1.1.4-1.3.6-.5 1.2-1.1 1.9-1.6l.4-.3.1-.1s.1-.1.1-.1c.2-.2.6-.5.6-1.1s-.3-1.1-.8-1.3c0 .4-.1.7-.3 1 0-.1.1 0 .1.2z"/><path d="m190.1 71.1h.3c.6.1.8-.3.8-.9 0-.1 0-.2 0-.4-.1.4-.3.7-.6.9-.1.2-.3.3-.5.4z"/><path d="m183.5 15.2-.2.2c-.8.6-1.5 1.3-2.3 1.9 0 0-.2.1-.2.9v.1c.1-.3.3-.6.5-.8.8-.7 1.5-1.3 2.3-2 .1-.2.5-.4.5-.6 0-.1-.1-.3-.2-.4-0 .4-.3.6-.4.7z"/><path d="m206.2 22.3c-.3-.3-.6-.6-.9-.7v45.4h.1c.3.1.5 0 .7 0v-44.8z"/><path d="m218.4 45.1c0 6-.3 10.8-.8 14.7-1.2 10.3-4.2 13.5-8.5 13.8-.6.1-1.3.2-1.9.2-1 0-1.9-.1-2.6-.3-3.2-.6-6.4-1.1-9.6-1.5.2.4.6.7 1.1.8 3.3.5 6.7 1 9.9 1.6.9.2 1.8.2 2.5.2 2.1 0 3.7-.6 5.1-1.7 3.8-3.2 5.6-11.4 5.6-26.5 0-11.1-1.5-19-4.6-24 2.6 5.2 3.8 12.7 3.8 22.7z"/><path d="m212.7 72c-1.1.9-2.3 1.4-3.5 1.7 4.3-.3 7.2-3.5 8.5-13.8-.9 6.2-2.5 10-5 12.1z"/><path d="m233.5 27.6 2.2-1.5.1-.1.1-.1c.2-.1.7-.5.7-1.1s-.3-1.1-.8-1.4c0 .4-.1.7-.3 1 .1.1.2.3.2.4 0 .2-.4.3-.5.5-.7.5-1.5 1-2.2 1.5-.2.2-.4.4-.5.7v45c0 .8.1 1.1.3 1.3s.3.4.5.6c0-.2 0-.4 0-.6v-45.1c-.1-.8.1-1 .2-1.1z"/><path d="m235.5 79.4c.1.1.2.2.2.3 0 .2-.1.4-.4.3-.1 0-.2-.1-.3-.1-.3.2-.6.3-.9.3-.2 0-.4 0-.5-.1-3.6-1-7.4-2-11.1-2.9.2.3.5.6.9.7 3.9.9 7.8 1.9 11.6 3 .1 0 .3.1.4.1.3 0 .5-.1.8-.3s.5-.6.5-1.1-.3-.8-.5-1.1c-.1-.1-.1-.1-.1-.2l-.1-.1s-.1-.1-.1-.1v.2c-.1.5-.2.8-.4 1.1z"/><path d="m235.1 79.9c-.1 0-.1.1-.2.1.1 0 .2.1.3.1.3.1.4-.1.4-.3 0-.1-.1-.2-.2-.3-0 .1-.1.2-.3.4z"/><path d="m234.9 25-2.4 1.7v.7.2c.1-.3.3-.5.5-.7.7-.5 1.5-1 2.2-1.5.1-.2.5-.3.5-.5 0-.1-.1-.3-.2-.4-.2.2-.5.4-.6.5z"/><path d="m246.3 31.2c0 1-.1 1.9-.2 2.7-.5 6.3-4.4 8.7-5.3 8.4 0 0-.1 0-.1-.1-.3.1-.7.2-1.1.2.2.3.5.6.9.8.1 0 .3.1.4.1.8 0 1.6-.5 2.1-.9 1-.7 4.1-3.5 4.1-9.9 0-1.1 0-3.8-1.4-5.6.6 1.7.6 3.5.6 4.3z"/><path d="m242 41.5c-.3.2-.8.5-1.3.8 0 0 .1.1.1.1.9.3 4.8-2.1 5.3-8.4-.7 4.6-3.2 6.9-4.1 7.5z"/><path d="m254.8 85.1c-.2.1-.5.2-.8.4-.3.1-.6.3-.9.2-.1 0-.1 0-.1-.1-.2.1-.6.2-1 .2.2.3.4.6.8.7.6.2 1.1 0 1.4-.2l1-.4c.1-.1.3-.1.4-.2-.1-.1-.2-.2-.2-.2-.3-.1-.5-.2-.6-.4z"/><path d="m263.7 59.3c-5.3-13.8-6.2-17.6-6.2-21 0-1.1.1-1.6.1-1.9-.2-.3-.5-.5-.7-.7-.1.1-.2.3-.2.5v.6c0 3.4.9 7.2 6.2 20.8 5.2 13.4 5.7 16.1 5.7 22.2 0 1.1-.1 2.2-.2 3.1-.4 4.8-2.6 6.2-4.7 6.2-.4.1-.9.2-1.3.2-.8 0-1.6-.2-2.4-.5-.2-.1-.3-.1-.5-.2.6.4 1.2.8 2 1.1.7.3 1.5.4 2.2.4 1 0 2-.3 2.8-.8 2-1.3 2.9-4.1 2.9-8.1-0-5.9-.6-8.6-5.7-21.9z"/><path d="m254.5 66.4c-.2-.6-.4-1-.8-1.2.7 3.5 2.3 11.3 4.8 15.1-2.1-4.1-3.4-10.5-4-13.9z"/><path d="m267.4 53.1c0 .3-.1.5-.2.7v.6c0 .2-.1.3-.4.2-.1 0-.1-.1-.1-.1-.2.1-.5.3-.9.3.2.3.4.6.7.7.6.2 1 .1 1.2-.1.3-.2.5-.6.5-1v-18.4c0-.8-.3-1.4-.9-1.8 0 .1.1.3.1.4z"/><path d="m265.4 88.5c-.5.4-1.2.6-1.8.8 2.1 0 4.3-1.4 4.7-6.2-.4 2.5-1.4 4.3-2.9 5.4z"/><path d="m266.7 54.6s.1.1.1.1c.3.1.4 0 .4-.2s0-.4 0-.6c-.1.3-.3.5-.5.7z"/><path d="m256.7 36.3c.1-.2.1-.4.2-.5-.1 0-.1-.1-.2-.1z"/><path d="m254 85.2-1 .4s-.1 0-.1.1c0 0 .1 0 .1.1.3.1.6-.1.9-.2s.6-.2.8-.4c-.1-.1-.2-.1-.2-.2-.1 0-.3.1-.5.2z"/></g><path d="m52.4 60.7c0-.7-.3-1.1-.8-1.4-.7-.4-1.4-.7-2-1-.3-.2-.4-.3-.4-.6s.2-.5.6-.7c3.6-1.3 7.2-2.6 10.8-3.8.3-.1.5 0 .5.3s-.1.5-.4.9c-.7.8-1.4 1.7-2.1 2.5-.5.5-.7 1.1-.7 1.9v23.4c0 .2-.1.4-.4.5s-.6.1-.7-.1c-.7-.4-1.5-.8-2.2-1.3-.3-.1-.4-.1-.7 0-.2.1-.4.2-.7.6-1.5 2-3 3.4-4.6 4-9 3.4-9.3-13.3-9.4-25.7 0-9.1.3-26.7 9.2-30.1 2.4-.9 3.8-.3 4.6 0 .3.1.8.2 1.1.1.4-.1 1.1-.9 1.8-1.8.7-.8 1.1-1.3 1.5-1.5.4-.1.5.3.5 1.1v17.9c0 .3-.1.6-.4.6-.3.1-.5-.1-.7-.5-1.5-5.1-4.7-13.6-7.8-12.4-3 1.1-3.9 8.6-3.9 24.3 0 21.5.9 25.3 3.5 24.3 2.2-.8 3.8-4.2 3.8-11.3 0-3.5 0-6.9 0-10.2z" fill="#a54c0e"/><path d="m72.9 72.6c0 .9.1 1.5.7 1.9.7.5 1.5 1 2.2 1.6.1.2.5.3.5.5s-.1.5-.4.6c-3.9 1-7.7 2.2-11.6 3.4-.3.1-.4-.1-.4-.3s.4-.6.5-.8c.7-.9 1.5-1.9 2.2-2.8.5-.7.7-1.4.7-2.3 0-15.1 0-30.1 0-45.2 0-.9-.1-1.5-.7-1.9-.7-.5-1.5-1-2.2-1.5-.1-.2-.5-.3-.5-.5s.1-.5.4-.6c3.1-1 6.1-1.9 9.2-2.7 7.7-2.1 11.7 1.1 11.7 10.8 0 8.3-2.9 12.3-5.5 14.6 2.5.7 4.8 3.1 4.8 7.2v15.6c0 .5.3.9.7 1.2.8.7 1.6 1.3 2.4 2 .3.2.6.5.6.7s-.4.3-.7.4c-1.3.3-2.6.6-3.9.9-3.4.8-4.8-1-4.8-3.6 0-5.3 0-10.7 0-16 0-3.3-2-5.2-4.6-4.5-.4.1-.8.2-1.3.3zm0-24.9c.4-.1.7-.2 1.1-.3 3.6-1 5.1-4.3 5.1-13.2 0-7.6-1.5-9.7-5.1-8.7-.4.1-.7.2-1.1.3z" fill="#a54c0e"/><path d="m94.3 22.2c0-.9-.2-1.5-.7-1.9-.7-.6-1.5-1.1-2.2-1.7-.1-.2-.5-.3-.5-.6 0-.2.1-.5.4-.5 3.9-.8 7.8-1.6 11.8-2.2.3-.1.5.1.5.4 0 .2-.4.5-.5.8-.8.8-1.5 1.7-2.3 2.6-.5.6-.7 1.3-.7 2.2v45.2c0 .9.2 1.5.7 2 .8.6 1.5 1.2 2.3 1.8.2.2.5.4.5.6s-.1.5-.5.5c-3.9.7-7.9 1.4-11.8 2.2-.3.1-.4-.1-.4-.4 0-.2.4-.5.5-.8.7-.9 1.5-1.8 2.2-2.6.5-.6.7-1.3.7-2.2 0-15.2 0-30.3 0-45.4z" fill="#a54c0e"/><path d="m116.8 13.2c.7-.1 1 .4 1.1 1.1 1.7 10.6 3.3 21.1 5 31.7h.2c1.5-10.9 3.1-21.8 4.6-32.7.1-.8.3-1.3.8-1.3 3.2-.3 6.3-.5 9.5-.6.3 0 .5.2.5.3 0 .3-.3.5-.5.8-.6.8-1.3 1.5-1.9 2.3-.5.6-.6 1.2-.6 2.1v45.2c0 .9.2 1.5.6 2.1.6.7 1.3 1.4 1.9 2.1.2.2.5.4.5.7 0 .1-.2.4-.5.4-3.5.2-7.1.4-10.6.7-.4 0-.5-.2-.5-.3 0-.3.3-.5.5-.9.5-.7 1.1-1.4 1.6-2.1.5-.6.5-1.3.5-2.2 0-12 0-24 0-36.1-.1 0-.1 0-.2 0-1.9 13.8-3.8 27.5-5.8 41.4-.1.4-.2.6-.6.7-.6.1-1.1.1-1.7.2-.2 0-.3-.3-.4-.6-2-13.4-4.1-26.7-6.1-40 0 0-.1 0-.2 0v36.1c0 .9.1 1.6.5 2.1.5.6 1.1 1.2 1.6 1.8.2.3.5.5.5.8 0 .2-.1.4-.5.4-3.1.4-6.2.8-9.3 1.3-.3 0-.5-.2-.5-.3 0-.3.4-.6.5-.8.6-.8 1.3-1.6 1.9-2.4.5-.7.7-1.3.7-2.2 0-15.1 0-30.1 0-45.2 0-.9-.2-1.5-.7-2-.6-.6-1.3-1.3-1.9-1.9-.1-.2-.5-.4-.5-.7 0-.1.1-.4.5-.4 3.4-.8 6.5-1.2 9.5-1.6z" fill="#a54c0e"/><path d="m156.2 54.5c-.1-.4-.3-.7-.7-.7-1.9 0-3.7 0-5.6 0-.2 0-.4.2-.5.5-.4 2.7-.8 5.5-1.1 8.2-.1.5.1 1 .4 1.3l1.7 1.7c.3.4.8.7.8.9s-.2.4-.5.5c-2.9 0-5.8.1-8.7.2-.3 0-.5-.2-.5-.4s.3-.5.5-.8c.7-.7 1.4-1.4 2.1-2.2.5-.5.5-1.2.6-1.9 2.3-16.8 4.6-33.5 6.9-50.2.1-.4.2-.7.6-.7h2.8c.4 0 .6.4.7.8 2.4 16.7 4.8 33.4 7.2 50.2.1.7.3 1.6.8 2 .7.7 1.5 1.3 2.2 2 .2.2.5.5.5.7s-.2.4-.5.4c-3.6-.2-7.3-.3-10.9-.3-.4 0-.5-.2-.5-.5s.3-.4.5-.7c.7-.7 1.4-1.3 2-2 .3-.3.5-.8.4-1.5-.4-2.3-.8-4.9-1.2-7.5zm-1-4.6c.2 0 .4-.2.3-.5-.9-6.1-1.8-12.2-2.7-18.3h-.1c-.8 6.1-1.7 12.2-2.5 18.3-.1.3.1.4.2.4 1.6.1 3.2.1 4.8.1z" fill="#a54c0e"/><path d="m172.9 17.1c0-.9-.2-1.6-.7-2.1-.8-.8-1.5-1.5-2.3-2.3-.1-.2-.5-.5-.5-.7s.1-.4.5-.4c4 .2 7.9.5 11.9.9.3 0 .5.3.5.5s-.4.4-.5.6c-.8.6-1.5 1.3-2.3 2-.5.5-.7 1.1-.7 2v46.8c1 .1 2 .2 3 .3.9.1 1.7-.1 2-.9 1.6-4.7 3.1-9.3 4.7-13.9.1-.3.1-.5.5-.5.2 0 .4.3.4.6v18.3c0 .7-.2 1-.8.9-6.2-.7-12.4-1.3-18.6-1.7-.3 0-.5-.3-.5-.5s.4-.4.5-.6c.8-.7 1.5-1.3 2.3-2 .5-.5.7-1.2.7-2-.1-15.2-.1-30.3-.1-45.3z" fill="#a54c0e"/><path d="m197.3 19.8c0-.9-.2-1.6-.7-2.2-.8-.8-1.5-1.7-2.3-2.5-.2-.2-.5-.5-.5-.7s.2-.4.4-.4c3.3.5 6.6 1 9.9 1.6 7.6 1.3 12.1 9.6 12.1 28.9 0 24.3-4.5 28.3-12.1 27-3.3-.6-6.6-1.1-9.9-1.6-.3 0-.4-.3-.4-.5s.4-.3.5-.6c.8-.6 1.5-1.2 2.3-1.8.5-.4.7-1.1.7-2 0-15.1 0-30.2 0-45.2zm5.8 47.7c.5.1.9.2 1.4.2 2.9.5 5.7-1.8 5.7-24.6 0-20-2.8-23.4-5.7-23.9-.4-.1-.9-.2-1.4-.2z" fill="#a54c0e"/><path d="m224.5 25.2c0-.9-.2-1.6-.7-2.3-.7-.9-1.5-1.8-2.2-2.7-.1-.3-.5-.6-.5-.8s.1-.4.4-.3c3.9.9 7.8 1.9 11.6 3 .3.1.4.3.4.6 0 .2-.4.3-.5.5-.7.5-1.5 1-2.2 1.5-.5.4-.7 1-.7 1.9v45.2c0 .9.1 1.6.7 2.3.7.9 1.5 1.8 2.2 2.8.1.3.5.6.5.8s-.1.4-.4.3c-3.9-1.1-7.7-2.1-11.6-3-.3-.1-.4-.3-.4-.6 0-.2.4-.4.5-.5.7-.5 1.5-1.1 2.2-1.6.5-.4.7-1 .7-1.9 0-15.1 0-30.1 0-45.2z" fill="#a54c0e"/><path d="m244.1 30.5c0 7.4-4.4 10.1-5.4 9.8-.2-.1-.4-.3-.4-.4 0-.3.7-.7 1.1-1.2 2-2.4 2.6-5.5 2.2-6.6-2.1-.8-2.9-2.4-2.9-4.8 0-2 .7-3.4 2.7-2.7 2 .6 2.7 2.7 2.7 5.9z" fill="#a54c0e"/><path d="m265.2 52.5c0 .2-.1.3-.4.2-.2-.1-.4-.4-.4-.7-1.1-6.5-4.6-17.3-7.9-18.5-1.8-.7-2 .8-2 2.8 0 3.7 1 7.6 6.3 21.4 5 13 5.6 15.8 5.6 21.6 0 7.9-3.9 8.7-6.6 7.6-1.9-.8-3.2-2-4-2.9-.8-.8-1.2-1.2-1.5-1.3s-.9.2-2.3.8c-.3.1-.6.3-.9.2s-.4-.3-.4-.5c0-6.3 0-12.5 0-18.8 0-.2.1-.5.4-.4.2.1.4.4.4.7 1.3 6.4 3.6 16.7 7.8 18.3 1.4.5 2.1-.8 2.1-3.1 0-5-2.2-11.3-6.3-21.8-3.9-9.9-5.4-16.1-5.4-21.5 0-7.1 3-8.3 6.7-6.9 1.4.5 3 1.9 4 3.3.4.4.8.8 1.1.9s1-.1 1.7-.5c.6-.3 1.1-.5 1.5-.4s.5.6.5 1z" fill="#a54c0e"/><path d="m273.5 91.9c-1.8 0-3.2-1.4-3.2-3.2s1.4-3.2 3.2-3.2 3.2 1.5 3.2 3.2c.1 1.8-1.4 3.2-3.2 3.2zm0-5.9c-1.5 0-2.7 1.2-2.7 2.7s1.2 2.7 2.7 2.7 2.7-1.2 2.7-2.7-1.2-2.7-2.7-2.7zm.8 4.4-.9-1.5h-.2v1.1l.5.5h-1.8l.5-.5v-2.6l-.5-.5h1.6c.7 0 1.5.3 1.5 1 0 .5-.4.7-.7.8l.7 1.2.5.5zm-.8-2c.3 0 .6-.3.6-.5 0-.3-.2-.5-.6-.5h-.2v1z" fill="#a54c0e"/></svg>