<?xml version="1.0" encoding="UTF-8" standalone="no"?>
<svg
   width="2128.4519"
   height="2139.9724"
   viewBox="0 0 164.10875 164.99701"
   version="1.1"
   id="svg21"
   sodipodi:docname="hungry-jacks-logo-svg-vector.svg"
   inkscape:version="1.2 (dc2aeda, 2022-05-15)"
   xmlns:inkscape="http://www.inkscape.org/namespaces/inkscape"
   xmlns:sodipodi="http://sodipodi.sourceforge.net/DTD/sodipodi-0.dtd"
   xmlns="http://www.w3.org/2000/svg"
   xmlns:svg="http://www.w3.org/2000/svg">
  <defs
     id="defs25" />
  <sodipodi:namedview
     id="namedview23"
     pagecolor="#ffffff"
     bordercolor="#000000"
     borderopacity="0.25"
     inkscape:showpageshadow="2"
     inkscape:pageopacity="0.0"
     inkscape:pagecheckerboard="0"
     inkscape:deskcolor="#d1d1d1"
     showgrid="false"
     inkscape:zoom="0.3508"
     inkscape:cx="1070.4105"
     inkscape:cy="1073.2611"
     inkscape:window-width="1390"
     inkscape:window-height="1027"
     inkscape:window-x="9"
     inkscape:window-y="25"
     inkscape:window-maximized="0"
     inkscape:current-layer="g19" />
  <g
     fill-rule="evenodd"
     clip-rule="evenodd"
     id="g19"
     transform="translate(-14.039848,-13.878)">
    <path
       d="m 96.071,178.875 c 51.269,0 77.234,-9.006 81.89,-26.206 0.773,-3.145 -1.777,-4.099 -4.33,-4.099 H 96.071 18.512 c -2.551,0 -5.104,0.954 -4.332,4.099 4.659,17.2 30.624,26.206 81.891,26.206 z M 96.118,13.878 c -51.271,0 -78.593,17.601 -81.893,35.301 -0.773,4.064 1.78,5.46 4.331,5.46 2.561,0.003 77.562,0 77.562,0 0,0 75,0.003 77.558,0 2.555,0 5.105,-1.396 4.332,-5.46 -3.299,-17.7 -30.621,-35.301 -81.89,-35.301 z"
       fill="#efc031"
       id="path15" />
    <path
       d="m 78.971,80.281 v 8.377 c 0,1.909 -2.617,3.208 -4.411,3.208 -1.792,0 -4.414,-1.03 -4.414,-3.208 V 66.173 c 0,-2.177 2.622,-3.373 4.414,-3.373 2.276,0 3.636,1.269 4.706,2.653 l 7.018,8.836 c 0.551,0.7 1.355,0.811 1.355,0.188 v -8.305 c 0,-2.177 2.62,-3.373 4.414,-3.373 1.791,0 4.413,1.196 4.413,3.373 v 22.486 c 0,2.167 -2.622,3.208 -4.413,3.208 -1.54,0 -2.571,-0.029 -4.427,-2.316 -1.855,-2.285 -7.449,-9.27 -7.449,-9.27 -0.382,-0.492 -1.206,-0.607 -1.206,0.001 z M 56.244,92.007 c 5.229,0 11.226,-3.404 11.226,-8.242 V 66.108 c 0,-2.092 -2.545,-2.996 -4.287,-2.996 -1.739,0 -4.283,0.903 -4.283,2.996 V 82.05 c 0,1.165 -1.396,1.833 -2.656,1.833 -1.259,0 -2.655,-0.668 -2.655,-1.833 V 66.108 c 0,-2.092 -2.544,-2.996 -4.288,-2.996 -1.74,0 -4.285,0.903 -4.285,2.996 v 17.656 c 0.001,4.839 6,8.243 11.228,8.243 z m 90.104,-12.581 c -0.404,0.301 -0.355,0.536 -0.16,0.811 l 4.752,6.189 c 1.24,1.61 0.053,3.864 -1.564,4.882 -1.453,0.915 -4.566,1.042 -5.809,-0.567 l -6.068,-7.872 c -0.338,-0.416 -0.832,-0.246 -0.832,0.299 v 5.826 c 0,2.053 -2.533,2.941 -4.266,2.941 -1.73,0 -4.264,-0.889 -4.264,-2.941 V 66.492 c 0,-2.051 2.215,-3.149 4.264,-3.149 h 8.057 c 7.174,0 9.631,5.534 9.631,8.441 -0.001,2.609 -0.761,5.605 -3.741,7.642 z m -7.996,-4.105 c 1.719,0 3.158,-1.154 3.158,-3.061 0,-1.906 -0.6,-3.109 -3.309,-3.109 -1.002,0 -1.254,0.202 -1.568,0.616 v 5.041 c 0,0.542 0.613,0.513 1.719,0.513 z m -22.709,6.025 c -3.162,0 -3.688,-2.155 -3.688,-3.736 0,-1.579 0.678,-3.609 3.76,-3.609 h 6.172 c 2.182,0 3.533,0.846 3.533,2.938 v 7.932 c 0,4.551 -5.791,7.033 -12.188,7.033 -8.248,0 -14.721,-4.568 -14.721,-14.67 0,-8.577 6.072,-14.521 14.805,-14.521 4.469,0 7.867,0.952 10.223,3.009 1.732,1.53 1.004,3.563 0.328,4.491 -0.678,0.928 -2.182,2.358 -4.914,1.129 -2.736,-1.229 -3.539,-1.258 -5.191,-1.258 -4.627,0 -6.244,3.425 -6.244,7.261 0,3.838 1.992,6.999 5.492,6.999 2.857,0 3.865,-0.884 3.758,-2.37 0,-0.563 -0.262,-0.628 -1.125,-0.628 z m -87.618,0.043 c -0.544,0 -1.036,0.192 -1.036,0.881 v 6.471 c 0,2.132 -2.593,3.144 -4.37,3.144 -1.775,0 -4.369,-1.012 -4.369,-3.144 V 66.542 c 0,-2.137 2.593,-3.144 4.369,-3.144 1.776,0 4.37,1.007 4.37,3.144 v 5.933 c 0,0.655 0.456,0.91 0.965,0.91 h 4.462 c 0.583,0 0.966,-0.255 0.966,-0.91 v -5.933 c 0,-2.137 2.593,-3.144 4.369,-3.144 1.775,0 4.367,1.007 4.367,3.144 V 88.74 c 0,2.132 -2.591,3.144 -4.367,3.144 -1.776,0 -4.369,-1.012 -4.369,-3.144 v -6.47 c 0,-0.688 -0.457,-0.881 -1.001,-0.881 z m 58.933,37.884 c 0,5.562 2.124,10.532 8.194,10.532 1.634,0 1.844,-0.215 3.902,-1.168 3.625,-1.68 5.561,0.291 6.447,1.637 0.889,1.347 1.842,4.07 -0.428,6.289 -2.285,2.339 -5.541,3.711 -10.502,3.711 -11.464,0 -19.425,-8.615 -19.425,-21.05 0,-12.432 7.961,-21.049 19.425,-21.049 4.854,0 7.954,1.11 10.502,3.712 2.27,2.219 1.316,4.907 0.428,6.252 -0.887,1.346 -2.826,3.323 -6.447,1.636 -1.846,-0.859 -2.198,-1.167 -3.902,-1.167 -6.07,0 -8.207,5.102 -8.207,10.665 z m -22.013,14.777 0.562,1.854 c 0.633,2.715 4.258,4.269 6.362,3.895 2.343,-0.414 5.034,-3.036 4.048,-6.043 l -9.741,-31.348 c -0.899,-3.122 -4.566,-4.03 -6.796,-4.102 -2.228,0.071 -5.926,1.032 -6.798,4.102 l -9.739,31.348 c -0.983,3.007 1.703,5.629 4.048,6.043 2.104,0.374 5.729,-1.18 6.362,-3.895 l 0.56,-1.85 c 0.148,-0.584 0.41,-0.713 0.908,-0.713 h 9.362 c 0.669,0.001 0.724,0.266 0.862,0.709 z m -3.752,-9.19 h -3.804 c -0.352,0 -0.649,-0.241 -0.472,-0.68 l 1.867,-6.057 c 0.195,-0.882 0.943,-0.988 1.202,-0.016 l 1.861,6.068 c 0.192,0.563 -0.005,0.685 -0.654,0.685 z m -31.549,15.052 c 8.822,0 11.34,-5.62 11.34,-11.659 l 0.044,-0.638 v -24.819 c 0,-3.109 -3.401,-4.58 -5.729,-4.58 -2.325,0 -5.725,1.471 -5.725,4.58 v 23.375 c 0.248,3.716 -2.154,4.673 -3.082,1.924 -1.322,-3.299 -4.639,-2.574 -5.917,-1.924 -1.273,0.649 -3.098,2.337 -2.331,5.534 1.351,4.879 4.795,8.156 11.4,8.207 z m 110.196,-32.834 -8.197,9.998 c 0,0 -1.688,1.739 -0.371,3.481 1.463,1.925 7.982,9.544 7.982,9.544 0,0 4.344,4.126 -0.125,8.046 -4.467,3.901 -6.998,0.544 -6.998,0.544 L 121.52,125.872 c 0,0 -1.082,-1.045 -1.082,0.863 l 0.016,-0.121 v 8.898 c 0,3.117 -3.412,4.592 -5.742,4.592 -2.338,0 -5.748,-1.475 -5.748,-4.592 v -32.421 c 0,-3.117 3.41,-4.595 5.748,-4.595 2.33,0 5.742,1.478 5.742,4.595 v 8.805 l -0.02,-0.117 c 0,1.092 0.686,1.141 1.156,0.507 l 9.553,-11.457 c 2.137,-2.732 5.324,-2.804 7.914,-0.598 2.297,1.956 2.769,4.38 0.783,6.847 z m 20.185,32.913 c -5.539,0 -8.83,-1.022 -11.562,-3.554 -2.143,-2.117 -1.246,-4.699 -0.41,-5.988 0.838,-1.286 2.697,-3.277 6.076,-1.572 3.006,1.518 3.385,1.163 4.805,1.163 2.105,0 3.053,-1.618 3.053,-3.333 0,-1.714 -1.525,-2.329 -2.648,-2.582 l -2.471,-0.503 c -4.812,-0.956 -9.613,-4.614 -9.605,-10.078 0.014,-9.015 5.609,-15.085 14.699,-15.085 v -0.002 c 4.932,0 7.277,0.777 10.098,3.55 2.139,2.122 1.24,4.635 0.402,5.922 -0.838,1.286 -2.732,3.348 -6.078,1.563 -2.479,-1.317 -2.953,-1.146 -4.102,-1.146 -1.811,0 -2.748,1.28 -2.748,2.842 0,1.41 1.574,2.105 2.52,2.355 l 2.785,0.707 c 5.215,1.311 9.744,5.02 9.801,11.467 0.075,8.296 -4.55,14.274 -14.615,14.274 z m -17.4,-33.927 c -1.275,0.81 -0.023,2.493 1.027,2.411 1.168,-0.091 5.875,-4.232 4.035,-8.351 -0.479,-1.067 -1.527,-1.864 -2.814,-1.864 -1.662,0 -3.01,1.295 -3.01,2.896 0.061,1.977 1.195,2.56 1.572,2.705 0.379,0.145 0.275,0.435 0.24,0.616 -0.239,0.695 -0.409,0.985 -1.05,1.587 z m 19.74,-35.655 -3.26,-5.177 c -0.955,-1.796 -4.018,-2.122 -5.629,-1.535 -2.115,0.769 -3.137,3.073 -2.182,4.867 l 6.428,10.497 c 0.482,0.835 0.699,1.311 0.695,2.152 v 7.58 c 0,2.135 2.596,3.145 4.373,3.145 1.773,0 4.365,-1.01 4.365,-3.145 v -7.58 c 0,-0.842 0.057,-1.212 0.684,-2.128 l 6.441,-10.521 c 0.951,-1.794 -0.115,-4.048 -2.182,-4.867 -1.594,-0.636 -4.676,-0.261 -5.627,1.535 l -3.279,5.14 c -0.262,0.449 -0.563,0.449 -0.827,0.037 z"
       fill="#cc2229"
       id="path17" />
  </g>
</svg>
