<?xml version="1.0" encoding="UTF-8"?>
<svg id="svg" width="380.51" height="286.7" version="1.1" viewBox="0 0 380.51 286.7" xmlns="http://www.w3.org/2000/svg">
 <g id="svgg" transform="translate(-10.543 -16.104)">
  <path d="m118.43 17.539c-2.566 4.793-2.062 4.862 35.424 4.849 35.671-0.013 36.021-0.049 35.607-3.675l-0.264-2.313-34.967-0.208c-33.93-0.203-34.992-0.163-35.8 1.347m-105.46 31.706-1.778 1.246v79.794c0 60.996 0.226 80.021 0.96 80.755 1.174 1.174 24.413 1.332 26.24 0.177 1.027-0.648 1.258-5.849 1.6-36.062l0.4-35.305 7.779 34.589c5.071 22.548 8.254 35.113 9.142 36.094 1.941 2.145 26.384 1.897 27.756-0.282 0.651-1.032-1.528-10.971-9.296-42.4l-10.146-41.051 6.772-36c3.724-19.8 6.962-36.805 7.194-37.788 0.277-1.169-0.155-2.366-1.247-3.458-2.154-2.154-23.778-2.115-25.855 0.046-0.716 0.745-3.226 12.847-6.626 31.942l-5.473 30.742-0.196-30.742c-0.192-30.213-0.224-30.766-1.888-32.142-2.367-1.957-22.588-2.08-25.338-0.155m117.6 0-1.778 1.246v79.926c0 78.202 0.033 79.945 1.547 80.755 2.772 1.483 46.074 1.093 47.596-0.429 1.597-1.597 1.848-18.632 0.297-20.183-0.643-0.643-4.213-0.96-10.8-0.96h-9.84v-49.6h8.755c11.074 0 11.245-0.17 11.245-11.2s-0.171-11.2-11.245-11.2h-8.755v-46.4h9.476c12.304 0 12.124 0.175 12.124-11.818 0-12.218 1.852-11.382-25.2-11.382-18.295 0-21.919 0.193-23.422 1.245m103.2 0-1.778 1.246v79.794c0 60.996 0.226 80.021 0.96 80.755 0.701 0.701 7.03 0.96 23.476 0.96 27.162 0 25.164 0.883 25.164-11.116 0-11.621 0.336-11.284-11.228-11.284h-9.572v-139.11l-1.778-1.246c-1.397-0.978-4.102-1.245-12.622-1.245s-11.225 0.267-12.622 1.245m92.822-0.052-1.8 1.298v79.794c0 60.996 0.226 80.021 0.96 80.755 1.22 1.22 24.045 1.335 26.293 0.132 1.486-0.796 1.547-1.976 1.547-29.853v-29.024l12.091-0.868c15.19-1.089 19.736-2.944 23.063-9.408l2.046-3.976v-74.443l-2.177-4.432c-2.359-4.805-5.193-7.338-10.453-9.347-5.169-1.975-48.964-2.508-51.57-0.628m33.836 22.371 1.964 1.963v26.437c0 29.803 0.034 29.636-6 29.636h-2.8v-60h2.436c1.52 0 3.175 0.738 4.4 1.964m-343.3 194.37c-10.568 4.602-7.657 16.502 4.711 19.254 7.182 1.598 10.157 3.568 10.157 6.728 0 7.409-13.616 8.065-16.156 0.778-1.099-3.154-4.916-3.079-5.26 0.103-0.59 5.445 5.217 9.6 13.416 9.6 18.382 0 18.867-17.568 0.603-21.874-6.614-1.559-8.003-2.58-8.003-5.88 0-6.293 11.095-7.051 14.238-0.973 1.595 3.085 4.635 3.014 5-0.117 0.74-6.352-10.81-11.057-18.706-7.619m33.468-0.607c-1.723 0.695-1.377 27.114 0.401 30.654 4.252 8.463 20.137 9.05 25.186 0.931 2.788-4.482 3.306-29.874 0.64-31.301-3.514-1.88-4.027-0.182-4.027 13.324 0 16.123-1.185 18.662-8.71 18.662-8.217 0-9.222-1.933-9.562-18.397-0.289-13.994-0.631-15.203-3.928-13.873m44.86 0.637c-10.692 4.651-6.437 17.184 6.674 19.658 6.541 1.235 9.523 3.644 8.678 7.011-1.733 6.907-12.62 7.431-15.878 0.764-1.596-3.267-4.919-4.212-5.892-1.676-1.897 4.942 5.472 10.676 13.719 10.676 8.947 0 13.239-3.501 13.239-10.8 0-6.898-1.993-8.446-14.964-11.619-6.014-1.471-7.758-5.553-3.728-8.723 3.806-2.994 12.292-1.093 12.292 2.753 0 1.579 1.4 2.213 3.645 1.649 2.356-0.591 2.494-2.366 0.446-5.724-2.86-4.692-11.997-6.68-18.231-3.969m35.124-0.498c-0.782 0.497-0.966 4.767-0.8 18.588l0.216 17.943h2c1.988 0 2.001-0.047 2.228-8.2l0.228-8.2h19.088l0.228 8.2c0.227 8.153 0.24 8.2 2.228 8.2h2l0.215-18.109c0.185-15.59 0.046-18.173-1-18.575-3.011-1.155-3.615 0.176-3.615 7.97v7.514h-19.2v-7.514c0-6.115-0.236-7.605-1.265-8-1.527-0.586-1.314-0.602-2.551 0.183m45.152 0.332c-1.23 0.9-1.347 2.732-1.152 18.114 0.228 18.097 0.566 19.596 4.107 18.237 1.952-0.748 1.993-36.118 0.044-36.866-1.609-0.618-1.4-0.653-2.999 0.515m62.864-0.471c-0.747 0.301-1 3.983-1 14.559 0 16.153-0.457 17.711-5.191 17.711-2.087 0-3.088-0.545-4.409-2.4-2.886-4.054-6.447-2.683-5.265 2.027 1.584 6.309 15.401 7.098 18.525 1.057 2.699-5.219 1.35-34.77-1.525-33.421-0.074 0.035-0.585 0.245-1.135 0.467m25.707 1c-12.469 5.663-12.294 29.746 0.255 34.989 11.22 4.688 21.826-2.116 23.158-14.856 1.648-15.769-10.334-26.072-23.413-20.133m37.093-0.666c-1.936 1.128-2.156 34.313-0.238 35.904 3.646 3.027 4.024 1.509 4.254-17.077 0.24-19.443-0.113-21.1-4.016-18.827m21.8-0.281c-2.209 0.841-2.375 2.142-2.388 18.719-0.013 17.432 0.275 18.826 3.75 18.151 1.32-0.257 1.438-1.455 1.438-14.666v-14.387l4.865 8c12.12 19.928 12.443 20.397 14.405 20.889 4.094 1.028 4.33-1e-3 4.33-18.901 0-14.744-0.184-17.487-1.2-17.877-3.261-1.252-3.554-0.141-3.782 14.307l-0.218 13.862-7.2-12.032c-6.932-11.584-10.684-16.718-12.121-16.585-0.373 0.035-1.219 0.269-1.879 0.52m38.547 2.417c0.247 2.149 0.387 2.205 6.053 2.435l5.8 0.235v15.59c0 13.696 0.159 15.651 1.309 16.092 3.477 1.335 3.879-0.271 4.108-16.438l0.218-15.314h5.528c4.818 0 5.594-0.205 6.035-1.593 0.946-2.98-0.107-3.207-14.898-3.207h-14.406l0.253 2.2m-85.093 3.424c7.518 4.584 7.591 20.651 0.114 25.068-7.83 4.625-15.968-1.597-15.968-12.208 0-11.519 7.747-17.803 15.854-12.86" fill-rule="evenodd"/>
 </g>
</svg>
