<?xml version="1.0" encoding="UTF-8" standalone="no"?>
<svg
   xmlns:dc="http://purl.org/dc/elements/1.1/"
   xmlns:cc="http://creativecommons.org/ns#"
   xmlns:rdf="http://www.w3.org/1999/02/22-rdf-syntax-ns#"
   xmlns:svg="http://www.w3.org/2000/svg"
   xmlns="http://www.w3.org/2000/svg"
   xmlns:sodipodi="http://sodipodi.sourceforge.net/DTD/sodipodi-0.dtd"
   xmlns:inkscape="http://www.inkscape.org/namespaces/inkscape"
   width="1573.5417"
   height="241.48283"
   viewBox="0 0 416.33076 63.891292"
   version="1.1"
   id="svg58"
   sodipodi:docname="kwik_trip_logo.svg"
   inkscape:version="1.0.1 (3bc2e813f5, 2020-09-07)">
  <metadata
     id="metadata64">
    <rdf:RDF>
      <cc:Work
         rdf:about="">
        <dc:format>image/svg+xml</dc:format>
        <dc:type
           rdf:resource="http://purl.org/dc/dcmitype/StillImage" />
      </cc:Work>
    </rdf:RDF>
  </metadata>
  <defs
     id="defs62" />
  <sodipodi:namedview
     pagecolor="#ffffff"
     bordercolor="#666666"
     borderopacity="1"
     objecttolerance="10"
     gridtolerance="10"
     guidetolerance="10"
     inkscape:pageopacity="0"
     inkscape:pageshadow="2"
     inkscape:window-width="1827"
     inkscape:window-height="1142"
     id="namedview60"
     showgrid="false"
     inkscape:zoom="2.7008691"
     inkscape:cx="721.97563"
     inkscape:cy="120.74143"
     inkscape:window-x="0"
     inkscape:window-y="0"
     inkscape:window-maximized="0"
     inkscape:current-layer="svg58" />
  <g
     style="fill:#e2383f;fill-opacity:1"
     id="g56"
     transform="matrix(4,0,0,4,-1.06,-1.0560887)">
    <path
       d="m 64.853,242.732 v 10.849 h 4.42 l 2.912,-4.621 -0.1,4.621 h 4.72 l 6.63,-10.85 h -4.319 l -3.114,4.621 v -4.62 h -4.018 l -3.314,4.72 v -4.72 z m 14.564,10.849 6.53,-10.85 h 4.017 l -6.428,10.85 z m 6.63,0 6.428,-10.85 h 3.919 l -1.908,3.115 4.319,-3.114 h 5.022 l -6.126,4.52 1.003,6.33 h -4.017 l -0.704,-3.718 -3.617,2.712 -0.3,1.005 z"
       style="fill:#e2383f;fill-opacity:1;fill-rule:nonzero;stroke:none;stroke-width:0.352778"
       transform="translate(-46.607,-237.345)"
       id="path48" />
    <path
       d="m 46.872,253.581 9.442,-15.972 h 4.32 l -3.014,5.525 7.534,-5.525 h 5.425 l -9.544,7.332 1.808,8.64 h -4.42 l -1.105,-6.129 -4.62,3.216 -1.507,2.913 z"
       style="fill:#e2383f;fill-opacity:1;fill-rule:nonzero;stroke:none;stroke-width:0.352778"
       transform="translate(-46.607,-237.345)"
       id="path50" />
    <path
       d="m 55.962,238.965 -5.625,0.503 h 5.625 m -0.452,1.204 -3.918,0.503 h 4.32 m -0.803,0.905 -3.918,0.502 h 4.32 m 8.889,-4.17 -3.917,0.503 h 4.32 m -0.755,0.501 -3.918,0.504 h 4.32 m -13.209,7.282 -3.917,0.502 h 4.32 m -0.253,1.004 -3.917,0.502 h 4.32 m 6.83,0.854 -3.917,0.502 h 4.32 m 0.702,0.604 -3.917,0.502 h 4.318 m 67.994,1.908 6.555,-10.89 h 4.032 l -6.452,10.89 z m -2.142,-6.15 h -3.328 l 1.008,-1.714 h 3.025 c 1.815,0.1 0.908,1.714 -0.705,1.714 m 1.538,-4.74 h -5.85 l -6.352,10.89 h 3.63 l 1.915,-3.328 h 2.32 l 0.202,3.328 h 3.63 l -0.503,-3.63 c 6.427,-0.781 5.67,-7.362 1.008,-7.26 m -16.976,10.891 7.144,-12.054 h 4.352 l 2.345,-3.795 H 110.32 l -2.344,3.795 h 4.91 l -7.031,12.054 z"
       style="fill:#e2383f;fill-opacity:1;fill-rule:nonzero;stroke:none;stroke-width:0.352778"
       transform="translate(-46.607,-237.345)"
       id="path52" />
    <path
       d="m 110.711,238.401 -6.25,0.558 h 6.25 m -0.501,0.781 -4.354,0.56 h 4.8 m 1.004,5.971 -6.25,0.558 h 6.25 m -0.78,0.781 -4.354,0.559 h 4.8 m -0.615,0.891 -4.352,0.56 h 4.798 m 34.387,-2.19 h -3.328 l 1.01,-1.714 h 3.023 c 1.74,0.175 1.034,1.613 -0.705,1.714 m 0.328,-4.74 h -4.589 l -6.503,10.89 h 3.831 l 1.917,-3.328 h 4.99 c 7.715,-0.756 6.656,-8.066 0.354,-7.562 m 3.331,9.53 v 0.16 h -0.46 v 1.201 h -0.187 v -1.2 h -0.46 v -0.161 z m 0.163,0 h 0.266 l 0.39,1.151 0.39,-1.151 h 0.263 v 1.361 h -0.177 v -0.803 c 0,-0.028 0,-0.074 0.002,-0.138 0.002,-0.064 0.002,-0.134 0.002,-0.207 l -0.39,1.148 h -0.183 l -0.39,-1.148 v 0.042 l 0.001,0.152 c 0.002,0.068 0.002,0.119 0.002,0.15 v 0.804 h -0.178 z"
       style="fill:#e2383f;fill-opacity:1;fill-rule:nonzero;stroke:none;stroke-width:0.352778"
       transform="translate(-46.607,-237.345)"
       id="path54" />
  </g>
</svg>
