<?xml version="1.0" encoding="UTF-8" standalone="no"?>
<svg
   xmlns:dc="http://purl.org/dc/elements/1.1/"
   xmlns:cc="http://creativecommons.org/ns#"
   xmlns:rdf="http://www.w3.org/1999/02/22-rdf-syntax-ns#"
   xmlns:svg="http://www.w3.org/2000/svg"
   xmlns="http://www.w3.org/2000/svg"
   xmlns:sodipodi="http://sodipodi.sourceforge.net/DTD/sodipodi-0.dtd"
   xmlns:inkscape="http://www.inkscape.org/namespaces/inkscape"
   width="155.5515"
   height="100"
   viewBox="0 0 41.156333 26.458334"
   version="1.1"
   id="svg8"
   inkscape:version="1.0.1 (3bc2e813f5, 2020-09-07)"
   sodipodi:docname="NCR_logo_color.svg">
  <defs
     id="defs2">
    <clipPath
       id="clipPath835"
       clipPathUnits="userSpaceOnUse">
      <path
         inkscape:connector-curvature="0"
         id="path833"
         d="M 510.699,14.4 H 597.6 v 86.902 h -86.901 z" />
    </clipPath>
    <linearGradient
       id="linearGradient883"
       spreadMethod="pad"
       gradientTransform="matrix(496.44,0,0,-496.44,14.400027,14.401284)"
       gradientUnits="userSpaceOnUse"
       y2="0"
       x2="1"
       y1="0"
       x1="0">
      <stop
         id="stop873"
         offset="0"
         style="stop-opacity:1;stop-color:#ed9a22" />
      <stop
         id="stop875"
         offset="0.25"
         style="stop-opacity:1;stop-color:#f1b51c" />
      <stop
         id="stop877"
         offset="0.5"
         style="stop-opacity:1;stop-color:#e0d120" />
      <stop
         id="stop879"
         offset="0.75"
         style="stop-opacity:1;stop-color:#a6ce39" />
      <stop
         id="stop881"
         offset="1"
         style="stop-opacity:1;stop-color:#54b948" />
    </linearGradient>
    <linearGradient
       id="linearGradient937"
       spreadMethod="pad"
       gradientTransform="matrix(-583.19997,0,0,-583.19997,597.65664,653.10201)"
       gradientUnits="userSpaceOnUse"
       y2="0"
       x2="1"
       y1="0"
       x1="0">
      <stop
         id="stop927"
         offset="0"
         style="stop-opacity:1;stop-color:#ed9a22" />
      <stop
         id="stop929"
         offset="0.25"
         style="stop-opacity:1;stop-color:#f1b51c" />
      <stop
         id="stop931"
         offset="0.5"
         style="stop-opacity:1;stop-color:#e0d120" />
      <stop
         id="stop933"
         offset="0.75"
         style="stop-opacity:1;stop-color:#a6ce39" />
      <stop
         id="stop935"
         offset="1"
         style="stop-opacity:1;stop-color:#54b948" />
    </linearGradient>
    <clipPath
       id="clipPath1087"
       clipPathUnits="userSpaceOnUse">
      <path
         inkscape:connector-curvature="0"
         id="path1085"
         d="M 0,0 H 612 V 792 H 0 Z" />
    </clipPath>
    <clipPath
       id="clipPath1111"
       clipPathUnits="userSpaceOnUse">
      <path
         inkscape:connector-curvature="0"
         id="path1109"
         d="M 0,0 H 612 V 792 H 0 Z" />
    </clipPath>
    <clipPath
       id="clipPath1139"
       clipPathUnits="userSpaceOnUse">
      <path
         inkscape:connector-curvature="0"
         id="path1137"
         d="M 0,0 H 612 V 792 H 0 Z" />
    </clipPath>
    <clipPath
       id="clipPath1163"
       clipPathUnits="userSpaceOnUse">
      <path
         inkscape:connector-curvature="0"
         id="path1161"
         d="M 0,0 H 612 V 792 H 0 Z" />
    </clipPath>
    <clipPath
       id="clipPath835-4"
       clipPathUnits="userSpaceOnUse">
      <path
         inkscape:connector-curvature="0"
         id="path833-4"
         d="M 510.699,14.4 H 597.6 v 86.902 h -86.901 z" />
    </clipPath>
  </defs>
  <sodipodi:namedview
     id="base"
     pagecolor="#ffffff"
     bordercolor="#666666"
     borderopacity="1.0"
     inkscape:pageopacity="0.0"
     inkscape:pageshadow="2"
     inkscape:zoom="2.8"
     inkscape:cx="4.2229261"
     inkscape:cy="20.082006"
     inkscape:document-units="mm"
     inkscape:current-layer="g831"
     showgrid="false"
     units="px"
     inkscape:window-width="3440"
     inkscape:window-height="1377"
     inkscape:window-x="-8"
     inkscape:window-y="-8"
     inkscape:window-maximized="1"
     inkscape:document-rotation="0" />
  <metadata
     id="metadata5">
    <rdf:RDF>
      <cc:Work
         rdf:about="">
        <dc:format>image/svg+xml</dc:format>
        <dc:type
           rdf:resource="http://purl.org/dc/dcmitype/StillImage" />
        <dc:title />
      </cc:Work>
    </rdf:RDF>
  </metadata>
  <g
     inkscape:label="Layer 1"
     inkscape:groupmode="layer"
     id="layer1"
     transform="translate(51.11517,-68.447972)">
    <g
       transform="matrix(0.35277777,0,0,-0.35277777,-26.695174,282.48589)"
       inkscape:label="17fin6864_ncr_integrated_managed_solutions_ds_web11"
       id="g823">
      <g
         id="g829"
         transform="matrix(3.7582871,0,0,3.7582871,-2021.2508,351.80119)">
        <g
           clip-path="url(#clipPath835-4)"
           id="g831">
          <g
             transform="translate(538.2957,63.1473)"
             id="g849">
            <path
               inkscape:connector-curvature="0"
               id="path851"
               style="fill:#54b948;fill-opacity:1;fill-rule:nonzero;stroke:none"
               d="M 0,0 2.317,-2.183 C 2.255,-2.21 2.182,-2.245 2.096,-2.289 1.963,-2.358 1.802,-2.452 1.611,-2.584 1.229,-2.848 0.73,-3.266 0.093,-3.954 l -4.527,-4.792 c -0.777,-0.82 -1.566,-1.47 -2.3,-1.813 l -2.317,2.182 c 0.063,0.029 0.137,0.063 0.22,0.108 0.134,0.067 0.295,0.162 0.486,0.295 0.381,0.263 0.881,0.68 1.517,1.368 l 4.527,4.785 C -1.524,-1.001 -0.734,-0.344 0,0" />
          </g>
          <g
             transform="translate(529.3262,51.562)"
             id="g853">
            <path
               inkscape:connector-curvature="0"
               id="path855"
               style="fill:#54b948;fill-opacity:1;fill-rule:nonzero;stroke:none"
               d="M 0,0 C 1.025,0 1.966,0.204 2.605,0.535 2.896,0.687 3.313,0.95 3.672,1.228 4.029,1.507 4.534,1.941 4.963,2.396 l 4.534,4.778 c 1.142,1.205 1.83,1.576 2.246,1.722 L 14.069,6.695 C 13.583,6.175 7.797,0.012 7.797,0.012 7.401,-0.414 6.986,-0.824 6.704,-1.084 6.433,-1.335 5.968,-1.707 5.728,-1.883 4.367,-2.88 2.549,-3.689 0.1,-3.689 c -5.546,0 -10.033,4.516 -10.033,9.714 0,6.45 5.039,10.192 9.63,10.192 1.406,0.042 2.535,-0.194 3.426,-0.498 0.826,-0.28 1.449,-0.619 1.9,-0.85 C 4.49,14.526 3.973,14.061 3.12,13.15 L 2.191,12.151 C 1.977,12.233 1.027,12.563 -0.193,12.527 -3.137,12.44 -6.358,10.052 -6.242,6.137 -6.134,2.475 -3.115,0 0,0" />
          </g>
          <g
             transform="translate(537.8979,63.6049)"
             id="g857">
            <path
               inkscape:connector-curvature="0"
               id="path859"
               style="fill:#54b948;fill-opacity:1;fill-rule:nonzero;stroke:none"
               d="M 0,0 C -0.293,-0.152 -0.71,-0.414 -1.069,-0.693 -1.426,-0.971 -1.931,-1.405 -2.36,-1.86 l -4.532,-4.779 c -1.144,-1.204 -1.831,-1.575 -2.247,-1.722 l -2.326,2.201 c 0.486,0.52 6.272,6.683 6.272,6.683 0.396,0.425 0.811,0.835 1.093,1.097 0.271,0.25 0.736,0.622 0.977,0.798 1.359,0.997 3.18,1.806 5.628,1.806 5.547,0 10.032,-4.514 10.032,-9.713 0,-6.451 -5.039,-10.192 -9.63,-10.192 -1.406,-0.042 -2.535,0.195 -3.427,0.498 -0.827,0.281 -1.451,0.621 -1.903,0.852 0.564,0.38 1.048,0.799 1.907,1.716 l 0.929,0.999 c 0.214,-0.081 1.164,-0.412 2.383,-0.377 2.945,0.088 6.166,2.477 6.05,6.392 C 8.737,-1.94 5.717,0.535 2.603,0.535 1.577,0.535 0.639,0.332 0,0" />
          </g>
        </g>
      </g>
    </g>
  </g>
</svg>
