<?xml version="1.0" encoding="UTF-8"?>
<svg width="2171.3pt" height="334.83pt" version="1.0" viewBox="0 0 2171.3 334.83" xmlns="http://www.w3.org/2000/svg">
 <g transform="matrix(.1 0 0 -.1 -102.5 439.66)" fill="#ee2855">
  <path d="m2585 4385c-644-104-1230-582-1460-1190-68-179-116-446-95-524 39-146 235-188 333-72 30 37 39 65 61 210 42 269 170 520 375 734 287 299 658 469 1026 470 482 1 944-270 1169-686 103-190 154-386 163-622 9-248-20-401-112-590-117-240-311-434-552-555-173-86-308-114-512-108-129 5-157 9-241 36-306 101-555 356-642 657-19 68-23 102-22 225 1 127 4 156 28 235 116 389 423 650 726 619 148-15 193-12 237 18 88 58 111 195 47 275-57 71-148 97-334 96-256-3-488-104-694-303-155-150-268-332-336-539-88-271-86-566 5-821 157-436 559-780 1020-871 106-21 407-19 515 4 303 64 576 214 800 437 391 392 539 922 419 1504-76 366-272 711-536 941-226 198-486 326-808 400-103 24-146 28-305 31-128 2-213-1-275-11z"/>
  <path d="m8266 4376c-61-23-89-47-118-106l-28-54v-1028l-79 75c-132 124-273 203-441 249-121 32-354 33-483 0-236-59-417-177-558-364-187-249-281-620-249-991 18-220 58-372 141-542 145-297 406-496 723-551 124-22 330-15 441 16 160 43 310 128 434 246l68 64 5-80c4-65 10-87 34-126 42-69 99-97 185-92 80 4 132 35 170 101l24 42 3 1478c1 974-1 1492-8 1516-31 117-157 186-264 147zm-639-1236c163-39 307-123 422-246l71-76v-1053l-37-46c-105-126-264-224-438-270-102-27-271-30-365-5-217 55-396 225-480 453-96 263-85 611 26 851 93 203 250 340 446 392 100 26 247 26 355 0z"/>
  <path d="m20908 4376c-57-21-85-42-116-88l-27-42-3-1494-2-1495 24-53c34-74 96-114 177-114 71 0 104 12 147 53 67 64 67 63 70 373l3 282 181 167c99 93 183 164 186 158 4-5 197-232 428-504 309-362 431-499 458-512 51-24 146-23 196 3 98 50 138 183 84 284-11 19-207 247-437 505-230 259-420 477-423 485-3 9 144 157 410 412 434 416 446 431 446 512-1 72-58 157-123 181-40 15-112 14-150-3-18-8-306-281-642-606l-610-593-10 1948-28 47c-48 83-156 125-239 94z"/>
  <path d="m9945 3529c-159-23-366-105-493-196-241-172-402-424-478-748-27-115-27-462 0-584 84-385 291-664 611-824 283-141 647-168 980-72 165 48 403 177 468 255 46 54 49 151 7 211-41 56-138 84-206 59-15-6-63-35-108-65-93-62-193-107-305-137-114-32-345-32-454 0-195 56-345 166-451 329-69 108-104 203-130 356l-7 37h848c537 0 861 4 884 10 51 14 100 49 122 88 26 44 33 146 18 266-69 544-432 935-938 1011-106 16-272 18-368 4zm365-365c135-31 284-127 367-235 86-113 148-264 168-406l7-53h-736c-405 0-736 1-736 3 0 22 26 137 42 187 91 283 306 477 577 520 73 12 229 4 311-16z"/>
  <path d="m14111 3525c-191-43-364-133-497-257-34-32-64-58-67-58s-7 36-8 79c-4 69-8 85-34 122-90 127-286 115-356-22-19-38-19-61-17-1108l3-1069 31-39c46-57 98-83 167-83 91 0 158 43 192 122 13 33 15 137 15 828v791l93 93c107 108 209 173 334 212 72 23 96 26 185 22 84-3 113-9 158-29 103-48 159-118 197-245 15-53 17-135 21-853 3-858 1-819 56-879 74-83 226-83 303 0 54 58 53 33 53 887v789l44 53c100 121 262 225 411 264 84 21 208 19 288-5 79-25 156-89 193-163 53-103 54-121 54-948 0-546 3-776 11-800 30-88 101-139 194-139 98 0 181 63 204 156 14 54 15 1536 1 1677-20 204-73 332-184 443-77 77-151 119-266 150-93 26-328 26-425 0-182-49-337-138-474-273-52-51-95-92-95-90-16 47-77 139-130 195-75 79-175 137-291 168-85 22-283 27-364 9z"/>
  <path d="m17632 3528c-237-29-483-139-646-289-88-80-106-162-55-245 22-37 49-56 102-73 60-20 121 0 210 68 94 72 192 124 287 151 102 30 315 38 417 16 200-42 346-174 383-346 7-34 10-127 8-247l-3-192-65 52c-173 138-392 209-655 210-181 1-307-28-456-105-187-96-320-261-374-463-23-84-31-270-15-358 51-292 245-512 540-612 109-37 205-48 358-42 253 10 443 80 625 230l47 39v-34c0-18 11-57 25-85 34-74 96-113 177-113 32 0 73 6 91 13 39 17 104 87 114 124 5 16 8 390 8 833v805l-23 90c-84 332-328 526-722 574-99 13-274 12-378-1zm337-1238c130-37 238-99 324-186l47-48v-434l-70-65c-210-194-580-254-826-132-343 168-348 651-9 826 39 20 90 41 115 47s54 14 65 16c51 12 282-3 354-24z"/>
  <path d="m5855 3489c-150-50-253-116-392-252l-71-70-4 101c-3 93-5 104-33 143-90 128-285 116-356-23-18-36-19-75-19-1093 0-1149-3-1081 54-1143 74-83 226-83 303 0 54 58 53 36 53 856v759l28 39c109 149 324 275 528 307 134 22 195 59 229 139 23 56 19 108-13 169-53 102-144 122-307 68z"/>
  <path d="m12550 3491c-152-50-248-110-382-239l-88-85v74c0 95-13 141-53 186-81 92-215 97-305 10-64-62-62-25-62-1146 0-691 4-1028 11-1055 14-49 80-122 126-137 19-6 61-9 93-7 79 6 133 42 166 111l24 52v1520l44 56c52 67 153 145 256 198 94 48 153 68 264 85 137 23 214 81 231 178 10 53-17 137-57 175-64 62-135 68-268 24z"/>
  <path d="m20200 3496c-41-13-93-31-115-41-75-32-207-128-287-207-44-43-81-78-84-78-2 0-4 42-4 93 0 109-19 153-88 202-39 27-52 30-117 30s-78-3-116-30c-23-16-53-50-66-74l-23-44v-1049c0-1137-2-1087 53-1146 77-83 229-83 303 0 56 61 54 22 54 852v764l38 49c125 156 328 269 537 298 111 15 206 84 221 160 18 96-24 192-99 226-55 24-115 23-207-5z"/>
 </g>
</svg>
