<?xml version="1.0" encoding="UTF-8"?>
<svg width="4581.2" height="1944.4" version="1.1" viewBox="0 0 4581.2 1944.4" xml:space="preserve" xmlns="http://www.w3.org/2000/svg"><g transform="matrix(1.3333 0 0 -1.3333 -.3026 1946.1)"><g transform="scale(.1)"><g transform="scale(2.1081)"><path d="m15702 3871.4c-1151 662.84-3804.4 1337.2-4926.6 1426.6l-845.27 67.76c-901.63 73.38-1399.2 112.72-1779.9 112.72s-2623.8-181.69-2623.8-181.69c-1122.8-89.37-3775.6-763.53-4927.1-1426.5-539.59-309.95-598.14-530.81-598.14-1263.4v-1867.5c0-151.89 18.324-372.75 176.68-540.5 182.54-192.99 418.96-192.99 692.81-192.99h14560c273.5 0 509.9 0 692.5 192.99 158.3 167.75 176.7 388.61 176.7 540.5v1868.5c0 732.58-58.6 952.42-598.1 1263.5z" fill="#077954"/><path d="m15702 3871.4c-1151 662.84-3804.4 1337.2-4926.6 1426.6l-845.27 67.76c-901.63 73.38-1399.2 112.72-1779.9 112.72-380.67 0-2623.8-181.69-2623.8-181.69-1122.8-89.37-3775.6-763.53-4927.1-1426.5-539.59-309.95-598.14-530.81-598.14-1263.4v-1867.5c0-151.89 18.324-372.75 176.68-540.5 182.54-192.99 418.96-192.99 692.81-192.99h14560c273.5 0 509.9 0 692.5 192.99 158.3 167.77 176.7 388.61 176.7 540.5v1868.5c0 732.58-58.6 952.42-598.1 1263.5m0 0c539.5-311.12 598.1-530.96 598.1-1263.5v-1868.5c0-151.89-18.4-372.73-176.7-540.5-182.6-192.99-419-192.99-692.5-192.99h-14560c-273.85 0-510.28 0-692.81 192.99-158.36 167.75-176.68 388.61-176.68 540.5v1867.5c0 732.56 58.551 953.42 598.14 1263.4 1151.5 663 3804.4 1337.2 4927.1 1426.5 0 0 2243.1 181.69 2623.8 181.69 380.68 0 878.3-39.34 1779.9-112.72l845.27-67.76c1122.2-89.39 3775.6-763.73 4926.6-1426.6z"/></g><g transform="scale(2.0851)"><path d="m16298 748.62c0-119.4-12.8-291.7-125.4-410.8-131.5-139.05-316.1-139.05-571.9-138.75h-14720c-256.38 0-440.37 0-571.94 138.75-112.61 119.09-125.37 291.41-125.37 410.8v1888c0 715.59 61.71 850.47 510.21 1108.8 1143.9 659.51 3788.7 1330.6 4907.9 1419.5l854.58 68.66c908.76 103.99 1413.2 137.85 1791 137.85 377.74 0 949.98-23.91 1780.1-137.85l854.6-68.66c1119.8-88.9 3764.2-759.96 4908-1419.5 448.3-258.3 510.2-393.16 510.2-1108.8v-1888z" fill="#fff"/><path d="m16298 748.62c0-119.4-12.8-291.7-125.4-410.8-131.5-139.05-316.1-139.05-571.9-138.75h-14720c-256.38 0-440.37 0-571.94 138.75-112.61 119.09-125.37 291.41-125.37 410.8v1888c0 715.59 61.71 850.47 510.21 1108.8 1143.9 659.51 3788.7 1330.6 4907.9 1419.5l854.58 68.66c908.78 103.99 1413.2 137.85 1791 137.85 377.74 0 949.96-23.91 1780.1-137.85l854.6-68.66c1119.8-88.9 3764.2-759.96 4908-1419.5 448.3-258.3 510.2-393.16 510.2-1108.8v-1888h-1.8m0 0h1.8v1888c0 715.59-61.9 850.45-510.2 1108.8-1143.8 659.51-3788.2 1330.6-4908 1419.5l-854.6 68.66c-830.17 113.94-1402.4 137.85-1780.1 137.85-377.78 0-882.19-33.86-1791-137.85l-854.58-68.66c-1119.2-88.9-3763.9-759.96-4907.9-1419.5-448.5-258.28-510.21-393.16-510.21-1108.8v-1888c0-119.4 12.758-291.71 125.37-410.8 131.57-138.75 315.56-138.75 571.94-138.75h14720c255.8-0.301 440.4-0.301 571.9 138.75 112.6 119.11 125.4 291.41 125.4 410.8z"/></g><g transform="scale(1.5102)"><path d="m16300 8294.6-147.1 46.3c-39.3 11.07-988 268.33-1303.5 275.31l71.5 380.01c4.1 30.31-5.3 61.04-25.8 83.78-133.8 182.09-1530.4 584.84-3533.6 584.84-1978.3 0.02-3425.3-372.79-3561.8-536.88-19.89-20.93-28.69-50.18-23.56-78.66l95.44-432.67c-314.64-9-1262-265.93-1303.4-275.29l-146.69-45.89 88.91-102.07 560.49-595.05-121.52-1008.7-14.95-137.46 128.22 32c118 29.05 248.11 68 386.62 109.38 320.56 95.01 683.93 202.8 938.38 202.8 2.04 0 190.73 4.09 376.94 20.07 65.13 5.92 100.6 24.75 108.57 57.97 21.08 87.24-196.66 235.97-253.42 270.79 98.35 86.26 1610 250.72 2741.8 245.21h49.2c1129.7 0 2607.3-161.61 2693.7-244.38-55.7-35.65-275.3-183.96-254.4-271.65 8-33.19 43.2-52.02 108.6-57.94 185.9-15.98 374.8-20.07 377.1-20.07 254.2 0 617.6-107.79 938.2-202.8 138.2-39.34 269.4-78.68 386.1-109.41l128.7-31.97-136.5 1146.2 560.9 595.46z" fill="#df2a27"/><path d="m16300 8294.6-147.1 46.3c-39.3 11.07-988 268.33-1303.5 275.31l71.5 380.01c4.1 30.29-5.3 61.04-25.8 83.78-133.8 182.09-1530.4 584.84-3533.6 584.84-1978.3 0.02-3425.3-372.81-3561.8-536.88-19.89-20.93-28.69-50.18-23.56-78.66l95.44-432.67c-276.43-7.91-1041.4-207.21-1251.1-261.84-28.95-7.53-47.33-12.34-52.35-13.45l-146.69-45.89 88.91-102.07 560.49-595.05-121.52-1008.7-14.95-137.46 128.22 32c116.24 28.6 244.35 66.86 380.54 107.58l6.08 1.8c0.31 0.11 0.41 0.14 0.75 0.24 320.38 94.95 683.39 202.56 937.63 202.56 2.04 0 190.73 4.09 376.94 20.07 65.13 5.92 100.6 24.75 108.57 57.97 21.08 87.24-196.66 235.97-253.42 270.79 98.35 86.26 1610 250.72 2741.8 245.21h49.2c1129.7 0 2607.3-161.61 2693.7-244.38-55.7-35.65-275.3-183.96-254.4-271.65 8-33.19 43.2-52.02 108.6-57.94 185.9-15.98 374.8-20.07 377.1-20.07 254 0 616.9-107.56 937.2-202.51-0.5 0.16 1.5-0.44 1-0.29 43.7-12.44 86.8-24.9 128.8-37.06 40.3-11.64 79.6-23.02 118-33.94 48.3-13.73 94.8-26.7 139.3-38.41l128.7-31.97-136.5 1146.2 560.9 595.46 86.9 100.81m0 0-86.9-100.81-560.9-595.46 136.5-1146.2-128.7 31.97c-44.5 11.71-91 24.68-139.3 38.41-38.4 10.92-77.7 22.3-118 33.94-42 12.16-85.1 24.62-128.8 37.06 0.5-0.15-1.5 0.45-1 0.29-320.3 94.95-683.2 202.51-937.2 202.51-2.3 0-191.2 4.09-377.1 20.07-65.4 5.92-100.6 24.75-108.6 57.94-20.9 87.69 198.7 236 254.4 271.65-86.4 82.77-1564 244.38-2693.7 244.38h-49.2c-1131.8 5.51-2643.4-158.95-2741.8-245.21 56.76-34.82 274.5-183.55 253.42-270.79-7.97-33.22-43.44-52.05-108.57-57.97-186.21-15.98-374.9-20.07-376.94-20.07-254.24 0-617.25-107.61-937.63-202.56-0.34-0.1-0.44-0.13-0.75-0.24l-6.08-1.8c-136.19-40.72-264.3-78.98-380.54-107.58l-128.22-32 14.95 137.46 121.52 1008.7-560.49 595.05-88.91 102.07 146.69 45.89c5.02 1.11 23.4 5.92 52.35 13.45 209.7 54.63 974.64 253.93 1251.1 261.84l-95.44 432.67c-5.13 28.48 3.67 57.73 23.56 78.66 136.45 164.07 1583.4 536.9 3561.8 536.88 2003.2 0 3399.8-402.75 3533.6-584.84 20.5-22.74 29.9-53.49 25.8-83.78l-71.5-380.01c315.5-6.98 1264.2-264.24 1303.5-275.31z"/></g><g transform="scale(1.3616)"><path d="m15890 8031.4-33.2 25.71c-130.9 126.51-1802.4 328.97-3222 309.44-1422.1 20.02-3197-213.34-3291.3-348.98l-15.17-16.35-10.93 43.64c-3.62 18.36-389.66 1806.9-411.46 1901.2 2.04 16.36 9.29 31.59 20.48 43.62 138.31 178.39 1760.6 526.89 3708 526.89 847.4-4.1 1692.8-82.2 2526.7-233.3 613.7-111.4 1053.5-229.1 1129-326.28 8.4-17.04 10.2-36.35 5.2-54.56-21.8-93.82-363.3-1676.5-367-1694.3z" fill="#077954"/><path d="m15890 8031.4-33.2 25.71c-130.9 126.51-1802.4 328.97-3222 309.44-1422.1 20.02-3197-213.34-3291.3-348.98l-15.17-16.35-10.93 43.64c-3.62 18.39-389.63 1806.9-411.46 1901.2 2.04 16.36 9.29 31.59 20.48 43.62 138.31 178.39 1760.6 526.89 3708 526.89 847.4-4.1 1692.8-82.2 2526.7-233.3 613.7-111.4 1053.5-229.1 1129-326.28 8.4-17.04 10.2-36.35 5.2-54.56-21.8-93.84-363.3-1676.5-367-1694.3l-38.3-176.75m0 0 38.3 176.75c3.7 17.79 345.2 1600.4 367 1694.3 5 18.21 3.2 37.52-5.2 54.56-75.5 97.18-515.3 214.88-1129 326.28-833.9 151.1-1679.3 229.2-2526.7 233.3-1947.4 0-3569.7-348.5-3708-526.89-11.19-12.03-18.44-27.26-20.48-43.62 21.83-94.33 407.84-1882.8 411.46-1901.2l10.93-43.64 15.17 16.35c94.36 135.64 1869.2 369 3291.3 348.98 1419.6 19.53 3091.1-182.93 3222-309.44z"/></g><path d="m12433 10644-489.4 2124.6h-10.8c-376.4 0-1761.2-371.2-1761.2-371.2l787.7-831.5-169.3-1468.3s475.2 123.5 694.5 183.5c249.4 69.6 484.5 134.9 687.1 178.1 126.2 26.4 254 43.4 382.4 50.5l101.7 7.1-45.7 25.7z" fill="#077954"/><path d="m12433 10644-489.4 2124.6h-10.8c-376.4 0-1761.2-371.2-1761.2-371.2l787.7-831.5-169.3-1468.3c0.1 0 475.2 123.5 694.5 183.5 249.4 69.6 484.5 134.9 687.1 178.1 126.2 26.4 254 43.4 382.4 50.5l101.7 7.1-45.7 25.7-177 101.5m0 0 177-101.5 45.7-25.7-101.7-7.1c-128.4-7.1-256.2-24.1-382.4-50.5-202.6-43.2-437.7-108.5-687.1-178.1-219.3-60-694.4-183.5-694.5-183.5l169.3 1468.3-787.7 831.5s1384.8 371.2 1761.2 371.2h10.8z"/><g transform="scale(1.4808)"><path d="m14773 7161.2 330.5 1435h7.4c254.2 0 1189.1-251.15 1189.1-251.15l-531.9-559.04 114.5-991.53s-320.9 83.39-469 123.88c-168.4 46.64-327.4 90.7-464 120.34-85.3 18.18-171.7 29.68-258.9 34.06l-68.1 5.25 31 17.33z" fill="#077954"/><path d="m14773 7161.2 330.5 1435h7.4c254.2 0 1189.1-251.15 1189.1-251.15l-531.9-559.04 114.5-991.53c0.1-0.02-321 83.42-469 123.88l-3.4 0.93c-167.1 46.29-324.9 89.98-460.6 119.41-85.3 18.18-171.8 29.68-258.9 34.06l-68.1 5.25 31 17.33 119.4 65.84m0 0-119.4-65.84-31-17.33 68.1-5.25c87.1-4.38 173.6-15.88 258.9-34.06 135.7-29.43 293.5-73.12 460.6-119.41l3.4-0.93c148-40.46 469.1-123.9 469-123.88l-114.5 991.53 531.9 559.04s-934.9 251.15-1189.1 251.15h-7.4z"/></g><g><path d="m2777.2 3583.2-84.14-9.92c3.67-578.75 7.65-1157.3 11.71-1736.4l-1199.6-5.24v4591.5c416.01 155.59 834.33 304.73 1254.4 447.66 997.07 348.63 1619.3-4.06 1635.7-1286.3 16.71-1269.4-602.7-1893-1618-2001.3zm63.75 2190.6-162.78-42.66c2.15-399.72 5-798.83 8.09-1198.2l163.32 30.98c296.95 55.39 424.69 380.86 421.29 741.83-3.63 361.37-132.97 547.58-429.92 468.05z" fill="#df2a27"/><path d="m2777.2 3583.2-84.14-9.92c3.67-578.87 7.65-1157.2 11.71-1736.4l-1199.6-5.24v4591.5c416.01 155.55 834.37 304.73 1254.4 447.66 756.02 264.34 1296.5 125.51 1520.8-516.05 71.53-204.54 110.9-460.24 114.89-770.24 16.71-1269.4-602.7-1893-1618-2001.3m0 0c1015.3 108.24 1634.7 731.92 1618 2001.3-3.99 310-43.36 565.7-114.89 770.24-224.29 641.56-764.76 780.39-1520.8 516.05-420-142.93-838.36-292.11-1254.4-447.66v-4591.5l1199.6 5.24c-4.06 579.29-8.04 1157.6-11.71 1736.4zm63.75 2190.6-162.78-42.66v-0.19c2.15-399.73 5-798.64 8.09-1198l163.32 30.98c296.95 55.39 424.69 380.86 421.29 741.83-3.09 307.62-97.27 488.32-308.44 486.17-36.87-0.35-77.34-6.32-121.48-18.12m0 0c44.14 11.8 84.61 17.77 121.48 18.12 211.17 2.15 305.35-178.55 308.44-486.17 3.4-360.97-124.34-686.44-421.29-741.83l-163.32-30.98c-3.09 399.37-5.94 798.28-8.09 1198v0.19z"/><path d="m9041.8 4171.9-108.56-7.73v-2308.1l-1232.5 0.04-9.61 6419.5s861.92 178.2 1294.4 256.75c1027.6 193.09 1813.4-361.91 1832.2-1960.1 18-1580.5-760-2294.5-1775.9-2400.3zm38.01 2963.4c-54.38-7.77-144.11-25.66-144.11-25.66s-5.31-1069.1 0-1598.8c551.61 46.72 674.65 296.99 674.65 940.16 2.54 505.46-228.01 727.65-530.54 684.33z" fill="#df2a27"/><path d="m9041.8 4171.9-108.56-7.73v-2308.1l-1232.5 0.04-9.61 6419.5s861.96 178.2 1294.4 256.75c870.19 163.52 1566.9-209.41 1771.4-1297.9 37-196.95 57.9-417.34 60.8-662.18 18-1580.5-760-2294.5-1775.9-2400.3m0 0c1015.9 105.82 1793.9 819.77 1775.9 2400.3-2.9 244.84-23.8 465.23-60.8 662.18-204.5 1088.5-901.24 1461.4-1771.4 1297.9-432.46-78.55-1294.4-256.75-1294.4-256.75l9.61-6419.5 1232.5-0.04v2308.1zm38.01 2963.4c-54.42-7.77-144.11-25.66-144.11-25.66 0 0.35-2.38-475.51-2.38-948.91 0-236.8 0.59-473.44 2.38-649.92 551.61 46.72 674.65 296.99 674.65 940.16 2.35 462.96-190.9 688.28-455.86 689.61-24.29 0.11-49.25-1.65-74.68-5.28m0 0c25.43 3.63 50.39 5.39 74.68 5.28 264.96-1.33 458.21-226.65 455.86-689.61 0-643.17-123.04-893.44-674.65-940.16-1.79 176.48-2.38 413.12-2.38 649.92 0 473.4 2.38 949.26 2.38 948.91 0 0 89.69 17.89 144.11 25.66z"/></g><g transform="scale(1.8632)"><path d="m16148 3376.3c-87.3 16.1-174.8 31.89-262.7 47.49 21.4 212.52 49.2 432.2 70.4 641.39 114.6-31.87 230.8-70.26 344.4-104.26-47.5-189.45-103.9-385.74-152.1-584.62z" fill="#df2a27"/><path d="m16148 3376.3c-87.3 16.1-174.8 31.89-262.7 47.49 10.9 108.3 23.5 218.46 36 328.13 12 105.31 24.1 210.93 34.4 313.26 71.9-19.98 144.4-42.54 216.5-64.97 42.9-13.34 85.5-26.61 127.9-39.29-21-83.78-43.9-169.3-66.9-255.4-23.5-88.12-47.4-177.58-69.9-267.33-5.2-20.65-10.3-41.19-15.3-61.89m0 0c5 20.7 10.1 41.24 15.3 61.89 22.5 89.75 46.4 179.21 69.9 267.33 23 86.1 45.9 171.62 66.9 255.4-42.4 12.68-85 25.95-127.9 39.29-72.1 22.43-144.6 44.99-216.5 64.97-10.3-102.33-22.4-207.95-34.4-313.26-12.5-109.67-25.1-219.83-36-328.13 87.9-15.6 175.4-31.39 262.7-47.49z"/></g><g transform="scale(1.8034)"><path d="m16300 1347.1v399.83 2503.2l-17.5 4.51c-201.6 52.45-329.4 86.1-540.4 139.64l-7 2.01v-129.7-1567.2c-169.8 638.64-358.4 1160-552.4 1817.8-10.8 0-21.9 2.6-32.9 4.3l-605.9 129.69v-2109.8c-7.6-490.45-15.2-985.86-22.8-1509.6l649.3 0.02v1787.5c164.7-613.6 380.3-1211.1 539.1-1789.4l590.5 0.03z" fill="#df2a27"/><path d="m16300 1347.1v2903l-17.5 4.51-102.8 26.79-86.3 22.48c-110.8 28.83-213.2 55.35-351.3 90.37l-7 2.01v-1696.8c-101.3 380.77-209.2 719.86-320.9 1071-75.7 237.94-153.1 481.03-231.5 746.77-8.1 0-16.4 1.47-24.6 2.89-2.7 0.48-5.6 1-8.3 1.41l-605.9 129.69v-2109.8l-0.2-14.69-1.9-119.31-1.8-119.87c-6.3-407.26-12.6-822.88-18.9-1255.7l649.3 0.02v1787.5c86.4-322.14 186.9-639.83 285.9-952.63 89.5-282.95 177.8-562.11 253.2-836.75l590.5 0.03v317.17m0 0v-317.17l-590.5-0.03c-75.4 274.64-163.7 553.8-253.2 836.75-99 312.8-199.5 630.49-285.9 952.63v-1787.5l-649.3-0.02c6.3 432.84 12.6 848.46 18.9 1255.7l1.8 119.87 1.9 119.31 0.2 14.69v2109.8l605.9-129.69c2.7-0.41 5.6-0.93 8.3-1.41 8.2-1.42 16.5-2.89 24.6-2.89 78.4-265.74 155.8-508.83 231.5-746.77 111.7-351.16 219.6-690.25 320.9-1071v1696.8l7-2.01c138.1-35.02 240.5-61.54 351.3-90.37l86.3-22.48 102.8-26.79 17.5-4.51z"/></g><g transform="scale(1.584)"><path d="m16300 5338.8-17.4 2.54c-262.5 45.5-766.7 121.89-766.7 121.89v-1603.4h-573.4v1526.3 145.88l-97.8 13.05-617.2 84.8-97 13.45v-46.1c-7.3-778.04-4-1499.9 0-2202.5v-2216.3h811.2v1646.6h574.6v-1646.6h783.3z" fill="#df2a27"/><path d="m16300 5338.8-17.4 2.54c-262.5 45.5-766.7 121.89-766.7 121.89v-1603.4h-573.4v1672.2l-97.8 13.05-617.2 84.8-97 13.45v-46.1c-7.3-778.34-4-1499.6 0-2202.5v-2216.3h811.2v1646.6h574.6v-1646.6h783.3l0.4 4160.4m0 0-0.4-4160.4h-783.3v1646.6h-574.6v-1646.6h-811.2v2216.3c-4 702.93-7.3 1424.2 0 2202.5v46.1l97-13.45 617.2-84.8 97.8-13.05v-1672.2h573.4v1603.4s504.2-76.39 766.7-121.89z"/></g><g transform="scale(2.0266)"><path d="m15656 2523.2c-96.2 102.58-152.9 188.51-152.9 260.25 0 79.05 29.3 148.39 119.5 143.6 106.1-5.92 123.3-138.57 128.4-226.21 0-19.7 2.6-39.82 3.8-58.62h533.7c-16.4 468.94-188 757.32-599.6 839.91-391.9 78.6-768-98.15-774.1-586.19-3.8-300.73 129.3-569.71 351.7-788.27 100.9-100.48 201.8-198.17 303-293.1 96.8-90.38 146.5-153.74 144.8-219.81 0-80.94-43.6-146.55-133.4-146.55-108 0-155.8 109.58-160.5 201.33-1.7 36.93-3.3 78.48-3.6 118.93h-536.4v-79.99c-6.4-496.59 272.1-806.9 679.2-806.9 475.6 0 740 300.4 739.1 703.4 0 238.25-137.1 422.04-346.1 633.93-99.2 98.17-198.1 199.54-296.6 304.28z" fill="#df2a27"/></g><g transform="scale(2.0265)"><path d="m15657 2523.3c-96.2 102.58-153 188.52-153 260.26 0 76.47 27.5 143.85 110.9 143.85 2.8 0 5.7-0.07 8.7-0.24 106.1-5.92 123.3-138.58 128.4-226.23 0-13.34 1.1-26.85 2.3-40.03 0.5-6.36 1.1-12.46 1.5-18.58h533.7c-16.4 468.96-188 757.35-599.7 839.95-348.2 69.85-684-61.96-758.8-434.66-9.3-46.7-14.6-97.19-15.3-151.56-3.8-300.75 129.3-569.75 351.7-788.32 100.9-100.46 201.9-198.19 303-293.11 96.8-90.39 146.6-153.75 144.9-219.82 0-80.94-43.6-146.56-133.4-146.56-108.1 0-155.9 109.58-160.6 201.34-1.7 36.95-3.2 78.48-3.5 118.93h-536.4v-79.99c-6.4-492.41 267.3-801.69 668.8-806.88 3.5-0.038 6.9-0.058 10.3-0.058 474.9 0 739.2 299.4 739.2 701.4v2.04c0 238.27-137.1 422.07-346.1 633.97-99.2 98.18-198.1 199.55-296.6 304.3m0 0c98.5-104.75 197.4-206.12 296.6-304.3 209-211.9 346.1-395.7 346.1-633.97v-2.04c0-402-264.3-701.4-739.2-701.4-3.4 0-6.8 0.02-10.3 0.058-401.5 5.187-675.2 314.47-668.8 806.88v79.99h536.4c0.3-40.45 1.8-81.98 3.5-118.93 4.7-91.76 52.5-201.34 160.6-201.34 89.8 0 133.4 65.62 133.4 146.56 1.7 66.07-48.1 129.43-144.9 219.82-101.1 94.92-202.1 192.65-303 293.11-222.4 218.57-355.5 487.57-351.7 788.32 0.7 54.37 6 104.86 15.3 151.56 74.8 372.7 410.6 504.51 758.8 434.66 411.7-82.6 583.3-370.99 599.7-839.95h-533.7c-0.4 6.12-1 12.22-1.5 18.58-1.2 13.18-2.3 26.69-2.3 40.03-5.1 87.65-22.3 220.31-128.4 226.23-3 0.17-5.9 0.24-8.7 0.24-83.4 0-110.9-67.38-110.9-143.85 0-71.74 56.8-157.68 153-260.26z"/></g><g><path d="m6380.9 7986.4c-428.13-103.99-855.08-214.69-1280.7-331.99-311.25-2029.6-625.82-3970.6-945.98-5811.2l1200.3 3.4c22.58 232.89 69.61 702.23 69.61 702.23h708.4s59.38-458.16 87.62-699.18h1239.6c-359.81 2121.9-719.26 4167.7-1078.8 6136.8zm-851.68-4352.1s140.19 1425.5 205.43 2138.3l13.01 0.04c82.57-687.15 267.92-2138.3 267.92-2138.3z" fill="#df2a27"/><path d="m6380.9 7986.4c-428.13-103.99-855.08-214.69-1280.7-331.99-311.25-2029.6-625.82-3970.6-945.98-5811.2l1200.3 3.4c22.58 232.97 69.57 702.15 69.61 702.23h708.4c0.08-0.59-0.08 0.43 0.04-0.47 2.11-16.17 59.84-462.03 87.58-698.71h1239.6c-359.81 2121.9-719.26 4167.7-1078.8 6136.8m0 0c359.49-1969.1 718.94-4014.8 1078.8-6136.8h-1239.6c-27.74 236.68-85.47 682.54-87.58 698.71-0.12 0.9 0.04-0.12-0.04 0.47h-708.4c-0.04-0.08-47.03-469.26-69.61-702.23l-1200.3-3.4c320.16 1840.7 634.73 3781.6 945.98 5811.2 425.66 117.3 852.61 228 1280.7 331.99zm-851.68-4352.1c0.04 0.11 140.19 1425.4 205.43 2138.3l13.01 0.04c82.61-687.46 267.89-2138 267.92-2138.3h-486.36m0 0h486.36c-0.03 0.35-185.31 1450.9-267.92 2138.3l-13.01-0.04c-65.24-712.85-205.39-2138.2-205.43-2138.3z"/><path d="m13195 9028.3c-451.3-49.49-1214.5-124.65-1674.3-173.51-336.3-2399.1-667.5-4684.7-996.8-6995.3l1343 0.04 73 845.74h887.5s59.4-561.17 90.7-846.36h1366.1c-359.7 2434.3-716.1 4796.9-1089.2 7169.4zm-1117.1-5032.1 289.9 2580.7h22.9l345.8-2577.9z" fill="#df2a27"/><path d="m13195 9028.3c-257.1-28.2-614.6-64.65-960.3-99.88-261.2-26.6-516.2-52.62-714-73.63-224.3-1600.6-446.1-3147.9-666.8-4688.7-110.4-769.88-220.2-1536.2-330-2306.6l1343 0.04 73 845.74h887.5s59.4-561.17 90.7-846.36h1366.1c-359.7 2434.1-716.1 4797.1-1089.2 7169.4m0 0c373.1-2372.3 729.5-4735.2 1089.2-7169.4h-1366.1c-31.3 285.19-90.7 846.36-90.7 846.36h-887.5l-73-845.74-1343-0.04c109.8 770.31 219.6 1536.7 330 2306.6 220.7 1540.8 442.5 3088.1 666.8 4688.7 197.8 21.01 452.8 47.03 714 73.63 345.7 35.23 703.2 71.68 960.3 99.88zm-1117.1-5032.1 289.9 2580.7h22.9l345.8-2577.9-658.6-2.81m0 0 658.6 2.81-345.8 2577.9h-22.9z"/></g><g transform="scale(1.3493)"><path d="m15008 6793c-720.6 25.24-1285-551.38-1287.6-1552.2-2.7-772.64-5.3-1545.3-7.5-2317.9-3-992.74 592.9-1604.7 1300.8-1603.3 707.8 1.44 1247.5 640.19 1257.6 1605.9 8 754.08 10.1 1467.5 18.1 2221.6 10.1 973.48-462.7 1617.8-1281.4 1646zm234.1-4168.1c0-121.57-98.6-220.11-220.1-220.11l-39.7 0.03c-121.5-0.03-220.1 98.51-220.1 220.08v2865.6c0 121.53 98.6 220.14 220.1 220.14h39.7c121.5 0 220.1-98.61 220.1-220.11z" fill="#df2a27"/><path d="m15008 6793c-700.1 24.51-1252.8-519.01-1286-1467.7-1-27.91-1.5-55.87-1.6-84.48l-7.5-2317.9c-3-989.9 589.5-1601.2 1294.8-1603.3 2-0.02 4-0.02 6-0.02 707.8 1.44 1247.5 640.19 1257.6 1605.9 4 377.12 6.5 743.75 9 1110.7 2.6 367.09 5.1 733.38 9.1 1110.6v0.29c10.1 973.48-462.7 1617.8-1281.4 1646m0 0c818.7-28.2 1291.5-672.48 1281.4-1646v-0.29c-4-377.19-6.5-743.48-9.1-1110.6-2.5-366.96-5-733.59-9-1110.7-10.1-965.67-549.8-1604.4-1257.6-1605.9-2 0-4 0-6 0.02-705.3 2.12-1297.8 613.42-1294.8 1603.3l7.5 2317.9c0.1 28.61 0.6 56.57 1.6 84.48 33.2 948.68 585.9 1492.2 1286 1467.7zm234.1-4168.1c0-121.57-98.6-220.11-220.1-220.11l-39.7 0.03c-121.5-0.03-220.1 98.51-220.1 220.08v2865.6c0 121.53 98.6 220.14 220.1 220.14h39.7c121.5 0 220.1-98.61 220.1-220.11v-2865.6m0 0v2865.6c0 121.5-98.6 220.11-220.1 220.11h-39.7c-121.5 0-220.1-98.61-220.1-220.14v-2865.6c0-121.57 98.6-220.11 220.1-220.08l39.7-0.03c121.5 0 220.1 98.54 220.1 220.11z"/></g><g transform="scale(1.1125)"><path d="m15124 8260.7v-5202.6c0-93.97-67.6-174.33-160.1-190.8-4.8-0.28-9.5-0.28-14.5 0h-31.4c-106.5 0.32-193.1 86.8-193.3 193.29v659.31c-330 0-738.8-5.83-1067.8-10.6v-689.27c0-831.17 507.8-1402.6 1266.9-1402.6 64.8 0.28 129.6 4.42 193.8 13.02 830.9 60.08 1174.6 611.22 1174.6 1857.2l8 4770.8z" fill="#df2a27"/><path d="m15124 8260.7v-5202.6c0-93.97-67.6-174.33-160.1-190.8-4.8-0.28-9.5-0.28-14.5 0h-31.4c-106.5 0.32-193.1 86.8-193.3 193.29v659.31c-330 0-738.9-5.83-1067.8-10.6v-689.27c0-831.17 507.8-1402.6 1266.9-1402.6 64.8 0.28 129.6 4.42 193.8 13.02 830.9 60.08 1174.6 611.22 1174.6 1857.2l8 4770.8-1176.2 2.2m0 0 1176.2-2.2-8-4770.8c0-1246-343.7-1797.2-1174.6-1857.2-64.2-8.6-129-12.74-193.8-13.02-759.1 0-1266.9 571.41-1266.9 1402.6v689.27c328.9 4.77 737.8 10.6 1067.8 10.6v-659.31c0.2-106.49 86.8-192.97 193.3-193.29h31.4c5-0.28 9.7-0.28 14.5 0 92.5 16.47 160.1 96.83 160.1 190.8z"/></g><g><path d="m14085 11722-224.9 1821.2 539.2 66.5c363.6 44.5 646.3-110.5 688.9-456.3 42.7-345.5-194.2-586.2-557.7-631.4l-142-17 91-733.8zm407.5 1116.2c134.5 11.4 229.2 137 203.8 269.4-16.7 136.7-118.8 200.2-259.5 183.1l-141.4-17.2 55.7-452.7z" fill="#fff"/><path d="m14085 11722-224.9 1821.2 539.2 66.5c363.6 44.5 646.3-110.5 688.9-456.3 42.7-345.5-194.2-586.2-557.7-631.4l-142-17 91-733.8-394.5-49.2m0 0 394.5 49.2-91 733.8 142 17c363.5 45.2 600.4 285.9 557.7 631.4-42.6 345.8-325.3 500.8-688.9 456.3l-539.2-66.5zm407.5 1116.2c126.4 10.7 217.6 122.2 207.1 245.4-0.7 8-1.7 16-3.3 24-16.7 136.7-118.8 200.2-259.5 183.1l-141.4-17.2 55.7-452.7 141.4 17.4m0 0-141.4-17.4-55.7 452.7 141.4 17.2c140.7 17.1 242.8-46.4 259.5-183.1 1.6-8 2.6-16 3.3-24 10.5-123.2-80.7-234.7-207.1-245.4z"/><path d="m15462 11891-107.7 1832 398.8 22.9 106.7-1831.1z" fill="#fff"/><path d="m15462 11891-107.7 1832 398.8 22.9 106.7-1831.1-397.8-23.8m0 0 397.8 23.8-106.7 1831.1-398.8-22.9z"/></g><g transform="scale(1.0688)"><path d="m15219 11174-2.9 254.6 618 1163.7-611.3-7.3-3.8 305.6 1043.5 12.2 2.9-235-625.2-1183.6 656.7 7.9 3.5-305.7z" fill="#fff"/><path d="m15219 11174-2.9 254.6 618 1163.7-611.3-7.3-3.8 305.6 1043.5 12.2 2.9-235-625.2-1183.6 656.7 7.9 3.5-305.7-1081.4-12.4m0 0 1081.4 12.4-3.5 305.7-656.7-7.9 625.2 1183.6-2.9 235-1043.5-12.2 3.8-305.6 611.3 7.3-618-1163.7z"/></g><g transform="scale(1.1659)"><path d="m15245 10259 11.7 233.2 631.3 1030.1-557.8 28.7 13.8 279.6 955.8-47.7-11-215.2-639.7-1047.9 601-29.9-13.5-279.7z" fill="#fff"/><path d="m15245 10259 11.7 233.2 631.3 1030.1-557.8 28.7 13.8 279.6 955.8-47.7-11-215.2-639.7-1047.9 601-29.9-13.5-279.7-991.6 48.8m0 0 991.6-48.8 13.5 279.7-601 29.9 639.7 1047.9 11 215.2-955.8 47.7-13.8-279.6 557.8-28.7-631.3-1030.1z"/></g><g transform="scale(1.2579)"><path d="m15971 9348.8-10.4 180.74-293.1 37.91-55.3-172.87-314.6 40.09 536.7 1402.5 316.7-40.6 148.8-1489.3zm-42.8 991.57h-4.9l-179.3-546.66 211-27.04z" fill="#fff"/><path d="m15971 9348.8-10.4 180.74-293.1 37.91-55.3-172.87-314.6 40.09 536.7 1402.5 316.7-40.6 148.8-1489.3-328.8 41.54m0 0 328.8-41.54-148.8 1489.3-316.7 40.6-536.7-1402.5 314.6-40.09 55.3 172.87 293.1-37.91zm-42.8 991.57h-4.9l-179.3-546.66 211-27.04-26.8 573.7m0 0 26.8-573.7-211 27.04 179.3 546.66z"/></g></g></g></svg>
