<svg xmlns="http://www.w3.org/2000/svg" width="491.9" height="394.965" xmlns:v="https://vecta.io/nano"><path d="M165.606 144.54c0 8.337 6.913 14.945 18.677 14.987s18.68-6.509 18.68-14.908-6.917-14.965-18.691-14.965-18.667 6.548-18.667 14.886zm-103.688-3.499c-2.42 0-3.741 1.77-3.741 4.373 0 3.233 5.187 5.208 5.187 12.102v96.853c0 10.228-5.983 11.369-5.997 14.683-.007 1.691 1.335 3.09 3.026 3.09h44.475c1.793 0 3.18-1.46 3.233-3.253.078-2.646-6.119-8.441-6.1-13.484l.326-89.41c.035-9.517 2.216-12.773 8.317-12.773 7.463 0 14.742 9.518 14.985 30.26.306 26.029-15.957 31.2-18.949 32.536-.827.369-1.525 1.128-1.525 2.033 0 5.067 9.881 10.167 19.378 10.167 17.691 0 39.164-14.925 39.164-45.428 0-17.346-7.279-41.75-37.131-41.75zm302.624 39.899c-.014 6.12 4.922 11.077 11.041 11.061 6.649-.018 11.009-5.788 12.201-9.782 2.061-6.906 6.69-8.922 10.167-8.904 5.269.026 9.62 4.267 9.659 9.536.072 9.659-10.31 11.704-23.627 14.743-19.564 4.465-26.435 13.4-26.435 27.472 0 13.116 11.552 23.995 28.755 24.056 7.945.028 15.662-2.636 21.796-7.685.825-.679 2.049-.607 2.768.183 4.352 4.776 10.537 7.379 16.999 7.34 13.807-.084 18.484-8.336 18.484-11.569 0-4.88-8.563 2.706-8.563-14.294v-39.919c0-14.722-16.267-21.618-35.117-21.618s-38.097 5.269-38.128 19.382zm-70.989-17.876c-3.518 0-4.555 2.055-4.555 5.878v22.877c0 2.949.998 4.655 3.642 4.655 4.697 0 6.078-11.226 13.075-16.653 3.516-2.727 7.706-4.238 17.976-4.432a1.24 1.24 0 0 1 1.056 1.91l-41.603 63.364c-2.076 3.162.161 7.375 3.944 7.363l14.886-.044c25.296-.074 35.463 24.402 55.798 24.402 17.142 0 29.312-14.536 29.343-17.932.016-1.748-1.442-3.02-3.189-2.971-4.248.12-4.415 2.359-12.793 2.359-18.789 0-25.663-15.962-49.292-15.962L357 183.399c1.141-1.768 8.539-12.057 8.539-14.822a5.51 5.51 0 0 0-5.509-5.513zm-1.787 90.776c-18.728 0-25.663-15.962-49.292-15.962l35.157-54.396c1.142-1.767 8.524-12.061 8.523-14.826-.001-3.036-2.457-5.509-5.493-5.509h-66.493c-3.518 0-4.555 2.031-4.555 5.874v22.797c0 2.949 1.015 4.655 3.638 4.655 4.697 0 6.107-11.22 13.099-16.653 3.501-2.721 7.707-4.256 17.956-4.432a1.24 1.24 0 0 1 1.056 1.91l-41.238 62.816c-1.865-2.37-2.586-5.34-2.586-8.356V169.49c0-4.27-1.38-6.323-4.675-6.323h-28.461c-1.902 0-3.63.324-3.63 2.764 0 3.254 5.33 4.963 5.33 13.484v51.079c0 9.842-6.1 8.276-6.1 13.746 0 2.725 3.11 3.785 3.11 3.785h37.071c.526 0 1.04-.164 1.505-.409.585.253 1.213.409 1.851.409h14.886c25.256 0 35.523 24.402 55.818 24.402 17.041 0 29.323-14.582 29.323-17.936 0-1.75-1.428-2.991-3.112-2.991-4.169 0-4.33 2.339-12.687 2.339zm116.473-50.845c.296.054.433.287.433.782v18.564c0 5.506-4.143 10.097-9.649 10.097s-9.649-4.583-9.649-10.097c0-11.062 14.234-18.036 15.922-18.564 1.512-.472 2.45-.872 2.943-.782zm-284.644 58.49c-2.522 0-4.27 1.222-4.27 3.499 0 4.067 5.167 4.065 5.167 12.971v46.953c-6.336 1.099-12.749 1.756-19.179 1.771-26.212.064-32.534-12.709-35.808-12.709-6.609 0-6.973 35.483 24.16 35.483 8.764 0 19.684-2.97 30.828-6.752v33.147c0 5.043-6.1 10.84-6.1 13.484 0 3.823 2.981 3.515 3.213 3.515h44.53c1.74 0 3.039-1.612 3.03-3.352-.017-3.315-6.1-4.475-6.1-14.683v-45.408c3.663-1.096 7.445-1.845 11.268-1.891 9.638-.114 12.67 5.89 12.67 9.758V376.5c0 8.927-5.167 8.925-5.167 12.952 0 2.277 1.748 3.499 4.25 3.499h39.713c.999 0 5.049.004 5.024-4.373-.016-2.806-5.167-5.856-5.163-12.201l.06-97.79c.003-5.043 6.1-10.816 6.1-13.46 0-3.757-2.448-3.539-3.213-3.539h-44.471c-1.745 0-3.03 1.631-3.03 3.376 0 3.228 5.977 4.451 5.977 14.659v38.251c-3.807-2.368-8.187-3.824-12.67-3.721-3.817.088-7.583.898-11.264 1.91v-38.005c0-6.263 5.183-9.274 5.183-12.201 0-4.433-4.148-4.373-5.02-4.373zm231.766 24.962c-1.021.098-2.151.6-3.181 1.374l-29.239 21.959c-3.571 2.682-4.515 9.475 4.758 9.536v51.183c0 14.702 7.322 24.263 20.966 24.263 10.574 0 16.739-4.209 20.819-11.208 2.57-4.408 2.421-8.293-.385-8.293-2.237 0-2.033 1.037-5.084 1.037-3.742 0-5.572-3.44-5.572-7.161v-50.206h11.875c2.542 0 3.741-2.52 3.741-5.306s-1.199-5.695-3.741-5.695h-11.875v-18.301c0-2.427-1.38-3.345-3.082-3.181zM234.828 307.89c-1.935 0-3.559 1.536-3.559 3.455 0 3.213 4.067 3.317 4.067 11.919v50.063c0 7.3 6.283 21.638 27.309 21.638 17.325 0 26.678-9.476 26.678-9.476s-1.159 7.359 6.263 7.359h24.811c1.387 0 2.522-1.255 2.522-2.562 0-3.884-5.37-5.49-5.37-13.929v-64.38c0-2.339-1.993-4.067-8.277-4.067h-24.402c-1.847 0-3.193 1.652-3.193 3.435 0 4.189 4.841 3.42 4.841 15.112v40.018c0 7.361-5.449 10.958-11.55 10.958s-8.134-6.526-8.134-11.244V313.99c0-6.222-6.895-6.1-11.47-6.1z"/><path d="M148.465 0l-24.137 59.642L0 113.387v6.304h491.9v-6.304L367.573 59.642 343.415 0z" fill="#ed1c24" fill-rule="evenodd"/></svg>