<?xml version="1.0" encoding="UTF-8" standalone="no"?>
<svg
   xmlns:dc="http://purl.org/dc/elements/1.1/"
   xmlns:cc="http://creativecommons.org/ns#"
   xmlns:rdf="http://www.w3.org/1999/02/22-rdf-syntax-ns#"
   xmlns:svg="http://www.w3.org/2000/svg"
   xmlns="http://www.w3.org/2000/svg"
   xmlns:sodipodi="http://sodipodi.sourceforge.net/DTD/sodipodi-0.dtd"
   xmlns:inkscape="http://www.inkscape.org/namespaces/inkscape"
   enable-background="new 0 0 7064.8 4877.9"
   viewBox="0 0 4854.4757 3898.2652"
   version="1.1"
   id="svg30"
   sodipodi:docname="popeyes_logo.svg"
   width="4854.4756"
   height="3898.2651"
   inkscape:version="1.0.1 (3bc2e813f5, 2020-09-07)">
  <g
     fill="#ff7c00"
     id="g28"
     transform="translate(-1105.1742,-489.81177)">
    <path
       d="m 16495.8,12843.1 c 0.3,0 0.2,-0.5 0.2,-1 0,-1.5 -4.4,-87.4 -9.8,-191.1 -5.5,-103.6 -10.1,-188.6 -10.4,-188.8 -2.2,0 -209.1,75.1 -209.9,76.1 -0.3,0.5 45.5,61.9 101.6,136.6 113.3,150.3 126.7,168.2 128.3,168.2 z m -1847,617.5 c -82.3,0 -160.7,-18 -224.2,-51.7 -71.1,-37.9 -122.3,-93.5 -150.8,-164.4 -8.1,-20.1 -12.4,-36.3 -16.9,-64.7 -5.2,-32.6 -6.3,-55 -4.2,-87.7 4.7,-72.9 25,-131 63.6,-181.8 39.5,-51.6 92.9,-89.3 169,-118.9 29.7,-11.7 56,-19.4 129.1,-38.4 65.7,-16.9 86.2,-22.9 105.9,-30.3 24.7,-9.3 47.3,-22.2 59.4,-33.9 18.7,-17.9 27.3,-44 23.8,-72 -1.6,-13.5 -4.7,-22.3 -11.8,-33.2 -21.6,-33.5 -65.9,-52.1 -120,-52.1 -13.9,0 -28.4,1.2 -43.4,3.8 -51.3,8.6 -95.4,29.8 -141.5,67.7 -14.8,12.3 -39.6,36.2 -52.2,50.6 -4.3,4.9 -8.2,8.9 -8.8,8.9 -0.5,-0.2 -150.6,-117.4 -190.7,-149.2 l -12.3,-9.6 10.6,-12.7 c 47.8,-57.7 102.2,-105.6 153.2,-135.3 78,-45.3 170.9,-69 267.6,-69 21.2,0 42.5,1.1 63.8,3.4 128,13.7 231.9,70.7 292.5,160.5 37.8,56.2 56.4,117.1 57.6,189.6 1.6,88.3 -24.6,160.3 -77.8,214.9 -43.2,44.3 -108.9,81.9 -193,110.6 -26.2,9 -43,13.8 -128.1,36.5 -79.4,21.3 -93.4,25.8 -111.8,36.9 -14.1,8.4 -22.8,16.3 -31.1,28.3 -21,29.6 -22.5,74.2 -3.6,101.7 19.6,28.7 57.1,46 107.4,49.4 5.2,0.4 10.4,0.6 15.5,0.6 47.9,0 89.4,-16.3 127.5,-49.8 25.2,-22.1 48.2,-56.1 61,-90 1.6,-4.1 3.5,-7.3 4.3,-7.3 1.5,0.2 170.7,131.1 179.5,138.8 l 4.8,4.3 -9.1,18.3 c -11.4,23.3 -17.1,33.2 -29.8,52.3 -30.7,46.3 -62.9,79.3 -105.4,108.4 -34.5,23.6 -69.6,39.7 -112.6,51.6 -17.2,4.9 -72.2,13.4 -91.5,14.3 -8.6,0.4 -17,0.6 -25.5,0.6 z m 806.4,-61.1 c -1.6,0 -2.5,-0.6 -2.6,-1.4 -0.1,-0.9 -37.7,-254.7 -83.7,-564 -46.1,-309.1 -83.5,-562.4 -83.3,-562.7 0.9,-0.9 248.9,-37.5 253.6,-37.5 1.1,0.8 168.6,1126.9 168.1,1127.9 -0.5,0.6 -240.6,36.6 -250.9,37.6 -0.4,0 -0.8,0.1 -1.2,0.1 z m -1623.8,-49.5 c -1.5,0 -57.6,-12.1 -125,-26.8 -67.7,-14.7 -123.2,-27.5 -123.5,-28.3 -0.3,-0.8 24.6,-116.7 55.3,-257.8 149.2,-684.7 186.5,-854.7 187,-855.4 h 0.1 c 6,0 249.4,53.4 250.1,54.9 0.3,0.9 -26.5,126.1 -59.8,278.5 -33.2,152.4 -87.1,399.2 -119.5,548.3 -32.6,149.2 -60,274.8 -60.9,279 -1.1,5.3 -2.2,7.6 -3.8,7.6 z m -657.5,-147.1 c -1.5,0 -53.4,-22.6 -116.5,-50.6 -63.6,-28.3 -116.6,-51.8 -117.4,-52.2 -1.2,-0.5 36.9,-88.1 128.7,-295.6 134.1,-303.4 146.2,-332.1 157,-372.8 5.7,-21.7 9.6,-44.2 11.4,-64.9 1.5,-20.2 -2,-54.2 -7.4,-70.4 -13.4,-39.7 -37.9,-70.7 -75.8,-95.4 -37.9,-24.9 -88.1,-43.2 -128.3,-46.6 -5.7,-0.5 -11.2,-0.8 -16.7,-0.8 -75,0 -132,47.7 -187,155.1 -7.3,14.4 -58.6,128.6 -114,254 -137.6,311.9 -160.2,362.9 -160.7,363.5 -2.2,0 -234.8,-102.8 -234.9,-103.8 -0.1,-1 36.2,-83.3 212.3,-482.3 77.6,-175.5 89.1,-199.3 119.2,-245.2 19.4,-29.5 53.5,-71 75.8,-91.7 67.6,-62.9 141.5,-94.5 237.7,-101.5 8.7,-0.6 17.6,-0.9 26.7,-0.9 80.5,0 172.8,25.1 265.2,72.2 126.5,64.4 209.9,157 241.7,268.3 26.9,94.2 13.9,206.6 -38.4,330.7 -4.6,10.7 -58.6,133.3 -119.9,272.4 -61.5,139.2 -122.2,276.6 -134.8,305.3 -12.8,28.7 -23.5,52.7 -23.9,53.2 z m 3281.9,-38.5 c 0,0 -161.8,-203.9 -359.5,-453 -359.4,-452.9 -388.6,-489.6 -388.6,-490.5 h 0.1 c 0.2,0.1 0.8,0.7 1,0.7 0.9,-1.4 247.9,-90.5 250.7,-90.5 h 0.1 c 0.3,0.5 35.7,47.7 78.7,104.9 69.7,92.9 77.7,103.2 80.8,103.2 0.2,0 0.3,0 0.4,-0.1 12.7,-4 342.2,-124.2 342.8,-125.1 0.4,-0.7 -2.3,-59.7 -6.1,-131.2 -3.9,-71.3 -6.8,-130 -6.5,-130.4 0.5,-0.7 249.2,-91.2 250.6,-91.2 0.2,0.1 5.1,188.5 11.2,418.5 6,230.2 13.1,500.3 15.7,600.3 2.7,100.1 4.4,182.5 4,183.2 -0.5,0.9 -62.6,23.9 -138.1,51.4 -75.5,27.3 -137.3,49.8 -137.3,49.8 z m -4618,-1001.4 c 6.6,0 13.8,-0.4 23.8,-1.1 89.4,-6.7 187.9,-66.4 275.2,-166.5 74,-84.8 104.8,-174.3 88.8,-258.4 -6.3,-34.1 -23.4,-71.1 -47,-101.9 -37.2,-48.7 -87.8,-86.3 -136.6,-101.8 -25.7,-8.1 -39.2,-10 -71.6,-10 -0.5,0 -1,0 -1.4,0 -27.6,0.2 -31.7,0.5 -46.7,3.8 -73.6,15.8 -143.6,57.9 -214.8,129.5 -63.5,63.7 -100.9,123.5 -116.8,186.3 -8.4,33.6 -9.5,73.6 -3,107.7 6.6,34.6 26.7,76 52,107.1 49.7,61.2 111.5,97.6 177.2,104.1 8,0.8 14.2,1.2 20.9,1.2 z m 26,261 c -5.9,0 -14.8,-0.2 -22.8,-0.6 -78.6,-3.4 -159.3,-28.4 -230.9,-71.4 -84.2,-50.6 -163.2,-130.4 -214.4,-216.7 -36.4,-61.2 -59.4,-126.5 -69,-196.7 -3,-22 -4.2,-67.9 -2.2,-91.8 7.8,-99 43.7,-193.6 107.3,-282.5 26.6,-37.4 51.7,-66.1 92.1,-106 101.6,-100.1 208.1,-161.3 322.4,-185.2 35.9,-7.6 70.7,-11.3 104.9,-11.3 41.7,0 82.6,5.6 123.5,16.8 92.9,25.6 177.9,77.8 252.6,155.1 90.6,93.9 143,197 158.8,313 2.9,21.5 4,67.5 2.2,91.3 -11.5,147.6 -84.5,283.7 -218.8,408.1 -85.9,79.7 -178.5,133.7 -273.5,159.5 -34.7,9.3 -74.1,16 -102.9,17.2 -8.8,0.4 -19.6,1 -23.9,1.1 -1.1,0.1 -3,0.1 -5.4,0.1 z m 5598.3,277 c -0.3,0 -67.8,-94 -149.9,-208.9 -82.2,-115 -231.4,-323.7 -331.6,-463.7 -100.1,-140.1 -181.7,-255.1 -181.2,-255.7 1,-1.4 198.4,-142.8 199.7,-143 v -0.1 c 0.6,0.1 25.2,33.7 54.6,74.9 29.5,41.2 123.8,173.2 209.6,293.3 84.1,117.7 153.4,214.1 156.5,217.7 h 0.1 c 0,-1.6 -1.9,-21.6 -4.5,-45.5 -2.8,-24.8 -11.6,-106.1 -19.8,-180.7 -52.1,-472.4 -65.5,-596 -65.2,-596.6 1.7,-2.4 227.6,-162.7 229.4,-162.7 1.2,0.7 35.6,48.6 290.8,405.6 69.1,96.7 181.2,253.6 249.2,348.7 67.9,95 123,173.1 122.5,173.5 -0.4,0.4 -45.6,32.7 -100.2,71.8 -54.2,39 -99.2,70.5 -100.7,70.5 -0.8,-0.4 -43.5,-59.7 -94.9,-131.7 -51.5,-72 -152.1,-212.9 -223.7,-312.9 -87.7,-122.7 -129.1,-179.6 -130.5,-179.6 -0.3,1.4 26.4,195.7 59.2,431.6 32.8,236.1 59.3,429.5 59,430.1 -0.6,1 -227.2,163.1 -228.4,163.4 z m 1173.6,-1437.4 c 0.4,-0.1 0.1,-1.3 -0.7,-2.6 -1,-1.6 -18.1,-28.2 -38.1,-59.3 -20,-31 -65.6,-101.9 -101.2,-157.4 -35.7,-55.5 -65.4,-101.2 -66.1,-101.8 -0.9,0 -33.9,37.8 -73.5,84.5 -39.9,46.9 -72.1,85.5 -71.8,85.7 1.5,1.1 347.1,149.6 351.2,150.9 z m -3035.1,-390.4 c 53.8,0 104.4,-32 133.6,-85.5 39.7,-72.7 19.9,-165.2 -52.9,-198.3 -17.4,-8.7 -36.2,-12.9 -55.1,-12.9 -52.7,0 -105.6,32.1 -129.9,85.6 -39.7,79.3 -19.9,165.3 46.2,198.3 19.2,8.7 38.9,12.8 58.1,12.8 z m -5030.3,428.7 -77.9,-101.8 c -59.4,-77.4 -77.7,-102.3 -76.8,-103.5 0.8,-0.9 44.1,-34.4 96.3,-74.4 52.1,-39.9 127.7,-97.7 167.7,-128.4 337.7,-258.8 637.5,-488.2 639.1,-489 h 0.1 c 1.7,0 16.2,17.9 51.6,64.2 44.6,58.3 103.7,135.3 349.9,457 38.3,50 69.6,91.4 69.6,91.9 -0.1,0.7 -35.9,28.6 -79.8,62.2 -44,33.5 -87.4,66.8 -96.6,73.8 l -16.6,12.8 -90.8,-118.3 c -49.9,-65.1 -119.9,-156.7 -155.7,-203.4 -35.7,-46.8 -65.8,-85.8 -66.7,-86.5 0,0 -0.1,-0.1 -0.2,-0.1 -2.6,0 -24.3,16 -95.7,70.7 -121.2,92.9 -396.5,303.6 -506.7,388 -47.1,36 -91.3,69.8 -98.2,75.2 z m 8189.7,259 c -1,0 -87,-34.1 -191.5,-76 -159.8,-64 -481.5,-192.8 -845.5,-338.6 -43.5,-17.4 -79.2,-32.1 -79,-32.7 0.3,-1.3 169.4,-201.1 171.3,-202.2 0,-0.1 0,-0.1 0.1,-0.1 1.9,0 55.4,22.6 119.9,50.4 65.1,28.2 119.2,51.1 120.8,51.1 h 0.1 c 1.9,-0.2 238.9,-278.4 238.6,-280.1 -0.2,-0.4 -31.9,-49.9 -70.7,-110.1 -53.5,-83 -70.2,-109.7 -69.4,-111.3 1.8,-3.3 169.2,-200.6 170.8,-201.3 1.1,0 20.6,30.9 49.3,78.3 26.2,43.4 166.3,274.3 311.2,513.2 144.8,238.9 263.2,435.1 262.9,436.1 -0.3,1.7 -187.2,222.5 -188.9,223.3 z M 10414.8,8206.4 c 9.2,0 19.1,-0.7 25.7,-1.9 20.1,-3.6 35.6,-10.9 49,-23 21.5,-19.6 31.3,-43 32.1,-76.4 0.7,-30.4 -5.7,-53.4 -20.1,-72.5 -13.6,-18 -31.9,-29.5 -56.3,-35.3 -6.5,-1.6 -8.8,-2 -18.5,-2 -2.8,0 -6.3,0 -10.7,0.1 -22.1,0.2 -27.2,0.9 -41.1,6.1 -32.3,11.9 -53.3,37.6 -60.3,73.4 -1.9,10.1 -2.5,32.7 -1.1,43.7 3.9,29 15.8,51.1 36,67 13.8,10.8 28.8,17 48.4,19.8 4.5,0.6 10.6,1 16.9,1 z m 9233.9,171.5 c -8.6,0 -16.9,-0.2 -24.5,-0.8 -62.4,-4.8 -121.2,-28.9 -170.8,-70.1 -30.2,-25.1 -54.3,-55.7 -72.1,-91.2 -6.7,-13.6 -14,-30.7 -13.5,-32 0.3,-0.7 133.4,-101.5 134.2,-101.5 0.2,0 1,2.1 1.8,4.7 2.5,8 8.4,22.4 12.9,31.6 21.9,44.8 59.9,77 101.1,85.5 7.9,1.6 16.7,2.4 25.5,2.4 13.4,0 26.8,-1.8 36.9,-5.4 19,-6.6 30.7,-17.7 37.1,-35.3 6.5,-17.8 5.9,-42.2 -1.4,-63.9 -11.6,-34 -43.4,-74 -125.7,-157.8 -31.6,-32 -41.9,-43 -84.4,-89.5 -19.1,-20.9 -52.3,-57.2 -73.8,-80.7 -21.6,-23.6 -40.4,-44.1 -41.8,-45.8 l -2.6,-3 0.2,-79.3 0.2,-79.3 258,-0.2 257.8,-0.2 v 171 h -142.6 c -78.5,0 -142.7,0.2 -142.7,0.4 0,0.2 31.9,33.8 71,74.5 88.8,92.8 95.7,100.1 104.9,110.4 38.7,43.2 69.3,88.2 84.6,124.2 22.9,53.9 27.7,118.3 13,171.9 -10,36.5 -28.3,68 -53.8,92.7 -32.1,31 -70.2,50.5 -118.1,60.4 -19.4,4 -46.6,6.3 -71.4,6.3 z m -841.3,-12.3 v -167 h 153.9 16 c 109.5,0 137.8,-0.2 137.5,-0.9 -0.2,-0.6 -18.8,-47.4 -41.3,-104.1 -149.7,-377 -209.4,-527.3 -209.4,-527.8 0,-0.3 31.9,-0.6 74.9,-0.6 h 19.9 l 94.8,0.2 125.7,321.2 125.8,321.2 v 157.8 z m -8908.9,7.9 -97,-48.8 -97,-48.9 -0.9,-63.7 -0.9,-63.6 63.7,-0.8 63.7,-1 -2.9,-294 -3,-294.1 92,-1 92,-1 4.4,407.8 4.4,407.7 -59.2,0.7 z m 508.1,5.2 c -5.8,0 -10.9,-0.1 -14.8,-0.4 -57.1,-3.7 -103.4,-17.9 -144.1,-44.4 -15.1,-9.8 -22.7,-16 -37.4,-30.4 -17.8,-17.5 -28.6,-31.3 -40.2,-51.5 -28,-48.7 -41.2,-107.3 -39,-172.2 1.7,-50.6 10.6,-89.9 28.3,-126.1 24.6,-50.2 60.9,-84.7 109.8,-104.3 23.9,-9.6 45.5,-14.4 74.3,-16.5 5.6,-0.4 11.1,-0.6 16.7,-0.6 30.7,0 60.3,6.3 88.4,18.7 27.6,12.3 50.2,28.5 68.3,49.2 6.7,7.6 15.3,18.9 18.3,24.1 0.8,1.3 1.8,2.5 2.2,2.6 h 0.1 c 0.7,-0.2 0,-17.7 -1.6,-37.4 -4,-51.3 -16.3,-92.8 -35.8,-121.2 -19.8,-28.7 -43.2,-45.3 -73,-51.3 -5.2,-1 -13.5,-1.6 -21.9,-1.6 -5.2,0 -10.5,0.2 -14.9,0.7 -22.9,2.5 -40.8,10.4 -53.8,23.8 -8.8,9.1 -16.8,22.8 -21.8,37.6 -1.2,3.4 -2.3,6.3 -2.4,6.3 -1.2,0 -162.2,-31.7 -162.6,-32.1 -0.7,-0.7 3.5,-17.4 8.3,-32.5 25.2,-80.6 65.6,-130.2 128.1,-156.7 33.8,-14.4 75.6,-21.7 117.4,-21.7 31.4,0 62.8,4.2 90.9,12.5 39.5,11.9 75.3,31.3 103.8,56.3 38.8,34.1 73.2,87.7 94.2,147.4 15.8,44.7 25.1,93.4 30.3,158.3 1.6,20.2 2.4,91.8 1.2,111.1 -4.5,73.3 -14.2,125.2 -32.6,173.2 -39,101.4 -119,163.5 -227.4,176.6 -13.2,1.4 -38.8,2.5 -57.3,2.5 z m 8271.7,-3436 -14.3,-12.2 23.1,-79.2 -74.7,35.2 -11.4,-9.8 68.4,-80.1 8.6,7.3 -53.8,63 66.9,-32 11.5,9.8 -21.1,71.1 53.7,-62.9 11.5,9.7 z m -88.8,-75.8 -57.2,-48.9 9.8,-11.4 22.9,19.5 58.6,-68.6 8.6,7.3 -58.7,68.8 25.8,22 z m -3253.1,-15.1 h -75.9 v -15.1 h 30.4 v -91 l 11.3,-0.1 v 91.1 h 34.2 z m 117.6,0 h -19 l -34.1,-75.9 -34.2,75.9 h -15.1 v -106.2 l 11.3,-0.1 v 83.5 l 30.4,-68.3 h 15.1 l 30.4,68.3 v -83.4 l 15.2,-0.1 z m -983.8,6674.9 c -139.5,0 -307.2,-96.5 -329.2,-315.9 -33,-297.5 204.9,-449.6 284.3,-476 51.4,-14.7 115,-39.5 207.7,-39.5 74.3,0 167.4,15.9 288,65.9 -6.6,-271 -6.6,-899 -6.6,-1216.3 0,-416.5 39.7,-1077.5 -138.8,-1441 -165.3,-330.7 -347.6,-485.5 -583.7,-485.5 -18.8,0 -38,1 -57.5,2.9 -297.5,39.6 -403.2,317.3 -297.5,832.8 105.8,515.7 191.7,1031.2 -244.6,1414.6 -166.7,146.2 -386.1,242.6 -644.7,242.6 -408.1,0 -913.8,-240 -1464.1,-903.6 l 588.4,-713.9 c 0,0 174.1,259.4 425.4,259.4 84.3,0 177.3,-29.3 275.3,-107.4 390,-310.7 119,-945.3 79.3,-1308.8 -46.2,-469.3 72.7,-846.1 257.8,-1143.6 238,-383.4 793.2,-700.7 1388.2,-813.1 46.3,-6.6 92.5,-13.2 132.2,-19.8 l 66.1,-654.4 449.5,-0.1 59.5,641.3 c 1031.2,79.3 2485.5,1090.7 1837.7,2783 -296.6,777.9 -928.6,1937.1 -932,1943.4 h 6.5 c 251.2,66.2 297.5,390.1 6.6,561.9 l 211.6,198.4 -304.1,125.5 112.4,416.5 -654.5,-257.8 c 0,0 -165.2,343.7 -416.4,350.4 -218.2,0 -317.3,-152.1 -317.3,-152.1 0,0 -52.9,158.6 -205,198.3 -24.5,7.9 -51.9,11.9 -80.5,11.9 z m -2673.7,-5990.8 -381,-412.1 -381,-411.9 91.8,-85.7 c 50.5,-47 92.3,-85.5 93.1,-85.5 0.6,0 54.7,57.7 119.9,128.1 l 118.6,128 79.5,10 c 42.6,5.4 77.8,9.5 80.1,9.5 h 0.1 c 0.4,-0.4 -30.3,-116.4 -68.3,-257.7 -37.8,-141.5 -68.8,-258 -68.7,-259.1 0.1,-2.3 214.6,-200.9 216.9,-200.9 0.8,0.8 40.6,158.8 145.5,577.3 24.3,96.9 44.3,176.4 44.6,176.6 0.2,0.4 559,73.6 566.7,74.3 0.4,0 -49.5,46.4 -110.9,103.2 -96,88.8 -112,103.1 -115.4,103.1 -3.5,-0.1 -510.1,-73.4 -524.3,-75.9 l -6,-1 142.3,153.9 142.3,154 -92.9,85.9 z m 5990.8,-5.6 c -1,0 -41.6,-36.2 -90.6,-80.7 -51.8,-47.1 -89.3,-82 -88.8,-82.9 0.3,-0.9 74.8,-83.2 165.5,-183.1 90.5,-99.9 204.7,-225.7 253.6,-279.6 48.9,-53.8 88.6,-98.1 88.5,-98.3 -1,0 -15.9,5.4 -33.8,11.9 -18.5,6.8 -198.6,72.6 -400.5,146.6 -201.8,73.8 -367.7,134.6 -368.5,135.1 -3,0 -205.7,-183.8 -205.1,-186 0.3,-0.9 50,-56.3 110.5,-123 60.6,-66.8 191.3,-210.9 290.5,-320.3 99.3,-109.4 218.6,-240.9 264.9,-292.2 46.5,-51.3 85.1,-93 85.9,-93 1.6,0.4 175.7,158.2 177.7,161.1 1.1,1.6 -9.4,13.9 -62.3,72.1 -123.1,135.6 -360,397 -384.7,424 -13.6,15.1 -25.4,28.3 -26,29.4 -0.1,0.2 0,0.3 0.4,0.3 1.8,0 9.4,-2.1 18.8,-5.2 11.3,-3.7 184.6,-61.7 385.1,-128.9 200.3,-67.2 364.7,-121.9 365.8,-121.9 1.3,0.3 203.2,183.2 204.4,185.1 0.2,0.6 -36,41.5 -80.7,90.7 -84.4,92.8 -329,362.5 -545.2,600.9 -68.4,75.5 -124.8,137.5 -125.4,137.9 z M 12643.9,4830 12453.2,4513.9 c -105,-173.9 -235.6,-390.3 -290.2,-481 -78,-129.2 -99.1,-165 -97.6,-165.9 7.2,-4.8 212.2,-128.2 213.7,-128.7 1.6,0 41.7,65.4 137.4,224.1 74.5,123.5 204.9,339.4 289.6,479.8 84.8,140.2 154.1,255.5 154.3,256 0.1,0.5 -46.6,29.2 -103.9,63.9 -57.3,34.7 -106.1,64.1 -108.3,65.6 z m 4257.8,-29.6 c -0.6,-0.1 -52.5,-25.7 -115.2,-56.8 -62.7,-31.1 -210.4,-104.2 -328.3,-162.7 -117.9,-58.4 -214.4,-106.2 -214.6,-106.4 -0.2,-0.4 488.1,-986.6 489.9,-989.1 0.3,-0.4 0.6,-0.6 1.3,-0.6 h 0.1 c 2.3,0 8.5,2.9 27.1,12.2 14.9,7.4 164.6,81.5 332.6,164.7 168.1,83.3 305.9,151.8 306.5,152.4 0.6,0.8 -102.2,210.6 -104,211.8 -0.6,0 -74,-36.1 -163.4,-80.5 -89.7,-44.5 -189.5,-93.9 -221.6,-109.8 -31.6,-15.7 -58.1,-28.2 -59.4,-28.2 -0.1,0 -0.1,0 -0.1,0 -1.8,1.4 -92.1,185 -91.5,185.9 0.3,0.5 87.3,43.7 193.2,96.3 169.9,84.1 192.7,95.7 192,97.9 -0.6,2.3 -102.6,209 -103.5,209.6 -1.1,0 -27.5,-13 -258.8,-127.7 -69.1,-34.3 -126.4,-62.5 -127.5,-62.8 -1.5,0 -12.9,22 -43,82.7 -35.5,71.5 -41.1,83.3 -39.4,84.5 1.1,0.7 98.7,49.2 217.3,107.9 118.4,58.6 215.5,106.8 215.7,107.1 0.8,1.2 -103.9,211.6 -105.4,211.6 z m -3838.9,-228 c -0.3,-0.1 -17.7,-50.4 -38.7,-111.7 -21,-61.4 -37.9,-111.9 -37.6,-112.1 0.3,-0.2 63.9,-22.2 141.4,-48.7 77.4,-26.5 140.9,-48.3 141.2,-48.5 0.3,-0.1 -39.3,-116 -87.8,-257.3 -48.4,-141.5 -111.9,-326.2 -140.9,-410.7 -29,-84.6 -52.6,-153.9 -52.3,-154.1 1.2,-0.8 233.3,-80.3 234.6,-80.3 1.2,0.1 20.4,56.1 198.4,574.8 46.2,135 84.2,245.7 84.5,246 0.9,0 63.3,-21.2 139.5,-47.4 76.8,-26.3 140.6,-48 142.1,-48.1 h 0.1 c 2.4,0 7.3,13.1 40.8,110.8 21,61.2 37.6,111.6 37.1,112.1 -1.3,0.7 -801.4,275.2 -802.4,275.2 z m 2938,-196.1 c -0.8,0 -1.8,-0.1 -2.8,-0.2 -2.3,-0.5 -57.9,-11 -123.6,-23.1 -65.6,-12.3 -119.5,-22.5 -119.6,-22.7 -0.1,-0.1 16.9,-93.1 38,-206.5 21,-113.4 38,-206.4 37.9,-206.7 -0.4,-0.7 -384.5,-71.4 -388.2,-71.4 -0.5,0.2 -17.9,93 -38.8,206.1 -20.9,113.1 -38.3,205.8 -38.8,206.2 -2.2,0 -57.2,-9.8 -123.6,-22.1 l -122.8,-22.6 1.8,-11.9 c 1,-6.4 34.7,-188.9 74.6,-405.4 40.1,-216.4 84.6,-457.7 99.1,-536.1 14.5,-78.4 26.9,-142.9 27.5,-143.3 h 0.1 c 5.1,0 245.3,43.9 246.2,45 0.3,0.3 -18.1,100.9 -40.8,223.6 -22.7,122.6 -40.8,223.3 -40.4,223.8 1.1,1.4 381,71.6 387,71.6 0.7,-0.4 19.8,-101.2 42.5,-223.9 22.6,-122.7 41.2,-223.2 41.4,-223.3 2.9,0 246.5,45.4 246.9,46.1 0.3,0.3 -45.1,247.1 -100.7,548.1 -55.7,301.1 -101.3,547.9 -101.4,548.5 0,0.1 -0.6,0.2 -1.5,0.2 z m -1560.6,-126.2 c -13.9,0 -27.6,-0.5 -41,-1.5 -24.5,-1.7 -62.3,-7.2 -81.7,-11.6 -60.7,-13.9 -126.9,-43.5 -175.7,-78.5 -93.6,-67.4 -167,-177.2 -199.8,-299.1 -24.3,-90.2 -33.5,-198.8 -25.2,-295.5 2.7,-30.1 14.2,-95.2 21.1,-119.2 43.9,-152.6 135.2,-260.3 271.7,-320.3 65.8,-28.9 152.8,-45.9 234.2,-45.9 3.7,0 7.4,0 11.1,0.1 134.5,2.6 241.4,49 325.1,141 13.9,15.2 44.8,57.4 55.3,75.6 22.1,37.8 40.1,77.4 55.3,121.8 l 5.6,16.4 -119.6,34.6 c -65.8,19 -120.5,34.6 -121.7,34.7 -1.1,0 -4.6,-6.4 -9,-16.4 -32.7,-75.7 -68.6,-120.5 -115.9,-144 -18,-9.1 -35.9,-14 -62.2,-17.3 -11.7,-1.5 -23.2,-2.2 -34.6,-2.2 -66,0 -126.2,24.5 -169.5,69.9 -39.3,40.9 -63.1,93.2 -73.9,161.3 -6.3,40.3 -7.8,77 -4.9,123.2 8.7,138.1 50.8,232.7 128.8,288.7 36.9,26.4 84.2,40.4 131.5,40.4 24.6,0 49.2,-3.8 72.5,-11.5 18,-6 30.2,-12.6 46.1,-24.6 28.2,-21.3 45.3,-47.6 60.5,-92.7 4.3,-12.9 13.1,-68.4 13.6,-86 0.2,-7.5 0.6,-13.6 0.9,-13.8 h 0.1 c 1.7,0 56.6,8 123.2,18.1 104.9,15.8 122.9,18.8 123.2,20.5 0.2,1.1 -0.3,13 -1.2,26.4 -2,34.2 -12.1,97.6 -19.7,123.7 -26.2,92 -67.9,156.1 -131.7,202.6 -32.6,23.8 -66.1,40.4 -108.8,53.9 -56.2,17.6 -121.7,27.2 -183.7,27.2 z m 327,9565.2 c 3083.4,0 5582.9,-2499.6 5582.9,-5582.9 0,-3083.4 -2499.5,-5582.9 -5582.9,-5583 -3083.4,0 -5582.9,2499.6 -5582.9,5583 -0.1,3083.3 2499.5,5582.9 5582.9,5582.9 z m 0,437.3 c -3324.9,0 -6020.2,-2695.3 -6020.2,-6020.2 0,-3324.9 2695.4,-6020.2 6020.2,-6020.2 3324.9,0 6020.2,2695.4 6020.2,6020.2 0,3324.9 -2695.3,6020.2 -6020.2,6020.2 z"
       transform="matrix(0.23923599,0,0,-0.23923599,-0.4375,3899.5467)"
       id="path24" />
    <path
       d="m 12216.7,268.2 c 240.7,0 423.2,-141.1 439.8,-398.3 l -912.7,-0.1 v 0.1 c 58,240.7 215.7,398.3 472.9,398.3 z m 4430.8,0 c 248.9,0 423.1,-141.1 448,-398.3 l -912.7,-0.1 v 0.1 c 58.1,240.7 207.5,398.3 464.7,398.3 z m -11973,0 c 481.2,-24.9 597.4,-224.1 597.4,-390 0,-240.6 -157.7,-423.2 -597.4,-431.5 z m 4895.4,-16.6 c 473,-24.9 589.1,-224.1 589.1,-390 0,-232.3 -157.6,-414.9 -589.1,-423.2 z M 7379.4,193.5 c 331.9,0 547.6,-257.2 547.6,-572.5 0,-323.6 -215.7,-580.8 -547.6,-580.8 -340.2,0 -555.9,257.2 -555.9,580.8 0,315.3 215.7,572.5 555.9,572.5 z m 12417.9,-1531.6 h -0.7 0.3 z m -19.6,-3 h 15.9 3 8.2 c 9,0 15.1,-0.1 16.3,-0.2 10.3,-0.8 16.5,-3.2 20.5,-7.3 4,-4 6,-9.3 6,-17.8 0,-11.8 -3.8,-18.8 -11.2,-22.5 -1.8,-0.9 -5.5,-2.3 -7.8,-2.7 -5.2,-1 -8.6,-1.3 -25,-1.3 -4.2,0 -3.8,0 -8.7,0 l -17.1,0.1 -0.1,25.9 z m 76.3,-82.2 0.1,-0.1 -0.1,0.1 c -0.1,0 -0.1,0 0,0 z m -88.7,122.7 c -0.7,0 -1.4,0 -2.1,0 -14.6,0 -26.5,-0.2 -26.5,-0.2 h -2.9 v -3 c -0.1,-47.8 -0.1,-107.5 -0.1,-107.5 l 0.1,-107.2 v -3 h 3 l 18.9,-0.1 h 18.9 3.1 v 3 44.2 l 0.1,41.2 h 16.8 l 17.6,0.1 h 0.2 c 3.1,-7.6 22.7,-56.3 31.3,-77.5 l 3.6,-9.1 0.8,-1.9 h 2 21 0.1 c 16.6,0 20.9,0.3 21,0.3 l 4.2,0.3 -1.7,3.9 -32.9,75.8 c -2.9,6.8 -5.2,12.2 -6.5,15.2 h -0.2 c 9,3.8 16.7,9.2 22.3,15.7 8,9.3 12.4,20.4 13.9,34.5 l 0.1,1.2 c 0.4,3.7 0.4,13.2 0,16.6 -1.4,13.7 -5.2,24.4 -12.2,33.4 -1.9,2.4 -6.8,7.2 -9.4,9.1 -11.1,8.4 -25.5,13 -44.9,14.7 -2.6,0.2 -32.6,0.3 -56.6,0.3 z m 40.6,48.4 h 3.3 0.1 0.1 c 87.8,0 158.9,-71.2 159,-159 v -0.1 c 0,-87.9 -71.3,-159.2 -159.2,-159.2 -87.9,0 -159.2,71.3 -159.2,159.2 0,86.8 69.4,157.3 155.7,159.2 h 0.2 z M 4549,892.2 c -282.8,0 -665,-20.5 -837,-34.8 l 16.6,-597.5 190.8,8.3 V -1607 l 755.1,-0.1 v 473.1 c 1103.5,49.8 1360.7,630.6 1360.7,1037.1 0,580.8 -481.2,945.9 -1360.7,987.4 -38.6,1.2 -80.8,1.7 -125.5,1.7 z m 4895.3,-25 c -281,0 -656.7,-20.5 -828.6,-34.8 l 16.6,-597.4 190.8,16.6 V -1607 l 746.8,-0.1 v 464.8 c 1095.2,49.8 1344.2,630.6 1344.2,1028.9 0,580.8 -473,937.7 -1344.2,979.1 -38.7,1 -81,1.5 -125.6,1.5 z m 4514.8,-101.1 -821.4,-0.1 871.2,-1717.4 V -1607 l 788.3,-0.1 v 655.7 l 921,1717.6 -838.1,-0.1 -472.9,-1003.9 z m 5846.8,-1976.1 -0.2,-0.1 c -109.5,-1.8 -197.8,-91.1 -197.8,-201.1 v -0.1 c 0,-111.2 90.1,-201.3 201.3,-201.3 111.2,0 201.3,90.1 201.3,201.3 0,111.2 -90.1,201.3 -201.3,201.3 z M 7371.1,840.7 c -697,0 -1269.5,-506.1 -1269.5,-1228 0,-721.9 572.5,-1228 1269.5,-1228 697,0 1269.5,506.1 1269.5,1228 0,721.9 -580.8,1228 -1269.5,1228 z m 11450.3,24.9 c -531.1,0 -945.9,-248.9 -945.9,-755 0,-390 190.8,-580.9 564.2,-746.8 107.9,-41.5 248.9,-82.9 356.8,-124.4 91.3,-41.5 149.3,-82.9 149.3,-157.7 0,-66.4 -58,-124.5 -240.6,-124.5 -165.9,0 -406.5,66.4 -580.8,174.3 l -248.9,-514.4 c 240.6,-174.3 531,-240.6 829.7,-240.6 464.7,0 962.5,199.2 962.5,730.2 0,398.2 -257.2,589.1 -531,697 -141.1,58.1 -298.7,116.1 -406.6,165.9 -99.5,41.5 -141,91.3 -141,157.6 0,99.6 99.5,149.4 224,149.4 190.8,0 340.1,-91.3 472.9,-232.4 l 414.9,431.5 c -174.3,240.6 -489.5,389.9 -879.5,389.9 z m -6613,-8.3 c -721.8,0 -1228,-522.8 -1228,-1244.6 0,-713.6 473,-1252.9 1311,-1252.9 373.4,0 697,91.2 962.5,290.4 l -298.7,531.1 c -190.8,-132.8 -398.3,-199.1 -638.9,-207.4 -307,0 -497.8,149.3 -564.2,389.9 h 0.1 l 1601.3,-0.1 c 16.6,116.3 24.9,224.1 24.9,340.3 -0.1,506.1 -273.9,1153.3 -1170,1153.3 z m 4439.1,0 c -730.2,0 -1236.3,-522.8 -1236.3,-1244.6 0,-713.6 489.5,-1252.9 1311,-1252.9 340.2,0 630.6,74.7 879.5,240.6 l -273.8,547.6 c -174.3,-116.2 -365.1,-174.3 -580.9,-174.3 -298.7,0 -489.5,141 -555.9,389.9 h 0.2 l 1601.2,-0.1 c 16.6,116.3 24.9,224.1 24.9,332 -8.3,514.6 -282.1,1161.8 -1169.9,1161.8 z"
       transform="matrix(0.29784799,0,0,-0.29784799,-0.4375,3899.5467)"
       id="path26" />
  </g>
</svg>
