<?xml version="1.0" encoding="UTF-8"?>
<!DOCTYPE svg PUBLIC "-//W3C//DTD SVG 1.1//EN" "http://www.w3.org/Graphics/SVG/1.1/DTD/svg11.dtd">
<svg xmlns="http://www.w3.org/2000/svg" version="1.1" width="380px" height="156px" style="shape-rendering:geometricPrecision; text-rendering:geometricPrecision; image-rendering:optimizeQuality; fill-rule:evenodd; clip-rule:evenodd" xmlns:xlink="http://www.w3.org/1999/xlink">
<g><path style="opacity:0.126" fill="#020100" d="M 99.5,-0.5 C 104.5,-0.5 109.5,-0.5 114.5,-0.5C 133.711,6.26007 139.711,19.2601 132.5,38.5C 133.348,39.9911 134.681,40.6578 136.5,40.5C 144.503,39.4686 152.503,39.302 160.5,40C 164.5,37.3333 168.5,34.6667 172.5,32C 182.033,28.9195 190.7,30.4195 198.5,36.5C 207.548,29.3095 217.215,28.1428 227.5,33C 230.429,36.1016 233.429,38.9349 236.5,41.5C 246.031,39.7329 255.365,40.3995 264.5,43.5C 273.582,39.9302 282.749,39.5969 292,42.5C 291.459,29.3445 297.626,20.8445 310.5,17C 329.826,14.0749 340.993,22.2416 344,41.5C 355.21,46.3718 361.377,54.8718 362.5,67C 362.015,71.2991 360.681,75.2991 358.5,79C 359.517,80.0495 359.684,81.2161 359,82.5C 357.698,83.0848 356.531,83.7515 355.5,84.5C 355.5,85.1667 355.167,85.5 354.5,85.5C 354.167,84.1667 353.833,84.1667 353.5,85.5C 350.133,88.2089 349.133,91.5422 350.5,95.5C 351.167,96.5 351.833,97.5 352.5,98.5C 351.167,98.8333 351.167,99.1667 352.5,99.5C 352.5,99.8333 352.5,100.167 352.5,100.5C 350.5,100.5 348.5,100.5 346.5,100.5C 344.265,100.795 342.265,100.461 340.5,99.5C 348.744,92.8251 351.41,84.3251 348.5,74C 354.507,63.4704 352.507,54.637 342.5,47.5C 341.833,47.5 341.5,47.1667 341.5,46.5C 341.167,45.1667 340.833,45.1667 340.5,46.5C 338.278,45.3124 335.945,44.3124 333.5,43.5C 333.995,34.8407 330.995,27.8407 324.5,22.5C 324.5,21.8333 324.167,21.5 323.5,21.5C 323.158,20.6618 322.492,20.3284 321.5,20.5C 320.791,19.596 319.791,19.2627 318.5,19.5C 315.696,18.3622 312.696,18.1955 309.5,19C 306.975,19.4238 304.975,20.5905 303.5,22.5C 300.833,23.1667 299.167,24.8333 298.5,27.5C 297.662,27.8417 297.328,28.5084 297.5,29.5C 296.833,29.5 296.5,29.8333 296.5,30.5C 295.596,31.209 295.263,32.209 295.5,33.5C 294.167,36.5 294.167,39.5 295.5,42.5C 296.167,42.5 296.5,42.8333 296.5,43.5C 294.374,44.0482 292.374,44.7148 290.5,45.5C 288.599,45.2465 287.933,45.5798 288.5,46.5C 287.833,47.8333 287.167,47.8333 286.5,46.5C 286.167,45.1667 285.833,45.1667 285.5,46.5C 284.833,46.5 284.5,46.1667 284.5,45.5C 283.833,44.1667 283.167,44.1667 282.5,45.5C 281.833,45.5 281.5,45.1667 281.5,44.5C 277.5,43.1667 273.5,43.1667 269.5,44.5C 268.209,44.2627 267.209,44.596 266.5,45.5C 265.209,45.2627 264.209,45.596 263.5,46.5C 262.508,46.3284 261.842,46.6618 261.5,47.5C 260.833,47.5 260.5,47.8333 260.5,48.5C 259.508,48.6716 258.842,48.3382 258.5,47.5C 257.508,47.6716 256.842,47.3382 256.5,46.5C 255.508,46.6716 254.842,46.3382 254.5,45.5C 255.557,44.794 255.224,44.4607 253.5,44.5C 252.432,43.5655 251.099,43.2322 249.5,43.5C 247.866,42.8389 246.033,42.5056 244,42.5C 240.549,42.4205 237.382,43.0872 234.5,44.5C 233.508,44.3284 232.842,44.6618 232.5,45.5C 231.508,45.3284 230.842,45.6618 230.5,46.5C 229.249,48.2199 227.749,48.5532 226,47.5C 225.75,42.7573 223.917,38.7573 220.5,35.5C 220.5,34.8333 220.167,34.5 219.5,34.5C 218.791,33.596 217.791,33.2627 216.5,33.5C 210.108,31.5182 204.775,33.1849 200.5,38.5C 199.833,38.5 199.5,38.8333 199.5,39.5C 197.973,39.427 196.973,40.0937 196.5,41.5C 195.167,41.8333 195.167,42.1667 196.5,42.5C 192.859,48.2605 191.026,47.5938 191,40.5C 189.955,39.6266 189.122,38.6266 188.5,37.5C 189.833,37.1667 189.833,36.8333 188.5,36.5C 188.5,35.8333 188.167,35.5 187.5,35.5C 187.158,34.6618 186.492,34.3284 185.5,34.5C 184.791,33.596 183.791,33.2627 182.5,33.5C 180.167,32.1667 177.833,32.1667 175.5,33.5C 174.209,33.2627 173.209,33.596 172.5,34.5C 171.508,34.3284 170.842,34.6618 170.5,35.5C 169.833,35.5 169.5,35.8333 169.5,36.5C 167.596,36.7376 166.262,37.7376 165.5,39.5C 163.973,39.427 162.973,40.0937 162.5,41.5C 161.833,41.5 161.5,41.8333 161.5,42.5C 160.833,42.5 160.5,42.8333 160.5,43.5C 159.833,43.5 159.5,43.8333 159.5,44.5C 158.508,44.3284 157.842,44.6618 157.5,45.5C 156.833,45.5 156.5,45.8333 156.5,46.5C 155.833,46.5 155.5,46.1667 155.5,45.5C 155.5,44.8333 155.167,44.5 154.5,44.5C 153.833,43.1667 153.167,43.1667 152.5,44.5C 151.833,44.5 151.5,44.1667 151.5,43.5C 150.833,42.1667 150.167,42.1667 149.5,43.5C 146.5,43.5 143.5,43.5 140.5,43.5C 139.167,42.1667 137.833,42.1667 136.5,43.5C 134.599,43.2465 133.933,43.5798 134.5,44.5C 134.158,45.3382 133.492,45.6716 132.5,45.5C 132.167,44.1667 131.833,44.1667 131.5,45.5C 130.508,45.6716 129.842,45.3382 129.5,44.5C 128.508,44.6716 127.842,44.3382 127.5,43.5C 128.183,42.3559 127.849,42.3559 126.5,43.5C 124.283,42.6314 121.95,42.298 119.5,42.5C 119.337,40.1432 119.503,37.8098 120,35.5C 127.892,25.0846 127.058,15.418 117.5,6.5C 117.5,5.83333 117.167,5.5 116.5,5.5C 116.167,4.16667 115.833,4.16667 115.5,5.5C 114.209,5.73731 113.209,5.40397 112.5,4.5C 111.209,4.73731 110.209,4.40397 109.5,3.5C 111.477,2.49314 111.143,2.49314 108.5,3.5C 106.167,3.5 103.833,3.5 101.5,3.5C 103.292,2.69088 105.292,2.19088 107.5,2C 102.156,1.37187 97.1557,2.2052 92.5,4.5C 90.6203,4.22911 89.287,4.89578 88.5,6.5C 87.5084,6.32842 86.8417,6.66175 86.5,7.5C 84.5956,7.73758 83.2623,8.73758 82.5,10.5C 81.8333,10.5 81.5,10.8333 81.5,11.5C 79.5,11.5 78.5,12.5 78.5,14.5C 77.8333,14.5 77.5,14.8333 77.5,15.5C 72.2169,15.0956 67.2169,15.7623 62.5,17.5C 59.0836,17.5275 56.0836,18.5275 53.5,20.5C 51.4471,20.4021 49.7804,21.0687 48.5,22.5C 46.9731,22.427 45.9731,23.0937 45.5,24.5C 44.5084,24.3284 43.8417,24.6618 43.5,25.5C 42.8333,25.5 42.5,25.8333 42.5,26.5C 40.9731,26.427 39.9731,27.0937 39.5,28.5C 38.8333,28.5 38.5,28.8333 38.5,29.5C 37.8333,29.5 37.5,29.8333 37.5,30.5C 36.8333,30.5 36.5,30.8333 36.5,31.5C 35.8333,31.5 35.5,31.8333 35.5,32.5C 34.6618,32.8417 34.3284,33.5084 34.5,34.5C 33.8333,34.5 33.5,34.8333 33.5,35.5C 32.6618,35.8417 32.3284,36.5084 32.5,37.5C 30.8958,38.287 30.2291,39.6203 30.5,41.5C 29.6618,41.8417 29.3284,42.5084 29.5,43.5C 28.7632,46.7254 28.0965,50.0588 27.5,53.5C 26.209,53.2627 25.209,53.596 24.5,54.5C 23.5084,54.3284 22.8417,54.6618 22.5,55.5C 21.5084,55.3284 20.8417,55.6618 20.5,56.5C 19.5084,56.3284 18.8417,56.6618 18.5,57.5C 16.9731,57.427 15.9731,58.0937 15.5,59.5C 12.8333,60.1667 11.1667,61.8333 10.5,64.5C 9.83333,64.5 9.5,64.8333 9.5,65.5C 8.83333,65.5 8.5,65.8333 8.5,66.5C 7.09368,66.9731 6.42702,67.9731 6.5,69.5C 5.66175,69.8417 5.32842,70.5084 5.5,71.5C 2.13782,76.969 0.971148,82.969 2,89.5C 2.1829,86.6353 2.6829,83.9686 3.5,81.5C 3.5,84.5 3.5,87.5 3.5,90.5C 2.266,92.0484 2.266,92.7151 3.5,92.5C 4.33825,92.8417 4.67158,93.5084 4.5,94.5C 3.16667,94.8333 3.16667,95.1667 4.5,95.5C 5.16667,95.5 5.5,95.8333 5.5,96.5C 4.35594,97.8493 4.35594,98.1826 5.5,97.5C 6.33825,97.8417 6.67158,98.5084 6.5,99.5C 5.16667,99.8333 5.16667,100.167 6.5,100.5C 6.5,101.167 6.83333,101.5 7.5,101.5C 11.6576,106.326 16.6576,109.992 22.5,112.5C 22.5,113.5 22.5,114.5 22.5,115.5C 22.5,119.5 22.5,123.5 22.5,127.5C 21.3559,128.849 21.3559,129.183 22.5,128.5C 23.3382,128.842 23.6716,129.508 23.5,130.5C 22.1667,130.833 22.1667,131.167 23.5,131.5C 26.5251,136.345 30.8584,139.512 36.5,141C 141.833,141.667 247.167,141.667 352.5,141C 366.015,135.463 370.515,125.63 366,111.5C 364.358,107.7 361.858,104.7 358.5,102.5C 359.5,102.167 360.167,101.5 360.5,100.5C 360.5,99.8333 360.833,99.5 361.5,99.5C 362.779,100.715 363.779,100.382 364.5,98.5C 370.264,101.724 374.097,106.057 376,111.5C 376.667,119.833 376.667,128.167 376,136.5C 373.019,141.813 369.019,146.146 364,149.5C 363.667,149.167 363.333,148.833 363,148.5C 362.692,149.308 362.192,149.975 361.5,150.5C 252.304,150.499 143.137,150.499 34,150.5C 33.6827,148.699 33.016,148.366 32,149.5C 26.382,146.682 22.0487,142.016 19,135.5C 18.0571,130.191 17.2237,124.858 16.5,119.5C 7.91767,114.296 2.251,106.963 -0.5,97.5C -0.5,91.5 -0.5,85.5 -0.5,79.5C 3.58252,66.2462 12.0825,56.9129 25,51.5C 28.263,35.5632 37.4296,24.3965 52.5,18C 60.3523,15.3703 68.3523,13.3703 76.5,12C 83.3757,6.23142 91.0423,2.06475 99.5,-0.5 Z M 101.5,3.5 C 98.4824,3.70381 95.4824,4.03714 92.5,4.5C 97.1557,2.2052 102.156,1.37187 107.5,2C 105.292,2.19088 103.292,2.69088 101.5,3.5 Z M 92.5,4.5 C 91.4863,5.67373 90.153,6.3404 88.5,6.5C 89.287,4.89578 90.6203,4.22911 92.5,4.5 Z M 86.5,7.5 C 85.7377,9.26242 84.4044,10.2624 82.5,10.5C 83.2623,8.73758 84.5956,7.73758 86.5,7.5 Z M 81.5,11.5 C 80.8333,12.8333 79.8333,13.8333 78.5,14.5C 78.5,12.5 79.5,11.5 81.5,11.5 Z M 77.5,15.5 C 72.6804,16.4865 67.6804,17.1532 62.5,17.5C 67.2169,15.7623 72.2169,15.0956 77.5,15.5 Z M 62.5,17.5 C 59.7846,19.0719 56.7846,20.0719 53.5,20.5C 56.0836,18.5275 59.0836,17.5275 62.5,17.5 Z M 318.5,19.5 C 313.198,19.1193 308.198,20.1193 303.5,22.5C 304.975,20.5905 306.975,19.4238 309.5,19C 312.696,18.1955 315.696,18.3622 318.5,19.5 Z M 53.5,20.5 C 52.2196,21.9313 50.5529,22.5979 48.5,22.5C 49.7804,21.0687 51.4471,20.4021 53.5,20.5 Z M 48.5,22.5 C 48.0269,23.9063 47.0269,24.573 45.5,24.5C 45.9731,23.0937 46.9731,22.427 48.5,22.5 Z M 42.5,26.5 C 42.0269,27.9063 41.0269,28.573 39.5,28.5C 39.9731,27.0937 40.9731,26.427 42.5,26.5 Z M 32.5,37.5 C 32.3404,39.153 31.6737,40.4863 30.5,41.5C 30.2291,39.6203 30.8958,38.287 32.5,37.5 Z M 29.5,43.5 C 30.069,47.3293 29.4023,50.6627 27.5,53.5C 28.0965,50.0588 28.7632,46.7254 29.5,43.5 Z M 18.5,57.5 C 18.0269,58.9063 17.0269,59.573 15.5,59.5C 15.9731,58.0937 16.9731,57.427 18.5,57.5 Z M 15.5,59.5 C 14.1667,61.5 12.5,63.1667 10.5,64.5C 11.1667,61.8333 12.8333,60.1667 15.5,59.5 Z M 8.5,66.5 C 8.57298,68.0269 7.90632,69.0269 6.5,69.5C 6.42702,67.9731 7.09368,66.9731 8.5,66.5 Z M 5.5,71.5 C 4.62614,74.7893 3.95947,78.1226 3.5,81.5C 2.6829,83.9686 2.1829,86.6353 2,89.5C 0.971148,82.969 2.13782,76.969 5.5,71.5 Z M 303.5,22.5 C 302.167,24.5 300.5,26.1667 298.5,27.5C 299.167,24.8333 300.833,23.1667 303.5,22.5 Z M 296.5,43.5 C 295.082,45.3079 293.082,45.9746 290.5,45.5C 292.374,44.7148 294.374,44.0482 296.5,43.5 Z M 249.5,43.5 C 244.473,43.5029 239.473,43.8363 234.5,44.5C 237.382,43.0872 240.549,42.4205 244,42.5C 246.033,42.5056 247.866,42.8389 249.5,43.5 Z M 199.5,39.5 C 199.027,40.9063 198.027,41.573 196.5,41.5C 196.973,40.0937 197.973,39.427 199.5,39.5 Z M 165.5,39.5 C 165.027,40.9063 164.027,41.573 162.5,41.5C 162.973,40.0937 163.973,39.427 165.5,39.5 Z M 169.5,36.5 C 168.738,38.2624 167.404,39.2624 165.5,39.5C 166.262,37.7376 167.596,36.7376 169.5,36.5 Z M 216.5,33.5 C 210.47,33.1777 205.137,34.8444 200.5,38.5C 204.775,33.1849 210.108,31.5182 216.5,33.5 Z M 364.5,98.5 C 363.779,100.382 362.779,100.715 361.5,99.5C 362.391,98.8902 363.391,98.5569 364.5,98.5 Z M 355.5,100.5 C 357.167,100.5 358.833,100.5 360.5,100.5C 360.167,101.5 359.5,102.167 358.5,102.5C 357.5,101.833 356.5,101.167 355.5,100.5 Z"/></g>
<g><path style="opacity:0.586" fill="#db3a42" d="M 355.5,84.5 C 365.157,85.1255 368.157,89.7921 364.5,98.5C 363.391,98.5569 362.391,98.8902 361.5,99.5C 360.833,99.5 360.5,99.8333 360.5,100.5C 358.833,100.5 357.167,100.5 355.5,100.5C 355.5,99.8333 355.167,99.5 354.5,99.5C 357.078,99.0195 359.412,98.0195 361.5,96.5C 365.454,92.6862 364.787,89.6862 359.5,87.5C 359.5,86.8333 359.167,86.5 358.5,86.5C 357.833,86.5 357.167,86.5 356.5,86.5C 355.29,86.9321 354.29,87.5987 353.5,88.5C 353.5,88.8333 353.5,89.1667 353.5,89.5C 352.833,89.5 352.5,89.8333 352.5,90.5C 351.833,92.1667 351.167,93.8333 350.5,95.5C 349.133,91.5422 350.133,88.2089 353.5,85.5C 353.833,85.5 354.167,85.5 354.5,85.5C 355.167,85.5 355.5,85.1667 355.5,84.5 Z"/></g>
<g><path style="opacity:0.125" fill="#260d0c" d="M 356.5,86.5 C 357.167,87.8333 357.833,87.8333 358.5,86.5C 359.167,86.5 359.5,86.8333 359.5,87.5C 359.5,87.8333 359.5,88.1667 359.5,88.5C 357.833,88.5 356.167,88.5 354.5,88.5C 354.167,88.5 353.833,88.5 353.5,88.5C 354.29,87.5987 355.29,86.9321 356.5,86.5 Z"/></g>
<g><path style="opacity:0.976" fill="#d63940" d="M 354.5,88.5 C 356.167,88.5 357.833,88.5 359.5,88.5C 360.695,88.8656 361.361,89.699 361.5,91C 360.245,92.8868 360.245,94.7201 361.5,96.5C 360.833,96.5 360.167,96.5 359.5,96.5C 358.849,95.9094 358.182,95.2427 357.5,94.5C 356.818,95.2427 356.151,95.9094 355.5,96.5C 355.167,96.5 354.833,96.5 354.5,96.5C 354.5,96.1667 354.5,95.8333 354.5,95.5C 354.5,93.5 354.5,91.5 354.5,89.5C 354.5,89.1667 354.5,88.8333 354.5,88.5 Z"/></g>
<g><path style="opacity:1" fill="#eb3b44" d="M 101.5,3.5 C 103.833,3.5 106.167,3.5 108.5,3.5C 108.833,3.5 109.167,3.5 109.5,3.5C 110.209,4.40397 111.209,4.73731 112.5,4.5C 113.209,5.40397 114.209,5.73731 115.5,5.5C 115.833,5.5 116.167,5.5 116.5,5.5C 117.167,5.5 117.5,5.83333 117.5,6.5C 127.058,15.418 127.892,25.0846 120,35.5C 119.503,37.8098 119.337,40.1432 119.5,42.5C 121.95,42.298 124.283,42.6314 126.5,43.5C 126.833,43.5 127.167,43.5 127.5,43.5C 127.842,44.3382 128.508,44.6716 129.5,44.5C 129.842,45.3382 130.508,45.6716 131.5,45.5C 131.833,45.5 132.167,45.5 132.5,45.5C 133.492,45.6716 134.158,45.3382 134.5,44.5C 135.492,44.6716 136.158,44.3382 136.5,43.5C 137.833,43.5 139.167,43.5 140.5,43.5C 143.5,43.5 146.5,43.5 149.5,43.5C 150.167,43.5 150.833,43.5 151.5,43.5C 151.5,44.1667 151.833,44.5 152.5,44.5C 153.167,44.5 153.833,44.5 154.5,44.5C 155.167,44.5 155.5,44.8333 155.5,45.5C 155.5,46.1667 155.833,46.5 156.5,46.5C 157.167,46.5 157.5,46.1667 157.5,45.5C 158.492,45.6716 159.158,45.3382 159.5,44.5C 160.167,44.5 160.5,44.1667 160.5,43.5C 161.167,43.5 161.5,43.1667 161.5,42.5C 162.167,42.5 162.5,42.1667 162.5,41.5C 164.027,41.573 165.027,40.9063 165.5,39.5C 167.404,39.2624 168.738,38.2624 169.5,36.5C 170.167,36.5 170.5,36.1667 170.5,35.5C 171.492,35.6716 172.158,35.3382 172.5,34.5C 173.791,34.7373 174.791,34.404 175.5,33.5C 177.833,33.5 180.167,33.5 182.5,33.5C 183.209,34.404 184.209,34.7373 185.5,34.5C 185.842,35.3382 186.508,35.6716 187.5,35.5C 188.167,35.5 188.5,35.8333 188.5,36.5C 188.5,36.8333 188.5,37.1667 188.5,37.5C 189.122,38.6266 189.955,39.6266 191,40.5C 191.026,47.5938 192.859,48.2605 196.5,42.5C 196.5,42.1667 196.5,41.8333 196.5,41.5C 198.027,41.573 199.027,40.9063 199.5,39.5C 200.167,39.5 200.5,39.1667 200.5,38.5C 205.137,34.8444 210.47,33.1777 216.5,33.5C 217.209,34.404 218.209,34.7373 219.5,34.5C 220.167,34.5 220.5,34.8333 220.5,35.5C 223.917,38.7573 225.75,42.7573 226,47.5C 227.749,48.5532 229.249,48.2199 230.5,46.5C 231.492,46.6716 232.158,46.3382 232.5,45.5C 233.492,45.6716 234.158,45.3382 234.5,44.5C 239.473,43.8363 244.473,43.5029 249.5,43.5C 250.568,44.4345 251.901,44.7678 253.5,44.5C 253.5,45.1667 253.833,45.5 254.5,45.5C 254.842,46.3382 255.508,46.6716 256.5,46.5C 256.842,47.3382 257.508,47.6716 258.5,47.5C 258.842,48.3382 259.508,48.6716 260.5,48.5C 261.167,48.5 261.5,48.1667 261.5,47.5C 262.492,47.6716 263.158,47.3382 263.5,46.5C 264.791,46.7373 265.791,46.404 266.5,45.5C 267.791,45.7373 268.791,45.404 269.5,44.5C 273.5,44.5 277.5,44.5 281.5,44.5C 281.5,45.1667 281.833,45.5 282.5,45.5C 283.167,45.5 283.833,45.5 284.5,45.5C 284.5,46.1667 284.833,46.5 285.5,46.5C 285.833,46.5 286.167,46.5 286.5,46.5C 287.167,47.8333 287.833,47.8333 288.5,46.5C 289.492,46.6716 290.158,46.3382 290.5,45.5C 293.082,45.9746 295.082,45.3079 296.5,43.5C 296.5,42.8333 296.167,42.5 295.5,42.5C 295.5,39.5 295.5,36.5 295.5,33.5C 296.404,32.791 296.737,31.791 296.5,30.5C 297.167,30.5 297.5,30.1667 297.5,29.5C 298.338,29.1583 298.672,28.4916 298.5,27.5C 300.5,26.1667 302.167,24.5 303.5,22.5C 308.198,20.1193 313.198,19.1193 318.5,19.5C 319.209,20.404 320.209,20.7373 321.5,20.5C 321.842,21.3382 322.508,21.6716 323.5,21.5C 324.167,21.5 324.5,21.8333 324.5,22.5C 330.995,27.8407 333.995,34.8407 333.5,43.5C 335.945,44.3124 338.278,45.3124 340.5,46.5C 340.833,46.5 341.167,46.5 341.5,46.5C 341.5,47.1667 341.833,47.5 342.5,47.5C 352.507,54.637 354.507,63.4704 348.5,74C 351.41,84.3251 348.744,92.8251 340.5,99.5C 327.407,108.326 314.074,108.66 300.5,100.5C 295.129,96.0906 292.129,90.4239 291.5,83.5C 290.325,83.281 289.325,83.6143 288.5,84.5C 286.492,89.5288 284.492,94.5288 282.5,99.5C 281.146,101.696 279.146,103.196 276.5,104C 269.833,104.667 263.167,104.667 256.5,104C 255.5,103.5 254.5,103 253.5,102.5C 241.689,108.494 230.355,107.827 219.5,100.5C 209.989,105.401 200.322,105.734 190.5,101.5C 179.585,107.138 168.919,106.805 158.5,100.5C 149.804,104.046 140.97,104.379 132,101.5C 122.568,105.835 113.401,105.502 104.5,100.5C 94.4506,106.111 84.784,105.777 75.5,99.5C 73.5,94.1667 71.5,94.1667 69.5,99.5C 65.0525,104.29 60.0525,108.29 54.5,111.5C 54.1667,111.5 53.8333,111.5 53.5,111.5C 43.2252,114.979 32.8919,115.313 22.5,112.5C 16.6576,109.992 11.6576,106.326 7.5,101.5C 6.83333,101.5 6.5,101.167 6.5,100.5C 6.5,100.167 6.5,99.8333 6.5,99.5C 6.67158,98.5084 6.33825,97.8417 5.5,97.5C 5.5,97.1667 5.5,96.8333 5.5,96.5C 5.5,95.8333 5.16667,95.5 4.5,95.5C 4.5,95.1667 4.5,94.8333 4.5,94.5C 4.67158,93.5084 4.33825,92.8417 3.5,92.5C 3.5,91.8333 3.5,91.1667 3.5,90.5C 3.5,87.5 3.5,84.5 3.5,81.5C 3.95947,78.1226 4.62614,74.7893 5.5,71.5C 6.33825,71.1583 6.67158,70.4916 6.5,69.5C 7.90632,69.0269 8.57298,68.0269 8.5,66.5C 9.16667,66.5 9.5,66.1667 9.5,65.5C 10.1667,65.5 10.5,65.1667 10.5,64.5C 12.5,63.1667 14.1667,61.5 15.5,59.5C 17.0269,59.573 18.0269,58.9063 18.5,57.5C 19.4916,57.6716 20.1583,57.3382 20.5,56.5C 21.4916,56.6716 22.1583,56.3382 22.5,55.5C 23.4916,55.6716 24.1583,55.3382 24.5,54.5C 25.791,54.7373 26.791,54.404 27.5,53.5C 29.4023,50.6627 30.069,47.3293 29.5,43.5C 30.3382,43.1583 30.6716,42.4916 30.5,41.5C 31.6737,40.4863 32.3404,39.153 32.5,37.5C 33.3382,37.1583 33.6716,36.4916 33.5,35.5C 34.1667,35.5 34.5,35.1667 34.5,34.5C 35.3382,34.1583 35.6716,33.4916 35.5,32.5C 36.1667,32.5 36.5,32.1667 36.5,31.5C 37.1667,31.5 37.5,31.1667 37.5,30.5C 38.1667,30.5 38.5,30.1667 38.5,29.5C 39.1667,29.5 39.5,29.1667 39.5,28.5C 41.0269,28.573 42.0269,27.9063 42.5,26.5C 43.1667,26.5 43.5,26.1667 43.5,25.5C 44.4916,25.6716 45.1583,25.3382 45.5,24.5C 47.0269,24.573 48.0269,23.9063 48.5,22.5C 50.5529,22.5979 52.2196,21.9313 53.5,20.5C 56.7846,20.0719 59.7846,19.0719 62.5,17.5C 67.6804,17.1532 72.6804,16.4865 77.5,15.5C 78.1667,15.5 78.5,15.1667 78.5,14.5C 79.8333,13.8333 80.8333,12.8333 81.5,11.5C 82.1667,11.5 82.5,11.1667 82.5,10.5C 84.4044,10.2624 85.7377,9.26242 86.5,7.5C 87.4916,7.67158 88.1583,7.33825 88.5,6.5C 90.153,6.3404 91.4863,5.67373 92.5,4.5C 95.4824,4.03714 98.4824,3.70381 101.5,3.5 Z M 303.5,22.5 C 302.167,24.5 300.5,26.1667 298.5,27.5C 299.167,24.8333 300.833,23.1667 303.5,22.5 Z M 296.5,43.5 C 295.082,45.3079 293.082,45.9746 290.5,45.5C 292.374,44.7148 294.374,44.0482 296.5,43.5 Z M 249.5,43.5 C 244.473,43.5029 239.473,43.8363 234.5,44.5C 237.382,43.0872 240.549,42.4205 244,42.5C 246.033,42.5056 247.866,42.8389 249.5,43.5 Z M 199.5,39.5 C 199.027,40.9063 198.027,41.573 196.5,41.5C 196.973,40.0937 197.973,39.427 199.5,39.5 Z M 165.5,39.5 C 165.027,40.9063 164.027,41.573 162.5,41.5C 162.973,40.0937 163.973,39.427 165.5,39.5 Z M 169.5,36.5 C 168.738,38.2624 167.404,39.2624 165.5,39.5C 166.262,37.7376 167.596,36.7376 169.5,36.5 Z M 216.5,33.5 C 210.47,33.1777 205.137,34.8444 200.5,38.5C 204.775,33.1849 210.108,31.5182 216.5,33.5 Z"/></g>
<g><path style="opacity:1" fill="#120c07" d="M 101.5,8.5 C 109.162,7.08766 115.328,9.42099 120,15.5C 120.667,18.1667 120.667,20.8333 120,23.5C 117.688,26.646 115.188,29.646 112.5,32.5C 115.227,38.3487 114.894,44.0154 111.5,49.5C 111.833,49.8333 112.167,50.1667 112.5,50.5C 120.151,45.6801 126.817,46.6801 132.5,53.5C 139.859,47.9762 147.525,47.3095 155.5,51.5C 156.333,53.1667 157.167,54.8333 158,56.5C 163.874,50.9571 170.041,45.7904 176.5,41C 179.865,38.8426 183.032,39.0092 186,41.5C 186.543,44.8678 186.376,48.2011 185.5,51.5C 189.846,51.6657 194.179,51.499 198.5,51C 203.246,45.8941 208.746,42.0608 215,39.5C 217.034,39.3536 218.701,40.0203 220,41.5C 220.388,44.8492 220.221,48.1825 219.5,51.5C 222.247,51.1866 224.914,51.52 227.5,52.5C 224.361,61.2151 225.694,61.7151 231.5,54C 239.843,48.8804 248.51,48.2137 257.5,52C 259.351,53.6837 261.018,55.5171 262.5,57.5C 270.118,48.7681 278.952,47.4348 289,53.5C 293.211,50.6367 297.711,49.97 302.5,51.5C 303.5,50.1667 304.5,48.8333 305.5,47.5C 301.76,42.5934 301.593,37.5934 305,32.5C 309.64,25.5647 315.807,23.7313 323.5,27C 328.705,33.5675 328.705,40.2342 323.5,47C 329.946,47.111 335.946,48.7777 341.5,52C 348.142,58.2508 348.142,64.4175 341.5,70.5C 345.313,76.0107 345.479,81.6774 342,87.5C 331.718,100.716 319.218,103.549 304.5,96C 296.41,88.5824 296.577,81.4158 305,74.5C 305.749,73.365 305.583,72.365 304.5,71.5C 299.322,77.5822 293.155,78.9156 286,75.5C 282.742,81.5334 280.242,87.8667 278.5,94.5C 276.41,94.4501 275.077,95.4501 274.5,97.5C 267.866,98.4967 261.2,98.83 254.5,98.5C 254.906,96.8908 254.906,95.5575 254.5,94.5C 241.824,103.107 229.824,102.44 218.5,92.5C 212.456,97.8481 205.456,99.6815 197.5,98C 194.424,97.089 192.091,95.2557 190.5,92.5C 179.404,100.411 168.404,100.411 157.5,92.5C 148.779,98.5943 139.945,98.9277 131,93.5C 126.547,96.2621 121.714,97.9287 116.5,98.5C 110.885,98.5263 106.552,96.193 103.5,91.5C 98.0569,97.1472 91.3902,99.3139 83.5,98C 80.5719,96.7402 78.7386,94.5735 78,91.5C 77.0207,85.0175 77.5207,78.6841 79.5,72.5C 76.5462,76.9417 73.3795,81.9417 70,87.5C 63.8762,96.6297 55.7096,103.13 45.5,107C 31.566,111.874 20.3994,108.374 12,96.5C 7.26133,83.7094 10.428,73.2094 21.5,65C 26.2027,61.1486 31.5361,58.6486 37.5,57.5C 35.6143,51.3806 36.4476,45.7139 40,40.5C 51.3607,27.3448 65.8607,20.8448 83.5,21C 88.5979,15.3807 94.5979,11.214 101.5,8.5 Z M 296.5,43.5 C 295.082,45.3079 293.082,45.9746 290.5,45.5C 292.374,44.7148 294.374,44.0482 296.5,43.5 Z M 249.5,43.5 C 244.473,43.5029 239.473,43.8363 234.5,44.5C 237.382,43.0872 240.549,42.4205 244,42.5C 246.033,42.5056 247.866,42.8389 249.5,43.5 Z M 199.5,39.5 C 199.027,40.9063 198.027,41.573 196.5,41.5C 196.973,40.0937 197.973,39.427 199.5,39.5 Z M 165.5,39.5 C 165.027,40.9063 164.027,41.573 162.5,41.5C 162.973,40.0937 163.973,39.427 165.5,39.5 Z M 169.5,36.5 C 168.738,38.2624 167.404,39.2624 165.5,39.5C 166.262,37.7376 167.596,36.7376 169.5,36.5 Z M 216.5,33.5 C 210.47,33.1777 205.137,34.8444 200.5,38.5C 204.775,33.1849 210.108,31.5182 216.5,33.5 Z"/></g>
<g><path style="opacity:0.258" fill="#120705" d="M 300.5,100.5 C 299.833,100.5 299.167,100.5 298.5,100.5C 294.5,100.5 290.5,100.5 286.5,100.5C 284.901,100.768 283.568,100.434 282.5,99.5C 284.492,94.5288 286.492,89.5288 288.5,84.5C 289.325,83.6143 290.325,83.281 291.5,83.5C 292.129,90.4239 295.129,96.0906 300.5,100.5 Z"/></g>
<g><path style="opacity:1" fill="#f9ef03" d="M 321.5,51.5 C 325.846,51.3343 330.179,51.501 334.5,52C 339.402,53.4013 342.402,56.568 343.5,61.5C 342.514,65.1471 340.181,66.3138 336.5,65C 333.528,60.6179 329.528,59.4512 324.5,61.5C 329.205,65.2766 334.038,68.9432 339,72.5C 342.658,78.0696 342.158,83.2362 337.5,88C 326.242,95.99 315.742,95.1567 306,85.5C 303.271,80.394 304.771,77.394 310.5,76.5C 312.299,76.577 313.966,77.077 315.5,78C 317.292,84.2006 321.125,86.0339 327,83.5C 327.667,82.8333 327.667,82.1667 327,81.5C 320.389,78.5557 315.389,73.889 312,67.5C 311.311,59.8775 314.478,54.5441 321.5,51.5 Z"/></g>
<g><path style="opacity:1" fill="#faf103" d="M 313.5,28.5 C 324.558,28.7384 327.391,33.7384 322,43.5C 319.775,46.7353 316.775,48.7353 313,49.5C 312.167,49.1667 311.333,48.8333 310.5,48.5C 311.648,46.8513 312.981,45.3513 314.5,44C 308.273,39.2393 307.94,34.0726 313.5,28.5 Z"/></g>
<g><path style="opacity:1" fill="#f9ef03" d="M 101.5,11.5 C 107.039,10.6384 111.872,11.9718 116,15.5C 118.554,22.612 116.054,26.112 108.5,26C 106.081,24.4912 105.081,22.3245 105.5,19.5C 100.787,19.1898 97.1204,21.0231 94.5,25C 101.908,26.2726 107.408,30.106 111,36.5C 111.722,45.8066 107.555,51.9733 98.5,55C 100.049,56.214 101.215,57.714 102,59.5C 102.195,64.4179 102.695,69.2512 103.5,74C 106.14,74.839 108.473,74.339 110.5,72.5C 113.989,66.7983 114.322,60.9649 111.5,55C 117.119,50.0247 122.952,49.5247 129,53.5C 129.667,56.8333 129.667,60.1667 129,63.5C 126.56,67.8434 126.06,72.3434 127.5,77C 130.956,78.123 133.79,77.2896 136,74.5C 138.356,68.4835 138.856,62.3168 137.5,56C 137.755,54.6739 138.422,53.6739 139.5,53C 144.719,50.5913 149.553,51.0913 154,54.5C 154.132,60.4536 152.798,66.1202 150,71.5C 147.756,78.0906 149.923,80.5906 156.5,79C 158.615,78.4427 160.615,77.6094 162.5,76.5C 164.716,72.088 166.049,67.4214 166.5,62.5C 164.712,62.7852 163.045,62.4519 161.5,61.5C 162.432,59.2046 163.265,56.8713 164,54.5C 169.167,50.6667 174.333,46.8333 179.5,43C 180.793,42.51 182.127,42.3433 183.5,42.5C 183.152,46.5568 182.486,50.5568 181.5,54.5C 185.226,54.1774 188.893,54.5108 192.5,55.5C 191.626,57.7466 191.292,60.0799 191.5,62.5C 187.5,62.5 183.5,62.5 179.5,62.5C 174.72,81.5242 180.887,85.8576 198,75.5C 199.018,71.0927 200.185,66.7593 201.5,62.5C 199.712,62.7852 198.045,62.4519 196.5,61.5C 197.18,59.1111 198.014,56.7778 199,54.5C 203.167,51 207.333,47.5 211.5,44C 213.345,42.872 215.345,42.372 217.5,42.5C 217.348,46.2617 216.681,49.9284 215.5,53.5C 218.167,54.1667 220.833,54.8333 223.5,55.5C 222.054,57.6179 221.387,59.9512 221.5,62.5C 218.833,62.5 216.167,62.5 213.5,62.5C 213.156,66.5441 212.49,70.5441 211.5,74.5C 211.429,77.5956 212.929,79.2622 216,79.5C 218.151,79.2275 220.151,78.5608 222,77.5C 223.589,62.9125 231.589,54.5791 246,52.5C 259.091,53.0221 262.591,59.0221 256.5,70.5C 251.443,74.1879 245.777,76.5212 239.5,77.5C 240.849,81.1787 243.516,82.8454 247.5,82.5C 254.363,81.5465 260.696,79.2131 266.5,75.5C 269.798,69.5413 270.131,63.5413 267.5,57.5C 267.977,56.5224 268.643,55.6891 269.5,55C 274.076,53.5236 278.743,53.1902 283.5,54C 285.491,55.1585 287.158,56.6585 288.5,58.5C 292.077,54.7067 296.411,53.2067 301.5,54C 306.485,58.5647 306.819,63.5647 302.5,69C 298.186,71.2911 294.186,70.9578 290.5,68C 288.833,67.3333 287.167,67.3333 285.5,68C 282.21,75.4172 279.043,82.9172 276,90.5C 271.599,91.4667 267.099,91.8 262.5,91.5C 262.935,88.404 263.435,85.404 264,82.5C 253.734,92.9522 241.901,95.4522 228.5,90C 226.645,88.1449 224.812,86.3116 223,84.5C 216.931,90.1443 209.764,92.3109 201.5,91C 198.337,89.5202 196.504,87.0202 196,83.5C 188.864,90.4114 180.364,92.9114 170.5,91C 167.102,89.4436 164.102,87.2769 161.5,84.5C 155.616,90.1867 148.616,92.0201 140.5,90C 137.998,88.6625 135.998,86.8292 134.5,84.5C 128.818,91.4004 121.818,93.2338 113.5,90C 110.819,87.806 109.319,84.9727 109,81.5C 106.131,84.7041 102.965,87.5374 99.5,90C 89.5845,94.4814 84.2512,91.4814 83.5,81C 83.8644,75.8753 84.8644,70.8753 86.5,66C 85.7578,61.7274 83.4245,60.2274 79.5,61.5C 75.0623,74.8821 67.729,86.3821 57.5,96C 46.2465,102.832 34.9131,103.165 23.5,97C 15.6284,89.505 14.4618,81.005 20,71.5C 27.131,62.4009 36.2977,59.4009 47.5,62.5C 43.3127,66.7292 43.646,70.5626 48.5,74C 52.514,74.5055 56.1806,73.5055 59.5,71C 63.2162,66.9518 66.5496,62.6185 69.5,58C 63.5206,58.3299 57.5206,58.3299 51.5,58C 46.2457,56.9137 43.2457,53.747 42.5,48.5C 44.8895,37.6092 51.5562,30.7758 62.5,28C 70.0381,26.1311 77.7047,24.9645 85.5,24.5C 89.7647,18.7203 95.098,14.387 101.5,11.5 Z"/></g>
<g><path style="opacity:1" fill="#ea424a" d="M 261.5,68.5 C 262.775,74.0733 260.442,76.9066 254.5,77C 257.423,74.5838 259.757,71.7504 261.5,68.5 Z"/></g>
<g><path style="opacity:1" fill="#ed3f47" d="M 154.5,69.5 C 155.833,69.5 157.167,69.5 158.5,69.5C 158.892,74.1412 156.892,76.4745 152.5,76.5C 152.394,73.9214 153.061,71.588 154.5,69.5 Z"/></g>
<g><path style="opacity:1" fill="#dc4149" d="M 215.5,68.5 C 216.675,68.281 217.675,68.6143 218.5,69.5C 215.269,78.7392 214.269,78.4059 215.5,68.5 Z"/></g>
<g><path style="opacity:1" fill="#b3363a" d="M 130.5,66.5 C 131.497,66.4701 132.164,66.9701 132.5,68C 132.041,70.3546 131.208,72.5212 130,74.5C 129.825,71.8428 129.992,69.1761 130.5,66.5 Z"/></g>
<g><path style="opacity:1" fill="#ea3d45" d="M 181.5,69.5 C 185.555,69.1758 189.555,69.5091 193.5,70.5C 191.541,76.8955 187.374,78.8955 181,76.5C 180.666,74.1527 180.833,71.8194 181.5,69.5 Z"/></g>
<g><path style="opacity:1" fill="#e73d45" d="M 58.5,64.5 C 59.525,64.8966 59.6917,65.5632 59,66.5C 56.4162,69.5453 53.2496,71.0453 49.5,71C 46.9974,69.2161 46.9974,67.5494 49.5,66C 52.6946,65.8195 55.6946,65.3195 58.5,64.5 Z"/></g>
<g><path style="opacity:1" fill="#0e0c06" d="M 245.5,60.5 C 247.527,60.3379 249.527,60.5045 251.5,61C 252.554,62.3876 252.72,63.8876 252,65.5C 248.519,67.8291 244.685,69.1625 240.5,69.5C 240.891,65.7793 242.558,62.7793 245.5,60.5 Z"/></g>
<g><path style="opacity:1" fill="#0c0a05" d="M 88.5,35.5 C 94.6739,34.1729 96.8406,36.5062 95,42.5C 92.1525,46.936 88.3192,48.6027 83.5,47.5C 85.1792,43.4787 86.8459,39.4787 88.5,35.5 Z"/></g>
<g><path style="opacity:1" fill="#0e0b06" d="M 74.5,34.5 C 76.288,34.2148 77.9547,34.5481 79.5,35.5C 77.9405,39.6194 76.1072,43.6194 74,47.5C 69.4811,49.3229 66.3144,47.9895 64.5,43.5C 65.992,38.3363 69.3253,35.3363 74.5,34.5 Z"/></g>
<g><path style="opacity:1" fill="#c64046" d="M 69.5,41.5 C 72.0279,42.5179 71.8612,43.5179 69,44.5C 68.5,44.1667 68,43.8333 67.5,43.5C 68.2427,42.8182 68.9094,42.1515 69.5,41.5 Z"/></g>
<g><path style="opacity:0.422" fill="#1a0d0b" d="M 75.5,99.5 C 73.5,100.833 71.5,100.833 69.5,99.5C 71.5,94.1667 73.5,94.1667 75.5,99.5 Z"/></g>
<g><path style="opacity:1" fill="#6a2324" d="M 353.5,89.5 C 353.833,89.5 354.167,89.5 354.5,89.5C 354.5,91.5 354.5,93.5 354.5,95.5C 353.167,95.8333 353.167,96.1667 354.5,96.5C 354.833,96.5 355.167,96.5 355.5,96.5C 356.833,97.8333 358.167,97.8333 359.5,96.5C 360.167,96.5 360.833,96.5 361.5,96.5C 359.412,98.0195 357.078,99.0195 354.5,99.5C 353.833,99.5 353.167,99.5 352.5,99.5C 352.5,99.1667 352.5,98.8333 352.5,98.5C 351.833,97.5 351.167,96.5 350.5,95.5C 351.167,93.8333 351.833,92.1667 352.5,90.5C 353.206,91.5573 353.539,91.2239 353.5,89.5 Z"/></g>
<g><path style="opacity:1" fill="#e93a40" d="M 286.5,100.5 C 290.5,100.5 294.5,100.5 298.5,100.5C 297.563,104.73 299.229,107.23 303.5,108C 315.519,111.23 327.519,111.23 339.5,108C 342.739,106.264 345.073,103.764 346.5,100.5C 348.5,100.5 350.5,100.5 352.5,100.5C 353.5,100.5 354.5,100.5 355.5,100.5C 356.5,101.167 357.5,101.833 358.5,102.5C 361.858,104.7 364.358,107.7 366,111.5C 370.515,125.63 366.015,135.463 352.5,141C 247.167,141.667 141.833,141.667 36.5,141C 30.8584,139.512 26.5251,136.345 23.5,131.5C 23.5,131.167 23.5,130.833 23.5,130.5C 23.6716,129.508 23.3382,128.842 22.5,128.5C 22.5,128.167 22.5,127.833 22.5,127.5C 22.5,123.5 22.5,119.5 22.5,115.5C 23.404,116.209 23.7373,117.209 23.5,118.5C 33.5195,119.779 43.5195,119.779 53.5,118.5C 52.6957,133.177 55.8623,134.177 63,121.5C 63.3333,124.167 63.6667,126.833 64,129.5C 65.0495,130.517 66.2161,130.684 67.5,130C 71.2102,124.75 74.5435,119.25 77.5,113.5C 76.5373,111.51 75.204,111.177 73.5,112.5C 71.9405,116.619 70.1072,120.619 68,124.5C 67.5012,120.514 67.3345,116.514 67.5,112.5C 66.0222,112.238 64.6888,112.571 63.5,113.5C 61.9205,116.994 60.0872,120.327 58,123.5C 57.5357,122.906 57.369,122.239 57.5,121.5C 58.3171,119.031 58.8171,116.365 59,113.5C 59.3076,114.308 59.8076,114.975 60.5,115.5C 61.2621,114.372 61.9288,113.205 62.5,112C 66.8114,109.601 70.9781,107.101 75,104.5C 78.0225,105.263 80.8559,106.43 83.5,108C 91.1302,108.888 98.6302,108.388 106,106.5C 111.98,107.354 117.98,108.021 124,108.5C 136.162,108.381 148.328,108.048 160.5,107.5C 171.691,110.077 182.857,110.077 194,107.5C 197.999,109.649 202.332,110.649 207,110.5C 211.984,110.26 216.818,109.26 221.5,107.5C 225.108,107.98 228.441,109.147 231.5,111C 239.017,112.073 246.35,111.406 253.5,109C 262.5,108.667 271.5,108.333 280.5,108C 284.57,107.101 286.57,104.601 286.5,100.5 Z"/></g>
<g><path style="opacity:1" fill="#b92a30" d="M 340.5,99.5 C 342.265,100.461 344.265,100.795 346.5,100.5C 345.073,103.764 342.739,106.264 339.5,108C 327.519,111.23 315.519,111.23 303.5,108C 299.229,107.23 297.563,104.73 298.5,100.5C 299.167,100.5 299.833,100.5 300.5,100.5C 314.074,108.66 327.407,108.326 340.5,99.5 Z"/></g>
<g><path style="opacity:1" fill="#b1272d" d="M 69.5,99.5 C 71.5,100.833 73.5,100.833 75.5,99.5C 84.784,105.777 94.4506,106.111 104.5,100.5C 113.401,105.502 122.568,105.835 132,101.5C 140.97,104.379 149.804,104.046 158.5,100.5C 168.919,106.805 179.585,107.138 190.5,101.5C 200.322,105.734 209.989,105.401 219.5,100.5C 230.355,107.827 241.689,108.494 253.5,102.5C 254.5,103 255.5,103.5 256.5,104C 263.167,104.667 269.833,104.667 276.5,104C 279.146,103.196 281.146,101.696 282.5,99.5C 283.568,100.434 284.901,100.768 286.5,100.5C 286.57,104.601 284.57,107.101 280.5,108C 271.5,108.333 262.5,108.667 253.5,109C 246.35,111.406 239.017,112.073 231.5,111C 228.441,109.147 225.108,107.98 221.5,107.5C 216.818,109.26 211.984,110.26 207,110.5C 202.332,110.649 197.999,109.649 194,107.5C 182.857,110.077 171.691,110.077 160.5,107.5C 148.328,108.048 136.162,108.381 124,108.5C 117.98,108.021 111.98,107.354 106,106.5C 98.6302,108.388 91.1302,108.888 83.5,108C 80.8559,106.43 78.0225,105.263 75,104.5C 70.9781,107.101 66.8114,109.601 62.5,112C 61.9288,113.205 61.2621,114.372 60.5,115.5C 59.8076,114.975 59.3076,114.308 59,113.5C 58.8171,116.365 58.3171,119.031 57.5,121.5C 57.6646,118.482 57.498,115.482 57,112.5C 56.3292,111.748 55.4959,111.414 54.5,111.5C 60.0525,108.29 65.0525,104.29 69.5,99.5 Z"/></g>
<g><path style="opacity:1" fill="#fee9e8" d="M 163.5,111.5 C 165.167,111.5 166.833,111.5 168.5,111.5C 168.334,116.511 168.501,121.511 169,126.5C 170.727,129.133 169.894,130.3 166.5,130C 164.845,128.556 164.178,126.722 164.5,124.5C 160.062,123.773 157.395,125.607 156.5,130C 155.552,130.483 154.552,130.649 153.5,130.5C 156.546,124.078 159.879,117.745 163.5,111.5 Z"/></g>
<g><path style="opacity:1" fill="#fef0ef" d="M 343.5,111.5 C 346.448,111.223 349.281,111.556 352,112.5C 352.986,116.873 351.319,119.873 347,121.5C 346.51,122.793 346.343,124.127 346.5,125.5C 345.167,125.5 343.833,125.5 342.5,125.5C 342.351,124.448 342.517,123.448 343,122.5C 345.222,120.615 347.056,118.449 348.5,116C 347.536,113.402 345.87,112.902 343.5,114.5C 342.438,113.575 342.438,112.575 343.5,111.5 Z"/></g>
<g><path style="opacity:1" fill="#f7e6e5" d="M 53.5,111.5 C 53.8333,111.5 54.1667,111.5 54.5,111.5C 55.4959,111.414 56.3292,111.748 57,112.5C 57.498,115.482 57.6646,118.482 57.5,121.5C 57.369,122.239 57.5357,122.906 58,123.5C 60.0872,120.327 61.9205,116.994 63.5,113.5C 64.6888,112.571 66.0222,112.238 67.5,112.5C 67.3345,116.514 67.5012,120.514 68,124.5C 70.1072,120.619 71.9405,116.619 73.5,112.5C 75.204,111.177 76.5373,111.51 77.5,113.5C 74.5435,119.25 71.2102,124.75 67.5,130C 66.2161,130.684 65.0495,130.517 64,129.5C 63.6667,126.833 63.3333,124.167 63,121.5C 55.8623,134.177 52.6957,133.177 53.5,118.5C 52.9329,116.031 52.9329,113.698 53.5,111.5 Z"/></g>
<g><path style="opacity:1" fill="#feeae9" d="M 294.5,111.5 C 298.226,111.177 301.893,111.511 305.5,112.5C 303.149,114.229 300.482,114.896 297.5,114.5C 297.579,115.93 297.246,117.264 296.5,118.5C 302.909,120.143 302.576,121.143 295.5,121.5C 293.634,127.051 295.634,128.718 301.5,126.5C 302.521,127.002 302.688,127.668 302,128.5C 298.405,130.456 294.572,130.956 290.5,130C 290.043,129.586 289.709,129.086 289.5,128.5C 291.381,122.86 293.048,117.193 294.5,111.5 Z"/></g>
<g><path style="opacity:1" fill="#feeae9" d="M 307.5,111.5 C 309.167,111.5 310.833,111.5 312.5,111.5C 310.85,117.715 309.85,124.048 309.5,130.5C 306.739,131.085 305.073,130.085 304.5,127.5C 306.343,122.31 307.343,116.976 307.5,111.5 Z"/></g>
<g><path style="opacity:1" fill="#feefee" d="M 123.5,111.5 C 126.187,111.336 128.854,111.503 131.5,112C 132.821,113.545 132.488,114.711 130.5,115.5C 124.168,112.772 120.835,115.105 120.5,122.5C 119.841,126.687 121.341,128.02 125,126.5C 125.54,124.865 125.04,123.532 123.5,122.5C 123.709,121.914 124.043,121.414 124.5,121C 126.579,120.192 128.579,120.359 130.5,121.5C 129.593,124.057 128.593,126.557 127.5,129C 117.304,132.137 113.804,128.637 117,118.5C 118.694,115.642 120.861,113.309 123.5,111.5 Z"/></g>
<g><path style="opacity:1" fill="#ffefee" d="M 79.5,111.5 C 80.8333,111.5 82.1667,111.5 83.5,111.5C 83.25,114.214 83.0833,116.881 83,119.5C 84.3184,116.059 86.8184,114.725 90.5,115.5C 90.0019,120.152 89.6686,124.819 89.5,129.5C 87.8333,129.5 86.1667,129.5 84.5,129.5C 85.0844,125.768 85.5844,122.102 86,118.5C 82.8043,121.89 80.971,125.89 80.5,130.5C 78.0516,130.99 76.385,130.157 75.5,128C 77.6024,122.641 78.9357,117.141 79.5,111.5 Z"/></g>
<g><path style="opacity:1" fill="#feeeed" d="M 93.5,115.5 C 95.1439,115.286 96.6439,115.62 98,116.5C 98.6667,119.167 99.3333,121.833 100,124.5C 102.06,121.714 103.56,118.714 104.5,115.5C 105.5,115.5 106.5,115.5 107.5,115.5C 105.341,123.79 100.341,129.79 92.5,133.5C 91.8333,133.167 91.1667,132.833 90.5,132.5C 91.6554,131.05 93.1554,130.05 95,129.5C 95.6508,124.707 95.1508,120.04 93.5,115.5 Z"/></g>
<g><path style="opacity:1" fill="#feecec" d="M 136.5,115.5 C 145.213,113.942 148.046,117.276 145,125.5C 141.188,131.003 136.855,131.67 132,127.5C 131.333,125.167 131.333,122.833 132,120.5C 133.707,118.963 135.207,117.296 136.5,115.5 Z"/></g>
<g><path style="opacity:1" fill="#fff2f1" d="M 174.5,115.5 C 175.833,115.5 177.167,115.5 178.5,115.5C 178.332,120.532 179.332,120.699 181.5,116C 183.441,115.257 185.274,115.424 187,116.5C 186.091,120.71 185.591,125.044 185.5,129.5C 184.167,129.5 182.833,129.5 181.5,129.5C 181.496,125.746 181.663,122.079 182,118.5C 178.804,121.89 176.971,125.89 176.5,130.5C 175.167,130.5 173.833,130.5 172.5,130.5C 172.685,125.43 173.352,120.43 174.5,115.5 Z"/></g>
<g><path style="opacity:1" fill="#ffefee" d="M 189.5,115.5 C 191.144,115.286 192.644,115.62 194,116.5C 194.667,119.167 195.333,121.833 196,124.5C 198.06,121.714 199.56,118.714 200.5,115.5C 203.187,115.336 205.854,115.503 208.5,116C 209.014,124.49 210.514,124.656 213,116.5C 214.011,115.663 215.178,115.33 216.5,115.5C 216.335,118.85 216.502,122.183 217,125.5C 219.035,122.439 220.201,119.105 220.5,115.5C 221.978,115.238 223.311,115.571 224.5,116.5C 222.706,121.261 220.04,125.427 216.5,129C 215.552,129.483 214.552,129.649 213.5,129.5C 213.663,127.143 213.497,124.81 213,122.5C 211.908,126.428 209.408,128.761 205.5,129.5C 205.824,125.445 205.491,121.445 204.5,117.5C 201.335,122.978 197.335,127.812 192.5,132C 190.55,133.496 188.55,133.663 186.5,132.5C 188.507,131.092 190.507,129.592 192.5,128C 191.731,123.785 190.731,119.618 189.5,115.5 Z"/></g>
<g><path style="opacity:1" fill="#feebea" d="M 227.5,111.5 C 228.822,111.33 229.989,111.663 231,112.5C 230.695,114.443 230.695,116.443 231,118.5C 232.848,115.959 235.348,114.959 238.5,115.5C 238.165,120.177 237.665,124.844 237,129.5C 235.667,130.833 234.333,130.833 233,129.5C 233.215,126.189 233.215,122.856 233,119.5C 230.071,122.69 228.238,126.357 227.5,130.5C 225.052,130.915 223.719,129.915 223.5,127.5C 224.712,122.096 226.046,116.763 227.5,111.5 Z"/></g>
<g><path style="opacity:1" fill="#feebea" d="M 245.5,115.5 C 248.167,115.5 250.833,115.5 253.5,115.5C 253.66,117.199 253.494,118.866 253,120.5C 250.205,122.385 247.371,124.051 244.5,125.5C 246.45,127.753 248.784,128.086 251.5,126.5C 252.521,127.002 252.688,127.668 252,128.5C 249.037,130.244 245.871,130.744 242.5,130C 239.165,127.321 238.665,124.155 241,120.5C 242.707,118.963 244.207,117.296 245.5,115.5 Z"/></g>
<g><path style="opacity:1" fill="#ffecec" d="M 257.5,115.5 C 258.833,115.5 260.167,115.5 261.5,115.5C 260.427,120.613 261.427,120.78 264.5,116C 265.793,115.51 267.127,115.343 268.5,115.5C 268.22,119.113 266.22,121.113 262.5,121.5C 260.52,123.795 259.353,126.461 259,129.5C 256.833,131 255.333,130.5 254.5,128C 255.965,123.917 256.965,119.75 257.5,115.5 Z"/></g>
<g><path style="opacity:1" fill="#ffe6e5" d="M 274.5,114.5 C 281.564,114.352 282.897,116.852 278.5,122C 276.323,123.202 273.989,123.702 271.5,123.5C 271.33,124.822 271.663,125.989 272.5,127C 274.995,127.157 277.328,127.324 279.5,127.5C 275.222,131.365 271.055,131.365 267,127.5C 266.882,121.744 269.382,117.411 274.5,114.5 Z"/></g>
<g><path style="opacity:1" fill="#ffe5e4" d="M 318.5,114.5 C 320.977,114.051 322.977,114.717 324.5,116.5C 323.406,118.836 322.073,118.836 320.5,116.5C 319.5,116.833 318.833,117.5 318.5,118.5C 319.528,120.361 321.028,121.695 323,122.5C 323.957,126.414 322.457,128.914 318.5,130C 316.5,130.667 314.5,130.667 312.5,130C 311.179,128.455 311.512,127.289 313.5,126.5C 315.071,127.309 316.738,127.643 318.5,127.5C 317.485,124.827 316.152,122.327 314.5,120C 314.901,117.44 316.234,115.607 318.5,114.5 Z"/></g>
<g><path style="opacity:1" fill="#fee8e7" d="M 332.5,114.5 C 340.383,114.983 341.383,117.817 335.5,123C 333.866,123.494 332.199,123.66 330.5,123.5C 330.5,124.833 330.5,126.167 330.5,127.5C 340.848,126.002 341.015,127.002 331,130.5C 325.795,129.692 324.128,126.692 326,121.5C 327.694,118.642 329.861,116.309 332.5,114.5 Z"/></g>
<g><path style="opacity:1" fill="#eb2527" d="M 163.5,115.5 C 164.461,117.265 164.795,119.265 164.5,121.5C 163.5,121.5 162.5,121.5 161.5,121.5C 161.704,119.315 162.37,117.315 163.5,115.5 Z"/></g>
<g><path style="opacity:1" fill="#b7292f" d="M 53.5,111.5 C 52.9329,113.698 52.9329,116.031 53.5,118.5C 43.5195,119.779 33.5195,119.779 23.5,118.5C 23.7373,117.209 23.404,116.209 22.5,115.5C 22.5,114.5 22.5,113.5 22.5,112.5C 32.8919,115.313 43.2252,114.979 53.5,111.5 Z"/></g>
<g><path style="opacity:1" fill="#ec2e2e" d="M 246.5,117.5 C 247.5,117.5 248.5,117.5 249.5,117.5C 249.752,120.932 248.419,121.932 245.5,120.5C 246.127,119.583 246.461,118.583 246.5,117.5 Z"/></g>
<g><path style="opacity:1" fill="#ec2d2c" d="M 274.5,117.5 C 277.101,118.922 276.934,120.256 274,121.5C 273.5,121.167 273,120.833 272.5,120.5C 273.193,119.482 273.859,118.482 274.5,117.5 Z"/></g>
<g><path style="opacity:1" fill="#ec2d2a" d="M 332.5,117.5 C 334.176,118.183 334.843,119.517 334.5,121.5C 333.127,121.657 331.793,121.49 330.5,121C 331.305,119.887 331.972,118.721 332.5,117.5 Z"/></g>
<g><path style="opacity:1" fill="#ed3439" d="M 138.5,117.5 C 139.5,117.5 140.5,117.5 141.5,117.5C 141.649,120.607 141.149,123.607 140,126.5C 138.989,127.337 137.822,127.67 136.5,127.5C 136.152,123.915 136.819,120.582 138.5,117.5 Z"/></g>
<g><path style="opacity:1" fill="#feefee" d="M 341.5,127.5 C 342.978,127.238 344.311,127.571 345.5,128.5C 344.68,130.111 343.346,130.778 341.5,130.5C 341.5,129.5 341.5,128.5 341.5,127.5 Z"/></g>
</svg>
