<?xml version="1.0" encoding="UTF-8" standalone="no"?>
<svg
   clip-rule="evenodd"
   fill-rule="evenodd"
   viewBox="0 0 169.19901 259.96954"
   version="1.1"
   id="svg39"
   sodipodi:docname="taco-bell-logo@logotyp.us.svg"
   width="169.19901"
   height="259.96954"
   inkscape:version="1.2 (dc2aeda, 2022-05-15)"
   xmlns:inkscape="http://www.inkscape.org/namespaces/inkscape"
   xmlns:sodipodi="http://sodipodi.sourceforge.net/DTD/sodipodi-0.dtd"
   xmlns="http://www.w3.org/2000/svg"
   xmlns:svg="http://www.w3.org/2000/svg">
  <defs
     id="defs43" />
  <sodipodi:namedview
     id="namedview41"
     pagecolor="#ffffff"
     bordercolor="#000000"
     borderopacity="0.25"
     inkscape:showpageshadow="2"
     inkscape:pageopacity="0.0"
     inkscape:pagecheckerboard="0"
     inkscape:deskcolor="#d1d1d1"
     showgrid="false"
     inkscape:zoom="2.1925"
     inkscape:cx="89.623717"
     inkscape:cy="130.67275"
     inkscape:window-width="1390"
     inkscape:window-height="1027"
     inkscape:window-x="0"
     inkscape:window-y="25"
     inkscape:window-maximized="0"
     inkscape:current-layer="svg39" />
  <path
     d="M 85.773,5.5084925e-4 C 85.404,-0.00244915 85.024,0.00755085 84.656,0.01255085 73.434,0.13155085 62.08,2.7685508 51.617,7.7585508 c 0,0 1.627,-0.418 2.738,-0.408 0.158,0.001 0.301,0.003 0.432,0.025 1.078,0.173 2.099,0.729 2.967,1.393 1.226,0.937 1.67,2.7340002 2.989,3.5320002 1.072,0.647 2.425,0.754 3.675,0.815 2.687,0.136 5.323,-0.824 8.01,-0.96 2.715,-0.138 5.465,-0.242 8.155,0.145 3.976,0.57 7.915,1.629 11.614,3.193 4.357,1.844 8.415,4.41 12.238,7.194 3.747,2.73 7.047,6.036 10.39,9.249 4.836,4.649 8.721,10.302 13.956,14.497 2.149,1.721 4.353,3.181 7.063,4.3 3.869,1.598 12.25,2.75 12.25,2.75 l 3.507,0.877 c 1.822,0.303 3.474,0.721 4.936,1.237 l 0.084,0.025 c 1.336,0.478 2.508,1.05 3.507,1.705 -2.709,-8.943 -7.402,-17.469 -12.575,-25.089 -12.962,-19.098 -38.516,-32.07500015 -61.78,-32.23700015 z"
     fill="#9e7fba"
     id="path9" />
  <g
     fill="#682a8f"
     id="g17"
     transform="translate(-190.706,-69.974449)">
    <path
       d="m 229.362,85.505 c -6.936,5.106 -13.156,11.416 -18.256,18.892 -7.821,11.469 -13.499,25.489 -13.499,39.466 v 64.953 c -0.006,1.434 0.796,2.161 1.813,2.161 h 19.697 c -2.599,-1.275 -4.446,-2.973 -5.465,-5.02 -7.575,-15.226 16.652,-42.095 54.323,-62.718 1.613,-1.182 3.134,-2.425 3.087,-2.906 -0.06,-0.608 -2.498,0.384 -2.498,0.384 -17.973,7.123 -33.821,18.347 -48.328,30.506 0,0 -2.904,-13.034 -4.133,-19.457 -0.756,-3.961 -1.759,-7.896 -2.114,-11.914 -0.325,-3.7 0,-11.146 0,-11.146 0,0 0.176,-7.491 1.297,-11.146 1.174,-3.826 5.597,-11.038 5.597,-11.038 0,0 3.605,-5.071 6.427,-7.891 0.715,-0.717 1.441,-2.107 1.465,-3.171 0.019,-0.875 -0.553,-1.407 -0.756,-2.258 -0.265,-1.107 -0.532,-2.441 -0.493,-3.579 0.029,-0.872 0.211,-1.604 0.588,-2.391 0.273,-0.566 0.83,-1.245 1.248,-1.728 z"
       id="path11" />
    <path
       d="m 353.261,143.753 c -5.855,14.528 -25.642,34.297 -54.286,49.664 -16.566,8.887 -31.6,14.538 -44.305,17.558 h 96.838 c 1.176,0 1.79,-0.57 1.79,-2.126 -0.018,-19.404 -0.032,-42.413 -0.037,-65.096 z"
       id="path13" />
    <path
       d="m 330.753,142.3 c -10.502,-0.018 -31.691,7.381 -53.997,20.009 -32.777,18.552 -47.548,37.049 -41.867,40.487 7.57,4.581 31.884,2.497 65.851,-17.116 13.94,-8.048 40.204,-27.517 36.764,-40.355 -0.55,-2.051 -2.953,-3.018 -6.751,-3.026 z m -50.562,22.82 c 0,0 7.374,14.103 -4.036,22.771 -15.594,11.847 -27.095,-0.77 -27.095,-0.77 7.676,-8.164 18.502,-15.994 31.131,-22.002 z"
       id="path15" />
  </g>
  <path
     d="m 35.466,249.60655 c 1.712,0 3.014,-0.372 3.933,-1.098 0.91,-0.735 1.369,-1.782 1.369,-3.158 v -0.127 c 0,-1.292 -0.434,-2.305 -1.311,-3.066 -0.868,-0.752 -2.238,-1.123 -4.1,-1.123 H 25.003 v 8.563 h 10.463 v 0.008 z m -3.524,-17.599 c 1.712,0 3.014,-0.338 3.908,-0.997 0.893,-0.659 1.336,-1.681 1.336,-3.057 v -0.127 c 0,-1.284 -0.409,-2.272 -1.253,-2.964 -0.835,-0.684 -2.087,-1.022 -3.757,-1.022 h -7.181 v 8.166 h 6.947 z m -17.71,-18.537 h 20.457 c 2.505,0 4.659,0.363 6.438,1.073 1.779,0.709 3.19,1.241 4.367,2.424 0.802,0.929 1.795,1.731 2.388,3.327 0.451,1.241 0.693,3.15 0.693,4.746 v 0.363 c 0,2.702 -1.027,4.78 -2.179,6.444 -1.161,1.655 -2.822,1.875 -4.609,2.762 3.39,0.54 7.047,3.327 8.475,5.075 1.428,1.757 2.129,4.197 2.129,7.339 v 0.127 c 0,4.028 -1.311,7.17 -3.958,9.433 -2.639,2.255 -8.851,3.386 -13.636,3.386 H 14.223 v -46.498 h 0.008 z"
     id="path19" />
  <path
     d="m 56.75,213.47055 h 34.711 v 9.712 h -23.53 v 8.58 h 20.048 v 9.104 H 67.931 v 9.197 h 24.048 v 9.906 H 56.75 v -46.498 z"
     id="path21" />
  <path
     d="m 96.838,213.47055 h 11.974 v 36.651 h 20.917 v 9.847 H 96.838 Z"
     id="path23" />
  <path
     d="m 134.346,213.47055 h 11.966 v 36.651 h 20.917 v 9.847 h -32.882 v -46.498 z"
     id="path25" />
  <path
     d="M 13.901,168.74155 H 0 v -9.695 h 40.048 v 9.695 h -14.31 v 36.934 H 13.9 v -36.934 z"
     id="path27" />
  <path
     d="m 61.251,189.45755 -5.694,-15.941 -6.066,15.941 z m -9.998,-30.606 h 9.605 l 18.972,46.824 H 67.35 l -2.693,-6.862 H 46.298 l -2.85,6.862 H 31.909 Z"
     id="path29" />
  <path
     d="m 145.164,158.25955 c -3.24,0.104 -6.789,0.978 -9.511,2.161 -2.904,1.261 -5.288,2.851 -7.434,5.045 -2.148,2.192 -3.269,4.621 -4.468,7.567 -1.199,2.945 -1.525,6.071 -1.525,9.391 v 0.145 c 0,3.319 0.325,6.431 1.525,9.356 1.199,2.922 2.844,5.468 4.949,7.638 2.104,2.17 4.615,3.891 7.518,5.153 2.904,1.262 6.056,1.885 9.464,1.885 3.408,0 6.562,-0.623 9.464,-1.885 2.904,-1.262 5.433,-2.997 7.579,-5.188 2.146,-2.19 3.822,-4.754 5.021,-7.698 1.198,-2.944 1.453,-6.082 1.453,-9.403 v -0.133 c 0,-3.32 -0.255,-6.434 -1.453,-9.356 -1.199,-2.922 -2.857,-5.47 -4.961,-7.638 -2.104,-2.17 -4.603,-3.892 -7.506,-5.153 -2.904,-1.261 -6.066,-1.885 -9.476,-1.885 l -0.639,-0.001 z m 0.504,10.196 c 1.806,0 3.458,0.378 4.949,1.142 1.488,0.765 2.772,1.791 3.854,3.074 1.083,1.283 1.923,2.755 2.51,4.433 0.588,1.676 0.878,3.447 0.878,5.32 v 0.157 c 0,1.874 -0.29,3.644 -0.878,5.32 -0.586,1.676 -1.4,3.15 -2.438,4.408 -1.038,1.256 -2.306,2.25 -3.795,2.989 -1.489,0.74 -3.13,1.104 -4.936,1.104 -1.805,0 -3.46,-0.377 -4.949,-1.141 -1.489,-0.764 -2.759,-1.791 -3.82,-3.074 -1.058,-1.281 -1.887,-2.755 -2.473,-4.433 -0.586,-1.677 -0.877,-3.458 -0.877,-5.332 v -0.145 c 0,-1.875 0.277,-3.644 0.84,-5.32 0.564,-1.676 1.378,-3.15 2.439,-4.408 1.058,-1.256 2.328,-2.25 3.795,-2.989 1.467,-0.74 3.095,-1.105 4.901,-1.105 z"
     id="path31" />
  <path
     d="m 78.005,182.48555 c 0,-5.94 1.554,-12.58 5.619,-16.912 4.443,-4.735 11.568,-7.302 18.063,-7.302 12.709,0 18.576,8.792 18.576,8.792 l -9.035,6.522 c 0,0 -2.426,-2.755 -4.008,-3.602 -1.608,-0.861 -3.483,-1.529 -5.3,-1.358 -3.388,0.32 -6.984,1.797 -9.24,4.348 -2.115,2.393 -3.124,5.912 -2.989,9.104 0.18,4.278 1.819,8.985 5.027,11.822 1.783,1.576 4.825,1.97 6.862,1.97 3.024,0 4.665,-0.594 6.726,-1.63 1.394,-0.699 3.6,-2.989 3.6,-2.989 l 9.445,6.793 c 0,0 -7.081,8.425 -19.432,8.425 -5.43,0 -11.345,-1.299 -15.132,-4.501 -5.6,-4.735 -8.783,-8.597 -8.783,-19.483 z"
     id="path33" />
</svg>
