<svg height="400" viewBox="0 0 400 400" width="400" xmlns="http://www.w3.org/2000/svg"><g fill-rule="evenodd"><path d="m39.075 73.962-.88.879v11.585 11.586l.726.843.726.844 35.064.079 35.063.079v112.651 112.651l.88.879.879.879h13.276c8.935 0 13.474-.106 13.883-.325 1.547-.828 1.458 6.113 1.458-114.552v-112.19h34.392c36.74 0 35.941.033 36.745-1.522.649-1.254.654-22.052.006-23.603-.723-1.729 3.861-1.642-86.674-1.642h-84.665zm162.308 59.426c-15.736 2.558-25.244 12.76-25.222 27.063.021 13.383 7.736 22.446 25.626 30.104 8.621 3.691 12.411 5.925 15.443 9.104 5.601 5.871 4.424 14.257-2.493 17.774-6.393 3.25-14.886 1.376-26.213-5.783-5.106-3.227-5.427-3.097-9.446 3.813-4.361 7.498-4.298 7.807 2.494 12.282 25.931 17.083 61.097 4.044 59.533-22.074-.803-13.412-8.557-21.555-28.819-30.267-15.126-6.503-20.156-12.382-16.849-19.689 3.893-8.601 14.951-8.617 29.401-.043 4.604 2.731 5.139 2.486 9.849-4.521 4.353-6.476 4.298-7.173-.826-10.46-9.37-6.011-22.401-8.941-32.478-7.303m98.542-.116c-42.455 4.45-60.811 57.155-30.475 87.506 16.232 16.241 43.319 19.834 61.759 8.193 1.46-.921.789-1.403 6.349 4.563 7.787 8.356 7.827 8.376 10.806 5.627 12.089-11.156 11.73-9.316 3.487-17.87l-5.593-5.803 1.748-2.556c24.6-35.985-4.517-84.226-48.081-79.66m9.479 18.918c19.243 2.412 32.34 21.438 27.606 40.101-.748 2.95-3.486 9.213-4.027 9.213-.158 0-2.712-2.504-5.677-5.564-6.992-7.217-6.081-7.11-12.631-1.483-5.977 5.134-6.104 5.274-6.104 6.774 0 1.284-.559.604 8.665 10.537l1.897 2.044-1.145.482c-21.115 8.89-44.605-6.877-44.605-29.939 0-19.321 17.048-34.544 36.021-32.165" fill="#fbfbfb"/><path d="m-0 200v200h200 200l-.075-199.925-.075-199.925-199.925-.075-199.925-.075zm210.85-126.038.879.879v11.625 11.625l-.879.88-.879.879h-34.91-34.911v112.626 112.627l-.877.982-.877.983-12.582.089c-13.825.099-14.28.068-15.32-1.055l-.72-.776v-112.738-112.738h-34.882-34.883l-.882-.827-.883-.828-.144-11.077c-.149-11.537-.05-12.786 1.076-13.575.586-.41 9.867-.46 85.726-.46h85.069zm4.037 59.416c6.945 1.138 13.784 3.801 19.631 7.644 4.542 2.985 4.549 3.639.116 10.322-4.565 6.881-5.209 7.22-9.149 4.813-14.591-8.912-25.919-9.063-29.93-.4-3.282 7.089 2.238 13.596 16.475 19.422 19.811 8.107 28.457 17.197 29.08 30.571 1.276 27.423-36.25 39.86-61.808 20.484-4.507-3.416-4.513-3.524-.636-10.223 4.39-7.584 4.73-7.734 9.954-4.407 12.754 8.124 22.565 9.455 28.742 3.901 4.622-4.156 4.43-11.216-.436-16.064-3.071-3.06-7.082-5.374-15.422-8.899-17.895-7.563-26.126-17.723-25.473-31.444.848-17.813 17.965-29.143 38.856-25.72m97.827.005c37.431 5.32 56.653 47.845 35.734 79.054l-1.986 2.963 1.183 1.398c.651.769 2.493 2.683 4.093 4.255 8.265 8.119 8.239 7.49.597 14.579-7.398 6.86-6.39 6.948-14.036-1.215l-5.746-6.134-1.239.76c-24.402 14.969-58.901 4.56-71.751-21.649-18.181-37.083 12.489-79.792 53.151-74.011m-13.767 19.368c-24.598 5.44-33.901 35.578-16.633 53.883 8.454 8.962 21.387 12.212 33.348 8.381 1.546-.495 2.89-1.027 2.985-1.182.096-.154-2.117-2.731-4.917-5.726-6.984-7.467-6.989-6.85.105-13.019 7.321-6.367 6.607-6.424 13.832 1.111 2.799 2.917 5.17 5.305 5.27 5.305.618 0 3.526-6.947 4.218-10.075 5.003-22.611-15.771-43.64-38.208-38.678m62.79 115.97.084 4.363-94.52-.076-94.519-.076-.084-4.045c-.047-2.224-.03-4.187.037-4.361.084-.22 28.777-.293 94.52-.242l94.399.074z" fill="#2b232b"/><path d="m38.003 79.398c0 1.572.051 2.215.113 1.429s.062-2.071 0-2.857-.113-.143-.113 1.428m303.651 68.422c1.066 1.075 2.005 1.954 2.088 1.954s-.721-.879-1.787-1.954c-1.066-1.076-2.005-1.955-2.088-1.955s.722.879 1.787 1.955m-37.368 4.28c.703.063 1.853.063 2.556 0s.128-.115-1.278-.115-1.981.052-1.278.115m-106.091 15.268c.562.579 1.088 1.053 1.171 1.053s-.309-.474-.87-1.053-1.088-1.052-1.17-1.052c-.083 0 .308.473.869 1.052m139.619 15.188c0 .579.062.816.138.527.075-.29.075-.763 0-1.053-.076-.289-.138-.053-.138.526m-83.58 1.955c.001 1.158.056 1.595.121.971s.064-1.571-.003-2.105c-.066-.534-.119-.024-.118 1.134m72.834 11.278c.982.993 1.853 1.805 1.936 1.805.082 0-.653-.812-1.636-1.805-.982-.992-1.853-1.804-1.936-1.804-.082 0 .654.812 1.636 1.804m-16.993 8.516c0 .051.44.491.978.977l.977.883-.883-.977c-.824-.911-1.072-1.116-1.072-.883m-5.63 12.458c.791.062 2.009.061 2.707-.002s.051-.114-1.438-.113c-1.488.001-2.06.053-1.269.115m-35.422 3.989c1.149 1.158 2.156 2.105 2.239 2.105s-.79-.947-1.939-2.105-2.156-2.105-2.239-2.105.79.947 1.939 2.105m85.413 3.308c.982.993 1.853 1.805 1.936 1.805s-.653-.812-1.635-1.805c-.982-.992-1.854-1.804-1.936-1.804-.083 0 .653.812 1.635 1.804m-178.195-.507c0 .052.439.491.977.977l.977.884-.883-.978c-.823-.911-1.071-1.116-1.071-.883m56.842 2.462c-.731.744-1.261 1.353-1.178 1.353s.748-.609 1.478-1.353c.731-.744 1.261-1.353 1.178-1.353-.082 0-.748.609-1.478 1.353m102.556 5.658c0 .052.44.492.978.977l.977.884-.883-.978c-.824-.911-1.072-1.115-1.072-.883m-131.353 3.722c.289.076.763.076 1.052 0 .29-.075.053-.137-.526-.137s-.816.062-.526.137m136.466 1.748c.561.579 1.088 1.052 1.171 1.052.082 0-.309-.473-.87-1.052-.562-.579-1.088-1.053-1.171-1.053s.309.474.87 1.053m8.252 1.428-.884.978.978-.883c.911-.824 1.115-1.072.883-1.072-.052 0-.492.44-.977.977m-176.269 25.955c-.067.174-.084 2.137-.037 4.361l.084 4.045 94.519.076 94.52.076-.084-4.363-.083-4.363-94.399-.074c-65.743-.051-94.436.022-94.52.242m-54.143 62.617c3.609.048 9.428.048 12.932-.001 3.504-.048.551-.087-6.562-.087-7.112 0-9.979.04-6.37.088" fill="#9d2443"/></g></svg>