<?xml version="1.0" encoding="UTF-8" standalone="no"?>
<svg
   xmlns:dc="http://purl.org/dc/elements/1.1/"
   xmlns:cc="http://creativecommons.org/ns#"
   xmlns:rdf="http://www.w3.org/1999/02/22-rdf-syntax-ns#"
   xmlns:svg="http://www.w3.org/2000/svg"
   xmlns="http://www.w3.org/2000/svg"
   xmlns:sodipodi="http://sodipodi.sourceforge.net/DTD/sodipodi-0.dtd"
   xmlns:inkscape="http://www.inkscape.org/namespaces/inkscape"
   width="1951.7217"
   height="848.17957"
   viewBox="0 0 516.39304 224.41415"
   version="1.1"
   id="svg25110"
   inkscape:version="1.0.1 (3bc2e813f5, 2020-09-07)"
   sodipodi:docname="wawa_logo.svg">
  <defs
     id="defs25104">
    <clipPath
       id="clipPath24115"
       clipPathUnits="userSpaceOnUse">
      <path
         inkscape:connector-curvature="0"
         id="path24113"
         d="M 527.682,1540.8 H 344.708 v -79.517 h 182.974 z" />
    </clipPath>
    <clipPath
       id="clipPath24087"
       clipPathUnits="userSpaceOnUse">
      <path
         inkscape:connector-curvature="0"
         id="path24085"
         d="M 527.682,1540.8 H 344.708 v -79.517 h 182.974 z" />
    </clipPath>
  </defs>
  <sodipodi:namedview
     id="base"
     pagecolor="#ffffff"
     bordercolor="#666666"
     borderopacity="1.0"
     inkscape:pageopacity="0.0"
     inkscape:pageshadow="2"
     inkscape:zoom="3.2873543"
     inkscape:cx="921.62651"
     inkscape:cy="423.08966"
     inkscape:document-units="mm"
     inkscape:current-layer="layer1"
     showgrid="false"
     fit-margin-top="0"
     fit-margin-left="0"
     fit-margin-right="0"
     fit-margin-bottom="0"
     units="px"
     inkscape:window-width="1267"
     inkscape:window-height="1198"
     inkscape:window-x="1073"
     inkscape:window-y="18"
     inkscape:window-maximized="0"
     inkscape:document-rotation="0" />
  <metadata
     id="metadata25107">
    <rdf:RDF>
      <cc:Work
         rdf:about="">
        <dc:format>image/svg+xml</dc:format>
        <dc:type
           rdf:resource="http://purl.org/dc/dcmitype/StillImage" />
        <dc:title />
      </cc:Work>
    </rdf:RDF>
  </metadata>
  <g
     inkscape:label="Layer 1"
     inkscape:groupmode="layer"
     id="layer1"
     transform="translate(157.39025,-90.790118)">
    <g
       id="g25190"
       transform="matrix(8,0,0,8,-703.52708,-1423.0974)">
      <path
         d="m 98.783061,216.54707 c 0.331611,-0.55245 0.169686,-0.92922 -0.09172,-1.19521 -0.19932,-0.19861 -0.388409,-0.55492 -0.337256,-0.9017 l 0.929217,-6.33942 c 0.300567,-2.04576 0.327025,-3.66148 -0.803981,-4.68383 -0.706966,-0.6357 -1.768827,-1.09573 -3.774722,-1.10243 -0.988483,-0.002 -2.464505,0.31468 -3.535891,0.98037 -1.111956,0.68862 -2.643717,1.91805 -2.643717,3.38914 0,0.42474 0.422981,0.69074 0.903817,0.69074 0.78493,0 2.135011,-0.21943 2.456391,-0.85478 0.397934,-0.77894 0.691445,-1.2319 1.598789,-1.32927 1.079853,-0.1203 1.901472,0.66569 1.762831,1.53952 l -0.08326,0.55245 c -0.930275,0.56656 -2.662061,0.91052 -4.487686,1.42416 -1.862667,0.52247 -3.686528,1.20933 -4.141258,4.31624 -0.384881,2.63313 1.35008,4.21252 3.260019,4.21252 1.641828,0 3.006372,-0.56162 4.420658,-2.08597 0,0 0.109362,0.91122 0.484717,1.5053 0.638528,1.01035 3.700286,0.51576 4.08305,-0.11783 m -4.339167,-4.17301 c -0.3937,0.66322 -1.461911,1.74237 -2.415469,1.74237 -0.826205,0 -1.493308,-0.47801 -1.419225,-1.17122 0.09913,-0.95462 0.715433,-1.43792 1.462969,-1.80799 0.819856,-0.40887 1.900414,-0.93874 2.819753,-1.52999 l -0.448028,2.76683"
         style="fill:#ab1b2c;fill-opacity:1;fill-rule:nonzero;stroke:none;stroke-width:0.352778"
         id="path24091"
         inkscape:connector-curvature="0" />
      <path
         d="m 129.37665,216.54707 c 0.33443,-0.55245 0.17074,-0.92922 -0.0882,-1.19521 -0.20073,-0.19861 -0.38947,-0.55492 -0.33585,-0.9017 l 0.93063,-6.33942 c 0.2981,-2.04576 0.32208,-3.66148 -0.80857,-4.68383 -0.70238,-0.6357 -1.76953,-1.09573 -3.77578,-1.10243 -0.9839,-0.002 -2.45992,0.31468 -3.53518,0.98037 -1.1109,0.68862 -2.64302,1.91805 -2.64302,3.38914 0,0.42474 0.4251,0.69074 0.907,0.69074 0.78246,0 2.13254,-0.21943 2.45533,-0.85478 0.39758,-0.77894 0.68933,-1.2319 1.59738,-1.32927 1.08303,-0.1203 1.90182,0.66569 1.76248,1.53952 l -0.0811,0.55245 c -0.93345,0.56656 -2.66242,0.91052 -4.48804,1.42416 -1.86408,0.52247 -3.68618,1.20933 -4.14267,4.31624 -0.38347,2.63313 1.34973,4.21252 3.26037,4.21252 1.6443,0 3.00778,-0.56162 4.42031,-2.08597 0,0 0.11112,0.91122 0.48471,1.5053 0.63782,1.01035 3.70205,0.51576 4.08023,-0.11783 m -4.33811,-4.17301 c -0.39299,0.66322 -1.46015,1.74237 -2.4137,1.74237 -0.82691,0 -1.49155,-0.47801 -1.41958,-1.17122 0.10089,-0.95462 0.71332,-1.44251 1.46226,-1.80799 0.90594,-0.44838 1.90147,-0.93874 2.82117,-1.52999 l -0.45015,2.76683"
         style="fill:#ab1b2c;fill-opacity:1;fill-rule:nonzero;stroke:none;stroke-width:0.352778"
         id="path24095"
         inkscape:connector-curvature="0" />
      <path
         d="m 81.891709,199.3421 c 0.168275,0.55704 0.2032,11.35592 0.2032,11.35592 l 0.08184,-0.0159 c 0,0 0.188384,-0.35877 1.099609,-3.25085 0.829733,-2.6356 2.167114,-7.89481 2.246841,-8.0846 0.149225,-0.3489 3.726745,-1.12078 3.942997,0 0.103012,0.54151 -2.446866,7.84648 -3.994855,12.03783 -1.465792,3.95535 -1.878542,4.9336 -2.131836,5.3086 -0.250825,0.37218 -4.712405,1.12783 -4.999214,0 -0.192969,-0.76094 -0.505883,-9.16446 -0.505883,-9.16446 l -0.05574,-0.0162 c 0,0 -0.981075,3.30306 -1.784703,5.76792 -0.754591,2.30258 -1.093611,3.04694 -1.33985,3.41277 -0.214841,0.31397 -4.642202,1.12078 -4.983339,0 -0.122413,-0.40463 -0.447322,-5.02179 -0.78493,-9.39341 -0.3048,-3.93524 -0.635706,-7.67292 -0.618067,-7.95479 0.0254,-0.37959 4.643261,-1.12148 4.982986,0 0.180623,0.59373 0.183798,11.38344 0.183798,11.38344 l 0.09419,-0.0279 c 0,0 0.371828,-0.93663 1.235075,-3.60645 0.90417,-2.79294 1.439333,-4.9777 2.145242,-7.75194 0.09596,-0.37218 4.64573,-1.12113 4.982633,0"
         style="fill:#ab1b2c;fill-opacity:1;fill-rule:nonzero;stroke:none;stroke-width:0.352778"
         id="path24099"
         inkscape:connector-curvature="0" />
      <path
         d="m 112.09266,202.86776 c 0.12241,0.43886 0.51188,9.16869 0.51188,9.16869 l 0.0759,-0.0138 c 0,0 0.45543,-1.18393 1.03928,-3.34716 0.79728,-2.96616 1.36313,-5.55096 1.44992,-5.74992 0.29951,-0.69145 4.17512,-0.85725 3.93488,-0.0579 -0.31997,1.07315 -1.53846,4.69089 -3.20922,8.80604 -1.57409,3.87738 -1.9939,4.68101 -2.21227,5.01932 -0.33443,0.51506 -4.04318,0.94086 -4.318,0 -0.16616,-0.56903 -0.51188,-7.54662 -0.51188,-7.54662 h -0.0444 c 0,0 -0.57573,2.09479 -1.43898,4.34693 -0.83291,2.17487 -1.24037,2.90583 -1.43968,3.19969 -0.34185,0.50588 -4.04213,0.94086 -4.31977,0 -0.121,-0.42086 -0.35913,-3.94688 -0.63853,-7.32014 -0.27058,-3.27342 -0.58561,-6.40327 -0.53516,-6.50734 0.25682,-0.51576 4.01355,-0.92463 4.31482,0.009 0.13794,0.43003 0.266,9.18068 0.266,9.18068 l 0.0907,-0.0328 c 0,0 0.43956,-1.08197 1.12395,-3.38208 0.73872,-2.48744 1.41253,-5.56895 1.54199,-5.77286 0.33444,-0.51329 4.06083,-0.94544 4.31871,0"
         style="fill:#ab1b2c;fill-opacity:1;fill-rule:nonzero;stroke:none;stroke-width:0.352778"
         id="path24103"
         inkscape:connector-curvature="0" />
      <path
         d="m 132.53436,204.65423 c 0,0.45014 -0.32103,0.75318 -0.69885,0.75318 v -0.002 c -0.38841,0.002 -0.70203,-0.30057 -0.70203,-0.75071 0,-0.45014 0.31362,-0.75071 0.70203,-0.75071 0.37782,0 0.69885,0.30057 0.69885,0.75071 m 0.28187,0 c 0,-0.61842 -0.46355,-0.97825 -0.98072,-0.97825 -0.5207,0 -0.9839,0.35983 -0.9839,0.97825 0,0.61842 0.4632,0.97861 0.9839,0.97861 0.51717,0 0.98072,-0.36019 0.98072,-0.97861 z m -1.14441,0.0829 h 0.10654 l 0.24341,0.44274 h 0.2667 l -0.26917,-0.46108 c 0.14006,-0.01 0.25365,-0.0801 0.25365,-0.27411 0,-0.24059 -0.16086,-0.31821 -0.43215,-0.31821 h -0.3937 v 1.0534 h 0.22472 z m 0,-0.17815 v -0.25365 h 0.15804 c 0.0854,0 0.20214,0.007 0.20214,0.11607 0,0.11641 -0.0593,0.13758 -0.16051,0.13758 h -0.19967"
         style="fill:#ab1b2c;fill-opacity:1;fill-rule:nonzero;stroke:none;stroke-width:0.352778"
         id="path24107"
         inkscape:connector-curvature="0" />
      <path
         d="m 105.3098,197.24483 c -0.11606,0.043 -3.08116,0.77435 -3.08116,0.77435 -0.51294,0.10795 -0.9846,-0.13018 -0.9846,-0.13018 l 1.19732,-2.84198 c 0.52,-1.19485 0.13441,-1.83162 0.13441,-1.83162 l -1.44109,-3.35421 c -0.59197,-1.56033 -0.35525,0.94968 -0.35525,0.94968 l -0.20038,-0.5073 c -0.31997,-0.68015 -0.31256,0.18027 -0.30797,0.43745 0.007,0.2547 0.0811,1.25977 0.0811,1.25977 l -0.15063,-0.14852 c -0.443797,-0.5775 -0.285047,0.0691 -0.27658,0.7807 0.01446,1.11089 -0.307622,1.62807 -0.426861,1.8803 -0.05292,0.11042 -0.600781,1.38536 -0.600781,1.38536 l -1.276702,-2.29376 c -0.603603,-1.05093 -1.039989,-1.18286 -1.039989,-1.18286 l -5.206647,-2.94782 c -1.370189,-0.86571 -0.112184,0.90629 -0.112184,0.90629 -1.567391,-0.81492 0.475192,1.22626 0.475192,1.22626 -2.332214,-1.01706 1.152878,2.00765 1.152878,2.00765 -1.162403,-0.46425 0.09701,0.74754 0.748947,1.49543 0.297039,0.34149 0.494947,0.80292 0.494947,0.80292 l 0.570442,1.3776 c 0.396522,0.98107 1.003653,1.28658 1.003653,1.28658 l -2.310695,0.53587 c -0.454378,0.0434 -0.298097,0.0215 -1.139825,0.0818 -0.805039,0.0529 -2.251427,0.42087 -1.038225,0.45438 l 1.027642,0.0102 c 0,0 -0.453319,0.43709 0.728486,0.51647 l 0.839964,0.0483 c 0,0 0.128764,0.32879 1.068917,0.38453 0,0 2.10185,0.0501 2.619375,0.0265 0.666397,-0.0317 1.734961,-0.20214 2.101497,-0.30303 1.184979,-0.34855 2.833509,-1.28411 2.833509,-1.28411 0,0 0.67487,-0.30304 0.81492,-0.3556 0.16263,-0.0624 1.96673,-0.68263 2.16288,-0.72602 0.19614,-0.0409 0.65264,-0.10795 0.90417,-0.0677 0,0 -0.58067,-0.16087 -0.4438,-0.58173 0.0699,-0.22119 0.45191,-0.37254 0.52458,-0.0508 0,0 0.002,0.0938 0.21485,0.11853 0,0 0.47589,0.024 0.39652,0.43004 l 0.43145,-0.0981 c 0,-3.5e-4 0.39475,-0.0102 0.45402,-0.0173 0.12771,-0.007 0.43815,-0.0603 0.61771,-0.14217 0.0353,-0.0166 0.35208,-0.17957 -0.10865,-0.21625 l -0.34008,-0.0215 c 0,0 -0.33196,-0.0194 -0.58773,-0.21873 -0.13829,-0.0963 -0.5715,-0.40393 -1.47884,-0.1397 -0.28011,0.0847 -0.60925,0.25259 -0.69074,0.28399"
         style="fill:#ab1b2c;fill-opacity:1;fill-rule:nonzero;stroke:none;stroke-width:0.352778"
         id="path24119"
         inkscape:connector-curvature="0" />
    </g>
  </g>
</svg>
