<?xml version="1.0" encoding="UTF-8" standalone="no"?>
<svg
   xmlns:dc="http://purl.org/dc/elements/1.1/"
   xmlns:cc="http://creativecommons.org/ns#"
   xmlns:rdf="http://www.w3.org/1999/02/22-rdf-syntax-ns#"
   xmlns:svg="http://www.w3.org/2000/svg"
   xmlns="http://www.w3.org/2000/svg"
   xmlns:sodipodi="http://sodipodi.sourceforge.net/DTD/sodipodi-0.dtd"
   xmlns:inkscape="http://www.inkscape.org/namespaces/inkscape"
   enable-background="new 0 0 560 400"
   viewBox="0 0 300 300"
   version="1.1"
   id="svg58"
   sodipodi:docname="whole_foods_logo.svg"
   width="300"
   height="300"
   inkscape:version="1.0.1 (3bc2e813f5, 2020-09-07)">
  <g
     clip-rule="evenodd"
     fill-rule="evenodd"
     id="g56"
     transform="translate(-130,-50)">
    <path
       d="m 430,200 c 0,82.8 -67.2,150 -150,150 -82.8,0 -150,-67.2 -150,-150 0,-82.8 67.2,-150 150,-150 82.8,0 150,67.2 150,150"
       fill="#146642"
       id="path52" />
    <path
       d="m 267.3,279.8 c -0.5,0 -0.9,0.4 -0.9,0.9 v 4.2 c 0,0.8 -1.6,0.7 -2.1,0.7 -0.7,0 -1.1,-0.2 -1.1,-1 v -16 c 0,-0.4 0.4,-0.7 0.8,-0.7 h 9.2 c 3.6,0 6.2,2.3 6.2,6 0,3.2 -2.3,4.2 -3.2,5 -0.5,0.4 -0.6,0.7 -0.3,1.1 0.1,0.2 2.6,3.8 2.9,4.3 0.5,0.8 0.1,1.3 -1.6,1.3 -0.9,0 -1.6,-0.2 -2,-0.8 l -2.7,-4.2 c -0.3,-0.5 -0.8,-0.8 -1.4,-0.8 z m -28.1,2.2 c -0.5,0 -0.9,0.3 -1.1,1 l -1,1.9 c -0.2,0.6 -1.3,0.6 -1.8,0.6 -0.4,0 -1.9,0 -1.5,-1 l 7.6,-15.9 c 0.2,-0.5 0.6,-0.8 1.3,-0.8 0.7,0 1.1,0.2 1.4,0.8 l 7.5,16 c 0.4,0.8 -1.2,1 -1.7,1 -0.5,0 -1.3,-0.1 -1.6,-0.7 l -1.1,-2.3 c -0.1,-0.3 -0.5,-0.5 -0.8,-0.6 z m -24.5,-6.6 5.1,-6.9 c 0.3,-0.5 0.8,-0.7 1.3,-0.7 0.6,0 1.1,0.1 1.3,1.2 l 1.8,15.6 c 0.1,0.9 -1.3,0.9 -1.9,0.9 -0.4,0 -1.3,-0.2 -1.3,-0.8 l -1.2,-9.3 c -0.1,-0.4 -0.2,-0.6 -0.5,-0.6 -0.2,0 -0.4,0.1 -0.6,0.3 l -4.2,5.4 c -0.2,0.3 -0.5,0.5 -0.8,0.5 -0.5,0 -0.7,-0.1 -1,-0.5 l -3.9,-5.2 c -0.1,-0.2 -0.3,-0.3 -0.6,-0.3 -0.3,0 -0.5,0.3 -0.5,0.6 l -1.2,9 c -0.1,0.7 -1,0.9 -1.8,0.9 -0.5,0 -1.4,-0.2 -1.4,-0.9 l 1.8,-15.2 c 0.2,-0.9 0.4,-1.4 1.7,-1.4 0.3,0 0.9,0.1 1.3,0.7 l 4.8,6.7 c 0.3,0.4 0.6,0.7 0.9,0.7 0.3,0 0.6,-0.3 0.9,-0.7 z m 79,-7.5 c 0.9,0 1.5,0.2 1.5,1 v 4.7 c 0,0.8 0.3,1.1 0.8,1.1 1.4,0 1.7,-0.3 2.2,-0.7 0.6,-0.5 6.3,-5.8 6.3,-5.8 0.7,-0.6 1.4,-0.6 2.1,0.1 0.6,0.5 0.8,1.2 0.2,1.8 -0.4,0.4 -5.5,5 -5.5,5 -0.6,0.5 -0.5,1 0,1.5 0,0 6.1,6.7 6.7,7.4 1,1 0.1,1.5 -1.3,1.5 -1.5,0 -1.9,-0.2 -2.3,-0.7 l -5.6,-6 c -0.8,-0.7 -1.5,-0.8 -2.6,-0.8 -0.6,0 -1,0.6 -1,1.3 v 5.1 c 0,1 -0.8,1 -1.7,1 -1,0 -1.5,-0.3 -1.5,-1 v -15.5 c 0,-0.9 0.5,-1 1.7,-1 z m 63.4,0 c 0.6,0 1,0.3 1,1.5 0,1 -0.3,1.6 -1,1.6 H 353 c -0.6,0 -1,0.2 -1,0.9 v 12.7 c 0,0.9 -0.6,1 -1.6,1 -1,0 -1.6,-0.1 -1.6,-1 v -12.7 c 0,-0.6 -0.2,-0.9 -1,-0.9 h -4.3 c -0.7,0 -0.9,-0.7 -0.9,-1.2 0,-0.6 -0.1,-1.8 0.9,-1.8 h 13.6 z m -24.7,17.5 h -13.3 c -0.8,0 -1.1,-0.4 -1.1,-1.3 v -15 c 0,-0.7 0.3,-1.2 1.1,-1.2 h 13.4 c 0.8,0 0.9,0.5 0.9,1.5 0,0.9 -0.1,1.6 -1,1.6 h -10.5 c -0.4,0 -0.7,0.3 -0.7,0.8 v 2.4 c 0,0.5 0.4,0.8 0.8,0.8 h 6 c 0.7,0 0.9,0.6 0.9,1.6 0,0.8 -0.2,1.5 -0.8,1.5 h -6 c -0.5,0 -0.9,0.3 -0.9,0.9 v 2.6 c 0,0.6 0.3,0.9 0.8,0.9 h 10.4 c 0.7,0 0.9,0.4 0.9,1.6 0,0.6 -0.2,1.3 -0.9,1.3 z m -91.7,-6.3 h 4.2 c 0.3,0 0.6,-0.3 0.4,-0.6 -0.7,-1.5 -1.4,-2.9 -2.1,-4.4 -0.2,-0.4 -0.7,-0.4 -0.9,0 -0.2,0.5 -2,4.1 -2.1,4.3 -0.1,0.4 0.1,0.7 0.5,0.7 z m 32.2,-8.2 h -5.4 c -0.6,0 -1.1,0.2 -1.1,0.9 v 3.9 c 0,0.6 0.6,1 1.1,1 h 5.4 c 1.8,0 3.3,-0.9 3.3,-2.9 0,-1.9 -1.5,-2.9 -3.3,-2.9 z m 114.6,-42.6 c 2.5,2.5 3.9,6.2 3.9,9.9 0,8.4 -6.3,14 -15.9,14 -2.7,0 -5.6,-0.4 -7.6,-1 -1,-0.3 -1.2,-0.4 -1.6,-0.4 -0.6,0 -0.9,0.1 -1.6,0.7 -0.7,0.5 -1,0.7 -1.7,0.7 -1.2,0 -1.8,-0.7 -2.2,-2.4 l -1.8,-7.3 c -0.1,-0.4 -0.2,-1.1 -0.2,-1.5 0,-1.2 1,-2.2 2.2,-2.2 h 0.1 c 0.7,0 1.4,0.4 1.8,1 l 1,1.4 c 2.5,3.6 6.6,5.8 10.8,5.8 4.7,0 7.9,-2.6 7.9,-6.5 0,-2 -0.8,-3.7 -2.4,-5.5 -1.6,-1.7 -3.5,-3.3 -7.7,-6.2 -6.9,-4.8 -7.5,-5.3 -9.8,-7.9 -1.8,-2.1 -2.8,-4.7 -2.8,-7.6 0,-7.1 5.4,-11.7 13.4,-11.7 2.1,0 4.2,0.2 6.3,0.7 0.6,0.2 1.2,0.3 1.8,0.4 0.3,0.1 0.7,0.1 1,0.1 0.5,0 1,-0.2 1.7,-0.7 0.7,-0.5 1,-0.6 1.5,-0.6 1.1,0 1.8,0.7 2.1,2 l 1.7,7.9 c 0.1,0.3 0.1,0.8 0.1,1 0,1 -0.9,1.7 -2.1,1.7 -0.8,0 -1.3,-0.3 -1.9,-1.2 -1.6,-2.5 -1.9,-2.8 -3.5,-3.9 -2,-1.5 -4.5,-2.3 -6.8,-2.3 -3.4,0 -5.5,1.9 -5.5,4.9 0,1.1 0.2,2.2 0.8,3 0.7,1.1 1.9,2.2 3.3,3.3 0.9,0.6 2,1.5 3.6,2.6 5.9,4 7.8,5.4 10.1,7.8 z M 286.6,201.6 c -11.9,0 -20.3,6.6 -23,17.5 -0.2,1.2 -1.3,1.3 -1.6,0 -2.6,-10.9 -11.1,-17.6 -23.1,-17.6 -14.6,0 -23.9,9.9 -23.9,25.4 0,15.2 9.4,25.1 23.8,25.1 12,0 20.4,-6.6 23.2,-17.4 0,0 0,-0.1 0.1,-0.1 0.3,-1.3 1.3,-1.2 1.6,0 0,0.1 0,0.2 0.1,0.2 2.7,10.7 11.1,17.3 22.8,17.3 14.8,0 24.1,-10 24.1,-25.5 -0.1,-15.1 -9.5,-24.9 -24.1,-24.9 z m 26.2,5.2 c -1,0 -1.7,-0.9 -1.7,-2 0,-1.6 1.1,-1.8 3.2,-2.1 2.1,-0.3 8.1,-1.1 17.1,-1.1 9.1,0 14.7,2 19.2,6.5 4.3,4.3 6.6,10.9 6.6,18.8 0,8.8 -3,16.1 -8.4,20.4 -4.2,3.4 -9.5,4.9 -17.4,4.9 -9.1,0 -15,-0.8 -17.1,-1.1 -2.1,-0.3 -3.2,-0.5 -3.2,-2.1 0,-1.1 0.7,-2 1.7,-2 h 1.5 c 0.5,0 1,-0.4 1.2,-1 0.1,-0.5 0.2,-1 0.2,-2.9 v -32.4 c 0,-1.9 -0.1,-2.3 -0.2,-2.9 -0.2,-0.6 -0.7,-0.9 -1.2,-0.9 z M 212,202.6 c 1.5,0 2.3,0.5 2.6,1.8 l 1,5.1 c 0.4,1.9 -0.3,2.9 -1.6,2.9 -0.7,0 -1.4,-0.2 -1.9,-1.1 -0.1,-0.1 -0.4,-0.7 -0.7,-1.6 -0.7,-1.9 -2.2,-2.1 -5.6,-2.1 h -9.3 c -4,0 -4.4,0.5 -4.4,4.4 v 8.6 c 0,1.6 0.2,2.3 0.7,2.6 0.3,0.2 0.9,0.3 3,0.3 h 6 c 3.1,0 3.5,-0.2 3.7,-1.7 l 0.1,-0.5 c 0.2,-1.2 0.9,-1.8 2,-1.8 1.5,0 2,0.9 2,3.4 v 6.1 c 0,2.5 -0.5,3.4 -2,3.4 -1.1,0 -1.7,-0.7 -2,-1.9 l -0.1,-0.5 c -0.2,-1.5 -0.7,-1.7 -3.7,-1.7 h -6 c -2.1,0 -2.6,0 -3,0.3 -0.4,0.3 -0.7,1 -0.7,2.6 v 11.9 c 0,2 0,2.3 0.2,2.8 0.3,0.6 0.9,0.9 1.6,0.9 h 1.6 c 1.1,0 1.9,0.9 1.9,2 0,1.6 -0.9,2.1 -3.6,2.1 h -13.4 c -2.5,0 -3.4,-0.5 -3.4,-2.1 0,-1.1 0.9,-2 1.9,-2 h 1.5 c 0.5,0 1,-0.4 1.2,-0.9 0.1,-0.5 0.2,-0.9 0.2,-2.8 v -32.5 c 0,-1.9 -0.1,-2.3 -0.3,-2.8 -0.2,-0.6 -0.7,-1.1 -1.2,-1.1 H 179 c -1,0 -1.9,-0.9 -1.9,-2 0,-1.6 0.9,-2.1 3.3,-2.1 z M 332.1,247 c 8.9,0.5 14.1,-7.4 14.1,-20.2 0,-12.8 -5.1,-20.3 -13.8,-20.3 0,0 -1.7,0.1 -2.5,0.2 -3.1,0.5 -4.1,1.4 -4.1,5.2 v 30.5 c 0.1,4.1 2.7,4.3 6.3,4.6 z m -45.4,0 c -8.2,0 -13.1,-7.5 -13.1,-19.8 0,-12.6 4.9,-20.3 12.9,-20.3 8.1,0 13.2,7.8 13.2,20.1 0,12.2 -5,20 -13,20 z m -47.7,0 c -8.2,0 -13.1,-7.5 -13.1,-19.8 0,-12.6 4.9,-20.3 12.9,-20.3 8.1,0 13.2,7.8 13.2,20.1 0,12.2 -5,20 -13,20 z m 62.9,-98.5 c -3,-1.1 -2.5,-4.1 1.4,-4.5 3.2,-0.4 6.4,0.7 9.8,3.3 6,4.4 8.9,11.4 8.9,20.7 0,16.3 -9.8,26.7 -25.2,26.7 -15,0 -24.8,-10.4 -24.8,-26.3 0,-10.2 3.8,-18.1 10.5,-22.5 2.8,-2.1 7.5,-4.5 12.1,-6 1,-0.3 0.9,-2 -0.7,-1.7 -2,0.4 -5.7,0.7 -8.8,-0.5 -6.9,-2.7 -8.9,-7.6 -16.9,-4.1 -2.4,1 -4,-0.4 -3.3,-3 2.4,-9 11.2,-18.2 20.9,-15.4 8.2,2.4 7.7,9.2 13.6,11.3 2.2,0.8 2,2.9 0.1,3.3 -3.2,0.6 -7.4,-1.7 -10.6,-4.6 -3.7,-3.4 -9.8,-3.2 -12.8,-1 -1.3,1 -0.6,1.9 0.6,1.7 2.7,-0.6 7.4,-0.7 11,3.3 3.5,3.9 10.1,7.5 15.9,3.7 1.6,-1 2.6,-3.2 4.2,-2.7 1.7,0.5 1.8,3 -0.5,5.9 -5.4,6.9 -10.9,6.1 -16.7,11.9 -5.9,5.8 -7.1,12.3 -7.1,20.7 0,12.9 5.1,20.7 13.7,20.7 8.4,0 13.6,-8.1 13.6,-20.9 -0.2,-10.8 -2.7,-17.6 -8.9,-20 z m -74.8,0.3 c -1.3,0.2 -2,1 -2.8,3.6 l -11.6,37.3 c -1,3.6 -2,4.6 -4.2,4.6 -2.2,0 -3.3,-0.9 -4.1,-3.6 l -6.2,-18.5 c -0.2,-0.6 -0.8,-0.6 -1,0 -0.2,0.6 -6.6,18.5 -6.6,18.5 -0.7,1.7 -0.9,2.3 -1.5,2.8 -0.7,0.5 -1.6,0.8 -2.5,0.8 -2.1,0 -3.1,-0.9 -4.2,-3.6 l -14.3,-38.3 c -1.1,-3 -1.4,-3.3 -3.8,-3.9 -1.6,-0.3 -2,-0.8 -2,-2 0,-1.2 0.8,-1.9 2.4,-1.9 h 15 c 1.7,0 2.4,0.7 2.4,2 0,1.2 -0.7,1.7 -2.6,1.9 -1.6,0.1 -2.3,0.7 -2.3,1.8 0,0.5 0.1,1 0.3,1.6 l 0.6,1.7 c 0,0 8,22.8 9.3,26.4 0.2,0.6 0.9,0.6 1.1,-0.1 1.8,-5.2 3.6,-10.4 5.4,-15.7 0.4,-1.3 0.6,-2.6 0.1,-4.1 -0.2,-0.5 -2.6,-7.8 -2.6,-7.8 -0.3,-0.8 -0.4,-1.4 -0.6,-1.7 -0.4,-1.1 -1,-1.4 -2.7,-1.9 -1.5,-0.4 -2.1,-0.9 -2.1,-1.9 0,-1.4 0.8,-2.2 2.5,-2.2 h 14.3 c 1.7,0 2.5,0.7 2.5,2 0,1.2 -0.7,1.7 -2.4,2 -1.9,0.2 -2.5,0.7 -2.5,2 0,0.7 0.1,1.3 0.7,3.1 0,0 7,22.3 8.2,25.8 0.2,0.7 0.8,0.5 1,-0.1 1.1,-3.6 8.1,-27 8.1,-27 0.2,-0.7 0.3,-1.3 0.3,-1.7 0,-1.1 -0.8,-1.7 -2.5,-1.9 -1.6,-0.1 -2.3,-0.9 -2.3,-2 0,-1.5 0.8,-2 2.8,-2 h 25.2 c 2.4,0 3.2,0.5 3.2,2.1 0,1.2 -0.8,2.1 -1.8,2.1 h -1.4 c -0.6,0 -1.1,0.4 -1.4,0.9 -0.1,0.5 -0.2,1 -0.2,2.9 v 9.4 c 0,3.4 0.3,3.6 3,3.6 h 9.9 c 1.5,0 2.2,-0.2 2.6,-0.7 0.3,-0.4 0.3,-0.7 0.3,-3.4 v -8.9 c 0,-1.9 0,-2.3 -0.2,-2.9 -0.3,-0.6 -0.8,-0.9 -1.3,-0.9 h -1.4 c -1.1,0 -2,-0.9 -2,-2.1 0,-1.6 0.9,-2.1 3.4,-2.1 h 13.2 c 2.5,0 3.4,0.5 3.4,2.1 0,1.2 -0.9,2.1 -1.9,2.1 h -1.5 c -0.5,0 -1.1,0.4 -1.2,0.9 -0.2,0.5 -0.3,1 -0.3,2.9 v 32.7 c 0,1.9 0.1,2.3 0.3,2.9 0.2,0.5 0.7,0.9 1.2,0.9 h 1.5 c 1.1,0 1.9,1 1.9,2 0,1.6 -0.8,2.1 -3.4,2.1 h -13.2 c -2.5,0 -3.3,-0.5 -3.3,-2.1 0,-1.1 0.9,-2 1.9,-2 h 1.4 c 0.5,0 1.1,-0.4 1.3,-0.9 0.2,-0.6 0.2,-1 0.2,-2.9 v -10.6 c 0,-2.7 0,-3 -0.3,-3.4 -0.4,-0.4 -1.1,-0.7 -2.6,-0.7 h -9.9 c -2.7,0 -3,0.3 -3,3.6 v 11.1 c 0,1.9 0.1,2.3 0.2,2.9 0.3,0.5 0.8,0.9 1.4,0.9 h 1.4 c 1,0 1.8,1 1.8,2.1 0,1.5 -0.8,2 -3.1,2 h -13.3 c -2.5,0 -3.3,-0.5 -3.3,-2.1 0,-1.1 0.9,-2 1.9,-2 h 1.4 c 0.5,0 1.1,-0.4 1.2,-0.9 0.2,-0.6 0.2,-1 0.2,-2.9 v -32.7 c 0.1,-3.9 -1.7,-4.2 -3,-4 z m 165.3,-4.1 c 1.5,0 2.3,0.5 2.6,1.8 l 1,5.1 c 0.4,1.9 -0.3,2.9 -1.6,2.9 -0.7,0 -1.4,-0.2 -1.9,-1.1 -0.1,-0.1 -0.4,-0.7 -0.7,-1.6 -0.7,-1.9 -2.2,-2.1 -5.6,-2.1 h -6.9 c -4,0 -4.4,0.5 -4.4,4.4 v 8.6 c 0,1.6 0.2,2.3 0.7,2.6 0.3,0.2 0.9,0.3 3,0.3 h 3.4 c 3.1,0 3.5,-0.2 3.7,-1.7 l 0.1,-0.5 c 0.2,-1.2 0.9,-1.8 2,-1.8 1.5,0 2,0.9 2,3.4 v 6.1 c 0,2.5 -0.5,3.4 -2,3.4 -1.1,0 -1.7,-0.7 -2,-1.9 l -0.1,-0.5 c -0.2,-1.5 -0.7,-1.7 -3.7,-1.7 h -3.4 c -2.1,0 -2.6,0 -3,0.3 -0.4,0.3 -0.7,1 -0.7,2.6 v 9.2 c 0,3.9 0.2,4.7 1.4,5.1 0.9,0.3 1.9,0.5 4.3,0.5 h 7.2 c 2.6,0 4.4,-0.8 5.3,-2.7 0.4,-0.9 0.5,-1.2 0.6,-1.3 0.5,-1 1.3,-1.4 2,-1.4 1.3,0 2,1 1.6,2.9 l -1.1,5.7 c -0.3,1.3 -1.1,1.8 -2.6,1.8 h -1.9 -28.5 c -2.5,0 -3.3,-0.5 -3.3,-2.1 0,-1.1 0.8,-2 1.8,-2 h 1.5 c 0.5,0 1,-0.4 1.2,-0.9 0.2,-0.6 0.3,-1 0.3,-2.9 v -32.5 c 0,-1.9 -0.1,-2.3 -0.3,-2.9 -0.1,-0.6 -0.7,-1.1 -1.2,-1.1 h -1.5 c -1,0 -1.9,-0.9 -1.9,-2 0,-1.6 0.9,-2.1 3.3,-2.1 z m -52.8,0 c 2.6,0 3.5,0.5 3.5,2.1 v 0.1 c 0,1.1 -0.9,1.9 -1.9,2 h -1.6 c -0.7,0 -1.3,0.4 -1.5,1 -0.2,0.5 -0.2,0.9 -0.2,2.8 v 30.6 c 0,3.2 0.1,3.9 1,4.4 0.7,0.5 1.9,0.6 4.8,0.6 h 4.1 c 2.6,0 4.4,-0.8 5.3,-2.7 0.4,-0.9 0.5,-1.2 0.6,-1.3 0.5,-1 1.3,-1.4 2,-1.4 1.3,0 2,1 1.6,2.9 l -1.1,5.7 c -0.3,1.3 -1.1,1.8 -2.6,1.8 h -27.4 c -2.4,0 -3.2,-0.5 -3.2,-2.1 0,-1.1 0.8,-2 1.8,-2 h 1.4 c 0.5,0 1.1,-0.4 1.2,-0.9 0.2,-0.5 0.3,-0.9 0.3,-2.7 v -32.9 c 0,-2 -0.1,-2.3 -0.3,-2.8 -0.1,-0.6 -0.7,-1 -1.2,-1 h -1.4 c -1.1,0 -2,-0.9 -2,-2 0,-1.6 0.9,-2.1 3.4,-2.1 h 13.4 z"
       fill="#fffffe"
       id="path54" />
  </g>
</svg>
